<?xml version="1.0" encoding="UTF-8"?>
<svg width="258px" height="104px" viewBox="0 0 258 104" version="1.1" xmlns="http://www.w3.org/2000/svg" xmlns:xlink="http://www.w3.org/1999/xlink">
    <!-- Generator: Sketch 42 (36781) - http://www.bohemiancoding.com/sketch -->
    <title>Group 4</title>
    <desc>Created with Sketch.</desc>
    <defs></defs>
    <g id="Page-1" stroke="none" stroke-width="1" fill="none" fill-rule="evenodd">
        <g id="Desktop-HD-Copy-9" transform="translate(-220.000000, -3310.000000)" fill-rule="nonzero" fill="#FFFFFF">
            <g id="Group-4" transform="translate(220.000000, 3310.000000)">
                <path d="M63.6796875,17.243426 L69.4389661,17.243426 C70.1668406,17.243426 70.9038026,17.3202569 71.649874,17.4739209 C72.3959454,17.627585 73.0646701,17.8897138 73.6560682,18.2603153 C74.2474663,18.6309168 74.7296759,19.1325772 75.1027116,19.7653115 C75.4757473,20.3980458 75.6622624,21.1934712 75.6622624,22.1516117 C75.6622624,23.1639866 75.3529203,24.0452818 74.734227,24.7955239 C74.1155336,25.545766 73.2875887,26.0383874 72.2503675,26.273403 L72.2503675,26.3276371 C73.5059511,26.4722621 74.5477059,26.9558446 75.3756632,27.7783992 C76.2036205,28.6009538 76.617593,29.7172611 76.617593,31.1273546 C76.617593,31.922792 76.4492745,32.6504255 76.1126325,33.310277 C75.7759905,33.9701285 75.29833,34.5305419 74.6796367,34.991534 C74.0609433,35.4525261 73.3057848,35.8095637 72.4141384,36.0626574 C71.5224921,36.3157511 70.5216796,36.4422961 69.4116709,36.4422961 L63.6796875,36.4422961 L63.6796875,17.243426 Z M65.644939,25.6497109 L69.602737,25.6497109 C70.0758555,25.6497109 70.553516,25.5954774 71.0357329,25.4870086 C71.5179498,25.3785399 71.9592171,25.1932419 72.3595481,24.9311091 C72.7598791,24.6689764 73.0828686,24.3209777 73.3285263,23.8871028 C73.5741839,23.4532279 73.6970109,22.9199312 73.6970109,22.287197 C73.6970109,21.6725408 73.5741839,21.1528026 73.3285263,20.7279667 C73.0828686,20.3031308 72.7507808,19.9551322 72.332253,19.6839603 C71.9137251,19.4127885 71.4224171,19.2184516 70.8583144,19.1009438 C70.2942116,18.983436 69.6937241,18.924683 69.0568339,18.924683 L65.644939,18.924683 L65.644939,25.6497109 Z M65.644939,34.7610391 L69.3024903,34.7610391 C70.012168,34.7610391 70.689991,34.6932471 71.3359797,34.5576612 C71.9819683,34.4220753 72.5460626,34.2051411 73.0282795,33.9068521 C73.5104964,33.608563 73.897174,33.2198892 74.1883238,32.740819 C74.4794736,32.2617488 74.6250463,31.687777 74.6250463,31.0188864 C74.6250463,29.7534179 74.1928773,28.8088501 73.3285263,28.1851549 C72.4641752,27.5614597 71.2404545,27.2496168 69.6573274,27.2496168 L65.644939,27.2496168 L65.644939,34.7610391 Z M83.0046602,34.706805 L93.3495255,34.706805 L93.3495255,36.4422961 L81.0394087,36.4422961 L81.0394087,17.243426 L93.0219836,17.243426 L93.0219836,18.9789171 L83.0046602,18.9789171 L83.0046602,25.5954768 L92.3668998,25.5954768 L92.3668998,27.3038509 L83.0046602,27.3038509 L83.0046602,34.706805 Z M106.560383,20.3347695 C106.141855,19.7562696 105.605055,19.2907649 104.949968,18.9382415 C104.294881,18.5857181 103.503329,18.4094591 102.575289,18.4094591 C102.102171,18.4094591 101.619961,18.4817705 101.128646,18.6263955 C100.637331,18.7710204 100.191514,18.9924741 99.7911831,19.2907631 C99.3908521,19.5890522 99.0678626,19.9641676 98.822205,20.4161206 C98.5765473,20.8680737 98.4537203,21.4013703 98.4537203,22.0160265 C98.4537203,22.6306826 98.5719982,23.1368625 98.8085574,23.5345812 C99.0451166,23.9322999 99.3590078,24.2712596 99.7502404,24.5514705 C100.141473,24.8316814 100.587289,25.062174 101.087703,25.2429552 C101.588117,25.4237364 102.111269,25.6045149 102.657175,25.7852962 C103.330459,26.0022336 104.008282,26.2372457 104.690664,26.4903394 C105.373047,26.7434331 105.987182,27.0733539 106.533087,27.4801117 C107.078993,27.8868694 107.52481,28.4020882 107.87055,29.0257834 C108.216291,29.6494786 108.389158,30.4403846 108.389158,31.3985251 C108.389158,32.3566656 108.202643,33.1837273 107.829608,33.879735 C107.456572,34.5757427 106.974362,35.1497145 106.382964,35.6016676 C105.791566,36.0536206 105.118292,36.3880609 104.363122,36.6049984 C103.607952,36.8219358 102.848245,36.9304029 102.083976,36.9304029 C101.501677,36.9304029 100.919386,36.8716499 100.337086,36.7541421 C99.7547867,36.6366343 99.1997906,36.4603753 98.6720816,36.2253597 C98.1443725,35.9903441 97.6530646,35.6920595 97.198143,35.3304971 C96.7432214,34.9689346 96.3428964,34.5531441 95.997156,34.0831129 L97.6894559,32.8357287 C98.1079837,33.5226973 98.6948238,34.0966691 99.4499936,34.5576612 C100.205163,35.0186533 101.092247,35.2491459 102.111272,35.2491459 C102.602587,35.2491459 103.102993,35.1723151 103.612505,35.018651 C104.122018,34.864987 104.581482,34.6299749 104.990911,34.3136078 C105.40034,33.9972406 105.736977,33.6085668 106.000832,33.1475747 C106.264686,32.6865826 106.396612,32.1487665 106.396612,31.5341104 C106.396612,30.8652198 106.264686,30.3093259 106.000832,29.8664119 C105.736977,29.4234979 105.386693,29.0529019 104.949968,28.7546129 C104.513243,28.4563239 104.012837,28.2077535 103.448734,28.0088941 C102.884632,27.8100348 102.293242,27.6111784 101.674549,27.412319 C101.037659,27.2134597 100.409876,26.9874866 99.7911831,26.7343928 C99.1724897,26.4812991 98.6174937,26.1513783 98.1261784,25.7446206 C97.6348631,25.3378628 97.2390872,24.8362025 96.938839,24.2396244 C96.6385907,23.6430464 96.4884689,22.9108934 96.4884689,22.0431435 C96.4884689,21.1211593 96.6749839,20.3257338 97.0480196,19.6568433 C97.4210553,18.9879528 97.9078141,18.4365783 98.5083106,18.0027034 C99.1088071,17.5688284 99.7729827,17.252466 100.500857,17.0536067 C101.228732,16.8547473 101.947497,16.7553191 102.657175,16.7553191 C103.967349,16.7553191 105.086439,16.9858118 106.014479,17.4468039 C106.942519,17.907796 107.643088,18.454651 108.116207,19.0873853 L106.560383,20.3347695 Z M118.297301,36.4422961 L116.33205,36.4422961 L116.33205,18.9789171 L109.863097,18.9789171 L109.863097,17.243426 L124.766254,17.243426 L124.766254,18.9789171 L118.297301,18.9789171 L118.297301,36.4422961 Z M147.530417,33.595006 L147.585007,33.595006 L147.585007,17.243426 L149.550258,17.243426 L149.550258,36.4422961 L147.093694,36.4422961 L135.848088,19.9280138 L135.793498,19.9280138 L135.793498,36.4422961 L133.828247,36.4422961 L133.828247,17.243426 L136.284811,17.243426 L147.530417,33.595006 Z M156.647,34.706805 L166.991865,34.706805 L166.991865,36.4422961 L154.681748,36.4422961 L154.681748,17.243426 L166.664323,17.243426 L166.664323,18.9789171 L156.647,18.9789171 L156.647,25.5954768 L166.009239,25.5954768 L166.009239,27.3038509 L156.647,27.3038509 L156.647,34.706805 Z M175.507955,33.7577083 L175.562545,33.7577083 L180.393788,17.243426 L182.741172,17.243426 L187.572415,33.7577083 L187.627005,33.7577083 L192.349068,17.243426 L194.4235,17.243426 L188.718812,36.4422961 L186.426018,36.4422961 L181.56748,19.9551308 L181.51289,19.9551308 L176.654351,36.4422961 L174.361558,36.4422961 L168.65687,17.243426 L170.731302,17.243426 L175.507955,33.7577083 Z" id="BEST-NEW"></path>
                <path d="M103.734168,65.4848493 L102.232934,61.7155796 L94.7540604,61.7155796 L93.3347121,65.4848493 L88.2578125,65.4848493 L96.3644748,46.2859792 L100.895471,46.2859792 L108.920248,65.4848493 L103.734168,65.4848493 Z M98.5480875,51.4111013 L96.0915232,58.000544 L100.950062,58.000544 L98.5480875,51.4111013 Z M125.188163,52.1974957 C125.188163,53.3183393 124.978902,54.262907 124.560374,55.0312272 C124.141846,55.7995474 123.577752,56.4187138 122.868074,56.888745 C122.158397,57.3587762 121.33955,57.7022554 120.41151,57.9191928 C119.48347,58.1361303 118.519051,58.2445974 117.518223,58.2445974 L115.198135,58.2445974 L115.198135,65.4848493 L110.530662,65.4848493 L110.530662,46.2859792 L117.627404,46.2859792 C118.682822,46.2859792 119.669987,46.3899269 120.588929,46.5978253 C121.50787,46.8057237 122.30852,47.1401639 122.990903,47.601156 C123.673285,48.0621482 124.210084,48.6677562 124.601317,49.4179983 C124.99255,50.1682403 125.188163,51.0947302 125.188163,52.1974957 Z M120.520691,52.2246127 C120.520691,51.7726597 120.429708,51.4020637 120.247739,51.1128138 C120.06577,50.8235638 119.820116,50.5975907 119.51077,50.4348876 C119.201423,50.2721845 118.851139,50.1637174 118.459906,50.109483 C118.068674,50.0552486 117.663799,50.0281318 117.245272,50.0281318 L115.198135,50.0281318 L115.198135,54.5566789 L117.163386,54.5566789 C117.600111,54.5566789 118.018632,54.5205232 118.418963,54.4482107 C118.819294,54.3758982 119.178677,54.2493532 119.497122,54.068572 C119.815567,53.8877908 120.06577,53.6482593 120.247739,53.3499702 C120.429708,53.0516812 120.520691,52.6765658 120.520691,52.2246127 Z M142.657065,52.1974957 C142.657065,53.3183393 142.447804,54.262907 142.029276,55.0312272 C141.610749,55.7995474 141.046654,56.4187138 140.336976,56.888745 C139.627298,57.3587762 138.808451,57.7022554 137.880412,57.9191928 C136.952372,58.1361303 135.987953,58.2445974 134.987125,58.2445974 L132.667037,58.2445974 L132.667037,65.4848493 L127.999564,65.4848493 L127.999564,46.2859792 L135.096306,46.2859792 C136.151724,46.2859792 137.138888,46.3899269 138.05783,46.5978253 C138.976772,46.8057237 139.777423,47.1401639 140.459804,47.601156 C141.142186,48.0621482 141.678986,48.6677562 142.070219,49.4179983 C142.461451,50.1682403 142.657065,51.0947302 142.657065,52.1974957 Z M137.989593,52.2246127 C137.989593,51.7726597 137.89861,51.4020637 137.716641,51.1128138 C137.534672,50.8235638 137.289019,50.5975907 136.979672,50.4348876 C136.670325,50.2721845 136.32004,50.1637174 135.928808,50.109483 C135.537575,50.0552486 135.132701,50.0281318 134.714173,50.0281318 L132.667037,50.0281318 L132.667037,54.5566789 L134.632288,54.5566789 C135.069013,54.5566789 135.487534,54.5205232 135.887865,54.4482107 C136.288197,54.3758982 136.647578,54.2493532 136.966024,54.068572 C137.28447,53.8877908 137.534672,53.6482593 137.716641,53.3499702 C137.89861,53.0516812 137.989593,52.6765658 137.989593,52.2246127 Z M155.676856,51.2755161 C155.276524,50.7693286 154.753373,50.3670964 154.107384,50.0688074 C153.461395,49.7705184 152.838162,49.6213761 152.237666,49.6213761 C151.928319,49.6213761 151.614428,49.6484929 151.295983,49.7027273 C150.977537,49.7569616 150.690942,49.8609093 150.436185,50.0145733 C150.181429,50.1682374 149.967619,50.3670937 149.794749,50.6111484 C149.621879,50.855203 149.535445,51.167046 149.535445,51.5466865 C149.535445,51.8720927 149.603683,52.1432605 149.740159,52.360198 C149.876636,52.5771354 150.076798,52.7669529 150.340652,52.929656 C150.604506,53.0923591 150.918398,53.2415014 151.282335,53.3770873 C151.646272,53.5126732 152.055696,53.6527765 152.510617,53.7974015 C153.165704,54.014339 153.848076,54.2538705 154.557754,54.5160033 C155.267432,54.7781361 155.913411,55.1261347 156.49571,55.5600097 C157.07801,55.9938846 157.56022,56.5317007 157.942354,57.173474 C158.324488,57.8152474 158.515552,58.6151923 158.515552,59.5733328 C158.515552,60.6760982 158.31084,61.6297049 157.901411,62.4341813 C157.491982,63.2386578 156.941535,63.9030188 156.250054,64.4272844 C155.558574,64.9515499 154.767022,65.3402237 153.875375,65.5933174 C152.983728,65.8464112 152.064801,65.9729561 151.118564,65.9729561 C149.735603,65.9729561 148.398153,65.7334246 147.106176,65.2543543 C145.814199,64.7752841 144.7406,64.0928452 143.885347,63.2070172 L146.942405,60.1156737 C147.415523,60.6941737 148.038757,61.1777562 148.812123,61.5664358 C149.585491,61.9551154 150.354296,62.1494523 151.118564,62.1494523 C151.464305,62.1494523 151.800942,62.1132966 152.128485,62.0409841 C152.456028,61.9686717 152.742625,61.8511656 152.988283,61.6884625 C153.23394,61.5257594 153.429554,61.3088252 153.575128,61.0376534 C153.720703,60.7664815 153.79349,60.4410802 153.79349,60.0614396 C153.79349,59.6998772 153.702507,59.3925537 153.520538,59.13946 C153.33857,58.8863663 153.079268,58.6558737 152.742626,58.4479753 C152.405984,58.2400769 151.987463,58.0502594 151.487049,57.8785173 C150.986634,57.7067751 150.417992,57.5214771 149.781101,57.3226178 C149.162407,57.1237584 148.557372,56.8887464 147.965973,56.6175745 C147.374574,56.3464027 146.846874,55.9984041 146.382854,55.5735682 C145.918834,55.1487323 145.545804,54.6335135 145.263752,54.0278964 C144.981701,53.4222793 144.840678,52.6856069 144.840678,51.817857 C144.840678,50.7512478 145.059036,49.8383163 145.495761,49.0790352 C145.932487,48.319754 146.505678,47.6960681 147.215356,47.2079588 C147.925035,46.7198495 148.725684,46.362812 149.61733,46.1368354 C150.508977,45.9108589 151.409708,45.7978723 152.319551,45.7978723 C153.411363,45.7978723 154.525905,45.9967287 155.663208,46.3944474 C156.800511,46.7921661 157.796775,47.3796963 158.652028,48.1570555 L155.676856,51.2755161 Z" id="APPS"></path>
                <path d="M91.609375,103.115194 L91.609375,102.574971 C92.0305329,102.569675 92.2930863,102.552462 92.397043,102.523333 C92.5009996,102.494203 92.5969582,102.438592 92.6849216,102.356499 C92.7728849,102.274406 92.8994969,102.061232 93.0647615,101.716971 C93.1607214,101.521007 93.5072385,100.776885 94.1043231,99.4845813 L96.1034804,95.0039128 C96.3220559,94.5113546 96.7885213,93.4150318 97.5028904,91.7149115 L98.0226713,91.7149115 L101.437232,99.6831925 C101.991667,100.975496 102.359509,101.785821 102.540766,102.114194 C102.642058,102.299565 102.752676,102.421378 102.872627,102.479638 C102.992577,102.537898 103.263126,102.569675 103.684284,102.574971 L103.684284,103.115194 C102.852631,103.062231 102.271548,103.035749 101.941019,103.035749 L99.3661049,103.115194 L99.3661049,102.574971 C99.9631895,102.564379 100.3257,102.545842 100.453646,102.51936 C100.581593,102.492879 100.668222,102.454481 100.713537,102.404166 C100.758851,102.353851 100.781508,102.29162 100.781508,102.217471 C100.781508,102.100952 100.744191,101.950009 100.669555,101.764638 L99.68597,99.3336368 L95.0559221,99.3336368 L94.1842895,101.37536 C94.0296873,101.740806 93.9523872,102.008267 93.9523872,102.177749 C93.9523872,102.251898 93.9737113,102.312804 94.0163603,102.360471 C94.0750025,102.429324 94.1656301,102.47699 94.2882457,102.503471 C94.4854968,102.545842 94.8320139,102.569675 95.3278074,102.574971 L95.3278074,103.115194 C94.4268493,103.067527 93.7524738,103.043694 93.3046603,103.043694 C92.7875424,103.043694 92.2224529,103.067527 91.609375,103.115194 Z M95.3278074,98.6583587 L99.3661049,98.6583587 L97.3669476,93.8678568 L95.3278074,98.6583587 Z M104.49994,92.3345783 L104.49994,91.8261337 C105.571494,91.8579116 106.419128,91.8738005 107.042868,91.8738005 C107.458695,91.8738005 107.901171,91.8685042 108.370309,91.8579115 L109.625779,91.8181894 C109.764388,91.812893 109.892333,91.8102449 110.009618,91.8102449 C110.857265,91.8102449 111.523644,91.9029292 112.008775,92.0883005 C112.493906,92.2736718 112.872409,92.5689376 113.144296,92.9741064 C113.416183,93.3792752 113.552124,93.8413726 113.552124,94.3604126 C113.552124,94.8264892 113.43884,95.2899106 113.212267,95.7506909 C112.985695,96.2114711 112.656504,96.6020693 112.224684,96.9224969 C111.792864,97.2429246 111.342391,97.4719872 110.873254,97.6096916 C110.553387,97.7050255 110.190877,97.7526917 109.785712,97.7526917 C109.444521,97.7526917 109.07668,97.715618 108.682177,97.6414694 L108.514248,97.0535803 C108.988717,97.1595069 109.361889,97.2124693 109.633776,97.2124693 C110.03361,97.2124693 110.413446,97.1158127 110.773296,96.9224969 C111.133146,96.729181 111.413025,96.4378875 111.612942,96.0486076 C111.812858,95.6593278 111.912815,95.2290079 111.912815,94.7576349 C111.912815,94.302151 111.815524,93.8903679 111.620938,93.5222733 C111.426353,93.1541788 111.13048,92.8748017 110.733312,92.684134 C110.336145,92.4934664 109.855019,92.3981339 109.289921,92.3981339 C108.783465,92.3981339 108.2397,92.4881701 107.658609,92.6682452 C107.610629,93.2296556 107.586639,94.1088324 107.586639,95.3058019 L107.586639,99.3098035 C107.586639,100.030104 107.594636,100.731856 107.610629,101.415082 C107.626622,101.918233 107.665272,102.217471 107.72658,102.312805 C107.787888,102.408139 107.886512,102.478314 108.022455,102.523333 C108.158399,102.568351 108.543566,102.596157 109.177968,102.606749 L109.177968,103.115194 C108.191712,103.072823 107.466692,103.051638 107.002885,103.051638 C106.821627,103.051638 105.987321,103.072823 104.49994,103.115194 L104.49994,102.606749 C105.129012,102.596157 105.512846,102.568351 105.651455,102.523333 C105.790064,102.478314 105.886022,102.416083 105.939334,102.336638 C106.003307,102.230712 106.04329,101.973844 106.059283,101.566027 C106.064614,101.454804 106.075276,100.702737 106.091269,99.3098035 L106.091269,95.6315242 C106.091269,94.911224 106.083273,94.2068233 106.06728,93.5183011 C106.051286,93.0151502 106.012636,92.7172364 105.951329,92.6245507 C105.890021,92.531865 105.791397,92.4630139 105.655453,92.4179951 C105.51951,92.3729764 105.134343,92.3451711 104.49994,92.3345783 Z M114.39177,92.3345783 L114.39177,91.8261337 C115.463324,91.8579116 116.310958,91.8738005 116.934698,91.8738005 C117.350525,91.8738005 117.793001,91.8685042 118.262138,91.8579115 L119.517609,91.8181894 C119.656218,91.812893 119.784163,91.8102449 119.901447,91.8102449 C120.749094,91.8102449 121.415473,91.9029292 121.900604,92.0883005 C122.385736,92.2736718 122.764239,92.5689376 123.036126,92.9741064 C123.308012,93.3792752 123.443954,93.8413726 123.443954,94.3604126 C123.443954,94.8264892 123.330669,95.2899106 123.104097,95.7506909 C122.877525,96.2114711 122.548334,96.6020693 122.116513,96.9224969 C121.684693,97.2429246 121.234221,97.4719872 120.765083,97.6096916 C120.445216,97.7050255 120.082706,97.7526917 119.677542,97.7526917 C119.33635,97.7526917 118.968509,97.715618 118.574007,97.6414694 L118.406078,97.0535803 C118.880547,97.1595069 119.253719,97.2124693 119.525606,97.2124693 C119.925439,97.2124693 120.305275,97.1158127 120.665125,96.9224969 C121.024975,96.729181 121.304855,96.4378875 121.504771,96.0486076 C121.704688,95.6593278 121.804645,95.2290079 121.804645,94.7576349 C121.804645,94.302151 121.707354,93.8903679 121.512768,93.5222733 C121.318182,93.1541788 121.02231,92.8748017 120.625142,92.684134 C120.227974,92.4934664 119.746849,92.3981339 119.181751,92.3981339 C118.675295,92.3981339 118.13153,92.4881701 117.550438,92.6682452 C117.502458,93.2296556 117.478469,94.1088324 117.478469,95.3058019 L117.478469,99.3098035 C117.478469,100.030104 117.486465,100.731856 117.502459,101.415082 C117.518452,101.918233 117.557102,102.217471 117.61841,102.312805 C117.679718,102.408139 117.778342,102.478314 117.914285,102.523333 C118.050228,102.568351 118.435396,102.596157 119.069798,102.606749 L119.069798,103.115194 C118.083542,103.072823 117.358522,103.051638 116.894715,103.051638 C116.713457,103.051638 115.87915,103.072823 114.39177,103.115194 L114.39177,102.606749 C115.020841,102.596157 115.404676,102.568351 115.543285,102.523333 C115.681894,102.478314 115.777852,102.416083 115.831163,102.336638 C115.895137,102.230712 115.935119,101.973844 115.951113,101.566027 C115.956444,101.454804 115.967106,100.702737 115.983099,99.3098035 L115.983099,95.6315242 C115.983099,94.911224 115.975103,94.2068233 115.959109,93.5183011 C115.943116,93.0151502 115.904466,92.7172364 115.843158,92.6245507 C115.78185,92.531865 115.683226,92.4630139 115.547283,92.4179951 C115.41134,92.3729764 115.026173,92.3451711 114.39177,92.3345783 Z M128.177958,102.725916 C128.263256,102.217469 128.313901,101.393903 128.329894,100.255193 L128.873665,100.255193 C128.90032,101.028456 128.944301,101.485257 129.005609,101.62561 C129.066917,101.765963 129.214853,101.915582 129.449422,102.074471 C129.683991,102.233361 129.998522,102.375036 130.393024,102.499499 C130.787526,102.623963 131.168695,102.686194 131.536542,102.686194 C132.074984,102.686194 132.57077,102.563056 133.023915,102.316777 C133.47706,102.070498 133.807583,101.747427 134.015497,101.347554 C134.22341,100.947682 134.327365,100.52001 134.327365,100.064526 C134.327365,99.7149685 134.275388,99.4130826 134.171431,99.1588589 C134.067474,98.9046353 133.908876,98.6994058 133.695632,98.5431643 C133.482387,98.3869226 133.218501,98.2770256 132.903965,98.2134696 C132.706714,98.1816917 132.312218,98.1287293 131.720464,98.0545807 C131.128711,97.9804322 130.624928,97.8983404 130.209102,97.8083028 C129.654666,97.6388205 129.246842,97.4402113 128.985617,97.2124693 C128.724393,96.9847273 128.512484,96.6854895 128.349886,96.3147467 C128.187286,95.9440039 128.105988,95.5441374 128.105988,95.1151351 C128.105988,94.4901688 128.269918,93.9009614 128.597781,93.3474954 C128.925644,92.7940295 129.410768,92.3637095 130.053167,92.0565227 C130.695566,91.7493359 131.392599,91.5957447 132.144286,91.5957447 C132.59743,91.5957447 133.091884,91.6553275 133.62766,91.7744948 C134.163437,91.8936622 134.663221,92.0671142 135.127028,92.2948561 C135.052393,92.6285246 134.999082,92.939679 134.967096,93.2283287 C134.935109,93.5169785 134.911119,93.9420021 134.895126,94.5034126 L134.351355,94.5034126 C134.335362,93.6877786 134.311372,93.242894 134.279386,93.1687454 C134.146108,92.9780777 133.964853,92.8059497 133.735615,92.6523563 C133.18651,92.3451695 132.613424,92.1915784 132.01634,92.1915784 C131.243328,92.1915784 130.626261,92.4259372 130.16512,92.894662 C129.703979,93.3633867 129.473412,93.9711308 129.473412,94.7179127 C129.473412,95.1681003 129.556043,95.5163284 129.721307,95.7626075 C129.886572,96.0088867 130.182444,96.2061718 130.608933,96.3544689 C130.902144,96.4550991 131.381937,96.5491074 132.048326,96.6364968 C132.714715,96.7238861 133.314456,96.8178946 133.847568,96.9185247 C134.348692,97.0668217 134.719199,97.242922 134.959099,97.4468304 C135.198999,97.650739 135.396247,97.9181994 135.55085,98.2492197 C135.705452,98.58024 135.782752,98.96819 135.782752,99.4130812 C135.782752,100.46705 135.342942,101.385949 134.463308,102.169805 C133.583675,102.953661 132.445499,103.345583 131.048748,103.345583 C129.993187,103.345583 129.036267,103.139029 128.177958,102.725916 Z M137.174165,94.4557458 L136.678375,94.4557458 C136.673043,93.1899242 136.646388,92.3133956 136.598408,91.8261337 C137.179499,91.847319 138.091105,91.8738003 139.333255,91.9055782 C140.340835,91.9267636 141.012546,91.937356 141.348406,91.937356 C141.710921,91.937356 142.550558,91.9214672 143.867344,91.8896893 C144.821613,91.8685039 145.517313,91.847319 145.954464,91.8261337 C145.89049,92.4193221 145.847842,93.2958507 145.826518,94.4557458 L145.314734,94.4557458 L145.250761,93.6930789 C145.208111,93.2322987 145.17879,92.9701346 145.162797,92.9065786 C145.146804,92.8430227 145.124147,92.7980046 145.094826,92.7715231 C145.065504,92.7450414 145.021524,92.7238565 144.962881,92.7079675 C144.888245,92.6920784 144.621695,92.6708935 144.163219,92.6444119 C143.704742,92.6179302 143.342233,92.6046896 143.075678,92.6046896 L142.100089,92.6046896 C142.046777,93.1131367 142.020122,93.7990006 142.020122,94.6623016 L142.020122,99.3098035 C142.020122,100.030104 142.028118,100.731856 142.044112,101.415082 C142.060105,101.918233 142.098755,102.217471 142.160063,102.312805 C142.221371,102.408139 142.319995,102.478314 142.455938,102.523333 C142.591882,102.568351 142.977049,102.596157 143.611452,102.606749 L143.611452,103.115194 C142.657183,103.072823 141.940158,103.051638 141.460358,103.051638 C141.252444,103.051638 140.420803,103.072823 138.96541,103.115194 L138.96541,102.606749 C139.599812,102.596157 139.986312,102.568351 140.124921,102.523333 C140.26353,102.478314 140.356823,102.416083 140.404803,102.336638 C140.474108,102.230712 140.516756,101.973844 140.532749,101.566027 C140.532749,101.454804 140.543412,100.702737 140.564736,99.3098035 L140.564736,94.6781905 C140.564736,94.4557448 140.559405,94.2121175 140.548742,93.9473012 L140.500763,92.6046896 L139.309265,92.6046896 C138.621551,92.6046896 138.075121,92.6311708 137.669956,92.684134 C137.54201,92.700023 137.459378,92.7344486 137.422061,92.7874119 C137.363419,92.8774494 137.310108,93.1660948 137.262128,93.6533567 L137.174165,94.4557458 Z M146.394278,97.546136 C146.394278,96.7093167 146.52089,95.9360648 146.774119,95.2263573 C147.027345,94.5166498 147.447164,93.8784522 148.033587,93.3117454 C148.62001,92.7450387 149.283723,92.3173669 150.024747,92.0287172 C150.765772,91.7400674 151.613407,91.5957447 152.567676,91.5957447 C153.447309,91.5957447 154.246964,91.7188825 154.966664,91.9651616 C155.686365,92.2114406 156.276775,92.5371598 156.737918,92.9423286 C157.199058,93.3474974 157.562901,93.7910581 157.829456,94.2730236 C158.03204,94.6331738 158.193304,95.0568733 158.313254,95.5441352 C158.433203,96.0313971 158.493178,96.5530773 158.493178,97.1091914 C158.493178,98.8940529 157.889437,100.37965 156.681941,101.566027 C155.474444,102.752403 153.951101,103.345583 152.111867,103.345583 C151.274883,103.345583 150.493886,103.210529 149.768855,102.940416 C149.043824,102.670303 148.430756,102.269113 147.92963,101.736832 C147.428506,101.204551 147.047338,100.55841 146.786113,99.7983869 C146.524888,99.0383644 146.394278,98.2876216 146.394278,97.546136 Z M148.057576,96.8867469 C148.057576,97.3898978 148.108221,97.9009855 148.209512,98.4200253 C148.310803,98.9390652 148.438749,99.3865979 148.59335,99.762637 C148.849244,100.398196 149.183767,100.931793 149.596928,101.363443 C150.010089,101.795094 150.471223,102.112868 150.980345,102.316777 C151.489466,102.520685 152.053222,102.622638 152.671632,102.622638 C153.529941,102.622638 154.276286,102.414761 154.910688,101.998999 C155.54509,101.583238 156.018219,100.998002 156.33009,100.243276 C156.641959,99.4885497 156.797892,98.6186414 156.797892,97.6335249 C156.797892,96.7914093 156.685941,96.0155094 156.462033,95.3058019 C156.323424,94.8715032 156.139504,94.4782569 155.910265,94.1260514 C155.681028,93.7738458 155.407813,93.4666634 155.090612,93.2044954 C154.773411,92.9423273 154.361589,92.721209 153.855132,92.5411341 C153.348678,92.361059 152.802246,92.2710228 152.215823,92.2710228 C151.368176,92.2710228 150.624498,92.4590395 149.984765,92.8350787 C149.34503,93.2111177 148.863906,93.7553069 148.541372,94.4676626 C148.21884,95.1800183 148.057576,95.9863717 148.057576,96.8867469 Z M159.236863,92.3345783 L159.236863,91.8261337 C159.444777,91.8314301 159.761974,91.8393744 160.188462,91.849967 L161.723815,91.8896893 C162.027688,91.8896893 162.499485,91.8790968 163.139219,91.8579115 C163.970873,91.8261336 164.453331,91.8102449 164.586608,91.8102449 C165.604851,91.8102449 166.347197,91.9002811 166.813669,92.080356 C167.280142,92.2604311 167.64132,92.5530486 167.897213,92.9582176 C168.153107,93.3633864 168.281051,93.8042988 168.281051,94.2809681 C168.281051,94.7258593 168.161103,95.1680959 167.921203,95.6076908 C167.681303,96.0472858 167.333452,96.4127268 166.877642,96.7040246 C166.421832,96.9953225 165.828755,97.220413 165.098392,97.3793026 C165.23167,97.5646741 165.546202,97.9777811 166.041995,98.6186366 L168.057145,101.256193 C168.632905,101.992382 168.968761,102.402841 169.06472,102.487583 C169.112701,102.524657 169.16068,102.551138 169.208659,102.567027 C169.288626,102.593509 169.46455,102.606749 169.736437,102.606749 L169.736437,103.115194 C169.331272,103.083416 168.976758,103.067527 168.672886,103.067527 C168.35835,103.067527 167.97185,103.083416 167.513375,103.115194 C167.166852,102.71797 166.585769,101.94207 165.77011,100.787471 C165.316965,100.146615 164.917137,99.6116946 164.570616,99.1826923 C164.010848,98.4729848 163.477745,97.8294909 162.97129,97.2521914 L163.051255,97.0138581 C163.328473,97.029747 163.53905,97.0376914 163.682989,97.0376914 C164.653252,97.0376914 165.388934,96.8099529 165.890058,96.3544689 C166.391184,95.898985 166.641742,95.2978612 166.641742,94.5510794 C166.641742,93.8996313 166.425835,93.3819234 165.994014,92.9979397 C165.562195,92.6139562 164.909144,92.4219672 164.034842,92.4219672 C163.485737,92.4219672 162.947301,92.5040591 162.419522,92.6682452 C162.398198,92.9542467 162.382204,93.2217072 162.371543,93.4706345 C162.366211,93.5447829 162.347552,94.3153866 162.315566,95.7824687 L162.315566,99.3098035 C162.315566,100.030104 162.326227,100.731856 162.347552,101.415082 C162.358215,101.918233 162.394199,102.217471 162.455507,102.312805 C162.516814,102.408139 162.616771,102.478314 162.755381,102.523333 C162.89399,102.568351 163.277824,102.596157 163.906896,102.606749 L163.906896,103.115194 C163.149877,103.072823 162.454178,103.051638 161.819775,103.051638 C161.307988,103.051638 160.447027,103.072823 159.236863,103.115194 L159.236863,102.606749 C159.865935,102.596157 160.249769,102.568351 160.388378,102.523333 C160.526988,102.478314 160.622945,102.416083 160.676257,102.336638 C160.74023,102.230712 160.780213,101.973844 160.796207,101.566027 C160.801538,101.454804 160.812199,100.702737 160.828193,99.3098035 L160.828193,95.6315242 C160.828193,94.911224 160.820197,94.2068233 160.804203,93.5183011 C160.788209,93.0151502 160.749559,92.7172364 160.688252,92.6245507 C160.626944,92.531865 160.52832,92.4630139 160.392376,92.4179951 C160.256433,92.3729764 159.871267,92.3451711 159.236863,92.3345783 Z M170.384164,103.115194 L170.384164,102.614694 C170.943931,102.609397 171.311772,102.567027 171.487699,102.487583 C171.562335,102.455805 171.615645,102.40549 171.647631,102.336638 C171.700942,102.230712 171.73826,101.952659 171.759585,101.502471 C171.79157,100.803356 171.807564,100.199584 171.807564,99.691137 L171.807564,95.6315242 C171.807564,94.911224 171.799568,94.2068233 171.783574,93.5183011 C171.767581,93.0151502 171.728931,92.7172364 171.667623,92.6245507 C171.606315,92.531865 171.507691,92.4630139 171.371748,92.4179951 C171.235804,92.3729764 170.850637,92.3451711 170.216234,92.3345783 L170.216234,91.8261337 L172.495274,91.8738005 L174.910257,91.8340782 C176.067107,91.8181892 176.906745,91.8102449 177.429194,91.8102449 C177.956974,91.8102449 178.455426,91.8393741 178.924564,91.8976338 C178.839265,92.1995243 178.780624,92.4616884 178.748638,92.684134 C178.737975,92.7318011 178.689996,93.2826106 178.604699,94.3365792 L178.100911,94.3365792 C178.106241,93.796354 178.07159,93.3038032 177.996954,92.858912 C177.703743,92.7370965 177.381216,92.6550046 177.029363,92.612634 C176.432278,92.5384855 175.835202,92.5014118 175.238118,92.5014118 C175.11017,92.5014118 174.824961,92.5120042 174.382479,92.5331896 C173.939996,92.5543749 173.6228,92.5729117 173.430879,92.5888007 C173.409555,93.1766927 173.393561,93.7275023 173.3829,94.2412458 L173.350913,96.9264692 C173.974654,96.9582471 174.54774,96.9741358 175.070188,96.9741358 C175.704591,96.9741358 176.24569,96.9450065 176.693504,96.8867469 C176.8641,96.8655616 176.973386,96.8231916 177.021365,96.7596357 C177.069346,96.6960799 177.111995,96.4789338 177.149311,96.108191 L177.197292,95.5520797 L177.677089,95.5520797 L177.677089,95.7030242 L177.637106,97.3554693 L177.677089,99.2065256 L177.117325,99.2065256 L177.093336,98.6663032 C177.082673,98.2743752 177.046688,98.0307479 176.985381,97.935414 C176.924073,97.8400801 176.808123,97.7738771 176.637527,97.7368028 C176.333654,97.6732469 175.744575,97.6414694 174.870273,97.6414694 C174.513089,97.6414694 174.006641,97.6547101 173.350913,97.6811917 C173.324258,98.2108242 173.310929,98.9973167 173.310929,100.040693 C173.310929,101.020513 173.324258,101.764635 173.350913,102.273082 C174.118593,102.331342 174.979555,102.360471 175.933825,102.360471 C176.610876,102.360471 177.093334,102.339286 177.381214,102.296916 C177.669094,102.254545 177.935645,102.183046 178.180877,102.082416 C178.24485,101.91823 178.308823,101.695787 178.372796,101.415082 C178.490081,100.943709 178.567381,100.588861 178.604699,100.350526 L179.132477,100.350526 C178.993866,101.420384 178.924564,102.307505 178.924564,103.011916 C178.466088,103.080768 177.908996,103.115194 177.253268,103.115194 L172.479281,103.051638 C172.409976,103.051638 171.711611,103.072823 170.384164,103.115194 Z" id="APP-STORE"></path>
                <path d="M87.1114549,100.939785 C86.9071164,101.408769 86.6652462,101.840465 86.3850106,102.237361 C86.0030226,102.778432 85.6902595,103.152956 85.4492235,103.360932 C85.075576,103.702312 84.6752392,103.877145 84.2465453,103.887089 C83.9387865,103.887089 83.567641,103.800086 83.135611,103.623596 C82.7021631,103.447935 82.303828,103.360932 81.9396051,103.360932 C81.5576171,103.360932 81.1479393,103.447935 80.7097374,103.623596 C80.2708683,103.800086 79.917321,103.89206 79.6470103,103.901175 C79.2359145,103.918575 78.8261532,103.738771 78.4171426,103.360932 C78.1560896,103.134727 77.829565,102.746945 77.4384027,102.197589 C77.0187164,101.610945 76.6736761,100.930671 76.4033655,100.155108 C76.1138721,99.3174014 75.96875,98.5062095 75.96875,97.7208696 C75.96875,96.8212669 76.1644145,96.0453729 76.5563276,95.3951764 C76.8643365,94.8729147 77.2740979,94.4609385 77.7869458,94.1585022 C78.2997939,93.8560661 78.8539265,93.7019478 79.4506784,93.6920876 C79.777203,93.6920876 80.2053965,93.7924302 80.7375107,93.9896351 C81.2681237,94.187503 81.6088269,94.2878455 81.7582026,94.2878455 C81.8698798,94.2878455 82.2483648,94.1705168 82.8899877,93.9366052 C83.4967481,93.7196798 84.0088454,93.6298604 84.4283649,93.6652412 C85.5651544,93.7563864 86.419206,94.201589 86.9871837,95.0036666 C85.9704953,95.6156649 85.4675723,96.4728437 85.4775807,97.5724687 C85.486755,98.4289847 85.7995181,99.1417399 86.4142018,99.7076685 C86.6927694,99.9703322 87.0038643,100.173337 87.3499888,100.317512 C87.2749257,100.533775 87.1956924,100.740923 87.1114549,100.939785 L87.1114549,100.939785 Z M84.5042621,90.7472702 C84.5042621,91.4186041 84.2573877,92.0454259 83.7653072,92.6256063 C83.1714745,93.3153266 82.4532037,93.7138796 81.6742986,93.6509894 C81.6643735,93.5704502 81.6586188,93.4856853 81.6586188,93.3966116 C81.6586188,92.7521324 81.941023,92.062412 82.4425281,91.4984721 C82.6929054,91.2129392 83.0113398,90.9755225 83.3974978,90.7861312 C83.782822,90.5995654 84.1472952,90.4963889 84.4900835,90.4787234 C84.5000919,90.5684682 84.5042621,90.6582213 84.5042621,90.7472619 L84.5042621,90.7472702 Z" id="Shape"></path>
                <path d="M6.703125,68.1382979 C10.4335856,69.1233299 13.7321964,70.6172061 16.1254506,73.6356485 C18.1981973,76.2499864 20.2598429,78.8729525 22.3251156,81.4930789 C22.4020549,81.5907193 22.4650353,81.699063 22.6270476,81.9399968 C21.6813528,82.0024691 20.833371,82.1354959 19.9923136,82.1009832 C16.3040599,81.9492801 13.35959,80.3852865 11.2003414,77.3932747 C9.25454459,74.6972421 7.85182987,71.7336269 6.80787247,68.5932977 C6.77006226,68.4796024 6.75324552,68.3590263 6.703125,68.1382979" id="Fill-5"></path>
                <path d="M27.9296875,95.7363511 C31.4998943,94.8479764 34.9704098,94.4941119 38.3805827,95.833773 C41.70898,97.1411058 44.9854983,98.5784074 48.284219,99.9603356 C48.3506067,99.9880768 48.4093004,100.034057 48.5153668,100.097731 C47.4206295,101.067036 46.1878409,101.752812 44.8275527,102.203771 C41.9313349,103.163792 39.1037029,102.958682 36.3523509,101.651022 C33.3560019,100.226826 30.6930202,98.323057 28.2541519,96.0967687 C28.1621544,96.0127804 28.0863141,95.9115359 27.9296875,95.7363511" id="Fill-7"></path>
                <path d="M13.0950317,68.2007172 C11.9800702,68.2053043 10.9553477,67.961531 9.96228017,67.6037347 C6.9030607,66.5017307 4.66962057,64.4969353 3.37769854,61.5109306 C2.04389953,58.4280498 1.39167345,55.1830904 1.12271538,51.8522862 C1.11117448,51.7092112 1.1212865,51.5644981 1.1212865,51.3829787 C1.20493059,51.3933544 1.27769326,51.3835249 1.32924264,51.411703 C3.85692093,52.7947234 6.16510218,54.464112 7.77610278,56.8808755 C8.5977054,58.113722 9.23432376,59.4789401 9.85896158,60.8279938 C10.9196258,63.1186113 11.9047796,65.443523 12.9205991,67.7545639 C12.977864,67.8849697 13.0246871,68.0200715 13.0950317,68.2007172" id="Fill-9"></path>
                <path d="M34.4669206,92.7652669 C33.015844,93.4805319 31.6432455,93.8218363 30.2090956,93.9169648 C26.9237842,94.1348536 24.1114304,93.0343787 21.6667366,90.888802 C19.442859,88.9367587 17.5421267,86.7116718 15.9001305,84.2623614 C15.8126394,84.1318465 15.74845,83.9859321 15.640625,83.7867194 C17.4109999,83.7310186 19.0908064,83.9072955 20.7531365,84.2630167 C22.7621335,84.6930057 24.6141742,85.4725999 26.2690303,86.7031528 C28.9631173,88.7066376 31.6677562,90.69647 34.4669206,92.7652669" id="Fill-11"></path>
                <path d="M0.554306327,34.6276596 C3.38292749,37.2434172 5.69176822,40.0544557 6.41752635,43.8491065 C7.02106079,47.0043984 7.58326779,50.1675539 8.16185189,53.3276515 C8.16756739,53.359106 8.14668384,53.3953663 8.1258003,53.479136 C6.68868269,53.0476179 5.41742438,52.3302778 4.2701484,51.3911169 C1.79709706,49.3669901 0.503416427,46.7361604 0.16433361,43.5893875 C-0.13210281,40.8391831 -0.0118575586,38.108747 0.399438357,35.382789 C0.431752895,35.1692688 0.48572037,34.958916 0.554306327,34.6276596" id="Fill-17"></path>
                <path d="M19.1813568,63.6702128 C20.7160775,65.9986193 22.1866087,68.3538934 23.3940073,70.8710279 C24.8358512,73.8770195 24.666035,76.8815913 23.5697588,79.917727 C23.4165396,80.342146 23.2213334,80.7517113 23.0339311,81.1956803 C22.9400651,81.1328802 22.8712593,81.1035008 22.8252056,81.0534792 C20.4211798,78.4446021 18.4314177,75.5779719 17.1978596,72.2283822 C16.0688294,69.1630855 17.2496289,65.7840071 19.1813568,63.6702128" id="Fill-25"></path>
                <path d="M36.976765,84.893617 C40.1158915,86.5725075 43.154667,88.0984936 45.6798174,90.4112821 C47.4320566,92.016014 48.2455256,94.1269688 48.7212308,96.3850393 C48.8615902,97.0518118 48.9168767,97.7362776 49.0226134,98.4946834 C46.7931301,97.7902309 44.7667667,96.9231536 42.8794439,95.7727664 C41.7924004,95.1102534 40.7428375,94.3708512 39.7499898,93.5754206 C37.8234278,92.0315229 36.9367566,89.9525689 36.8709183,87.5246652 C36.8481663,86.6844554 36.9352177,85.8415153 36.976765,84.893617" id="Fill-27"></path>
                <path d="M10.4274313,5.58510638 C11.8064047,9.11293896 12.7768301,12.5336292 11.6662651,16.2090145 C10.8437832,18.9304948 10.0662559,21.6652995 9.26872431,24.3942064 L9.08088233,24.4384395 C8.88193909,24.2083184 8.6810174,23.9797263 8.48427243,23.7477485 C6.46912029,21.3725967 5.32679039,18.6662977 5.63608669,15.5300098 C5.75512288,14.3230477 6.14806327,13.1155397 6.58584831,11.97247 C7.46922225,9.66612529 8.80170231,7.60453687 10.4274313,5.58510638" id="Fill-33"></path>
                <path d="M34.6351411,91.5882102 C33.4889642,90.7250647 32.3176172,89.8927186 31.2025458,88.9914564 C29.6346312,87.7244248 28.2302679,86.2916012 27.0851901,84.6271273 C25.1655526,81.8366217 25.4104398,78.9561209 26.7511632,76.0373941 C26.7641331,76.0089975 26.807329,75.9944716 26.8584388,75.9574468 C29.1393615,77.969669 31.4166571,79.9871336 33.2459457,82.4478026 C34.4301526,84.0406296 34.9770816,85.8455572 35.032478,87.7897369 C35.0674304,89.0148288 34.9500429,90.2440712 34.9009116,91.471566 C34.8123215,91.5104474 34.7237312,91.5493287 34.6351411,91.5882102" id="Fill-37"></path>
                <path d="M15.2375226,50.2659574 C15.2696173,50.3958169 16.061873,52.3410887 16.362706,53.5693481 C16.7304762,55.0708695 17.0960481,56.5045668 17.4445835,57.9424144 C18.3402677,61.637022 17.0959382,64.766757 14.8394163,67.6253051 C14.7721493,67.7104948 14.692462,67.7865101 14.6139839,67.8621977 C14.5901327,67.8852426 14.5512233,67.8931063 14.4879132,67.9222674 C12.9336279,64.9996087 11.7372207,61.9647836 11.262175,58.6625942 C10.8705536,55.9407864 11.7684361,53.7042317 13.650593,51.7249932" id="Fill-39"></path>
                <path d="M14.995392,36.8617021 C15.0752992,39.4904567 15.187081,41.9578971 15.2162081,44.4263205 C15.254238,47.6540236 13.6852244,50.1122897 11.3063688,52.1453724 C10.9072733,52.4865677 10.4732253,52.7872433 9.93937598,53.1953889 C9.7219673,52.1777008 9.50137111,51.272179 9.33847947,50.3566092 C8.95477182,48.1990186 8.84167093,46.0306155 9.01984054,43.8385123 C9.27593874,40.6871522 11.0666477,38.6924048 13.7940387,37.3631194 C14.1181732,37.2051909 14.4602238,37.083632 14.995392,36.8617021" id="Fill-43"></path>
                <path d="M13.7467818,13.5002587 C13.0977432,10.6290414 13.3195485,7.86267282 14.9077969,5.32347653 C16.8572209,2.20662919 19.9177594,0.792154102 23.5314919,0 C23.2562687,1.10626346 23.0301769,2.10407401 22.7580313,3.08921533 C22.2147295,5.05665832 21.5178785,6.96861885 20.4256691,8.70856189 C18.9492025,11.0611056 16.7984173,12.5578214 14.1886336,13.4477251 C14.1198279,13.4709884 14.0477247,13.4876987 13.9758414,13.4986204 C13.9235226,13.5067025 13.8688955,13.5002587 13.7467818,13.5002587" id="Fill-47"></path>
                <path d="M16.3164008,24.5744681 C16.1501018,25.7283504 16.0446948,26.7919099 15.8348703,27.834718 C15.5492053,29.2550908 15.2244113,30.6707673 14.8429018,32.0687505 C14.298391,34.0639348 13.0625247,35.5796544 11.3651322,36.7443492 C10.2932568,37.4797102 9.14806915,38.0614023 7.83119679,38.4793774 C7.83119679,37.7019677 7.80349862,36.9834262 7.83647263,36.267615 C7.93451538,34.1382026 8.28524902,32.0550983 8.91065622,30.0077082 C9.76567251,27.2087928 11.6936633,25.6173856 14.4686467,24.92451 C15.0333818,24.7835103 15.6139443,24.7056383 16.3164008,24.5744681" id="Fill-51"></path>
                <path d="M21.369282,13.5751149 C21.2737674,13.8468479 21.2079293,14.0870171 21.1072485,14.3118958 C20.3513741,16.0009435 19.6313315,17.7076844 18.8183021,19.3692094 C17.4813156,22.1010653 15.1480741,23.5166325 12.2287744,24.0904609 C11.6927268,24.1958558 11.1463473,24.2509013 10.603595,24.3204728 C10.4630158,24.3383846 10.3181499,24.3230941 10.0546875,24.3230941 C10.3721174,23.2428244 10.6456918,22.2170541 10.9757617,21.2097417 C11.5266477,19.5289946 12.2912052,17.9491641 13.2652577,16.4623872 C14.3774714,14.7644929 15.9570367,13.8404041 17.9333895,13.531428 C19.0564844,13.3558063 20.181558,13.3544957 21.369282,13.5751149" id="Fill-53"></path>
                <path d="M5.20899167,28.0820322 C4.96740202,28.2206292 4.81846939,28.3632672 4.64909284,28.3936296 C3.85331989,28.5359398 3.66327962,28.9696423 4.14788777,29.5945845 C4.27055112,29.7528406 4.39145585,29.9137179 4.52675924,30.060943 C4.97047961,30.5437933 5.49322769,30.4343575 5.76152629,29.8247056 C5.83736653,29.6524698 5.98267204,29.5103779 6.17150324,29.2505496 C6.31900702,30.0622537 6.08917812,30.498905 5.49168892,30.7918261 C4.99619934,31.0346165 4.59809303,30.935447 4.18888547,30.4572931 C3.99939477,30.2358001 3.81561959,30.0089555 3.63898877,29.7771961 C3.27539526,29.3004619 3.25824877,28.8441515 3.57908597,28.4316372 C3.97587331,27.9219194 4.47949648,27.7816842 5.20899167,28.0820322" id="Fill-57"></path>
                <path d="M3.3515625,31.856049 C3.93619184,31.5041504 4.12007694,31.1750782 3.6576713,30.7145082 C3.59502066,30.6520359 3.70548363,30.4178737 3.75593387,30.1595745 C4.21746021,30.5668462 4.60875189,30.892205 4.46454552,31.3736355 C4.37353722,31.6774784 4.02939839,31.9115314 3.7750588,32.1521375 C3.75494465,32.1711412 3.54896695,31.9961748 3.3515625,31.856049" id="Fill-59"></path>
                <path d="M6.82034503,38.4514728 C6.96345227,34.9357634 7.14184171,31.5068818 7.22449658,28.0757067 C7.25966886,26.6141589 6.82430192,25.2092949 6.28550647,23.8482272 C5.61415546,22.1522988 4.7239669,20.5790215 3.58922103,18.9893617 C3.31300868,19.6562433 3.05504194,20.2238463 2.84027118,20.8072859 C1.83764121,23.5308413 1.02878855,26.3067118 1.12496277,29.2392001 C1.25553988,33.2226878 3.24793995,36.1645688 6.5023656,38.3489176 C6.54446242,38.3769865 6.60216695,38.3823382 6.82034503,38.4514728" id="Fill-61"></path>
                <path d="M234.609375,68.1382979 C238.339836,69.1233299 241.638446,70.6172061 244.031701,73.6356485 C246.104447,76.2499864 248.166093,78.8729525 250.231366,81.4930789 C250.308305,81.5907193 250.371285,81.699063 250.533299,81.9399968 C249.587603,82.0024691 248.739622,82.1354959 247.898564,82.1009832 C244.210311,81.9492801 241.26584,80.3852865 239.106592,77.3932747 C237.160795,74.6972421 235.758079,71.7336269 234.714123,68.5932977 C234.676312,68.4796024 234.659496,68.3590263 234.609375,68.1382979" id="Fill-5" transform="translate(242.571337, 75.122454) scale(-1, 1) translate(-242.571337, -75.122454) "></path>
                <path d="M208.914063,95.7363511 C212.484269,94.8479764 215.954786,94.4941119 219.364959,95.833773 C222.693356,97.1411058 225.969874,98.5784074 229.268595,99.9603356 C229.334982,99.9880768 229.393676,100.034057 229.499743,100.097731 C228.405005,101.067036 227.172216,101.752812 225.811928,102.203771 C222.915711,103.163792 220.088078,102.958682 217.336726,101.651022 C214.340377,100.226826 211.677396,98.323057 209.238527,96.0967687 C209.14653,96.0127804 209.07069,95.9115359 208.914063,95.7363511" id="Fill-7" transform="translate(219.206903, 98.874147) scale(-1, 1) translate(-219.206903, -98.874147) "></path>
                <path d="M255.52472,68.2007172 C254.409758,68.2053043 253.385035,67.961531 252.391967,67.6037347 C249.332749,66.5017307 247.099308,64.4969353 245.807387,61.5109306 C244.473587,58.4280498 243.821361,55.1830904 243.552403,51.8522862 C243.540862,51.7092112 243.550974,51.5644981 243.550974,51.3829787 C243.634618,51.3933544 243.70738,51.3835249 243.75893,51.411703 C246.286609,52.7947234 248.59479,54.464112 250.20579,56.8808755 C251.027394,58.113722 251.664011,59.4789401 252.28865,60.8279938 C253.349314,63.1186113 254.334467,65.443523 255.350286,67.7545639 C255.407551,67.8849697 255.454375,68.0200715 255.52472,68.2007172" id="Fill-9" transform="translate(249.535798, 59.791880) scale(-1, 1) translate(-249.535798, -59.791880) "></path>
                <path d="M241.146608,92.7652669 C239.695531,93.4805319 238.322932,93.8218363 236.888783,93.9169648 C233.603471,94.1348536 230.791117,93.0343787 228.346423,90.888802 C226.122546,88.9367587 224.221813,86.7116718 222.579817,84.2623614 C222.492327,84.1318465 222.428137,83.9859321 222.320313,83.7867194 C224.090687,83.7310186 225.770493,83.9072955 227.432823,84.2630167 C229.44182,84.6930057 231.293861,85.4725999 232.948717,86.7031528 C235.642804,88.7066376 238.347443,90.69647 241.146608,92.7652669" id="Fill-11" transform="translate(231.733460, 88.860362) scale(-1, 1) translate(-231.733460, -88.860362) "></path>
                <path d="M249.687119,34.6276596 C252.51574,37.2434172 254.824581,40.0544557 255.550338,43.8491065 C256.153873,47.0043984 256.716081,50.1675539 257.294664,53.3276515 C257.30038,53.359106 257.279496,53.3953663 257.258613,53.479136 C255.821495,53.0476179 254.550237,52.3302778 253.402961,51.3911169 C250.929909,49.3669901 249.636229,46.7361604 249.297146,43.5893875 C249.000709,40.8391831 249.120956,38.108747 249.532251,35.382789 C249.564566,35.1692688 249.618533,34.958916 249.687119,34.6276596" id="Fill-17" transform="translate(253.214217, 44.053398) scale(-1, 1) translate(-253.214217, -44.053398) "></path>
                <path d="M234.798545,63.6702128 C236.333265,65.9986193 237.803797,68.3538934 239.011196,70.8710279 C240.453039,73.8770195 240.283222,76.8815913 239.186946,79.917727 C239.033728,80.342146 238.838521,80.7517113 238.651119,81.1956803 C238.557252,81.1328802 238.488447,81.1035008 238.442393,81.0534792 C236.038368,78.4446021 234.048605,75.5779719 232.815047,72.2283822 C231.686017,69.1630855 232.866816,65.7840071 234.798545,63.6702128" id="Fill-25" transform="translate(236.212934, 72.432947) scale(-1, 1) translate(-236.212934, -72.432947) "></path>
                <path d="M207.906452,84.893617 C211.04558,86.5725075 214.084355,88.0984936 216.609506,90.4112821 C218.361744,92.016014 219.175214,94.1269688 219.650919,96.3850393 C219.791278,97.0518118 219.846564,97.7362776 219.952302,98.4946834 C217.722818,97.7902309 215.696455,96.9231536 213.809132,95.7727664 C212.722088,95.1102534 211.672525,94.3708512 210.679677,93.5754206 C208.753115,92.0315229 207.866444,89.9525689 207.800606,87.5246652 C207.777854,86.6844554 207.864905,85.8415153 207.906452,84.893617" id="Fill-27" transform="translate(213.874588, 91.694150) scale(-1, 1) translate(-213.874588, -91.694150) "></path>
                <path d="M249.505556,5.58510638 C250.884529,9.11293896 251.854954,12.5336292 250.744389,16.2090145 C249.921908,18.9304948 249.14438,21.6652995 248.346849,24.3942064 L248.159007,24.4384395 C247.960063,24.2083184 247.759142,23.9797263 247.562397,23.7477485 C245.547245,21.3725967 244.404915,18.6662977 244.714212,15.5300098 C244.833247,14.3230477 245.226188,13.1155397 245.663973,11.97247 C246.547346,9.66612529 247.879827,7.60453687 249.505556,5.58510638" id="Fill-33" transform="translate(247.945662, 15.011773) scale(-1, 1) translate(-247.945662, -15.011773) "></path>
                <path d="M230.142953,91.5882102 C228.996777,90.7250647 227.825429,89.8927186 226.710358,88.9914564 C225.142443,87.7244248 223.73808,86.2916012 222.593002,84.6271273 C220.673365,81.8366217 220.918253,78.9561209 222.258976,76.0373941 C222.271945,76.0089975 222.315141,75.9944716 222.366251,75.9574468 C224.647174,77.969669 226.924469,79.9871336 228.753758,82.4478026 C229.937965,84.0406296 230.484894,85.8455572 230.54029,87.7897369 C230.575243,89.0148288 230.457855,90.2440712 230.408724,91.471566 C230.320135,91.5104474 230.231544,91.5493287 230.142953,91.5882102" id="Fill-37" transform="translate(225.874907, 83.772829) scale(-1, 1) translate(-225.874907, -83.772829) "></path>
                <path d="M243.143772,50.2659574 C243.175867,50.3958169 243.968123,52.3410887 244.268955,53.5693481 C244.636726,55.0708695 245.002297,56.5045668 245.350833,57.9424144 C246.246517,61.637022 245.002188,64.766757 242.745666,67.6253051 C242.678398,67.7104948 242.598711,67.7865101 242.520234,67.8621977 C242.496382,67.8852426 242.457473,67.8931063 242.394163,67.9222674 C240.839877,64.9996087 239.64347,61.9647836 239.168425,58.6625942 C238.776804,55.9407864 239.674686,53.7042317 241.556843,51.7249932" id="Fill-39" transform="translate(242.360709, 59.094112) scale(-1, 1) translate(-242.360709, -59.094112) "></path>
                <path d="M248.48758,36.8617021 C248.567487,39.4904567 248.679269,41.9578971 248.708395,44.4263205 C248.746426,47.6540236 247.177413,50.1122897 244.798556,52.1453724 C244.399461,52.4865677 243.965412,52.7872433 243.431564,53.1953889 C243.214156,52.1777008 242.993559,51.272179 242.830667,50.3566092 C242.44696,48.1990186 242.333858,46.0306155 242.512029,43.8385123 C242.768127,40.6871522 244.558835,38.6924048 247.286226,37.3631194 C247.61036,37.2051909 247.952411,37.083632 248.48758,36.8617021" id="Fill-43" transform="translate(245.569380, 45.028546) scale(-1, 1) translate(-245.569380, -45.028546) "></path>
                <path d="M233.832719,13.5002587 C233.183681,10.6290414 233.405486,7.86267282 234.993734,5.32347653 C236.943158,2.20662919 240.003697,0.792154102 243.617429,0 C243.342206,1.10626346 243.116114,2.10407401 242.843969,3.08921533 C242.300667,5.05665832 241.603816,6.96861885 240.511607,8.70856189 C239.03514,11.0611056 236.884355,12.5578214 234.27457,13.4477251 C234.205765,13.4709884 234.133662,13.4876987 234.061779,13.4986204 C234.009459,13.5067025 233.954834,13.5002587 233.832719,13.5002587" id="Fill-47" transform="translate(238.554808, 6.751346) scale(-1, 1) translate(-238.554808, -6.751346) "></path>
                <path d="M248.691402,24.5744681 C248.525102,25.7283504 248.419695,26.7919099 248.20987,27.834718 C247.924206,29.2550908 247.599411,30.6707673 247.217903,32.0687505 C246.673391,34.0639348 245.437525,35.5796544 243.740132,36.7443492 C242.668257,37.4797102 241.523069,38.0614023 240.206197,38.4793774 C240.206197,37.7019677 240.178499,36.9834262 240.211473,36.267615 C240.309516,34.1382026 240.660249,32.0550983 241.285656,30.0077082 C242.140673,27.2087928 244.068664,25.6173856 246.843648,24.92451 C247.408382,24.7835103 247.988944,24.7056383 248.691402,24.5744681" id="Fill-51" transform="translate(244.443357, 31.526923) scale(-1, 1) translate(-244.443357, -31.526923) "></path>
                <path d="M247.041157,13.5751149 C246.945643,13.8468479 246.879804,14.0870171 246.779123,14.3118958 C246.023249,16.0009435 245.303207,17.7076844 244.490177,19.3692094 C243.15319,22.1010653 240.819948,23.5166325 237.900649,24.0904609 C237.364602,24.1958558 236.818223,24.2509013 236.27547,24.3204728 C236.134891,24.3383846 235.990025,24.3230941 235.726563,24.3230941 C236.043993,23.2428244 236.317567,22.2170541 236.647636,21.2097417 C237.198522,19.5289946 237.96308,17.9491641 238.937132,16.4623872 C240.049346,14.7644929 241.628911,13.8404041 243.605264,13.531428 C244.728359,13.3558063 245.853432,13.3544957 247.041157,13.5751149" id="Fill-53" transform="translate(241.383860, 18.866715) scale(-1, 1) translate(-241.383860, -18.866715) "></path>
                <path d="M252.10743,28.0820322 C251.86584,28.2206292 251.716907,28.3632672 251.547531,28.3936296 C250.751757,28.5359398 250.561717,28.9696423 251.046325,29.5945845 C251.168989,29.7528406 251.289893,29.9137179 251.425197,30.060943 C251.868918,30.5437933 252.391665,30.4343575 252.659964,29.8247056 C252.735804,29.6524698 252.881109,29.5103779 253.06994,29.2505496 C253.217445,30.0622537 252.987615,30.498905 252.390127,30.7918261 C251.894636,31.0346165 251.496531,30.935447 251.087323,30.4572931 C250.897832,30.2358001 250.714057,30.0089555 250.537426,29.7771961 C250.173832,29.3004619 250.156687,28.8441515 250.477524,28.4316372 C250.874311,27.9219194 251.377934,27.7816842 252.10743,28.0820322" id="Fill-57" transform="translate(251.681629, 29.422516) scale(-1, 1) translate(-251.681629, -29.422516) "></path>
                <path d="M252.484375,31.856049 C253.069003,31.5041504 253.252889,31.1750782 252.790483,30.7145082 C252.727833,30.6520359 252.838295,30.4178737 252.888746,30.1595745 C253.350272,30.5668462 253.741564,30.892205 253.597357,31.3736355 C253.506349,31.6774784 253.162211,31.9115314 252.90787,32.1521375 C252.887757,32.1711412 252.681779,31.9961748 252.484375,31.856049" id="Fill-59" transform="translate(253.056053, 31.156568) scale(-1, 1) translate(-253.056053, -31.156568) "></path>
                <path d="M255.953157,38.4514728 C256.096264,34.9357634 256.274653,31.5068818 256.357309,28.0757067 C256.392481,26.6141589 255.957114,25.2092949 255.418318,23.8482272 C254.746968,22.1522988 253.856779,20.5790215 252.722033,18.9893617 C252.445821,19.6562433 252.187854,20.2238463 251.973084,20.8072859 C250.970453,23.5308413 250.161601,26.3067118 250.257775,29.2392001 C250.388353,33.2226878 252.380752,36.1645688 255.635178,38.3489176 C255.677274,38.3769865 255.734979,38.3823382 255.953157,38.4514728" id="Fill-61" transform="translate(253.304650, 28.720417) scale(-1, 1) translate(-253.304650, -28.720417) "></path>
            </g>
        </g>
    </g>
</svg>