<?xml version="1.0" encoding="UTF-8"?>
<svg width="257px" height="104px" viewBox="0 0 257 104" version="1.1" xmlns="http://www.w3.org/2000/svg" xmlns:xlink="http://www.w3.org/1999/xlink">
    <!-- Generator: Sketch 42 (36781) - http://www.bohemiancoding.com/sketch -->
    <title>Group 6</title>
    <desc>Created with Sketch.</desc>
    <defs></defs>
    <g id="Page-1" stroke="none" stroke-width="1" fill="none" fill-rule="evenodd">
        <g id="Desktop-HD-Copy-9" transform="translate(-592.000000, -3310.000000)" fill-rule="nonzero" fill="#FFFFFF">
            <g id="Group-6" transform="translate(592.000000, 3310.000000)">
                <path d="M79.34375,17.243426 L85.1030286,17.243426 C85.8309031,17.243426 86.5678651,17.3202569 87.3139365,17.4739209 C88.0600079,17.627585 88.7287326,17.8897138 89.3201307,18.2603153 C89.9115288,18.6309168 90.3937384,19.1325772 90.7667741,19.7653115 C91.1398098,20.3980458 91.3263249,21.1934712 91.3263249,22.1516117 C91.3263249,23.1639866 91.0169828,24.0452818 90.3982895,24.7955239 C89.7795961,25.545766 88.9516512,26.0383874 87.91443,26.273403 L87.91443,26.3276371 C89.1700136,26.4722621 90.2117684,26.9558446 91.0397257,27.7783992 C91.867683,28.6009538 92.2816555,29.7172611 92.2816555,31.1273546 C92.2816555,31.922792 92.113337,32.6504255 91.776695,33.310277 C91.440053,33.9701285 90.9623925,34.5305419 90.3436992,34.991534 C89.7250058,35.4525261 88.9698473,35.8095637 88.0782009,36.0626574 C87.1865546,36.3157511 86.1857421,36.4422961 85.0757334,36.4422961 L79.34375,36.4422961 L79.34375,17.243426 Z M81.3090015,25.6497109 L85.2667995,25.6497109 C85.739918,25.6497109 86.2175785,25.5954774 86.6997954,25.4870086 C87.1820123,25.3785399 87.6232796,25.1932419 88.0236106,24.9311091 C88.4239416,24.6689764 88.7469311,24.3209777 88.9925888,23.8871028 C89.2382464,23.4532279 89.3610734,22.9199312 89.3610734,22.287197 C89.3610734,21.6725408 89.2382464,21.1528026 88.9925888,20.7279667 C88.7469311,20.3031308 88.4148433,19.9551322 87.9963155,19.6839603 C87.5777876,19.4127885 87.0864796,19.2184516 86.5223769,19.1009438 C85.9582741,18.983436 85.3577866,18.924683 84.7208964,18.924683 L81.3090015,18.924683 L81.3090015,25.6497109 Z M81.3090015,34.7610391 L84.9665528,34.7610391 C85.6762305,34.7610391 86.3540535,34.6932471 87.0000422,34.5576612 C87.6460308,34.4220753 88.2101251,34.2051411 88.692342,33.9068521 C89.1745589,33.608563 89.5612365,33.2198892 89.8523863,32.740819 C90.1435361,32.2617488 90.2891088,31.687777 90.2891088,31.0188864 C90.2891088,29.7534179 89.8569398,28.8088501 88.9925888,28.1851549 C88.1282377,27.5614597 86.904517,27.2496168 85.3213899,27.2496168 L81.3090015,27.2496168 L81.3090015,34.7610391 Z M98.6687227,34.706805 L109.013588,34.706805 L109.013588,36.4422961 L96.7034712,36.4422961 L96.7034712,17.243426 L108.686046,17.243426 L108.686046,18.9789171 L98.6687227,18.9789171 L98.6687227,25.5954768 L108.030962,25.5954768 L108.030962,27.3038509 L98.6687227,27.3038509 L98.6687227,34.706805 Z M122.224445,20.3347695 C121.805917,19.7562696 121.269118,19.2907649 120.614031,18.9382415 C119.958944,18.5857181 119.167392,18.4094591 118.239352,18.4094591 C117.766233,18.4094591 117.284024,18.4817705 116.792708,18.6263955 C116.301393,18.7710204 115.855577,18.9924741 115.455246,19.2907631 C115.054915,19.5890522 114.731925,19.9641676 114.486267,20.4161206 C114.24061,20.8680737 114.117783,21.4013703 114.117783,22.0160265 C114.117783,22.6306826 114.236061,23.1368625 114.47262,23.5345812 C114.709179,23.9322999 115.02307,24.2712596 115.414303,24.5514705 C115.805535,24.8316814 116.251352,25.062174 116.751766,25.2429552 C117.252179,25.4237364 117.775331,25.6045149 118.321237,25.7852962 C118.994521,26.0022336 119.672344,26.2372457 120.354727,26.4903394 C121.037109,26.7434331 121.651244,27.0733539 122.19715,27.4801117 C122.743056,27.8868694 123.188872,28.4020882 123.534613,29.0257834 C123.880353,29.6494786 124.053221,30.4403846 124.053221,31.3985251 C124.053221,32.3566656 123.866706,33.1837273 123.49367,33.879735 C123.120634,34.5757427 122.638425,35.1497145 122.047027,35.6016676 C121.455628,36.0536206 120.782355,36.3880609 120.027185,36.6049984 C119.272015,36.8219358 118.512307,36.9304029 117.748039,36.9304029 C117.165739,36.9304029 116.583448,36.8716499 116.001149,36.7541421 C115.418849,36.6366343 114.863853,36.4603753 114.336144,36.2253597 C113.808435,35.9903441 113.317127,35.6920595 112.862205,35.3304971 C112.407284,34.9689346 112.006959,34.5531441 111.661218,34.0831129 L113.353518,32.8357287 C113.772046,33.5226973 114.358886,34.0966691 115.114056,34.5576612 C115.869226,35.0186533 116.75631,35.2491459 117.775334,35.2491459 C118.266649,35.2491459 118.767056,35.1723151 119.276568,35.018651 C119.78608,34.864987 120.245544,34.6299749 120.654973,34.3136078 C121.064403,33.9972406 121.40104,33.6085668 121.664894,33.1475747 C121.928749,32.6865826 122.060674,32.1487665 122.060674,31.5341104 C122.060674,30.8652198 121.928749,30.3093259 121.664894,29.8664119 C121.40104,29.4234979 121.050755,29.0529019 120.614031,28.7546129 C120.177306,28.4563239 119.6769,28.2077535 119.112797,28.0088941 C118.548694,27.8100348 117.957305,27.6111784 117.338612,27.412319 C116.701721,27.2134597 116.073939,26.9874866 115.455246,26.7343928 C114.836552,26.4812991 114.281556,26.1513783 113.790241,25.7446206 C113.298926,25.3378628 112.90315,24.8362025 112.602901,24.2396244 C112.302653,23.6430464 112.152531,22.9108934 112.152531,22.0431435 C112.152531,21.1211593 112.339046,20.3257338 112.712082,19.6568433 C113.085118,18.9879528 113.571877,18.4365783 114.172373,18.0027034 C114.77287,17.5688284 115.437045,17.252466 116.16492,17.0536067 C116.892794,16.8547473 117.61156,16.7553191 118.321237,16.7553191 C119.631412,16.7553191 120.750502,16.9858118 121.678542,17.4468039 C122.606582,17.907796 123.307151,18.454651 123.780269,19.0873853 L122.224445,20.3347695 Z M133.961364,36.4422961 L131.996112,36.4422961 L131.996112,18.9789171 L125.527159,18.9789171 L125.527159,17.243426 L140.430316,17.243426 L140.430316,18.9789171 L133.961364,18.9789171 L133.961364,36.4422961 Z M168.598921,26.842861 C168.598921,28.307189 168.344168,29.6539889 167.834656,30.8833012 C167.325144,32.1126135 166.620026,33.1746873 165.719281,34.0695544 C164.818537,34.9644214 163.754037,35.6649382 162.525748,36.1711256 C161.297459,36.677313 159.96456,36.9304029 158.527007,36.9304029 C157.089454,36.9304029 155.756555,36.677313 154.528266,36.1711256 C153.299978,35.6649382 152.235477,34.9644214 151.334732,34.0695544 C150.433988,33.1746873 149.728869,32.1126135 149.219358,30.8833012 C148.709846,29.6539889 148.455093,28.307189 148.455093,26.842861 C148.455093,25.3785331 148.709846,24.0317332 149.219358,22.8024209 C149.728869,21.5731085 150.433988,20.5110348 151.334732,19.6161677 C152.235477,18.7213007 153.299978,18.0207839 154.528266,17.5145965 C155.756555,17.0084091 157.089454,16.7553191 158.527007,16.7553191 C159.96456,16.7553191 161.297459,17.0084091 162.525748,17.5145965 C163.754037,18.0207839 164.818537,18.7213007 165.719281,19.6161677 C166.620026,20.5110348 167.325144,21.5731085 167.834656,22.8024209 C168.344168,24.0317332 168.598921,25.3785331 168.598921,26.842861 Z M166.524488,26.842861 C166.524488,25.7220174 166.342523,24.6554242 165.978585,23.6430494 C165.614648,22.6306745 165.086947,21.7403403 164.395466,20.9720201 C163.703986,20.2036999 162.862392,19.5935724 161.870664,19.1416194 C160.878935,18.6896663 159.764393,18.4636932 158.527007,18.4636932 C157.28962,18.4636932 156.175078,18.6896663 155.18335,19.1416194 C154.191621,19.5935724 153.350028,20.2036999 152.658548,20.9720201 C151.967067,21.7403403 151.439366,22.6306745 151.075428,23.6430494 C150.711491,24.6554242 150.529525,25.7220174 150.529525,26.842861 C150.529525,27.9637046 150.711491,29.0302979 151.075428,30.0426727 C151.439366,31.0550476 151.967067,31.9408623 152.658548,32.7001434 C153.350028,33.4594246 154.191621,34.0650326 155.18335,34.5169856 C156.175078,34.9689387 157.28962,35.1949119 158.527007,35.1949119 C159.764393,35.1949119 160.878935,34.9689387 161.870664,34.5169856 C162.862392,34.0650326 163.703986,33.4594246 164.395466,32.7001434 C165.086947,31.9408623 165.614648,31.0550476 165.978585,30.0426727 C166.342523,29.0302979 166.524488,27.9637046 166.524488,26.842861 Z M174.658446,36.4422961 L172.693194,36.4422961 L172.693194,17.243426 L184.348227,17.243426 L184.348227,18.9789171 L174.658446,18.9789171 L174.658446,25.6497109 L183.665848,25.6497109 L183.665848,27.358085 L174.658446,27.358085 L174.658446,36.4422961 Z" id="BEST-OF"></path>
                <path d="M62.7300694,49.7569614 L62.7300694,53.7160504 L70.208943,53.7160504 L70.208943,57.5395542 L62.7300694,57.5395542 L62.7300694,64.9967424 L58.1171875,64.9967424 L58.1171875,45.7978723 L70.8367317,45.7978723 L70.8367317,49.7569614 L62.7300694,49.7569614 Z M73.8391992,64.9967424 L73.8391992,45.7978723 L86.831695,45.7978723 L86.831695,49.7298443 L78.3429005,49.7298443 L78.3429005,53.3364117 L86.3676773,53.3364117 L86.3676773,57.0514473 L78.3429005,57.0514473 L78.3429005,61.0376534 L87.3230078,61.0376534 L87.3230078,64.9967424 L73.8391992,64.9967424 Z M105.474289,59.4106305 C105.474289,60.4591616 105.265028,61.3404568 104.8465,62.0545427 C104.427972,62.7686285 103.872976,63.3426003 103.181495,63.7764752 C102.490015,64.2103502 101.703012,64.5221931 100.820464,64.7120134 C99.9379162,64.9018337 99.0326358,64.9967424 98.1045957,64.9967424 L90.4073608,64.9967424 L90.4073608,45.7978723 L98.1045957,45.7978723 C98.8506671,45.7978723 99.614924,45.8747032 100.397389,46.0283672 C101.179854,46.1820313 101.889521,46.4441601 102.526412,46.8147616 C103.163302,47.1853632 103.681905,47.6870235 104.082236,48.3197578 C104.482567,48.9524921 104.682729,49.7569565 104.682729,50.7331751 C104.682729,51.7997843 104.391584,52.6810796 103.809284,53.3770873 C103.226984,54.073095 102.462728,54.5747554 101.516491,54.8820835 L101.516491,54.9363175 C102.062397,55.0267082 102.57645,55.1939283 103.058667,55.4379829 C103.540884,55.6820376 103.959406,55.9938805 104.314244,56.3735211 C104.669083,56.7531617 104.95113,57.196069 105.160394,57.7022565 C105.369658,58.2084439 105.474289,58.7778962 105.474289,59.4106305 Z M100.179028,51.3568672 C100.179028,50.7060548 99.9288247,50.2315112 99.4284109,49.9332222 C98.9279972,49.6349332 98.1864861,49.4857909 97.2038555,49.4857909 L94.9110621,49.4857909 L94.9110621,53.4448799 L97.4222167,53.4448799 C98.2956662,53.4448799 98.9734892,53.2686209 99.4557061,52.9160975 C99.937923,52.5635741 100.179028,52.0438359 100.179028,51.3568672 Z M100.806816,58.9767577 C100.806816,58.1813203 100.506573,57.6299459 99.9060762,57.3226178 C99.3055797,57.0152897 98.5049297,56.861628 97.5041022,56.861628 L94.9110621,56.861628 L94.9110621,61.2545898 L97.5313974,61.2545898 C97.8953347,61.2545898 98.2729139,61.2229535 98.6641465,61.1596801 C99.0553791,61.0964067 99.4102126,60.9834201 99.7286577,60.820717 C100.047103,60.6580139 100.306404,60.4275213 100.50657,60.1292323 C100.706735,59.8309432 100.806816,59.4467889 100.806816,58.9767577 Z M118.903507,64.9967424 L114.727348,57.3768519 L113.144228,57.3768519 L113.144228,64.9967424 L108.558642,64.9967424 L108.558642,45.7978723 L115.928335,45.7978723 C116.856375,45.7978723 117.761655,45.8927811 118.644203,46.0826013 C119.526751,46.2724216 120.318303,46.5933035 121.018882,47.0452566 C121.719461,47.4972096 122.279006,48.0937787 122.697534,48.8349817 C123.116062,49.5761847 123.325323,50.4981552 123.325323,51.6009206 C123.325323,52.9025454 122.970489,53.9962555 122.260812,54.8820835 C121.551134,55.7679115 120.568518,56.4006362 119.312934,56.7802768 L124.362539,64.9967424 L118.903507,64.9967424 Z M118.712441,51.6822718 C118.712441,51.2303187 118.616909,50.8642422 118.425842,50.5840313 C118.234775,50.3038204 117.989121,50.0868862 117.688872,49.9332222 C117.388624,49.7795581 117.051987,49.6756105 116.678952,49.6213761 C116.305916,49.5671418 115.946533,49.540025 115.600793,49.540025 L113.116933,49.540025 L113.116933,54.0143379 L115.327841,54.0143379 C115.709975,54.0143379 116.101202,53.9827017 116.501533,53.9194282 C116.901864,53.8561548 117.265796,53.7431682 117.593339,53.5804651 C117.920883,53.417762 118.189283,53.18275 118.398547,52.8754219 C118.607811,52.5680938 118.712441,52.1703811 118.712441,51.6822718 Z M143.032428,57.7564905 C143.032428,58.9134904 142.836814,59.9665252 142.445582,60.9156267 C142.054349,61.8647281 141.494804,62.6782314 140.76693,63.356161 C140.039055,64.0340906 139.161069,64.5628677 138.132947,64.9425083 C137.104824,65.3221489 135.962988,65.5119663 134.707404,65.5119663 C133.433624,65.5119663 132.287239,65.3221489 131.268214,64.9425083 C130.24919,64.5628677 129.384852,64.0340906 128.675174,63.356161 C127.965496,62.6782314 127.419599,61.8647281 127.037464,60.9156267 C126.65533,59.9665252 126.464266,58.9134904 126.464266,57.7564905 L126.464266,45.7978723 L131.104443,45.7978723 L131.104443,57.3768519 C131.104443,57.9011174 131.17268,58.3982583 131.309157,58.8682895 C131.445633,59.3383207 131.654894,59.7586307 131.936946,60.1292323 C132.218997,60.4998338 132.592027,60.7935988 133.056047,61.0105363 C133.520067,61.2274738 134.079612,61.3359409 134.734699,61.3359409 C135.389786,61.3359409 135.949332,61.2274738 136.413352,61.0105363 C136.877372,60.7935988 137.254951,60.4998338 137.546101,60.1292323 C137.83725,59.7586307 138.046511,59.3383207 138.173889,58.8682895 C138.301268,58.3982583 138.364956,57.9011174 138.364956,57.3768519 L138.364956,45.7978723 L143.032428,45.7978723 L143.032428,57.7564905 Z M159.409523,64.9967424 L157.90829,61.2274727 L150.429416,61.2274727 L149.010068,64.9967424 L143.933168,64.9967424 L152.03983,45.7978723 L156.570827,45.7978723 L164.595604,64.9967424 L159.409523,64.9967424 Z M154.223443,50.9229944 L151.766879,57.5124371 L156.625417,57.5124371 L154.223443,50.9229944 Z M176.550883,64.9967424 L172.374724,57.3768519 L170.791605,57.3768519 L170.791605,64.9967424 L166.206018,64.9967424 L166.206018,45.7978723 L173.575711,45.7978723 C174.50375,45.7978723 175.409031,45.8927811 176.291579,46.0826013 C177.174127,46.2724216 177.965679,46.5933035 178.666258,47.0452566 C179.366837,47.4972096 179.926383,48.0937787 180.34491,48.8349817 C180.763438,49.5761847 180.972699,50.4981552 180.972699,51.6009206 C180.972699,52.9025454 180.617866,53.9962555 179.908188,54.8820835 C179.19851,55.7679115 178.215895,56.4006362 176.960311,56.7802768 L182.009915,64.9967424 L176.550883,64.9967424 Z M176.359817,51.6822718 C176.359817,51.2303187 176.264285,50.8642422 176.073218,50.5840313 C175.88215,50.3038204 175.636497,50.0868862 175.336249,49.9332222 C175.036001,49.7795581 174.699364,49.6756105 174.326328,49.6213761 C173.953292,49.5671418 173.59391,49.540025 173.248169,49.540025 L170.76431,49.540025 L170.76431,54.0143379 L172.975217,54.0143379 C173.357351,54.0143379 173.748578,53.9827017 174.148909,53.9194282 C174.549241,53.8561548 174.913172,53.7431682 175.240716,53.5804651 C175.568259,53.417762 175.836659,53.18275 176.045923,52.8754219 C176.255187,52.5680938 176.359817,52.1703811 176.359817,51.6822718 Z M193.419292,56.861628 L193.419292,64.9967424 L188.751819,64.9967424 L188.751819,56.861628 L181.491307,45.7978723 L187.141405,45.7978723 L191.262974,52.9025389 L195.384543,45.7978723 L200.843575,45.7978723 L193.419292,56.861628 Z" id="FEBRUARY"></path>
                <path d="M91.6328125,103.115194 L91.6328125,102.574971 C92.0539704,102.569675 92.3165238,102.552462 92.4204805,102.523333 C92.5244371,102.494203 92.6203957,102.438592 92.7083591,102.356499 C92.7963224,102.274406 92.9229344,102.061232 93.088199,101.716971 C93.1841589,101.521007 93.530676,100.776885 94.1277606,99.4845813 L96.1269179,95.0039128 C96.3454934,94.5113546 96.8119588,93.4150318 97.5263279,91.7149115 L98.0461088,91.7149115 L101.460669,99.6831925 C102.015105,100.975496 102.382946,101.785821 102.564204,102.114194 C102.665495,102.299565 102.776114,102.421378 102.896064,102.479638 C103.016014,102.537898 103.286564,102.569675 103.707722,102.574971 L103.707722,103.115194 C102.876068,103.062231 102.294986,103.035749 101.964457,103.035749 L99.3895424,103.115194 L99.3895424,102.574971 C99.986627,102.564379 100.349137,102.545842 100.477084,102.51936 C100.60503,102.492879 100.69166,102.454481 100.736974,102.404166 C100.782289,102.353851 100.804946,102.29162 100.804946,102.217471 C100.804946,102.100952 100.767628,101.950009 100.692993,101.764638 L99.7094075,99.3336368 L95.0793596,99.3336368 L94.207727,101.37536 C94.0531248,101.740806 93.9758247,102.008267 93.9758247,102.177749 C93.9758247,102.251898 93.9971488,102.312804 94.0397978,102.360471 C94.09844,102.429324 94.1890676,102.47699 94.3116832,102.503471 C94.5089343,102.545842 94.8554514,102.569675 95.3512449,102.574971 L95.3512449,103.115194 C94.4502868,103.067527 93.7759113,103.043694 93.3280978,103.043694 C92.8109799,103.043694 92.2458904,103.067527 91.6328125,103.115194 Z M95.3512449,98.6583587 L99.3895424,98.6583587 L97.3903851,93.8678568 L95.3512449,98.6583587 Z M104.523378,92.3345783 L104.523378,91.8261337 C105.594932,91.8579116 106.442566,91.8738005 107.066306,91.8738005 C107.482133,91.8738005 107.924608,91.8685042 108.393746,91.8579115 L109.649217,91.8181894 C109.787826,91.812893 109.915771,91.8102449 110.033055,91.8102449 C110.880702,91.8102449 111.547081,91.9029292 112.032212,92.0883005 C112.517344,92.2736718 112.895847,92.5689376 113.167734,92.9741064 C113.43962,93.3792752 113.575562,93.8413726 113.575562,94.3604126 C113.575562,94.8264892 113.462277,95.2899106 113.235705,95.7506909 C113.009133,96.2114711 112.679941,96.6020693 112.248121,96.9224969 C111.816301,97.2429246 111.365829,97.4719872 110.896691,97.6096916 C110.576824,97.7050255 110.214314,97.7526917 109.80915,97.7526917 C109.467958,97.7526917 109.100117,97.715618 108.705615,97.6414694 L108.537686,97.0535803 C109.012155,97.1595069 109.385327,97.2124693 109.657214,97.2124693 C110.057047,97.2124693 110.436883,97.1158127 110.796733,96.9224969 C111.156583,96.729181 111.436462,96.4378875 111.636379,96.0486076 C111.836296,95.6593278 111.936253,95.2290079 111.936253,94.7576349 C111.936253,94.302151 111.838961,93.8903679 111.644376,93.5222733 C111.44979,93.1541788 111.153918,92.8748017 110.75675,92.684134 C110.359582,92.4934664 109.878456,92.3981339 109.313358,92.3981339 C108.806903,92.3981339 108.263137,92.4881701 107.682046,92.6682452 C107.634066,93.2296556 107.610077,94.1088324 107.610077,95.3058019 L107.610077,99.3098035 C107.610077,100.030104 107.618073,100.731856 107.634067,101.415082 C107.65006,101.918233 107.68871,102.217471 107.750018,102.312805 C107.811325,102.408139 107.909949,102.478314 108.045893,102.523333 C108.181836,102.568351 108.567003,102.596157 109.201406,102.606749 L109.201406,103.115194 C108.21515,103.072823 107.490129,103.051638 107.026323,103.051638 C106.845065,103.051638 106.010758,103.072823 104.523378,103.115194 L104.523378,102.606749 C105.152449,102.596157 105.536284,102.568351 105.674892,102.523333 C105.813501,102.478314 105.90946,102.416083 105.962771,102.336638 C106.026745,102.230712 106.066727,101.973844 106.082721,101.566027 C106.088052,101.454804 106.098714,100.702737 106.114707,99.3098035 L106.114707,95.6315242 C106.114707,94.911224 106.10671,94.2068233 106.090717,93.5183011 C106.074724,93.0151502 106.036074,92.7172364 105.974766,92.6245507 C105.913458,92.531865 105.814834,92.4630139 105.678891,92.4179951 C105.542947,92.3729764 105.15778,92.3451711 104.523378,92.3345783 Z M114.415208,92.3345783 L114.415208,91.8261337 C115.486761,91.8579116 116.334395,91.8738005 116.958136,91.8738005 C117.373962,91.8738005 117.816438,91.8685042 118.285576,91.8579115 L119.541047,91.8181894 C119.679656,91.812893 119.8076,91.8102449 119.924885,91.8102449 C120.772532,91.8102449 121.438911,91.9029292 121.924042,92.0883005 C122.409173,92.2736718 122.787676,92.5689376 123.059563,92.9741064 C123.33145,93.3792752 123.467391,93.8413726 123.467391,94.3604126 C123.467391,94.8264892 123.354107,95.2899106 123.127535,95.7506909 C122.900962,96.2114711 122.571771,96.6020693 122.139951,96.9224969 C121.708131,97.2429246 121.257659,97.4719872 120.788521,97.6096916 C120.468654,97.7050255 120.106144,97.7526917 119.700979,97.7526917 C119.359788,97.7526917 118.991947,97.715618 118.597444,97.6414694 L118.429515,97.0535803 C118.903984,97.1595069 119.277156,97.2124693 119.549043,97.2124693 C119.948877,97.2124693 120.328713,97.1158127 120.688563,96.9224969 C121.048413,96.729181 121.328292,96.4378875 121.528209,96.0486076 C121.728126,95.6593278 121.828082,95.2290079 121.828082,94.7576349 C121.828082,94.302151 121.730791,93.8903679 121.536205,93.5222733 C121.34162,93.1541788 121.045748,92.8748017 120.64858,92.684134 C120.251412,92.4934664 119.770286,92.3981339 119.205188,92.3981339 C118.698732,92.3981339 118.154967,92.4881701 117.573876,92.6682452 C117.525896,93.2296556 117.501906,94.1088324 117.501906,95.3058019 L117.501906,99.3098035 C117.501906,100.030104 117.509903,100.731856 117.525896,101.415082 C117.54189,101.918233 117.580539,102.217471 117.641847,102.312805 C117.703155,102.408139 117.801779,102.478314 117.937723,102.523333 C118.073666,102.568351 118.458833,102.596157 119.093235,102.606749 L119.093235,103.115194 C118.10698,103.072823 117.381959,103.051638 116.918152,103.051638 C116.736895,103.051638 115.902588,103.072823 114.415208,103.115194 L114.415208,102.606749 C115.044279,102.596157 115.428113,102.568351 115.566722,102.523333 C115.705331,102.478314 115.80129,102.416083 115.854601,102.336638 C115.918574,102.230712 115.958557,101.973844 115.97455,101.566027 C115.979881,101.454804 115.990543,100.702737 116.006537,99.3098035 L116.006537,95.6315242 C116.006537,94.911224 115.99854,94.2068233 115.982547,93.5183011 C115.966554,93.0151502 115.927904,92.7172364 115.866596,92.6245507 C115.805288,92.531865 115.706664,92.4630139 115.57072,92.4179951 C115.434777,92.3729764 115.04961,92.3451711 114.415208,92.3345783 Z M128.201395,102.725916 C128.286693,102.217469 128.337338,101.393903 128.353331,100.255193 L128.897102,100.255193 C128.923758,101.028456 128.967739,101.485257 129.029046,101.62561 C129.090354,101.765963 129.238291,101.915582 129.472859,102.074471 C129.707428,102.233361 130.021959,102.375036 130.416462,102.499499 C130.810964,102.623963 131.192133,102.686194 131.559979,102.686194 C132.098422,102.686194 132.594208,102.563056 133.047352,102.316777 C133.500497,102.070498 133.831021,101.747427 134.038934,101.347554 C134.246848,100.947682 134.350803,100.52001 134.350803,100.064526 C134.350803,99.7149685 134.298825,99.4130826 134.194869,99.1588589 C134.090912,98.9046353 133.932314,98.6994058 133.719069,98.5431643 C133.505825,98.3869226 133.241939,98.2770256 132.927403,98.2134696 C132.730152,98.1816917 132.335655,98.1287293 131.743902,98.0545807 C131.152148,97.9804322 130.648366,97.8983404 130.232539,97.8083028 C129.678103,97.6388205 129.270279,97.4402113 129.009055,97.2124693 C128.74783,96.9847273 128.535922,96.6854895 128.373323,96.3147467 C128.210724,95.9440039 128.129426,95.5441374 128.129426,95.1151351 C128.129426,94.4901688 128.293355,93.9009614 128.621218,93.3474954 C128.949082,92.7940295 129.434206,92.3637095 130.076605,92.0565227 C130.719004,91.7493359 131.416036,91.5957447 132.167723,91.5957447 C132.620868,91.5957447 133.115321,91.6553275 133.651098,91.7744948 C134.186875,91.8936622 134.686659,92.0671142 135.150466,92.2948561 C135.07583,92.6285246 135.02252,92.939679 134.990533,93.2283287 C134.958547,93.5169785 134.934557,93.9420021 134.918564,94.5034126 L134.374793,94.5034126 C134.358799,93.6877786 134.33481,93.242894 134.302823,93.1687454 C134.169545,92.9780777 133.98829,92.8059497 133.759052,92.6523563 C133.209948,92.3451695 132.636862,92.1915784 132.039777,92.1915784 C131.266766,92.1915784 130.649699,92.4259372 130.188558,92.894662 C129.727416,93.3633867 129.496849,93.9711308 129.496849,94.7179127 C129.496849,95.1681003 129.57948,95.5163284 129.744745,95.7626075 C129.910009,96.0088867 130.205882,96.2061718 130.632371,96.3544689 C130.925582,96.4550991 131.405375,96.5491074 132.071764,96.6364968 C132.738153,96.7238861 133.337894,96.8178946 133.871005,96.9185247 C134.37213,97.0668217 134.742637,97.242922 134.982537,97.4468304 C135.222437,97.650739 135.419685,97.9181994 135.574287,98.2492197 C135.728889,98.58024 135.806189,98.96819 135.806189,99.4130812 C135.806189,100.46705 135.366379,101.385949 134.486746,102.169805 C133.607112,102.953661 132.468937,103.345583 131.072185,103.345583 C130.016625,103.345583 129.059705,103.139029 128.201395,102.725916 Z M137.197603,94.4557458 L136.701812,94.4557458 C136.69648,93.1899242 136.669825,92.3133956 136.621846,91.8261337 C137.202936,91.847319 138.114543,91.8738003 139.356692,91.9055782 C140.364273,91.9267636 141.035983,91.937356 141.371843,91.937356 C141.734359,91.937356 142.573996,91.9214672 143.890781,91.8896893 C144.84505,91.8685039 145.54075,91.847319 145.977901,91.8261337 C145.913927,92.4193221 145.87128,93.2958507 145.849955,94.4557458 L145.338171,94.4557458 L145.274198,93.6930789 C145.231548,93.2322987 145.202228,92.9701346 145.186234,92.9065786 C145.170242,92.8430227 145.147584,92.7980046 145.118264,92.7715231 C145.088942,92.7450414 145.044961,92.7238565 144.986319,92.7079675 C144.911683,92.6920784 144.645132,92.6708935 144.186657,92.6444119 C143.72818,92.6179302 143.36567,92.6046896 143.099115,92.6046896 L142.123526,92.6046896 C142.070215,93.1131367 142.04356,93.7990006 142.04356,94.6623016 L142.04356,99.3098035 C142.04356,100.030104 142.051556,100.731856 142.067549,101.415082 C142.083543,101.918233 142.122193,102.217471 142.1835,102.312805 C142.244808,102.408139 142.343432,102.478314 142.479376,102.523333 C142.615319,102.568351 143.000487,102.596157 143.634889,102.606749 L143.634889,103.115194 C142.68062,103.072823 141.963596,103.051638 141.483796,103.051638 C141.275882,103.051638 140.444241,103.072823 138.988848,103.115194 L138.988848,102.606749 C139.62325,102.596157 140.009749,102.568351 140.148358,102.523333 C140.286967,102.478314 140.380261,102.416083 140.42824,102.336638 C140.497545,102.230712 140.540194,101.973844 140.556186,101.566027 C140.556186,101.454804 140.566849,100.702737 140.588173,99.3098035 L140.588173,94.6781905 C140.588173,94.4557448 140.582843,94.2121175 140.57218,93.9473012 L140.5242,92.6046896 L139.332703,92.6046896 C138.644989,92.6046896 138.098559,92.6311708 137.693394,92.684134 C137.565447,92.700023 137.482815,92.7344486 137.445499,92.7874119 C137.386857,92.8774494 137.333545,93.1660948 137.285566,93.6533567 L137.197603,94.4557458 Z M146.417715,97.546136 C146.417715,96.7093167 146.544328,95.9360648 146.797556,95.2263573 C147.050783,94.5166498 147.470601,93.8784522 148.057024,93.3117454 C148.643447,92.7450387 149.30716,92.3173669 150.048184,92.0287172 C150.78921,91.7400674 151.636844,91.5957447 152.591113,91.5957447 C153.470746,91.5957447 154.270402,91.7188825 154.990101,91.9651616 C155.709802,92.2114406 156.300213,92.5371598 156.761355,92.9423286 C157.222496,93.3474974 157.586339,93.7910581 157.852894,94.2730236 C158.055477,94.6331738 158.216741,95.0568733 158.336691,95.5441352 C158.456641,96.0313971 158.516615,96.5530773 158.516615,97.1091914 C158.516615,98.8940529 157.912875,100.37965 156.705378,101.566027 C155.497881,102.752403 153.974538,103.345583 152.135305,103.345583 C151.29832,103.345583 150.517324,103.210529 149.792292,102.940416 C149.067262,102.670303 148.454193,102.269113 147.953068,101.736832 C147.451944,101.204551 147.070775,100.55841 146.809551,99.7983869 C146.548325,99.0383644 146.417715,98.2876216 146.417715,97.546136 Z M148.081014,96.8867469 C148.081014,97.3898978 148.131659,97.9009855 148.23295,98.4200253 C148.334241,98.9390652 148.462187,99.3865979 148.616788,99.762637 C148.872681,100.398196 149.207204,100.931793 149.620365,101.363443 C150.033527,101.795094 150.494661,102.112868 151.003782,102.316777 C151.512904,102.520685 152.07666,102.622638 152.69507,102.622638 C153.553378,102.622638 154.299723,102.414761 154.934126,101.998999 C155.568528,101.583238 156.041657,100.998002 156.353527,100.243276 C156.665396,99.4885497 156.821329,98.6186414 156.821329,97.6335249 C156.821329,96.7914093 156.709378,96.0155094 156.485471,95.3058019 C156.346862,94.8715032 156.162941,94.4782569 155.933703,94.1260514 C155.704466,93.7738458 155.431251,93.4666634 155.11405,93.2044954 C154.796849,92.9423273 154.385026,92.721209 153.87857,92.5411341 C153.372115,92.361059 152.825684,92.2710228 152.239261,92.2710228 C151.391614,92.2710228 150.647935,92.4590395 150.008202,92.8350787 C149.368468,93.2111177 148.887343,93.7553069 148.56481,94.4676626 C148.242278,95.1800183 148.081014,95.9863717 148.081014,96.8867469 Z M159.260301,92.3345783 L159.260301,91.8261337 C159.468215,91.8314301 159.785412,91.8393744 160.2119,91.849967 L161.747253,91.8896893 C162.051125,91.8896893 162.522922,91.8790968 163.162657,91.8579115 C163.99431,91.8261336 164.476768,91.8102449 164.610045,91.8102449 C165.628288,91.8102449 166.370635,91.9002811 166.837106,92.080356 C167.303579,92.2604311 167.664757,92.5530486 167.920651,92.9582176 C168.176544,93.3633864 168.304489,93.8042988 168.304489,94.2809681 C168.304489,94.7258593 168.18454,95.1680959 167.94464,95.6076908 C167.70474,96.0472858 167.35689,96.4127268 166.901079,96.7040246 C166.445269,96.9953225 165.852192,97.220413 165.12183,97.3793026 C165.255108,97.5646741 165.569639,97.9777811 166.065433,98.6186366 L168.080582,101.256193 C168.656342,101.992382 168.992198,102.402841 169.088157,102.487583 C169.136138,102.524657 169.184118,102.551138 169.232097,102.567027 C169.312064,102.593509 169.487988,102.606749 169.759875,102.606749 L169.759875,103.115194 C169.35471,103.083416 169.000196,103.067527 168.696323,103.067527 C168.381787,103.067527 167.995288,103.083416 167.536812,103.115194 C167.190289,102.71797 166.609207,101.94207 165.793547,100.787471 C165.340402,100.146615 164.940575,99.6116946 164.594053,99.1826923 C164.034285,98.4729848 163.501182,97.8294909 162.994727,97.2521914 L163.074693,97.0138581 C163.35191,97.029747 163.562487,97.0376914 163.706427,97.0376914 C164.676689,97.0376914 165.412371,96.8099529 165.913496,96.3544689 C166.414621,95.898985 166.66518,95.2978612 166.66518,94.5510794 C166.66518,93.8996313 166.449272,93.3819234 166.017452,92.9979397 C165.585633,92.6139562 164.932581,92.4219672 164.058279,92.4219672 C163.509174,92.4219672 162.970739,92.5040591 162.44296,92.6682452 C162.421635,92.9542467 162.405642,93.2217072 162.39498,93.4706345 C162.389648,93.5447829 162.370989,94.3153866 162.339003,95.7824687 L162.339003,99.3098035 C162.339003,100.030104 162.349665,100.731856 162.370989,101.415082 C162.381652,101.918233 162.417637,102.217471 162.478944,102.312805 C162.540252,102.408139 162.640208,102.478314 162.778819,102.523333 C162.917427,102.568351 163.301261,102.596157 163.930333,102.606749 L163.930333,103.115194 C163.173314,103.072823 162.477615,103.051638 161.843213,103.051638 C161.331426,103.051638 160.470464,103.072823 159.260301,103.115194 L159.260301,102.606749 C159.889372,102.596157 160.273206,102.568351 160.411815,102.523333 C160.550425,102.478314 160.646383,102.416083 160.699694,102.336638 C160.763667,102.230712 160.803651,101.973844 160.819644,101.566027 C160.824975,101.454804 160.835637,100.702737 160.85163,99.3098035 L160.85163,95.6315242 C160.85163,94.911224 160.843634,94.2068233 160.82764,93.5183011 C160.811647,93.0151502 160.772997,92.7172364 160.711689,92.6245507 C160.650382,92.531865 160.551757,92.4630139 160.415814,92.4179951 C160.27987,92.3729764 159.894704,92.3451711 159.260301,92.3345783 Z M170.407601,103.115194 L170.407601,102.614694 C170.967369,102.609397 171.335209,102.567027 171.511136,102.487583 C171.585772,102.455805 171.639082,102.40549 171.671068,102.336638 C171.72438,102.230712 171.761698,101.952659 171.783022,101.502471 C171.815008,100.803356 171.831001,100.199584 171.831001,99.691137 L171.831001,95.6315242 C171.831001,94.911224 171.823005,94.2068233 171.807012,93.5183011 C171.791018,93.0151502 171.752368,92.7172364 171.691061,92.6245507 C171.629753,92.531865 171.531129,92.4630139 171.395185,92.4179951 C171.259242,92.3729764 170.874074,92.3451711 170.239672,92.3345783 L170.239672,91.8261337 L172.518711,91.8738005 L174.933694,91.8340782 C176.090545,91.8181892 176.930182,91.8102449 177.452632,91.8102449 C177.980411,91.8102449 178.478863,91.8393741 178.948001,91.8976338 C178.862703,92.1995243 178.804062,92.4616884 178.772076,92.684134 C178.761413,92.7318011 178.713434,93.2826106 178.628136,94.3365792 L178.124348,94.3365792 C178.129679,93.796354 178.095028,93.3038032 178.020392,92.858912 C177.72718,92.7370965 177.404654,92.6550046 177.0528,92.612634 C176.455716,92.5384855 175.85864,92.5014118 175.261555,92.5014118 C175.133608,92.5014118 174.848398,92.5120042 174.405916,92.5331896 C173.963433,92.5543749 173.646237,92.5729117 173.454317,92.5888007 C173.432993,93.1766927 173.416999,93.7275023 173.406337,94.2412458 L173.37435,96.9264692 C173.998091,96.9582471 174.571178,96.9741358 175.093626,96.9741358 C175.728028,96.9741358 176.269127,96.9450065 176.716941,96.8867469 C176.887538,96.8655616 176.996823,96.8231916 177.044803,96.7596357 C177.092783,96.6960799 177.135432,96.4789338 177.172749,96.108191 L177.22073,95.5520797 L177.700527,95.5520797 L177.700527,95.7030242 L177.660543,97.3554693 L177.700527,99.2065256 L177.140763,99.2065256 L177.116773,98.6663032 C177.10611,98.2743752 177.070126,98.0307479 177.008818,97.935414 C176.94751,97.8400801 176.831561,97.7738771 176.660965,97.7368028 C176.357092,97.6732469 175.768013,97.6414694 174.893711,97.6414694 C174.536526,97.6414694 174.030078,97.6547101 173.37435,97.6811917 C173.347695,98.2108242 173.334367,98.9973167 173.334367,100.040693 C173.334367,101.020513 173.347695,101.764635 173.37435,102.273082 C174.142031,102.331342 175.002992,102.360471 175.957263,102.360471 C176.634314,102.360471 177.116772,102.339286 177.404651,102.296916 C177.692532,102.254545 177.959083,102.183046 178.204315,102.082416 C178.268288,101.91823 178.332261,101.695787 178.396234,101.415082 C178.513518,100.943709 178.590818,100.588861 178.628136,100.350526 L179.155914,100.350526 C179.017304,101.420384 178.948001,102.307505 178.948001,103.011916 C178.489526,103.080768 177.932433,103.115194 177.276705,103.115194 L172.502719,103.051638 C172.433414,103.051638 171.735048,103.072823 170.407601,103.115194 Z" id="APP-STORE"></path>
                <path d="M87.1348924,100.939785 C86.9305539,101.408769 86.6886837,101.840465 86.4084481,102.237361 C86.0264601,102.778432 85.713697,103.152956 85.472661,103.360932 C85.0990135,103.702312 84.6986767,103.877145 84.2699828,103.887089 C83.962224,103.887089 83.5910785,103.800086 83.1590485,103.623596 C82.7256006,103.447935 82.3272655,103.360932 81.9630426,103.360932 C81.5810546,103.360932 81.1713768,103.447935 80.7331749,103.623596 C80.2943058,103.800086 79.9407585,103.89206 79.6704478,103.901175 C79.259352,103.918575 78.8495907,103.738771 78.4405801,103.360932 C78.1795271,103.134727 77.8530025,102.746945 77.4618402,102.197589 C77.0421539,101.610945 76.6971136,100.930671 76.426803,100.155108 C76.1373096,99.3174014 75.9921875,98.5062095 75.9921875,97.7208696 C75.9921875,96.8212669 76.187852,96.0453729 76.5797651,95.3951764 C76.887774,94.8729147 77.2975354,94.4609385 77.8103833,94.1585022 C78.3232314,93.8560661 78.877364,93.7019478 79.4741159,93.6920876 C79.8006405,93.6920876 80.228834,93.7924302 80.7609482,93.9896351 C81.2915612,94.187503 81.6322644,94.2878455 81.7816401,94.2878455 C81.8933173,94.2878455 82.2718023,94.1705168 82.9134252,93.9366052 C83.5201856,93.7196798 84.0322829,93.6298604 84.4518024,93.6652412 C85.5885919,93.7563864 86.4426435,94.201589 87.0106212,95.0036666 C85.9939328,95.6156649 85.4910098,96.4728437 85.5010182,97.5724687 C85.5101925,98.4289847 85.8229556,99.1417399 86.4376393,99.7076685 C86.7162069,99.9703322 87.0273018,100.173337 87.3734263,100.317512 C87.2983632,100.533775 87.2191299,100.740923 87.1348924,100.939785 L87.1348924,100.939785 Z M84.5276996,90.7472702 C84.5276996,91.4186041 84.2808252,92.0454259 83.7887447,92.6256063 C83.194912,93.3153266 82.4766412,93.7138796 81.6977361,93.6509894 C81.687811,93.5704502 81.6820563,93.4856853 81.6820563,93.3966116 C81.6820563,92.7521324 81.9644605,92.062412 82.4659656,91.4984721 C82.7163429,91.2129392 83.0347773,90.9755225 83.4209353,90.7861312 C83.8062595,90.5995654 84.1707327,90.4963889 84.513521,90.4787234 C84.5235294,90.5684682 84.5276996,90.6582213 84.5276996,90.7472619 L84.5276996,90.7472702 Z" id="Shape"></path>
                <path d="M5.609375,68.1382979 C9.33983555,69.1233299 12.6384464,70.6172061 15.0317006,73.6356485 C17.1044473,76.2499864 19.1660929,78.8729525 21.2313656,81.4930789 C21.3083049,81.5907193 21.3712853,81.699063 21.5332976,81.9399968 C20.5876028,82.0024691 19.739621,82.1354959 18.8985636,82.1009832 C15.2103099,81.9492801 12.26584,80.3852865 10.1065914,77.3932747 C8.16079459,74.6972421 6.75807987,71.7336269 5.71412247,68.5932977 C5.67631226,68.4796024 5.65949552,68.3590263 5.609375,68.1382979" id="Fill-5"></path>
                <path d="M27.953125,95.7363511 C31.5233318,94.8479764 34.9938473,94.4941119 38.4040202,95.833773 C41.7324175,97.1411058 45.0089358,98.5784074 48.3076565,99.9603356 C48.3740442,99.9880768 48.4327379,100.034057 48.5388043,100.097731 C47.444067,101.067036 46.2112784,101.752812 44.8509902,102.203771 C41.9547724,103.163792 39.1271404,102.958682 36.3757884,101.651022 C33.3794394,100.226826 30.7164577,98.323057 28.2775894,96.0967687 C28.1855919,96.0127804 28.1097516,95.9115359 27.953125,95.7363511" id="Fill-7"></path>
                <path d="M13.1184692,68.2007172 C12.0035077,68.2053043 10.9787852,67.961531 9.98571767,67.6037347 C6.9264982,66.5017307 4.69305807,64.4969353 3.40113604,61.5109306 C2.06733703,58.4280498 1.41511095,55.1830904 1.14615288,51.8522862 C1.13461198,51.7092112 1.144724,51.5644981 1.144724,51.3829787 C1.22836809,51.3933544 1.30113076,51.3835249 1.35268014,51.411703 C3.88035843,52.7947234 6.18853968,54.464112 7.79954028,56.8808755 C8.6211429,58.113722 9.25776126,59.4789401 9.88239908,60.8279938 C10.9430633,63.1186113 11.9282171,65.443523 12.9440366,67.7545639 C13.0013015,67.8849697 13.0481246,68.0200715 13.1184692,68.2007172" id="Fill-9"></path>
                <path d="M33.3731706,92.7652669 C31.922094,93.4805319 30.5494955,93.8218363 29.1153456,93.9169648 C25.8300342,94.1348536 23.0176804,93.0343787 20.5729866,90.888802 C18.349109,88.9367587 16.4483767,86.7116718 14.8063805,84.2623614 C14.7188894,84.1318465 14.6547,83.9859321 14.546875,83.7867194 C16.3172499,83.7310186 17.9970564,83.9072955 19.6593865,84.2630167 C21.6683835,84.6930057 23.5204242,85.4725999 25.1752803,86.7031528 C27.8693673,88.7066376 30.5740062,90.69647 33.3731706,92.7652669" id="Fill-11"></path>
                <path d="M0.577743827,34.6276596 C3.40636499,37.2434172 5.71520572,40.0544557 6.44096385,43.8491065 C7.04449829,47.0043984 7.60670529,50.1675539 8.18528939,53.3276515 C8.19100489,53.359106 8.17012134,53.3953663 8.1492378,53.479136 C6.71212019,53.0476179 5.44086188,52.3302778 4.2935859,51.3911169 C1.82053456,49.3669901 0.526853927,46.7361604 0.18777111,43.5893875 C-0.10866531,40.8391831 0.0115799414,38.108747 0.422875857,35.382789 C0.455190395,35.1692688 0.50915787,34.958916 0.577743827,34.6276596" id="Fill-17"></path>
                <path d="M19.2047943,63.6702128 C20.739515,65.9986193 22.2100462,68.3538934 23.4174448,70.8710279 C24.8592887,73.8770195 24.6894725,76.8815913 23.5931963,79.917727 C23.4399771,80.342146 23.2447709,80.7517113 23.0573686,81.1956803 C22.9635026,81.1328802 22.8946968,81.1035008 22.8486431,81.0534792 C20.4446173,78.4446021 18.4548552,75.5779719 17.2212971,72.2283822 C16.0922669,69.1630855 17.2730664,65.7840071 19.2047943,63.6702128" id="Fill-25"></path>
                <path d="M37.0002025,84.893617 C40.139329,86.5725075 43.1781045,88.0984936 45.7032549,90.4112821 C47.4554941,92.016014 48.2689631,94.1269688 48.7446683,96.3850393 C48.8850277,97.0518118 48.9403142,97.7362776 49.0460509,98.4946834 C46.8165676,97.7902309 44.7902042,96.9231536 42.9028814,95.7727664 C41.8158379,95.1102534 40.766275,94.3708512 39.7734273,93.5754206 C37.8468653,92.0315229 36.9601941,89.9525689 36.8943558,87.5246652 C36.8716038,86.6844554 36.9586552,85.8415153 37.0002025,84.893617" id="Fill-27"></path>
                <path d="M9.3336813,5.58510638 C10.7126547,9.11293896 11.6830801,12.5336292 10.5725151,16.2090145 C9.75003323,18.9304948 8.97250589,21.6652995 8.17497431,24.3942064 L7.98713233,24.4384395 C7.78818909,24.2083184 7.5872674,23.9797263 7.39052243,23.7477485 C5.37537029,21.3725967 4.23304039,18.6662977 4.54233669,15.5300098 C4.66137288,14.3230477 5.05431327,13.1155397 5.49209831,11.97247 C6.37547225,9.66612529 7.70795231,7.60453687 9.3336813,5.58510638" id="Fill-33"></path>
                <path d="M34.6585786,91.5882102 C33.5124017,90.7250647 32.3410547,89.8927186 31.2259833,88.9914564 C29.6580687,87.7244248 28.2537054,86.2916012 27.1086276,84.6271273 C25.1889901,81.8366217 25.4338773,78.9561209 26.7746007,76.0373941 C26.7875706,76.0089975 26.8307665,75.9944716 26.8818763,75.9574468 C29.162799,77.969669 31.4400946,79.9871336 33.2693832,82.4478026 C34.4535901,84.0406296 35.0005191,85.8455572 35.0559155,87.7897369 C35.0908679,89.0148288 34.9734804,90.2440712 34.9243491,91.471566 C34.835759,91.5104474 34.7471687,91.5493287 34.6585786,91.5882102" id="Fill-37"></path>
                <path d="M15.2609601,50.2659574 C15.2930548,50.3958169 16.0853105,52.3410887 16.3861435,53.5693481 C16.7539137,55.0708695 17.1194856,56.5045668 17.468021,57.9424144 C18.3637052,61.637022 17.1193757,64.766757 14.8628538,67.6253051 C14.7955868,67.7104948 14.7158995,67.7865101 14.6374214,67.8621977 C14.6135702,67.8852426 14.5746608,67.8931063 14.5113507,67.9222674 C12.9570654,64.9996087 11.7606582,61.9647836 11.2856125,58.6625942 C10.8939911,55.9407864 11.7918736,53.7042317 13.6740305,51.7249932" id="Fill-39"></path>
                <path d="M13.901642,36.8617021 C13.9815492,39.4904567 14.093331,41.9578971 14.1224581,44.4263205 C14.160488,47.6540236 12.5914744,50.1122897 10.2126188,52.1453724 C9.81352331,52.4865677 9.37947532,52.7872433 8.84562598,53.1953889 C8.6282173,52.1777008 8.40762111,51.272179 8.24472947,50.3566092 C7.86102182,48.1990186 7.74792093,46.0306155 7.92609054,43.8385123 C8.18218874,40.6871522 9.97289774,38.6924048 12.7002887,37.3631194 C13.0244232,37.2051909 13.3664738,37.083632 13.901642,36.8617021" id="Fill-43"></path>
                <path d="M13.7702193,13.5002587 C13.1211807,10.6290414 13.342986,7.86267282 14.9312344,5.32347653 C16.8806584,2.20662919 19.9411969,0.792154102 23.5549294,0 C23.2797062,1.10626346 23.0536144,2.10407401 22.7814688,3.08921533 C22.238167,5.05665832 21.541316,6.96861885 20.4491066,8.70856189 C18.97264,11.0611056 16.8218548,12.5578214 14.2120711,13.4477251 C14.1432654,13.4709884 14.0711622,13.4876987 13.9992789,13.4986204 C13.9469601,13.5067025 13.892333,13.5002587 13.7702193,13.5002587" id="Fill-47"></path>
                <path d="M16.3398383,24.5744681 C16.1735393,25.7283504 16.0681323,26.7919099 15.8583078,27.834718 C15.5726428,29.2550908 15.2478488,30.6707673 14.8663393,32.0687505 C14.3218285,34.0639348 13.0859622,35.5796544 11.3885697,36.7443492 C10.3166943,37.4797102 9.17150665,38.0614023 7.85463429,38.4793774 C7.85463429,37.7019677 7.82693612,36.9834262 7.85991013,36.267615 C7.95795288,34.1382026 8.30868652,32.0550983 8.93409372,30.0077082 C9.78911001,27.2087928 11.7171008,25.6173856 14.4920842,24.92451 C15.0568193,24.7835103 15.6373818,24.7056383 16.3398383,24.5744681" id="Fill-51"></path>
                <path d="M21.3927195,13.5751149 C21.2972049,13.8468479 21.2313668,14.0870171 21.130686,14.3118958 C20.3748116,16.0009435 19.654769,17.7076844 18.8417396,19.3692094 C17.5047531,22.1010653 15.1715116,23.5166325 12.2522119,24.0904609 C11.7161643,24.1958558 11.1697848,24.2509013 10.6270325,24.3204728 C10.4864533,24.3383846 10.3415874,24.3230941 10.078125,24.3230941 C10.3955549,23.2428244 10.6691293,22.2170541 10.9991992,21.2097417 C11.5500852,19.5289946 12.3146427,17.9491641 13.2886952,16.4623872 C14.4009089,14.7644929 15.9804742,13.8404041 17.956827,13.531428 C19.0799219,13.3558063 20.2049955,13.3544957 21.3927195,13.5751149" id="Fill-53"></path>
                <path d="M5.23242917,28.0820322 C4.99083952,28.2206292 4.84190689,28.3632672 4.67253034,28.3936296 C3.87675739,28.5359398 3.68671712,28.9696423 4.17132527,29.5945845 C4.29398862,29.7528406 4.41489335,29.9137179 4.55019674,30.060943 C4.99391711,30.5437933 5.51666519,30.4343575 5.78496379,29.8247056 C5.86080403,29.6524698 6.00610954,29.5103779 6.19494074,29.2505496 C6.34244452,30.0622537 6.11261562,30.498905 5.51512642,30.7918261 C5.01963684,31.0346165 4.62153053,30.935447 4.21232297,30.4572931 C4.02283227,30.2358001 3.83905709,30.0089555 3.66242627,29.7771961 C3.29883276,29.3004619 3.28168627,28.8441515 3.60252347,28.4316372 C3.99931081,27.9219194 4.50293398,27.7816842 5.23242917,28.0820322" id="Fill-57"></path>
                <path d="M2.2578125,31.856049 C2.84244184,31.5041504 3.02632694,31.1750782 2.5639213,30.7145082 C2.50127066,30.6520359 2.61173363,30.4178737 2.66218387,30.1595745 C3.12371021,30.5668462 3.51500189,30.892205 3.37079552,31.3736355 C3.27978722,31.6774784 2.93564839,31.9115314 2.6813088,32.1521375 C2.66119465,32.1711412 2.45521695,31.9961748 2.2578125,31.856049" id="Fill-59"></path>
                <path d="M6.84378253,38.4514728 C6.98688977,34.9357634 7.16527921,31.5068818 7.24793408,28.0757067 C7.28310636,26.6141589 6.84773942,25.2092949 6.30894397,23.8482272 C5.63759296,22.1522988 4.7474044,20.5790215 3.61265853,18.9893617 C3.33644618,19.6562433 3.07847944,20.2238463 2.86370868,20.8072859 C1.86107871,23.5308413 1.05222605,26.3067118 1.14840027,29.2392001 C1.27897738,33.2226878 3.27137745,36.1645688 6.5258031,38.3489176 C6.56789992,38.3769865 6.62560445,38.3823382 6.84378253,38.4514728" id="Fill-61"></path>
                <path d="M234.632812,68.1382979 C238.363273,69.1233299 241.661884,70.6172061 244.055138,73.6356485 C246.127885,76.2499864 248.189531,78.8729525 250.254804,81.4930789 C250.331742,81.5907193 250.394723,81.699063 250.556736,81.9399968 C249.611041,82.0024691 248.763059,82.1354959 247.922001,82.1009832 C244.233748,81.9492801 241.289278,80.3852865 239.13003,77.3932747 C237.184233,74.6972421 235.781517,71.7336269 234.73756,68.5932977 C234.69975,68.4796024 234.682933,68.3590263 234.632812,68.1382979" id="Fill-5" transform="translate(242.594774, 75.122454) scale(-1, 1) translate(-242.594774, -75.122454) "></path>
                <path d="M207.820312,95.7363511 C211.390519,94.8479764 214.861036,94.4941119 218.271209,95.833773 C221.599606,97.1411058 224.876124,98.5784074 228.174845,99.9603356 C228.241232,99.9880768 228.299926,100.034057 228.405993,100.097731 C227.311255,101.067036 226.078466,101.752812 224.718178,102.203771 C221.821961,103.163792 218.994328,102.958682 216.242976,101.651022 C213.246627,100.226826 210.583646,98.323057 208.144777,96.0967687 C208.05278,96.0127804 207.97694,95.9115359 207.820312,95.7363511" id="Fill-7" transform="translate(218.113153, 98.874147) scale(-1, 1) translate(-218.113153, -98.874147) "></path>
                <path d="M255.548158,68.2007172 C254.433195,68.2053043 253.408472,67.961531 252.415405,67.6037347 C249.356187,66.5017307 247.122745,64.4969353 245.830824,61.5109306 C244.497024,58.4280498 243.844798,55.1830904 243.57584,51.8522862 C243.5643,51.7092112 243.574411,51.5644981 243.574411,51.3829787 C243.658056,51.3933544 243.730818,51.3835249 243.782368,51.411703 C246.310047,52.7947234 248.618228,54.464112 250.229228,56.8808755 C251.050831,58.113722 251.687448,59.4789401 252.312087,60.8279938 C253.372751,63.1186113 254.357904,65.443523 255.373724,67.7545639 C255.430989,67.8849697 255.477812,68.0200715 255.548158,68.2007172" id="Fill-9" transform="translate(249.559235, 59.791880) scale(-1, 1) translate(-249.559235, -59.791880) "></path>
                <path d="M241.170046,92.7652669 C239.718968,93.4805319 238.34637,93.8218363 236.912221,93.9169648 C233.626908,94.1348536 230.814554,93.0343787 228.369861,90.888802 C226.145983,88.9367587 224.245251,86.7116718 222.603255,84.2623614 C222.515764,84.1318465 222.451574,83.9859321 222.34375,83.7867194 C224.114125,83.7310186 225.79393,83.9072955 227.45626,84.2630167 C229.465258,84.6930057 231.317298,85.4725999 232.972155,86.7031528 C235.666242,88.7066376 238.370881,90.69647 241.170046,92.7652669" id="Fill-11" transform="translate(231.756898, 88.860362) scale(-1, 1) translate(-231.756898, -88.860362) "></path>
                <path d="M248.593369,34.6276596 C251.42199,37.2434172 253.730831,40.0544557 254.456588,43.8491065 C255.060123,47.0043984 255.622331,50.1675539 256.200914,53.3276515 C256.20663,53.359106 256.185746,53.3953663 256.164863,53.479136 C254.727745,53.0476179 253.456487,52.3302778 252.309211,51.3911169 C249.836159,49.3669901 248.542479,46.7361604 248.203396,43.5893875 C247.906959,40.8391831 248.027206,38.108747 248.438501,35.382789 C248.470816,35.1692688 248.524783,34.958916 248.593369,34.6276596" id="Fill-17" transform="translate(252.120467, 44.053398) scale(-1, 1) translate(-252.120467, -44.053398) "></path>
                <path d="M234.821983,63.6702128 C236.356702,65.9986193 237.827234,68.3538934 239.034633,70.8710279 C240.476477,73.8770195 240.30666,76.8815913 239.210384,79.917727 C239.057165,80.342146 238.861958,80.7517113 238.674557,81.1956803 C238.58069,81.1328802 238.511884,81.1035008 238.465831,81.0534792 C236.061805,78.4446021 234.072043,75.5779719 232.838485,72.2283822 C231.709454,69.1630855 232.890254,65.7840071 234.821983,63.6702128" id="Fill-25" transform="translate(236.236371, 72.432947) scale(-1, 1) translate(-236.236371, -72.432947) "></path>
                <path d="M207.92989,84.893617 C211.069017,86.5725075 214.107793,88.0984936 216.632943,90.4112821 C218.385182,92.016014 219.198651,94.1269688 219.674357,96.3850393 C219.814715,97.0518118 219.870002,97.7362776 219.975739,98.4946834 C217.746255,97.7902309 215.719893,96.9231536 213.832569,95.7727664 C212.745526,95.1102534 211.695963,94.3708512 210.703115,93.5754206 C208.776553,92.0315229 207.889882,89.9525689 207.824043,87.5246652 C207.801291,86.6844554 207.888343,85.8415153 207.92989,84.893617" id="Fill-27" transform="translate(213.898026, 91.694150) scale(-1, 1) translate(-213.898026, -91.694150) "></path>
                <path d="M249.528994,5.58510638 C250.907967,9.11293896 251.878392,12.5336292 250.767827,16.2090145 C249.945346,18.9304948 249.167817,21.6652995 248.370287,24.3942064 L248.182444,24.4384395 C247.983501,24.2083184 247.78258,23.9797263 247.585835,23.7477485 C245.570682,21.3725967 244.428353,18.6662977 244.737649,15.5300098 C244.856685,14.3230477 245.249626,13.1155397 245.68741,11.97247 C246.570784,9.66612529 247.903264,7.60453687 249.528994,5.58510638" id="Fill-33" transform="translate(247.969099, 15.011773) scale(-1, 1) translate(-247.969099, -15.011773) "></path>
                <path d="M230.166391,91.5882102 C229.020214,90.7250647 227.848867,89.8927186 226.733795,88.9914564 C225.165881,87.7244248 223.761518,86.2916012 222.616439,84.6271273 C220.696802,81.8366217 220.94169,78.9561209 222.282414,76.0373941 C222.295383,76.0089975 222.338579,75.9944716 222.389689,75.9574468 C224.670612,77.969669 226.947907,79.9871336 228.777196,82.4478026 C229.961403,84.0406296 230.508331,85.8455572 230.563728,87.7897369 C230.598681,89.0148288 230.481292,90.2440712 230.432161,91.471566 C230.343572,91.5104474 230.254981,91.5493287 230.166391,91.5882102" id="Fill-37" transform="translate(225.898344, 83.772829) scale(-1, 1) translate(-225.898344, -83.772829) "></path>
                <path d="M243.16721,50.2659574 C243.199305,50.3958169 243.991561,52.3410887 244.292393,53.5693481 C244.660164,55.0708695 245.025735,56.5045668 245.374271,57.9424144 C246.269954,61.637022 245.025625,64.766757 242.769103,67.6253051 C242.701836,67.7104948 242.622149,67.7865101 242.543671,67.8621977 C242.519819,67.8852426 242.48091,67.8931063 242.4176,67.9222674 C240.863314,64.9996087 239.666907,61.9647836 239.191862,58.6625942 C238.800241,55.9407864 239.698124,53.7042317 241.58028,51.7249932" id="Fill-39" transform="translate(242.384147, 59.094112) scale(-1, 1) translate(-242.384147, -59.094112) "></path>
                <path d="M247.39383,36.8617021 C247.473737,39.4904567 247.585519,41.9578971 247.614645,44.4263205 C247.652676,47.6540236 246.083663,50.1122897 243.704806,52.1453724 C243.305711,52.4865677 242.871662,52.7872433 242.337814,53.1953889 C242.120406,52.1777008 241.899809,51.272179 241.736917,50.3566092 C241.35321,48.1990186 241.240108,46.0306155 241.418279,43.8385123 C241.674377,40.6871522 243.465085,38.6924048 246.192476,37.3631194 C246.51661,37.2051909 246.858661,37.083632 247.39383,36.8617021" id="Fill-43" transform="translate(244.475630, 45.028546) scale(-1, 1) translate(-244.475630, -45.028546) "></path>
                <path d="M233.856157,13.5002587 C233.207119,10.6290414 233.428923,7.86267282 235.017171,5.32347653 C236.966596,2.20662919 240.027135,0.792154102 243.640867,0 C243.365644,1.10626346 243.139551,2.10407401 242.867406,3.08921533 C242.324104,5.05665832 241.627254,6.96861885 240.535045,8.70856189 C239.058577,11.0611056 236.907792,12.5578214 234.298008,13.4477251 C234.229202,13.4709884 234.157099,13.4876987 234.085216,13.4986204 C234.032897,13.5067025 233.978271,13.5002587 233.856157,13.5002587" id="Fill-47" transform="translate(238.578246, 6.751346) scale(-1, 1) translate(-238.578246, -6.751346) "></path>
                <path d="M248.714839,24.5744681 C248.548539,25.7283504 248.443132,26.7919099 248.233308,27.834718 C247.947643,29.2550908 247.622849,30.6707673 247.24134,32.0687505 C246.696829,34.0639348 245.460963,35.5796544 243.76357,36.7443492 C242.691694,37.4797102 241.546507,38.0614023 240.229634,38.4793774 C240.229634,37.7019677 240.201936,36.9834262 240.23491,36.267615 C240.332953,34.1382026 240.683686,32.0550983 241.309093,30.0077082 C242.16411,27.2087928 244.092101,25.6173856 246.867085,24.92451 C247.431819,24.7835103 248.012382,24.7056383 248.714839,24.5744681" id="Fill-51" transform="translate(244.466795, 31.526923) scale(-1, 1) translate(-244.466795, -31.526923) "></path>
                <path d="M247.064594,13.5751149 C246.96908,13.8468479 246.903242,14.0870171 246.802561,14.3118958 C246.046687,16.0009435 245.326644,17.7076844 244.513614,19.3692094 C243.176628,22.1010653 240.843386,23.5166325 237.924087,24.0904609 C237.38804,24.1958558 236.84166,24.2509013 236.298907,24.3204728 C236.158329,24.3383846 236.013462,24.3230941 235.75,24.3230941 C236.06743,23.2428244 236.341004,22.2170541 236.671074,21.2097417 C237.22196,19.5289946 237.986518,17.9491641 238.96057,16.4623872 C240.072783,14.7644929 241.652349,13.8404041 243.628701,13.531428 C244.751796,13.3558063 245.87687,13.3544957 247.064594,13.5751149" id="Fill-53" transform="translate(241.407297, 18.866715) scale(-1, 1) translate(-241.407297, -18.866715) "></path>
                <path d="M252.130867,28.0820322 C251.889278,28.2206292 251.740344,28.3632672 251.570968,28.3936296 C250.775194,28.5359398 250.585154,28.9696423 251.069762,29.5945845 C251.192427,29.7528406 251.313331,29.9137179 251.448634,30.060943 C251.892355,30.5437933 252.415102,30.4343575 252.683402,29.8247056 C252.759241,29.6524698 252.904547,29.5103779 253.093378,29.2505496 C253.240882,30.0622537 253.011053,30.498905 252.413564,30.7918261 C251.918074,31.0346165 251.519969,30.935447 251.110761,30.4572931 C250.92127,30.2358001 250.737494,30.0089555 250.560863,29.7771961 C250.19727,29.3004619 250.180124,28.8441515 250.500961,28.4316372 C250.897748,27.9219194 251.401371,27.7816842 252.130867,28.0820322" id="Fill-57" transform="translate(251.705067, 29.422516) scale(-1, 1) translate(-251.705067, -29.422516) "></path>
                <path d="M252.507813,31.856049 C253.092441,31.5041504 253.276327,31.1750782 252.813921,30.7145082 C252.75127,30.6520359 252.861732,30.4178737 252.912183,30.1595745 C253.373709,30.5668462 253.765002,30.892205 253.620794,31.3736355 C253.529787,31.6774784 253.185648,31.9115314 252.931308,32.1521375 C252.911194,32.1711412 252.705217,31.9961748 252.507813,31.856049" id="Fill-59" transform="translate(253.079491, 31.156568) scale(-1, 1) translate(-253.079491, -31.156568) "></path>
                <path d="M254.859407,38.4514728 C255.002514,34.9357634 255.180903,31.5068818 255.263559,28.0757067 C255.298731,26.6141589 254.863364,25.2092949 254.324568,23.8482272 C253.653218,22.1522988 252.763029,20.5790215 251.628283,18.9893617 C251.352071,19.6562433 251.094104,20.2238463 250.879334,20.8072859 C249.876703,23.5308413 249.067851,26.3067118 249.164025,29.2392001 C249.294603,33.2226878 251.287002,36.1645688 254.541428,38.3489176 C254.583524,38.3769865 254.641229,38.3823382 254.859407,38.4514728" id="Fill-61" transform="translate(252.210900, 28.720417) scale(-1, 1) translate(-252.210900, -28.720417) "></path>
            </g>
        </g>
    </g>
</svg>