<?xml version="1.0" encoding="UTF-8"?>
<svg width="259px" height="104px" viewBox="0 0 259 104" version="1.1" xmlns="http://www.w3.org/2000/svg" xmlns:xlink="http://www.w3.org/1999/xlink">
    <!-- Generator: Sketch 42 (36781) - http://www.bohemiancoding.com/sketch -->
    <title>Group 7</title>
    <desc>Created with Sketch.</desc>
    <defs></defs>
    <g id="Page-1" stroke="none" stroke-width="1" fill="none" fill-rule="evenodd">
        <g id="Desktop-HD-Copy-9" transform="translate(-962.000000, -3310.000000)" fill-rule="nonzero" fill="#FFFFFF">
            <g id="Group-7" transform="translate(962.000000, 3310.000000)">
                <path d="M78.015625,17.243426 L83.7749036,17.243426 C84.5027781,17.243426 85.2397401,17.3202569 85.9858115,17.4739209 C86.7318829,17.627585 87.4006076,17.8897138 87.9920057,18.2603153 C88.5834038,18.6309168 89.0656134,19.1325772 89.4386491,19.7653115 C89.8116848,20.3980458 89.9981999,21.1934712 89.9981999,22.1516117 C89.9981999,23.1639866 89.6888578,24.0452818 89.0701645,24.7955239 C88.4514711,25.545766 87.6235262,26.0383874 86.586305,26.273403 L86.586305,26.3276371 C87.8418886,26.4722621 88.8836434,26.9558446 89.7116007,27.7783992 C90.539558,28.6009538 90.9535305,29.7172611 90.9535305,31.1273546 C90.9535305,31.922792 90.785212,32.6504255 90.44857,33.310277 C90.111928,33.9701285 89.6342675,34.5305419 89.0155742,34.991534 C88.3968808,35.4525261 87.6417223,35.8095637 86.7500759,36.0626574 C85.8584296,36.3157511 84.8576171,36.4422961 83.7476084,36.4422961 L78.015625,36.4422961 L78.015625,17.243426 Z M79.9808765,25.6497109 L83.9386745,25.6497109 C84.411793,25.6497109 84.8894535,25.5954774 85.3716704,25.4870086 C85.8538873,25.3785399 86.2951546,25.1932419 86.6954856,24.9311091 C87.0958166,24.6689764 87.4188061,24.3209777 87.6644638,23.8871028 C87.9101214,23.4532279 88.0329484,22.9199312 88.0329484,22.287197 C88.0329484,21.6725408 87.9101214,21.1528026 87.6644638,20.7279667 C87.4188061,20.3031308 87.0867183,19.9551322 86.6681905,19.6839603 C86.2496626,19.4127885 85.7583546,19.2184516 85.1942519,19.1009438 C84.6301491,18.983436 84.0296616,18.924683 83.3927714,18.924683 L79.9808765,18.924683 L79.9808765,25.6497109 Z M79.9808765,34.7610391 L83.6384278,34.7610391 C84.3481055,34.7610391 85.0259285,34.6932471 85.6719172,34.5576612 C86.3179058,34.4220753 86.8820001,34.2051411 87.364217,33.9068521 C87.8464339,33.608563 88.2331115,33.2198892 88.5242613,32.740819 C88.8154111,32.2617488 88.9609838,31.687777 88.9609838,31.0188864 C88.9609838,29.7534179 88.5288148,28.8088501 87.6644638,28.1851549 C86.8001127,27.5614597 85.576392,27.2496168 83.9932649,27.2496168 L79.9808765,27.2496168 L79.9808765,34.7610391 Z M97.3405977,34.706805 L107.685463,34.706805 L107.685463,36.4422961 L95.3753462,36.4422961 L95.3753462,17.243426 L107.357921,17.243426 L107.357921,18.9789171 L97.3405977,18.9789171 L97.3405977,25.5954768 L106.702837,25.5954768 L106.702837,27.3038509 L97.3405977,27.3038509 L97.3405977,34.706805 Z M120.89632,20.3347695 C120.477792,19.7562696 119.940993,19.2907649 119.285906,18.9382415 C118.630819,18.5857181 117.839267,18.4094591 116.911227,18.4094591 C116.438108,18.4094591 115.955899,18.4817705 115.464583,18.6263955 C114.973268,18.7710204 114.527452,18.9924741 114.127121,19.2907631 C113.72679,19.5890522 113.4038,19.9641676 113.158142,20.4161206 C112.912485,20.8680737 112.789658,21.4013703 112.789658,22.0160265 C112.789658,22.6306826 112.907936,23.1368625 113.144495,23.5345812 C113.381054,23.9322999 113.694945,24.2712596 114.086178,24.5514705 C114.47741,24.8316814 114.923227,25.062174 115.423641,25.2429552 C115.924054,25.4237364 116.447206,25.6045149 116.993112,25.7852962 C117.666396,26.0022336 118.344219,26.2372457 119.026602,26.4903394 C119.708984,26.7434331 120.323119,27.0733539 120.869025,27.4801117 C121.414931,27.8868694 121.860747,28.4020882 122.206488,29.0257834 C122.552228,29.6494786 122.725096,30.4403846 122.725096,31.3985251 C122.725096,32.3566656 122.538581,33.1837273 122.165545,33.879735 C121.792509,34.5757427 121.3103,35.1497145 120.718902,35.6016676 C120.127503,36.0536206 119.45423,36.3880609 118.69906,36.6049984 C117.94389,36.8219358 117.184182,36.9304029 116.419914,36.9304029 C115.837614,36.9304029 115.255323,36.8716499 114.673024,36.7541421 C114.090724,36.6366343 113.535728,36.4603753 113.008019,36.2253597 C112.48031,35.9903441 111.989002,35.6920595 111.53408,35.3304971 C111.079159,34.9689346 110.678834,34.5531441 110.333093,34.0831129 L112.025393,32.8357287 C112.443921,33.5226973 113.030761,34.0966691 113.785931,34.5576612 C114.541101,35.0186533 115.428185,35.2491459 116.447209,35.2491459 C116.938524,35.2491459 117.438931,35.1723151 117.948443,35.018651 C118.457955,34.864987 118.917419,34.6299749 119.326848,34.3136078 C119.736278,33.9972406 120.072915,33.6085668 120.336769,33.1475747 C120.600624,32.6865826 120.732549,32.1487665 120.732549,31.5341104 C120.732549,30.8652198 120.600624,30.3093259 120.336769,29.8664119 C120.072915,29.4234979 119.72263,29.0529019 119.285906,28.7546129 C118.849181,28.4563239 118.348775,28.2077535 117.784672,28.0088941 C117.220569,27.8100348 116.62918,27.6111784 116.010487,27.412319 C115.373596,27.2134597 114.745814,26.9874866 114.127121,26.7343928 C113.508427,26.4812991 112.953431,26.1513783 112.462116,25.7446206 C111.970801,25.3378628 111.575025,24.8362025 111.274776,24.2396244 C110.974528,23.6430464 110.824406,22.9108934 110.824406,22.0431435 C110.824406,21.1211593 111.010921,20.3257338 111.383957,19.6568433 C111.756993,18.9879528 112.243752,18.4365783 112.844248,18.0027034 C113.444745,17.5688284 114.10892,17.252466 114.836795,17.0536067 C115.564669,16.8547473 116.283435,16.7553191 116.993112,16.7553191 C118.303287,16.7553191 119.422377,16.9858118 120.350417,17.4468039 C121.278457,17.907796 121.979026,18.454651 122.452144,19.0873853 L120.89632,20.3347695 Z M132.633239,36.4422961 L130.667987,36.4422961 L130.667987,18.9789171 L124.199034,18.9789171 L124.199034,17.243426 L139.102191,17.243426 L139.102191,18.9789171 L132.633239,18.9789171 L132.633239,36.4422961 Z M167.270796,26.842861 C167.270796,28.307189 167.016043,29.6539889 166.506531,30.8833012 C165.997019,32.1126135 165.291901,33.1746873 164.391156,34.0695544 C163.490412,34.9644214 162.42591,35.6649382 161.197623,36.1711256 C159.969334,36.677313 158.636435,36.9304029 157.198882,36.9304029 C155.761329,36.9304029 154.42843,36.677313 153.200141,36.1711256 C151.971853,35.6649382 150.907352,34.9644214 150.006607,34.0695544 C149.105863,33.1746873 148.400744,32.1126135 147.891233,30.8833012 C147.381721,29.6539889 147.126968,28.307189 147.126968,26.842861 C147.126968,25.3785331 147.381721,24.0317332 147.891233,22.8024209 C148.400744,21.5731085 149.105863,20.5110348 150.006607,19.6161677 C150.907352,18.7213007 151.971853,18.0207839 153.200141,17.5145965 C154.42843,17.0084091 155.761329,16.7553191 157.198882,16.7553191 C158.636435,16.7553191 159.969334,17.0084091 161.197623,17.5145965 C162.42591,18.0207839 163.490412,18.7213007 164.391156,19.6161677 C165.291901,20.5110348 165.997019,21.5731085 166.506531,22.8024209 C167.016043,24.0317332 167.270796,25.3785331 167.270796,26.842861 Z M165.196363,26.842861 C165.196363,25.7220174 165.014398,24.6554242 164.65046,23.6430494 C164.286523,22.6306745 163.758822,21.7403403 163.067341,20.9720201 C162.375861,20.2036999 161.534267,19.5935724 160.542539,19.1416194 C159.55081,18.6896663 158.436268,18.4636932 157.198882,18.4636932 C155.961495,18.4636932 154.846953,18.6896663 153.855225,19.1416194 C152.863496,19.5935724 152.021903,20.2036999 151.330423,20.9720201 C150.638942,21.7403403 150.111241,22.6306745 149.747303,23.6430494 C149.383366,24.6554242 149.2014,25.7220174 149.2014,26.842861 C149.2014,27.9637046 149.383366,29.0302979 149.747303,30.0426727 C150.111241,31.0550476 150.638942,31.9408623 151.330423,32.7001434 C152.021903,33.4594246 152.863496,34.0650326 153.855225,34.5169856 C154.846953,34.9689387 155.961495,35.1949119 157.198882,35.1949119 C158.436268,35.1949119 159.55081,34.9689387 160.542539,34.5169856 C161.534267,34.0650326 162.375861,33.4594246 163.067341,32.7001434 C163.758822,31.9408623 164.286523,31.0550476 164.65046,30.0426727 C165.014398,29.0302979 165.196363,27.9637046 165.196363,26.842861 Z M173.330321,36.4422961 L171.365069,36.4422961 L171.365069,17.243426 L183.020102,17.243426 L183.020102,18.9789171 L173.330321,18.9789171 L173.330321,25.6497109 L182.337723,25.6497109 L182.337723,27.358085 L173.330321,27.358085 L173.330321,36.4422961 Z" id="BEST-OF"></path>
                <path d="M92.9484899,65.5119663 L92.9484899,61.7155796 L100.481954,54.9363175 C100.955072,54.4843645 101.337201,54.0233793 101.628351,53.5533481 C101.9195,53.0833169 102.065073,52.5590592 102.065073,51.9805593 C102.065073,51.2935907 101.846714,50.7376967 101.409989,50.3128608 C100.973265,49.888025 100.390974,49.6756102 99.6630991,49.6756102 C98.8988308,49.6756102 98.2755975,49.9422585 97.7933806,50.4755631 C97.3111638,51.0088677 97.0245674,51.7093845 96.9335831,52.5771344 L92.5390625,51.9805593 C92.6482437,51.0043407 92.9166434,50.1366038 93.3442697,49.3773227 C93.771896,48.6180415 94.3132446,47.9717584 94.9683317,47.4384537 C95.6234188,46.9051491 96.3740281,46.4983975 97.2201823,46.2181866 C98.0663365,45.9379757 98.9625186,45.7978723 99.9087555,45.7978723 C100.800402,45.7978723 101.66474,45.9153784 102.501796,46.150394 C103.338851,46.3854096 104.084912,46.7469666 104.739999,47.2350759 C105.395086,47.7231852 105.918238,48.3378321 106.30947,49.0790352 C106.700703,49.8202382 106.896316,50.687975 106.896316,51.6822718 C106.896316,52.3692404 106.805333,52.9884068 106.623365,53.5397896 C106.441396,54.0911723 106.191193,54.6018716 105.872748,55.0719028 C105.554303,55.541934 105.190371,55.9803219 104.780941,56.3870796 C104.371512,56.7938374 103.948441,57.1960696 103.511716,57.5937883 L99.0353104,61.5528773 L106.923611,61.5528773 L106.923611,65.5119663 L92.9484899,65.5119663 Z M125.102187,55.8582972 C125.102187,57.2141564 124.965713,58.5067227 124.69276,59.7360351 C124.419807,60.9653474 123.983089,62.045499 123.382592,62.9765223 C122.782096,63.9075456 122.004192,64.6487375 121.048856,65.2001202 C120.093521,65.751503 118.933488,66.0271902 117.568723,66.0271902 C116.203959,66.0271902 115.039377,65.751503 114.074943,65.2001202 C113.110509,64.6487375 112.323507,63.9075456 111.713912,62.9765223 C111.104317,62.045499 110.66305,60.9653474 110.390097,59.7360351 C110.117144,58.5067227 109.980669,57.2141564 109.980669,55.8582972 C109.980669,54.502438 110.117144,53.2143911 110.390097,51.9941178 C110.66305,50.7738446 111.104317,49.7072513 111.713912,48.7943062 C112.323507,47.881361 113.110509,47.1537275 114.074943,46.6113838 C115.039377,46.0690401 116.203959,45.7978723 117.568723,45.7978723 C118.933488,45.7978723 120.093521,46.0690401 121.048856,46.6113838 C122.004192,47.1537275 122.782096,47.881361 123.382592,48.7943062 C123.983089,49.7072513 124.419807,50.7738446 124.69276,51.9941178 C124.965713,53.2143911 125.102187,54.502438 125.102187,55.8582972 Z M120.40742,55.8582972 C120.40742,55.2617191 120.371027,54.6018776 120.298239,53.8787527 C120.225452,53.1556278 120.088978,52.4822278 119.888812,51.8585326 C119.688647,51.2348374 119.40205,50.7105797 119.029015,50.2857438 C118.655979,49.8609079 118.16922,49.6484932 117.568723,49.6484932 C116.968227,49.6484932 116.476919,49.8609079 116.094785,50.2857438 C115.712651,50.7105797 115.416956,51.2348374 115.207692,51.8585326 C114.998428,52.4822278 114.857405,53.1556278 114.784617,53.8787527 C114.71183,54.6018776 114.675437,55.2617191 114.675437,55.8582972 C114.675437,56.4729533 114.71183,57.1463533 114.784617,57.8785173 C114.857405,58.6106812 114.998428,59.2886006 115.207692,59.9122959 C115.416956,60.5359911 115.712651,61.0602488 116.094785,61.4850847 C116.476919,61.9099205 116.968227,62.1223353 117.568723,62.1223353 C118.16922,62.1223353 118.655979,61.9099205 119.029015,61.4850847 C119.40205,61.0602488 119.688647,60.5359911 119.888812,59.9122959 C120.088978,59.2886006 120.225452,58.6106812 120.298239,57.8785173 C120.371027,57.1463533 120.40742,56.4729533 120.40742,55.8582972 Z M134.082295,65.5119663 L134.082295,51.4111013 L130.479334,54.1770402 L128.104655,50.9501115 L134.464427,46.3130963 L138.667882,46.3130963 L138.667882,65.5119663 L134.082295,65.5119663 Z M160.394828,59.0581089 C160.394828,60.1427962 160.194666,61.1190002 159.794335,61.9867501 C159.394003,62.8544999 158.848106,63.5866529 158.156625,64.1832309 C157.465145,64.779809 156.655396,65.2362747 155.727356,65.5526419 C154.799317,65.869009 153.8167,66.0271902 152.779479,66.0271902 C151.724061,66.0271902 150.736896,65.869009 149.817954,65.5526419 C148.899012,65.2362747 148.093813,64.779809 147.402332,64.1832309 C146.710852,63.5866529 146.164954,62.8635389 145.764623,62.0138671 C145.364292,61.1641953 145.164129,60.2151082 145.164129,59.166577 C145.164129,58.0276553 145.364292,56.9926983 145.764623,56.061675 C146.164954,55.1306517 146.683557,54.186084 147.320447,53.2279435 L151.987919,46.3130963 L157.528837,46.3130963 L152.779479,52.8754219 L152.697593,53.0110071 C152.879562,52.9386946 153.097921,52.8844611 153.352677,52.8483048 C153.607434,52.8121486 153.843989,52.7940707 154.062351,52.7940707 C154.899407,52.7940707 155.704607,52.943213 156.477973,53.241502 C157.251339,53.5397911 157.924614,53.9646206 158.497815,54.5160033 C159.071016,55.067386 159.530479,55.7272276 159.87622,56.4955478 C160.221961,57.263868 160.394828,58.1180465 160.394828,59.0581089 Z M155.809242,59.166577 C155.809242,58.2988272 155.536293,57.5802326 154.990387,57.0107717 C154.444481,56.4413109 153.716617,56.1565847 152.806774,56.1565847 C151.896931,56.1565847 151.159968,56.4367914 150.595866,56.9972132 C150.031764,57.557635 149.749716,58.289788 149.749716,59.1936941 C149.749716,60.0252877 150.022665,60.7393629 150.568571,61.3359409 C151.114477,61.9325189 151.851439,62.2308035 152.779479,62.2308035 C153.689322,62.2308035 154.421734,61.9505968 154.976739,61.390175 C155.531744,60.8297532 155.809242,60.0885613 155.809242,59.166577 Z" id="2016"></path>
                <path d="M93.65625,103.115194 L93.65625,102.574971 C94.0774079,102.569675 94.3399613,102.552462 94.443918,102.523333 C94.5478746,102.494203 94.6438332,102.438592 94.7317966,102.356499 C94.8197599,102.274406 94.9463719,102.061232 95.1116365,101.716971 C95.2075964,101.521007 95.5541135,100.776885 96.1511981,99.4845813 L98.1503554,95.0039128 C98.3689309,94.5113546 98.8353963,93.4150318 99.5497654,91.7149115 L100.069546,91.7149115 L103.484107,99.6831925 C104.038542,100.975496 104.406384,101.785821 104.587641,102.114194 C104.688933,102.299565 104.799551,102.421378 104.919502,102.479638 C105.039452,102.537898 105.310001,102.569675 105.731159,102.574971 L105.731159,103.115194 C104.899506,103.062231 104.318423,103.035749 103.987894,103.035749 L101.41298,103.115194 L101.41298,102.574971 C102.010064,102.564379 102.372575,102.545842 102.500521,102.51936 C102.628468,102.492879 102.715097,102.454481 102.760412,102.404166 C102.805726,102.353851 102.828383,102.29162 102.828383,102.217471 C102.828383,102.100952 102.791066,101.950009 102.71643,101.764638 L101.732845,99.3336368 L97.1027971,99.3336368 L96.2311645,101.37536 C96.0765623,101.740806 95.9992622,102.008267 95.9992622,102.177749 C95.9992622,102.251898 96.0205863,102.312804 96.0632353,102.360471 C96.1218775,102.429324 96.2125051,102.47699 96.3351207,102.503471 C96.5323718,102.545842 96.8788889,102.569675 97.3746824,102.574971 L97.3746824,103.115194 C96.4737243,103.067527 95.7993488,103.043694 95.3515353,103.043694 C94.8344174,103.043694 94.2693279,103.067527 93.65625,103.115194 Z M97.3746824,98.6583587 L101.41298,98.6583587 L99.4138226,93.8678568 L97.3746824,98.6583587 Z M106.546815,92.3345783 L106.546815,91.8261337 C107.618369,91.8579116 108.466003,91.8738005 109.089743,91.8738005 C109.50557,91.8738005 109.948046,91.8685042 110.417184,91.8579115 L111.672654,91.8181894 C111.811263,91.812893 111.939208,91.8102449 112.056493,91.8102449 C112.90414,91.8102449 113.570519,91.9029292 114.05565,92.0883005 C114.540781,92.2736718 114.919284,92.5689376 115.191171,92.9741064 C115.463058,93.3792752 115.598999,93.8413726 115.598999,94.3604126 C115.598999,94.8264892 115.485715,95.2899106 115.259142,95.7506909 C115.03257,96.2114711 114.703379,96.6020693 114.271559,96.9224969 C113.839739,97.2429246 113.389266,97.4719872 112.920129,97.6096916 C112.600262,97.7050255 112.237752,97.7526917 111.832587,97.7526917 C111.491396,97.7526917 111.123555,97.715618 110.729052,97.6414694 L110.561123,97.0535803 C111.035592,97.1595069 111.408764,97.2124693 111.680651,97.2124693 C112.080485,97.2124693 112.460321,97.1158127 112.820171,96.9224969 C113.180021,96.729181 113.4599,96.4378875 113.659817,96.0486076 C113.859733,95.6593278 113.95969,95.2290079 113.95969,94.7576349 C113.95969,94.302151 113.862399,93.8903679 113.667813,93.5222733 C113.473228,93.1541788 113.177355,92.8748017 112.780187,92.684134 C112.38302,92.4934664 111.901894,92.3981339 111.336796,92.3981339 C110.83034,92.3981339 110.286575,92.4881701 109.705484,92.6682452 C109.657504,93.2296556 109.633514,94.1088324 109.633514,95.3058019 L109.633514,99.3098035 C109.633514,100.030104 109.641511,100.731856 109.657504,101.415082 C109.673497,101.918233 109.712147,102.217471 109.773455,102.312805 C109.834763,102.408139 109.933387,102.478314 110.06933,102.523333 C110.205274,102.568351 110.590441,102.596157 111.224843,102.606749 L111.224843,103.115194 C110.238587,103.072823 109.513567,103.051638 109.04976,103.051638 C108.868502,103.051638 108.034196,103.072823 106.546815,103.115194 L106.546815,102.606749 C107.175887,102.596157 107.559721,102.568351 107.69833,102.523333 C107.836939,102.478314 107.932897,102.416083 107.986209,102.336638 C108.050182,102.230712 108.090165,101.973844 108.106158,101.566027 C108.111489,101.454804 108.122151,100.702737 108.138144,99.3098035 L108.138144,95.6315242 C108.138144,94.911224 108.130148,94.2068233 108.114155,93.5183011 C108.098161,93.0151502 108.059511,92.7172364 107.998204,92.6245507 C107.936896,92.531865 107.838272,92.4630139 107.702328,92.4179951 C107.566385,92.3729764 107.181218,92.3451711 106.546815,92.3345783 Z M116.438645,92.3345783 L116.438645,91.8261337 C117.510199,91.8579116 118.357833,91.8738005 118.981573,91.8738005 C119.3974,91.8738005 119.839876,91.8685042 120.309013,91.8579115 L121.564484,91.8181894 C121.703093,91.812893 121.831038,91.8102449 121.948322,91.8102449 C122.795969,91.8102449 123.462348,91.9029292 123.947479,92.0883005 C124.432611,92.2736718 124.811114,92.5689376 125.083001,92.9741064 C125.354887,93.3792752 125.490829,93.8413726 125.490829,94.3604126 C125.490829,94.8264892 125.377544,95.2899106 125.150972,95.7506909 C124.9244,96.2114711 124.595209,96.6020693 124.163388,96.9224969 C123.731568,97.2429246 123.281096,97.4719872 122.811958,97.6096916 C122.492091,97.7050255 122.129581,97.7526917 121.724417,97.7526917 C121.383225,97.7526917 121.015384,97.715618 120.620882,97.6414694 L120.452953,97.0535803 C120.927422,97.1595069 121.300594,97.2124693 121.572481,97.2124693 C121.972314,97.2124693 122.35215,97.1158127 122.712,96.9224969 C123.07185,96.729181 123.35173,96.4378875 123.551646,96.0486076 C123.751563,95.6593278 123.85152,95.2290079 123.85152,94.7576349 C123.85152,94.302151 123.754229,93.8903679 123.559643,93.5222733 C123.365057,93.1541788 123.069185,92.8748017 122.672017,92.684134 C122.274849,92.4934664 121.793724,92.3981339 121.228626,92.3981339 C120.72217,92.3981339 120.178405,92.4881701 119.597313,92.6682452 C119.549333,93.2296556 119.525344,94.1088324 119.525344,95.3058019 L119.525344,99.3098035 C119.525344,100.030104 119.53334,100.731856 119.549334,101.415082 C119.565327,101.918233 119.603977,102.217471 119.665285,102.312805 C119.726593,102.408139 119.825217,102.478314 119.96116,102.523333 C120.097103,102.568351 120.482271,102.596157 121.116673,102.606749 L121.116673,103.115194 C120.130417,103.072823 119.405397,103.051638 118.94159,103.051638 C118.760332,103.051638 117.926025,103.072823 116.438645,103.115194 L116.438645,102.606749 C117.067716,102.596157 117.451551,102.568351 117.59016,102.523333 C117.728769,102.478314 117.824727,102.416083 117.878038,102.336638 C117.942012,102.230712 117.981994,101.973844 117.997988,101.566027 C118.003319,101.454804 118.013981,100.702737 118.029974,99.3098035 L118.029974,95.6315242 C118.029974,94.911224 118.021978,94.2068233 118.005984,93.5183011 C117.989991,93.0151502 117.951341,92.7172364 117.890033,92.6245507 C117.828725,92.531865 117.730101,92.4630139 117.594158,92.4179951 C117.458215,92.3729764 117.073048,92.3451711 116.438645,92.3345783 Z M130.224833,102.725916 C130.310131,102.217469 130.360776,101.393903 130.376769,100.255193 L130.92054,100.255193 C130.947195,101.028456 130.991176,101.485257 131.052484,101.62561 C131.113792,101.765963 131.261728,101.915582 131.496297,102.074471 C131.730866,102.233361 132.045397,102.375036 132.439899,102.499499 C132.834401,102.623963 133.21557,102.686194 133.583417,102.686194 C134.121859,102.686194 134.617645,102.563056 135.07079,102.316777 C135.523935,102.070498 135.854458,101.747427 136.062372,101.347554 C136.270285,100.947682 136.37424,100.52001 136.37424,100.064526 C136.37424,99.7149685 136.322263,99.4130826 136.218306,99.1588589 C136.114349,98.9046353 135.955751,98.6994058 135.742507,98.5431643 C135.529262,98.3869226 135.265376,98.2770256 134.95084,98.2134696 C134.753589,98.1816917 134.359093,98.1287293 133.767339,98.0545807 C133.175586,97.9804322 132.671803,97.8983404 132.255977,97.8083028 C131.701541,97.6388205 131.293717,97.4402113 131.032492,97.2124693 C130.771268,96.9847273 130.559359,96.6854895 130.396761,96.3147467 C130.234161,95.9440039 130.152863,95.5441374 130.152863,95.1151351 C130.152863,94.4901688 130.316793,93.9009614 130.644656,93.3474954 C130.972519,92.7940295 131.457643,92.3637095 132.100042,92.0565227 C132.742441,91.7493359 133.439474,91.5957447 134.191161,91.5957447 C134.644305,91.5957447 135.138759,91.6553275 135.674535,91.7744948 C136.210312,91.8936622 136.710096,92.0671142 137.173903,92.2948561 C137.099268,92.6285246 137.045957,92.939679 137.013971,93.2283287 C136.981984,93.5169785 136.957994,93.9420021 136.942001,94.5034126 L136.39823,94.5034126 C136.382237,93.6877786 136.358247,93.242894 136.326261,93.1687454 C136.192983,92.9780777 136.011728,92.8059497 135.78249,92.6523563 C135.233385,92.3451695 134.660299,92.1915784 134.063215,92.1915784 C133.290203,92.1915784 132.673136,92.4259372 132.211995,92.894662 C131.750854,93.3633867 131.520287,93.9711308 131.520287,94.7179127 C131.520287,95.1681003 131.602918,95.5163284 131.768182,95.7626075 C131.933447,96.0088867 132.229319,96.2061718 132.655808,96.3544689 C132.949019,96.4550991 133.428812,96.5491074 134.095201,96.6364968 C134.76159,96.7238861 135.361331,96.8178946 135.894443,96.9185247 C136.395567,97.0668217 136.766074,97.242922 137.005974,97.4468304 C137.245874,97.650739 137.443122,97.9181994 137.597725,98.2492197 C137.752327,98.58024 137.829627,98.96819 137.829627,99.4130812 C137.829627,100.46705 137.389817,101.385949 136.510183,102.169805 C135.63055,102.953661 134.492374,103.345583 133.095623,103.345583 C132.040062,103.345583 131.083142,103.139029 130.224833,102.725916 Z M139.22104,94.4557458 L138.72525,94.4557458 C138.719918,93.1899242 138.693263,92.3133956 138.645283,91.8261337 C139.226374,91.847319 140.13798,91.8738003 141.38013,91.9055782 C142.38771,91.9267636 143.059421,91.937356 143.395281,91.937356 C143.757796,91.937356 144.597433,91.9214672 145.914219,91.8896893 C146.868488,91.8685039 147.564188,91.847319 148.001339,91.8261337 C147.937365,92.4193221 147.894717,93.2958507 147.873393,94.4557458 L147.361609,94.4557458 L147.297636,93.6930789 C147.254986,93.2322987 147.225665,92.9701346 147.209672,92.9065786 C147.193679,92.8430227 147.171022,92.7980046 147.141701,92.7715231 C147.112379,92.7450414 147.068399,92.7238565 147.009756,92.7079675 C146.93512,92.6920784 146.66857,92.6708935 146.210094,92.6444119 C145.751617,92.6179302 145.389108,92.6046896 145.122553,92.6046896 L144.146964,92.6046896 C144.093652,93.1131367 144.066997,93.7990006 144.066997,94.6623016 L144.066997,99.3098035 C144.066997,100.030104 144.074993,100.731856 144.090987,101.415082 C144.10698,101.918233 144.14563,102.217471 144.206938,102.312805 C144.268246,102.408139 144.36687,102.478314 144.502813,102.523333 C144.638757,102.568351 145.023924,102.596157 145.658327,102.606749 L145.658327,103.115194 C144.704058,103.072823 143.987033,103.051638 143.507233,103.051638 C143.299319,103.051638 142.467678,103.072823 141.012285,103.115194 L141.012285,102.606749 C141.646687,102.596157 142.033187,102.568351 142.171796,102.523333 C142.310405,102.478314 142.403698,102.416083 142.451678,102.336638 C142.520983,102.230712 142.563631,101.973844 142.579624,101.566027 C142.579624,101.454804 142.590287,100.702737 142.611611,99.3098035 L142.611611,94.6781905 C142.611611,94.4557448 142.60628,94.2121175 142.595617,93.9473012 L142.547638,92.6046896 L141.35614,92.6046896 C140.668426,92.6046896 140.121996,92.6311708 139.716831,92.684134 C139.588885,92.700023 139.506253,92.7344486 139.468936,92.7874119 C139.410294,92.8774494 139.356983,93.1660948 139.309003,93.6533567 L139.22104,94.4557458 Z M148.441153,97.546136 C148.441153,96.7093167 148.567765,95.9360648 148.820994,95.2263573 C149.07422,94.5166498 149.494039,93.8784522 150.080462,93.3117454 C150.666885,92.7450387 151.330598,92.3173669 152.071622,92.0287172 C152.812647,91.7400674 153.660282,91.5957447 154.614551,91.5957447 C155.494184,91.5957447 156.293839,91.7188825 157.013539,91.9651616 C157.73324,92.2114406 158.32365,92.5371598 158.784793,92.9423286 C159.245933,93.3474974 159.609776,93.7910581 159.876331,94.2730236 C160.078915,94.6331738 160.240179,95.0568733 160.360129,95.5441352 C160.480078,96.0313971 160.540053,96.5530773 160.540053,97.1091914 C160.540053,98.8940529 159.936312,100.37965 158.728816,101.566027 C157.521319,102.752403 155.997976,103.345583 154.158742,103.345583 C153.321758,103.345583 152.540761,103.210529 151.81573,102.940416 C151.090699,102.670303 150.477631,102.269113 149.976505,101.736832 C149.475381,101.204551 149.094213,100.55841 148.832988,99.7983869 C148.571763,99.0383644 148.441153,98.2876216 148.441153,97.546136 Z M150.104451,96.8867469 C150.104451,97.3898978 150.155096,97.9009855 150.256387,98.4200253 C150.357678,98.9390652 150.485624,99.3865979 150.640225,99.762637 C150.896119,100.398196 151.230642,100.931793 151.643803,101.363443 C152.056964,101.795094 152.518098,102.112868 153.02722,102.316777 C153.536341,102.520685 154.100097,102.622638 154.718507,102.622638 C155.576816,102.622638 156.323161,102.414761 156.957563,101.998999 C157.591965,101.583238 158.065094,100.998002 158.376965,100.243276 C158.688834,99.4885497 158.844767,98.6186414 158.844767,97.6335249 C158.844767,96.7914093 158.732816,96.0155094 158.508908,95.3058019 C158.370299,94.8715032 158.186379,94.4782569 157.95714,94.1260514 C157.727903,93.7738458 157.454688,93.4666634 157.137487,93.2044954 C156.820286,92.9423273 156.408464,92.721209 155.902007,92.5411341 C155.395553,92.361059 154.849121,92.2710228 154.262698,92.2710228 C153.415051,92.2710228 152.671373,92.4590395 152.03164,92.8350787 C151.391905,93.2111177 150.910781,93.7553069 150.588247,94.4676626 C150.265715,95.1800183 150.104451,95.9863717 150.104451,96.8867469 Z M161.283738,92.3345783 L161.283738,91.8261337 C161.491652,91.8314301 161.808849,91.8393744 162.235337,91.849967 L163.77069,91.8896893 C164.074563,91.8896893 164.54636,91.8790968 165.186094,91.8579115 C166.017748,91.8261336 166.500206,91.8102449 166.633483,91.8102449 C167.651726,91.8102449 168.394072,91.9002811 168.860544,92.080356 C169.327017,92.2604311 169.688195,92.5530486 169.944088,92.9582176 C170.199982,93.3633864 170.327926,93.8042988 170.327926,94.2809681 C170.327926,94.7258593 170.207978,95.1680959 169.968078,95.6076908 C169.728178,96.0472858 169.380327,96.4127268 168.924517,96.7040246 C168.468707,96.9953225 167.87563,97.220413 167.145267,97.3793026 C167.278545,97.5646741 167.593077,97.9777811 168.08887,98.6186366 L170.10402,101.256193 C170.67978,101.992382 171.015636,102.402841 171.111595,102.487583 C171.159576,102.524657 171.207555,102.551138 171.255534,102.567027 C171.335501,102.593509 171.511425,102.606749 171.783312,102.606749 L171.783312,103.115194 C171.378147,103.083416 171.023633,103.067527 170.719761,103.067527 C170.405225,103.067527 170.018725,103.083416 169.56025,103.115194 C169.213727,102.71797 168.632644,101.94207 167.816985,100.787471 C167.36384,100.146615 166.964012,99.6116946 166.617491,99.1826923 C166.057723,98.4729848 165.52462,97.8294909 165.018165,97.2521914 L165.09813,97.0138581 C165.375348,97.029747 165.585925,97.0376914 165.729864,97.0376914 C166.700127,97.0376914 167.435809,96.8099529 167.936933,96.3544689 C168.438059,95.898985 168.688617,95.2978612 168.688617,94.5510794 C168.688617,93.8996313 168.47271,93.3819234 168.040889,92.9979397 C167.60907,92.6139562 166.956019,92.4219672 166.081717,92.4219672 C165.532612,92.4219672 164.994176,92.5040591 164.466397,92.6682452 C164.445073,92.9542467 164.429079,93.2217072 164.418418,93.4706345 C164.413086,93.5447829 164.394427,94.3153866 164.362441,95.7824687 L164.362441,99.3098035 C164.362441,100.030104 164.373102,100.731856 164.394427,101.415082 C164.40509,101.918233 164.441074,102.217471 164.502382,102.312805 C164.563689,102.408139 164.663646,102.478314 164.802256,102.523333 C164.940865,102.568351 165.324699,102.596157 165.953771,102.606749 L165.953771,103.115194 C165.196752,103.072823 164.501053,103.051638 163.86665,103.051638 C163.354863,103.051638 162.493902,103.072823 161.283738,103.115194 L161.283738,102.606749 C161.91281,102.596157 162.296644,102.568351 162.435253,102.523333 C162.573863,102.478314 162.66982,102.416083 162.723132,102.336638 C162.787105,102.230712 162.827088,101.973844 162.843082,101.566027 C162.848413,101.454804 162.859074,100.702737 162.875068,99.3098035 L162.875068,95.6315242 C162.875068,94.911224 162.867072,94.2068233 162.851078,93.5183011 C162.835084,93.0151502 162.796434,92.7172364 162.735127,92.6245507 C162.673819,92.531865 162.575195,92.4630139 162.439251,92.4179951 C162.303308,92.3729764 161.918142,92.3451711 161.283738,92.3345783 Z M172.431039,103.115194 L172.431039,102.614694 C172.990806,102.609397 173.358647,102.567027 173.534574,102.487583 C173.60921,102.455805 173.66252,102.40549 173.694506,102.336638 C173.747817,102.230712 173.785135,101.952659 173.80646,101.502471 C173.838445,100.803356 173.854439,100.199584 173.854439,99.691137 L173.854439,95.6315242 C173.854439,94.911224 173.846443,94.2068233 173.830449,93.5183011 C173.814456,93.0151502 173.775806,92.7172364 173.714498,92.6245507 C173.65319,92.531865 173.554566,92.4630139 173.418623,92.4179951 C173.282679,92.3729764 172.897512,92.3451711 172.263109,92.3345783 L172.263109,91.8261337 L174.542149,91.8738005 L176.957132,91.8340782 C178.113982,91.8181892 178.95362,91.8102449 179.476069,91.8102449 C180.003849,91.8102449 180.502301,91.8393741 180.971439,91.8976338 C180.88614,92.1995243 180.827499,92.4616884 180.795513,92.684134 C180.78485,92.7318011 180.736871,93.2826106 180.651574,94.3365792 L180.147786,94.3365792 C180.153116,93.796354 180.118465,93.3038032 180.043829,92.858912 C179.750618,92.7370965 179.428091,92.6550046 179.076238,92.612634 C178.479153,92.5384855 177.882077,92.5014118 177.284993,92.5014118 C177.157045,92.5014118 176.871836,92.5120042 176.429354,92.5331896 C175.986871,92.5543749 175.669675,92.5729117 175.477754,92.5888007 C175.45643,93.1766927 175.440436,93.7275023 175.429775,94.2412458 L175.397788,96.9264692 C176.021529,96.9582471 176.594615,96.9741358 177.117063,96.9741358 C177.751466,96.9741358 178.292565,96.9450065 178.740379,96.8867469 C178.910975,96.8655616 179.020261,96.8231916 179.06824,96.7596357 C179.116221,96.6960799 179.15887,96.4789338 179.196186,96.108191 L179.244167,95.5520797 L179.723964,95.5520797 L179.723964,95.7030242 L179.683981,97.3554693 L179.723964,99.2065256 L179.1642,99.2065256 L179.140211,98.6663032 C179.129548,98.2743752 179.093563,98.0307479 179.032256,97.935414 C178.970948,97.8400801 178.854998,97.7738771 178.684402,97.7368028 C178.380529,97.6732469 177.79145,97.6414694 176.917148,97.6414694 C176.559964,97.6414694 176.053516,97.6547101 175.397788,97.6811917 C175.371133,98.2108242 175.357804,98.9973167 175.357804,100.040693 C175.357804,101.020513 175.371133,101.764635 175.397788,102.273082 C176.165468,102.331342 177.02643,102.360471 177.9807,102.360471 C178.657751,102.360471 179.140209,102.339286 179.428089,102.296916 C179.715969,102.254545 179.98252,102.183046 180.227752,102.082416 C180.291725,101.91823 180.355698,101.695787 180.419671,101.415082 C180.536956,100.943709 180.614256,100.588861 180.651574,100.350526 L181.179352,100.350526 C181.040741,101.420384 180.971439,102.307505 180.971439,103.011916 C180.512963,103.080768 179.955871,103.115194 179.300143,103.115194 L174.526156,103.051638 C174.456851,103.051638 173.758486,103.072823 172.431039,103.115194 Z" id="APP-STORE"></path>
                <path d="M89.1583299,100.939785 C88.9539914,101.408769 88.7121212,101.840465 88.4318856,102.237361 C88.0498976,102.778432 87.7371345,103.152956 87.4960985,103.360932 C87.122451,103.702312 86.7221142,103.877145 86.2934203,103.887089 C85.9856615,103.887089 85.614516,103.800086 85.182486,103.623596 C84.7490381,103.447935 84.350703,103.360932 83.9864801,103.360932 C83.6044921,103.360932 83.1948143,103.447935 82.7566124,103.623596 C82.3177433,103.800086 81.964196,103.89206 81.6938853,103.901175 C81.2827895,103.918575 80.8730282,103.738771 80.4640176,103.360932 C80.2029646,103.134727 79.87644,102.746945 79.4852777,102.197589 C79.0655914,101.610945 78.7205511,100.930671 78.4502405,100.155108 C78.1607471,99.3174014 78.015625,98.5062095 78.015625,97.7208696 C78.015625,96.8212669 78.2112895,96.0453729 78.6032026,95.3951764 C78.9112115,94.8729147 79.3209729,94.4609385 79.8338208,94.1585022 C80.3466689,93.8560661 80.9008015,93.7019478 81.4975534,93.6920876 C81.824078,93.6920876 82.2522715,93.7924302 82.7843857,93.9896351 C83.3149987,94.187503 83.6557019,94.2878455 83.8050776,94.2878455 C83.9167548,94.2878455 84.2952398,94.1705168 84.9368627,93.9366052 C85.5436231,93.7196798 86.0557204,93.6298604 86.4752399,93.6652412 C87.6120294,93.7563864 88.466081,94.201589 89.0340587,95.0036666 C88.0173703,95.6156649 87.5144473,96.4728437 87.5244557,97.5724687 C87.53363,98.4289847 87.8463931,99.1417399 88.4610768,99.7076685 C88.7396444,99.9703322 89.0507393,100.173337 89.3968638,100.317512 C89.3218007,100.533775 89.2425674,100.740923 89.1583299,100.939785 L89.1583299,100.939785 Z M86.5511371,90.7472702 C86.5511371,91.4186041 86.3042627,92.0454259 85.8121822,92.6256063 C85.2183495,93.3153266 84.5000787,93.7138796 83.7211736,93.6509894 C83.7112485,93.5704502 83.7054938,93.4856853 83.7054938,93.3966116 C83.7054938,92.7521324 83.987898,92.062412 84.4894031,91.4984721 C84.7397804,91.2129392 85.0582148,90.9755225 85.4443728,90.7861312 C85.829697,90.5995654 86.1941702,90.4963889 86.5369585,90.4787234 C86.5469669,90.5684682 86.5511371,90.6582213 86.5511371,90.7472619 L86.5511371,90.7472702 Z" id="Shape"></path>
                <path d="M17.0551381,73.6356485 C19.1278848,76.2499864 21.1895304,78.8729525 23.2548031,81.4930789 C23.3317424,81.5907193 23.3947228,81.699063 23.5567351,81.9399968 C22.6110403,82.0024691 21.7630585,82.1354959 20.9220011,82.1009832 C17.2337474,81.9492801 14.2892775,80.3852865 12.1300289,77.3932747 C10.1842321,74.6972421 8.78151737,71.7336269 7.73755997,68.5932977 C7.69974976,68.4796024 7.68293302,68.3590263 7.6328125,68.1382979 C11.3632731,69.1233299 14.6618839,70.6172061 17.0551381,73.6356485 Z" id="Fill-5"></path>
                <path d="M39.3102702,95.833773 C42.6386675,97.1411058 45.9151858,98.5784074 49.2139065,99.9603356 C49.2802942,99.9880768 49.3389879,100.034057 49.4450543,100.097731 C48.350317,101.067036 47.1175284,101.752812 45.7572402,102.203771 C42.8610224,103.163792 40.0333904,102.958682 37.2820384,101.651022 C34.2856894,100.226826 31.6227077,98.323057 29.1838394,96.0967687 C29.0918419,96.0127804 29.0160016,95.9115359 28.859375,95.7363511 C32.4295818,94.8479764 35.9000973,94.4941119 39.3102702,95.833773 Z" id="Fill-7"></path>
                <path d="M12.0091552,67.6037347 C8.9499357,66.5017307 6.71649557,64.4969353 5.42457354,61.5109306 C4.09077453,58.4280498 3.43854845,55.1830904 3.16959038,51.8522862 C3.15804948,51.7092112 3.1681615,51.5644981 3.1681615,51.3829787 C3.25180559,51.3933544 3.32456826,51.3835249 3.37611764,51.411703 C5.90379593,52.7947234 8.21197718,54.464112 9.82297778,56.8808755 C10.6445804,58.113722 11.2811988,59.4789401 11.9058366,60.8279938 C12.9665008,63.1186113 13.9516546,65.443523 14.9674741,67.7545639 C15.024739,67.8849697 15.0715621,68.0200715 15.1419067,68.2007172 C14.0269452,68.2053043 13.0022227,67.961531 12.0091552,67.6037347 Z" id="Fill-9"></path>
                <path d="M31.1387831,93.9169648 C27.8534717,94.1348536 25.0411179,93.0343787 22.5964241,90.888802 C20.3725465,88.9367587 18.4718142,86.7116718 16.829818,84.2623614 C16.7423269,84.1318465 16.6781375,83.9859321 16.5703125,83.7867194 C18.3406874,83.7310186 20.0204939,83.9072955 21.682824,84.2630167 C23.691821,84.6930057 25.5438617,85.4725999 27.1987178,86.7031528 C29.8928048,88.7066376 32.5974437,90.69647 35.3966081,92.7652669 C33.9455315,93.4805319 32.572933,93.8218363 31.1387831,93.9169648 Z" id="Fill-11"></path>
                <path d="M7.34721385,43.8491065 C7.95074829,47.0043984 8.51295529,50.1675539 9.09153939,53.3276515 C9.09725489,53.359106 9.07637134,53.3953663 9.0554878,53.479136 C7.61837019,53.0476179 6.34711188,52.3302778 5.1998359,51.3911169 C2.72678456,49.3669901 1.43310393,46.7361604 1.09402111,43.5893875 C0.79758469,40.8391831 0.917829941,38.108747 1.32912586,35.382789 C1.36144039,35.1692688 1.41540787,34.958916 1.48399383,34.6276596 C4.31261499,37.2434172 6.62145572,40.0544557 7.34721385,43.8491065 Z" id="Fill-17"></path>
                <path d="M25.4408823,70.8710279 C26.8827262,73.8770195 26.71291,76.8815913 25.6166338,79.917727 C25.4634146,80.342146 25.2682084,80.7517113 25.0808061,81.1956803 C24.9869401,81.1328802 24.9181343,81.1035008 24.8720806,81.0534792 C22.4680548,78.4446021 20.4782927,75.5779719 19.2447346,72.2283822 C18.1157044,69.1630855 19.2965039,65.7840071 21.2282318,63.6702128 C22.7629525,65.9986193 24.2334837,68.3538934 25.4408823,70.8710279 Z" id="Fill-25"></path>
                <path d="M46.6095049,90.4112821 C48.3617441,92.016014 49.1752131,94.1269688 49.6509183,96.3850393 C49.7912777,97.0518118 49.8465642,97.7362776 49.9523009,98.4946834 C47.7228176,97.7902309 45.6964542,96.9231536 43.8091314,95.7727664 C42.7220879,95.1102534 41.672525,94.3708512 40.6796773,93.5754206 C38.7531153,92.0315229 37.8664441,89.9525689 37.8006058,87.5246652 C37.7778538,86.6844554 37.8649052,85.8415153 37.9064525,84.893617 C41.045579,86.5725075 44.0843545,88.0984936 46.6095049,90.4112821 Z" id="Fill-27"></path>
                <path d="M12.5959526,16.2090145 C11.7734707,18.9304948 10.9959434,21.6652995 10.1984118,24.3942064 L10.0105698,24.4384395 C9.81162659,24.2083184 9.6107049,23.9797263 9.41395993,23.7477485 C7.39880779,21.3725967 6.25647789,18.6662977 6.56577419,15.5300098 C6.68481038,14.3230477 7.07775077,13.1155397 7.51553581,11.97247 C8.39890975,9.66612529 9.73138981,7.60453687 11.3571188,5.58510638 C12.7360922,9.11293896 13.7065176,12.5336292 12.5959526,16.2090145 Z" id="Fill-33"></path>
                <path d="M33.2494208,88.9914564 C31.6815062,87.7244248 30.2771429,86.2916012 29.1320651,84.6271273 C27.2124276,81.8366217 27.4573148,78.9561209 28.7980382,76.0373941 C28.8110081,76.0089975 28.854204,75.9944716 28.9053138,75.9574468 C31.1862365,77.969669 33.4635321,79.9871336 35.2928207,82.4478026 C36.4770276,84.0406296 37.0239566,85.8455572 37.079353,87.7897369 C37.1143054,89.0148288 36.9969179,90.2440712 36.9477866,91.471566 C36.8591965,91.5104474 36.7706062,91.5493287 36.6820161,91.5882102 C35.5358392,90.7250647 34.3644922,89.8927186 33.2494208,88.9914564 Z" id="Fill-37"></path>
                <path d="M17.2843976,50.2659574 C17.3164923,50.3958169 18.108748,52.3410887 18.409581,53.5693481 C18.7773512,55.0708695 19.1429231,56.5045668 19.4914585,57.9424144 C20.3871427,61.637022 19.1428132,64.766757 16.8862913,67.6253051 C16.8190243,67.7104948 16.739337,67.7865101 16.6608589,67.8621977 C16.6370077,67.8852426 16.5980983,67.8931063 16.5347882,67.9222674 C14.9805029,64.9996087 13.7840957,61.9647836 13.30905,58.6625942 C12.9174286,55.9407864 13.8153111,53.7042317 15.697468,51.7249932" id="Fill-39"></path>
                <path d="M16.1458956,44.4263205 C16.1839255,47.6540236 14.6149119,50.1122897 12.2360563,52.1453724 C11.8369608,52.4865677 11.4029128,52.7872433 10.8690635,53.1953889 C10.6516548,52.1777008 10.4310586,51.272179 10.268167,50.3566092 C9.88445932,48.1990186 9.77135843,46.0306155 9.94952804,43.8385123 C10.2056262,40.6871522 11.9963352,38.6924048 14.7237262,37.3631194 C15.0478607,37.2051909 15.3899113,37.083632 15.9250795,36.8617021 C16.0049867,39.4904567 16.1167685,41.9578971 16.1458956,44.4263205 Z" id="Fill-43"></path>
                <path d="M15.8374844,5.32347653 C17.7869084,2.20662919 20.8474469,0.792154102 24.4611794,0 C24.1859562,1.10626346 23.9598644,2.10407401 23.6877188,3.08921533 C23.144417,5.05665832 22.447566,6.96861885 21.3553566,8.70856189 C19.87889,11.0611056 17.7281048,12.5578214 15.1183211,13.4477251 C15.0495154,13.4709884 14.9774122,13.4876987 14.9055289,13.4986204 C14.8532101,13.5067025 14.798583,13.5002587 14.6764693,13.5002587 C14.0274307,10.6290414 14.249236,7.86267282 15.8374844,5.32347653 Z" id="Fill-47"></path>
                <path d="M17.8817453,27.834718 C17.5960803,29.2550908 17.2712863,30.6707673 16.8897768,32.0687505 C16.345266,34.0639348 15.1093997,35.5796544 13.4120072,36.7443492 C12.3401318,37.4797102 11.1949441,38.0614023 9.87807179,38.4793774 C9.87807179,37.7019677 9.85037362,36.9834262 9.88334763,36.267615 C9.98139038,34.1382026 10.332124,32.0550983 10.9575312,30.0077082 C11.8125475,27.2087928 13.7405383,25.6173856 16.5155217,24.92451 C17.0802568,24.7835103 17.6608193,24.7056383 18.3632758,24.5744681 C18.1969768,25.7283504 18.0915698,26.7919099 17.8817453,27.834718 Z" id="Fill-51"></path>
                <path d="M23.1541235,14.3118958 C22.3982491,16.0009435 21.6782065,17.7076844 20.8651771,19.3692094 C19.5281906,22.1010653 17.1949491,23.5166325 14.2756494,24.0904609 C13.7396018,24.1958558 13.1932223,24.2509013 12.65047,24.3204728 C12.5098908,24.3383846 12.3650249,24.3230941 12.1015625,24.3230941 C12.4189924,23.2428244 12.6925668,22.2170541 13.0226367,21.2097417 C13.5735227,19.5289946 14.3380802,17.9491641 15.3121327,16.4623872 C16.4243464,14.7644929 18.0039117,13.8404041 19.9802645,13.531428 C21.1033594,13.3558063 22.228433,13.3544957 23.416157,13.5751149 C23.3206424,13.8468479 23.2548043,14.0870171 23.1541235,14.3118958 Z" id="Fill-53"></path>
                <path d="M5.57878034,28.3936296 C4.78300739,28.5359398 4.59296712,28.9696423 5.07757527,29.5945845 C5.20023862,29.7528406 5.32114335,29.9137179 5.45644674,30.060943 C5.90016711,30.5437933 6.42291519,30.4343575 6.69121379,29.8247056 C6.76705403,29.6524698 6.91235954,29.5103779 7.10119074,29.2505496 C7.24869452,30.0622537 7.01886562,30.498905 6.42137642,30.7918261 C5.92588684,31.0346165 5.52778053,30.935447 5.11857297,30.4572931 C4.92908227,30.2358001 4.74530709,30.0089555 4.56867627,29.7771961 C4.20508276,29.3004619 4.18793627,28.8441515 4.50877347,28.4316372 C4.90556081,27.9219194 5.40918398,27.7816842 6.13867917,28.0820322 C5.89708952,28.2206292 5.74815689,28.3632672 5.57878034,28.3936296 Z" id="Fill-57"></path>
                <path d="M4.5873588,30.7145082 C4.52470816,30.6520359 4.63517113,30.4178737 4.68562137,30.1595745 C5.14714771,30.5668462 5.53843939,30.892205 5.39423302,31.3736355 C5.30322472,31.6774784 4.95908589,31.9115314 4.7047463,32.1521375 C4.68463215,32.1711412 4.47865445,31.9961748 4.28125,31.856049 C4.86587934,31.5041504 5.04976444,31.1750782 4.5873588,30.7145082 Z" id="Fill-59"></path>
                <path d="M8.15418408,28.0757067 C8.18935636,26.6141589 7.75398942,25.2092949 7.21519397,23.8482272 C6.54384296,22.1522988 5.6536544,20.5790215 4.51890853,18.9893617 C4.24269618,19.6562433 3.98472944,20.2238463 3.76995868,20.8072859 C2.76732871,23.5308413 1.95847605,26.3067118 2.05465027,29.2392001 C2.18522738,33.2226878 4.17762745,36.1645688 7.4320531,38.3489176 C7.47414992,38.3769865 7.53185445,38.3823382 7.75003253,38.4514728 C7.89313977,34.9357634 8.07152921,31.5068818 8.15418408,28.0757067 Z" id="Fill-61"></path>
                <path d="M246.078576,73.6356485 C248.151322,76.2499864 250.212968,78.8729525 252.278241,81.4930789 C252.35518,81.5907193 252.41816,81.699063 252.580174,81.9399968 C251.634478,82.0024691 250.786497,82.1354959 249.945439,82.1009832 C246.257186,81.9492801 243.312715,80.3852865 241.153467,77.3932747 C239.20767,74.6972421 237.804954,71.7336269 236.760998,68.5932977 C236.723187,68.4796024 236.706371,68.3590263 236.65625,68.1382979 C240.386711,69.1233299 243.685321,70.6172061 246.078576,73.6356485 Z" id="Fill-5" transform="translate(244.618212, 75.122454) scale(-1, 1) translate(-244.618212, -75.122454) "></path>
                <path d="M220.294646,95.833773 C223.623044,97.1411058 226.899561,98.5784074 230.198282,99.9603356 C230.26467,99.9880768 230.323364,100.034057 230.42943,100.097731 C229.334692,101.067036 228.101904,101.752812 226.741615,102.203771 C223.845398,103.163792 221.017766,102.958682 218.266414,101.651022 C215.270064,100.226826 212.607083,98.323057 210.168214,96.0967687 C210.076217,96.0127804 210.000378,95.9115359 209.84375,95.7363511 C213.413957,94.8479764 216.884474,94.4941119 220.294646,95.833773 Z" id="Fill-7" transform="translate(220.136590, 98.874147) scale(-1, 1) translate(-220.136590, -98.874147) "></path>
                <path d="M254.438842,67.6037347 C251.379624,66.5017307 249.146183,64.4969353 247.854262,61.5109306 C246.520462,58.4280498 245.868236,55.1830904 245.599278,51.8522862 C245.587737,51.7092112 245.597849,51.5644981 245.597849,51.3829787 C245.681493,51.3933544 245.754255,51.3835249 245.805805,51.411703 C248.333484,52.7947234 250.641665,54.464112 252.252665,56.8808755 C253.074269,58.113722 253.710886,59.4789401 254.335525,60.8279938 C255.396189,63.1186113 256.381342,65.443523 257.397161,67.7545639 C257.454426,67.8849697 257.50125,68.0200715 257.571595,68.2007172 C256.456633,68.2053043 255.43191,67.961531 254.438842,67.6037347 Z" id="Fill-9" transform="translate(251.582673, 59.791880) scale(-1, 1) translate(-251.582673, -59.791880) "></path>
                <path d="M238.935658,93.9169648 C235.650346,94.1348536 232.837992,93.0343787 230.393298,90.888802 C228.169421,88.9367587 226.268688,86.7116718 224.626692,84.2623614 C224.539202,84.1318465 224.475012,83.9859321 224.367188,83.7867194 C226.137562,83.7310186 227.817368,83.9072955 229.479698,84.2630167 C231.488695,84.6930057 233.340736,85.4725999 234.995592,86.7031528 C237.689679,88.7066376 240.394318,90.69647 243.193483,92.7652669 C241.742406,93.4805319 240.369807,93.8218363 238.935658,93.9169648 Z" id="Fill-11" transform="translate(233.780335, 88.860362) scale(-1, 1) translate(-233.780335, -88.860362) "></path>
                <path d="M256.480026,43.8491065 C257.08356,47.0043984 257.645768,50.1675539 258.224352,53.3276515 C258.230067,53.359106 258.209184,53.3953663 258.1883,53.479136 C256.751183,53.0476179 255.479925,52.3302778 254.332649,51.3911169 C251.859597,49.3669901 250.565917,46.7361604 250.226833,43.5893875 C249.930397,40.8391831 250.050643,38.108747 250.461939,35.382789 C250.494254,35.1692688 250.54822,34.958916 250.616806,34.6276596 C253.445428,37.2434172 255.754268,40.0544557 256.480026,43.8491065 Z" id="Fill-17" transform="translate(254.143904, 44.053398) scale(-1, 1) translate(-254.143904, -44.053398) "></path>
                <path d="M239.940883,70.8710279 C241.382727,73.8770195 241.21291,76.8815913 240.116634,79.917727 C239.963415,80.342146 239.768208,80.7517113 239.580807,81.1956803 C239.48694,81.1328802 239.418134,81.1035008 239.372081,81.0534792 C236.968055,78.4446021 234.978293,75.5779719 233.744735,72.2283822 C232.615704,69.1630855 233.796504,65.7840071 235.728233,63.6702128 C237.262952,65.9986193 238.733484,68.3538934 239.940883,70.8710279 Z" id="Fill-25" transform="translate(237.142621, 72.432947) scale(-1, 1) translate(-237.142621, -72.432947) "></path>
                <path d="M218.656381,90.4112821 C220.408619,92.016014 221.222089,94.1269688 221.697794,96.3850393 C221.838153,97.0518118 221.893439,97.7362776 221.999177,98.4946834 C219.769693,97.7902309 217.74333,96.9231536 215.856007,95.7727664 C214.768963,95.1102534 213.7194,94.3708512 212.726552,93.5754206 C210.79999,92.0315229 209.913319,89.9525689 209.847481,87.5246652 C209.824729,86.6844554 209.91178,85.8415153 209.953327,84.893617 C213.092455,86.5725075 216.13123,88.0984936 218.656381,90.4112821 Z" id="Fill-27" transform="translate(215.921463, 91.694150) scale(-1, 1) translate(-215.921463, -91.694150) "></path>
                <path d="M252.791264,16.2090145 C251.968783,18.9304948 251.191255,21.6652995 250.393724,24.3942064 L250.205882,24.4384395 C250.006938,24.2083184 249.806017,23.9797263 249.609272,23.7477485 C247.59412,21.3725967 246.45179,18.6662977 246.761087,15.5300098 C246.880122,14.3230477 247.273063,13.1155397 247.710848,11.97247 C248.594221,9.66612529 249.926702,7.60453687 251.552431,5.58510638 C252.931404,9.11293896 253.901829,12.5336292 252.791264,16.2090145 Z" id="Fill-33" transform="translate(249.992537, 15.011773) scale(-1, 1) translate(-249.992537, -15.011773) "></path>
                <path d="M228.757233,88.9914564 C227.189318,87.7244248 225.784955,86.2916012 224.639877,84.6271273 C222.72024,81.8366217 222.965128,78.9561209 224.305851,76.0373941 C224.31882,76.0089975 224.362016,75.9944716 224.413126,75.9574468 C226.694049,77.969669 228.971344,79.9871336 230.800633,82.4478026 C231.98484,84.0406296 232.531769,85.8455572 232.587165,87.7897369 C232.622118,89.0148288 232.50473,90.2440712 232.455599,91.471566 C232.36701,91.5104474 232.278419,91.5493287 232.189828,91.5882102 C231.043652,90.7250647 229.872304,89.8927186 228.757233,88.9914564 Z" id="Fill-37" transform="translate(227.921782, 83.772829) scale(-1, 1) translate(-227.921782, -83.772829) "></path>
                <path d="M244.07346,50.2659574 C244.105555,50.3958169 244.897811,52.3410887 245.198643,53.5693481 C245.566414,55.0708695 245.931985,56.5045668 246.280521,57.9424144 C247.176204,61.637022 245.931875,64.766757 243.675353,67.6253051 C243.608086,67.7104948 243.528399,67.7865101 243.449921,67.8621977 C243.426069,67.8852426 243.38716,67.8931063 243.32385,67.9222674 C241.769564,64.9996087 240.573157,61.9647836 240.098112,58.6625942 C239.706491,55.9407864 240.604374,53.7042317 242.48653,51.7249932" id="Fill-39" transform="translate(243.290397, 59.094112) scale(-1, 1) translate(-243.290397, -59.094112) "></path>
                <path d="M249.638083,44.4263205 C249.676113,47.6540236 248.1071,50.1122897 245.728244,52.1453724 C245.329149,52.4865677 244.8951,52.7872433 244.361252,53.1953889 C244.143843,52.1777008 243.923246,51.272179 243.760354,50.3566092 C243.376647,48.1990186 243.263545,46.0306155 243.441716,43.8385123 C243.697814,40.6871522 245.488523,38.6924048 248.215914,37.3631194 C248.540048,37.2051909 248.882098,37.083632 249.417268,36.8617021 C249.497174,39.4904567 249.608956,41.9578971 249.638083,44.4263205 Z" id="Fill-43" transform="translate(246.499067, 45.028546) scale(-1, 1) translate(-246.499067, -45.028546) "></path>
                <path d="M237.040609,5.32347653 C238.990033,2.20662919 242.050572,0.792154102 245.664304,0 C245.389081,1.10626346 245.162989,2.10407401 244.890844,3.08921533 C244.347542,5.05665832 243.650691,6.96861885 242.558482,8.70856189 C241.082015,11.0611056 238.93123,12.5578214 236.321445,13.4477251 C236.25264,13.4709884 236.180537,13.4876987 236.108654,13.4986204 C236.056334,13.5067025 236.001709,13.5002587 235.879594,13.5002587 C235.230556,10.6290414 235.452361,7.86267282 237.040609,5.32347653 Z" id="Fill-47" transform="translate(240.601683, 6.751346) scale(-1, 1) translate(-240.601683, -6.751346) "></path>
                <path d="M250.256745,27.834718 C249.971081,29.2550908 249.646286,30.6707673 249.264778,32.0687505 C248.720266,34.0639348 247.4844,35.5796544 245.787007,36.7443492 C244.715132,37.4797102 243.569944,38.0614023 242.253072,38.4793774 C242.253072,37.7019677 242.225374,36.9834262 242.258348,36.267615 C242.356391,34.1382026 242.707124,32.0550983 243.332531,30.0077082 C244.187548,27.2087928 246.115539,25.6173856 248.890523,24.92451 C249.455257,24.7835103 250.035819,24.7056383 250.738277,24.5744681 C250.571977,25.7283504 250.46657,26.7919099 250.256745,27.834718 Z" id="Fill-51" transform="translate(246.490232, 31.526923) scale(-1, 1) translate(-246.490232, -31.526923) "></path>
                <path d="M247.708811,14.3118958 C246.952937,16.0009435 246.232894,17.7076844 245.419864,19.3692094 C244.082878,22.1010653 241.749636,23.5166325 238.830337,24.0904609 C238.29429,24.1958558 237.74791,24.2509013 237.205157,24.3204728 C237.064579,24.3383846 236.919712,24.3230941 236.65625,24.3230941 C236.97368,23.2428244 237.247254,22.2170541 237.577324,21.2097417 C238.12821,19.5289946 238.892768,17.9491641 239.86682,16.4623872 C240.979033,14.7644929 242.558599,13.8404041 244.534951,13.531428 C245.658046,13.3558063 246.78312,13.3544957 247.970844,13.5751149 C247.87533,13.8468479 247.809492,14.0870171 247.708811,14.3118958 Z" id="Fill-53" transform="translate(242.313547, 18.866715) scale(-1, 1) translate(-242.313547, -18.866715) "></path>
                <path d="M253.594406,28.3936296 C252.798632,28.5359398 252.608592,28.9696423 253.0932,29.5945845 C253.215864,29.7528406 253.336768,29.9137179 253.472072,30.060943 C253.915793,30.5437933 254.43854,30.4343575 254.706839,29.8247056 C254.782679,29.6524698 254.927984,29.5103779 255.116815,29.2505496 C255.26432,30.0622537 255.03449,30.498905 254.437002,30.7918261 C253.941511,31.0346165 253.543406,30.935447 253.134198,30.4572931 C252.944707,30.2358001 252.760932,30.0089555 252.584301,29.7771961 C252.220707,29.3004619 252.203562,28.8441515 252.524399,28.4316372 C252.921186,27.9219194 253.424809,27.7816842 254.154305,28.0820322 C253.912715,28.2206292 253.763782,28.3632672 253.594406,28.3936296 Z" id="Fill-57" transform="translate(253.728504, 29.422516) scale(-1, 1) translate(-253.728504, -29.422516) "></path>
                <path d="M254.837358,30.7145082 C254.774708,30.6520359 254.88517,30.4178737 254.935621,30.1595745 C255.397147,30.5668462 255.788439,30.892205 255.644232,31.3736355 C255.553224,31.6774784 255.209086,31.9115314 254.954745,32.1521375 C254.934632,32.1711412 254.728654,31.9961748 254.53125,31.856049 C255.115878,31.5041504 255.299764,31.1750782 254.837358,30.7145082 Z" id="Fill-59" transform="translate(255.102928, 31.156568) scale(-1, 1) translate(-255.102928, -31.156568) "></path>
                <path d="M257.286996,28.0757067 C257.322169,26.6141589 256.886801,25.2092949 256.348006,23.8482272 C255.676655,22.1522988 254.786466,20.5790215 253.65172,18.9893617 C253.375508,19.6562433 253.117542,20.2238463 252.902771,20.8072859 C251.900141,23.5308413 251.091288,26.3067118 251.187463,29.2392001 C251.31804,33.2226878 253.310439,36.1645688 256.564866,38.3489176 C256.606962,38.3769865 256.664666,38.3823382 256.882845,38.4514728 C257.025952,34.9357634 257.204341,31.5068818 257.286996,28.0757067 Z" id="Fill-61" transform="translate(254.234337, 28.720417) scale(-1, 1) translate(-254.234337, -28.720417) "></path>
            </g>
        </g>
    </g>
</svg>