<?xml version="1.0" encoding="utf-8"?>
<!-- Generator: Adobe Illustrator 16.0.0, SVG Export Plug-In . SVG Version: 6.00 Build 0)  -->
<!DOCTYPE svg PUBLIC "-//W3C//DTD SVG 1.1//EN" "http://www.w3.org/Graphics/SVG/1.1/DTD/svg11.dtd">
<svg version="1.1" id="Layer_1" xmlns="http://www.w3.org/2000/svg" xmlns:xlink="http://www.w3.org/1999/xlink" x="0px" y="0px"
	 width="63.282px" height="27.361px" viewBox="0 0 63.282 27.361" enable-background="new 0 0 63.282 27.361" xml:space="preserve">
<path fill="#E4E4E4" d="M2.707,14.525v-0.338v-2.365c-0.903,0-1.579-0.225-2.031-0.676c-0.09-0.292-0.163-0.607-0.22-0.945
	S0.36,9.593,0.338,9.391V9.12c0.902,0,1.579,0.226,2.03,0.676c0.226,0.451,0.339,1.126,0.339,2.026c0-1.126,0.112-1.913,0.338-2.364
	v1.688c0-0.18,0.073-0.394,0.22-0.642c0.147-0.247,0.299-0.371,0.457-0.371c0.203-0.203,0.445-0.36,0.728-0.474
	c0.282-0.112,0.514-0.18,0.694-0.202h0.271c0,0.9-0.226,1.577-0.677,2.027c-0.452,0.226-1.016,0.338-1.692,0.338v1.688
	c0-0.45,0.113-0.788,0.338-1.014c0.294-0.202,0.61-0.359,0.948-0.473c0.339-0.112,0.609-0.181,0.812-0.203h0.271
	c0.226,0.901,0,1.577-0.677,2.027c-0.136,0.27-0.435,0.49-0.896,0.658c-0.463,0.169-0.728,0.287-0.796,0.354V15.2
	c0-0.225-0.113-0.338-0.338-0.338c-0.903,0-1.58-0.225-2.031-0.676c-0.202-0.292-0.361-0.636-0.474-1.03
	C0.09,12.764,0.021,12.442,0,12.194v-0.372c0.901,0,1.578,0.226,2.029,0.676C2.48,12.949,2.707,13.625,2.707,14.525z M8.46,21.618
	c-0.316,0.946-0.88,1.622-1.692,2.027H6.429c0-0.226-0.113-0.45-0.338-0.677c-0.452-0.899-0.903-1.575-1.354-2.026
	c-0.046,0-0.209,0.022-0.491,0.068c-0.282,0.045-0.592,0.066-0.931,0.066c-0.338,0-0.654-0.045-0.947-0.135
	c-0.406-0.202-0.75-0.5-1.032-0.895s-0.457-0.738-0.524-1.03l-0.136-0.439c0.902-0.225,1.805-0.225,2.707,0l0.678,0.676
	c-0.113-0.112-0.226-0.338-0.339-0.676s-0.226-0.562-0.339-0.676c-0.901,0.227-1.691,0-2.368-0.675
	c-0.293-0.203-0.524-0.474-0.693-0.811c-0.17-0.338-0.266-0.631-0.288-0.879L0,15.2c0.901-0.225,1.691-0.112,2.368,0.338
	c0.451,0.451,0.677,0.789,0.677,1.014v-1.014c0,0.091,0.056,0.276,0.17,0.558c0.112,0.282,0.168,0.547,0.168,0.794
	c0-0.45,0.226-0.9,0.678-1.352c0.203-0.292,0.474-0.552,0.812-0.777c0.338-0.225,0.631-0.371,0.879-0.438l0.339-0.136
	c0.226,1.127,0.113,2.027-0.339,2.703c-0.248,0.247-0.626,0.456-1.133,0.625c-0.508,0.169-0.807,0.299-0.896,0.388
	c0.112,0.226,0.281,0.62,0.507,1.183c0.226,0.563,0.395,0.957,0.508,1.183c0-0.045-0.022-0.208-0.067-0.49
	c-0.046-0.281-0.067-0.558-0.067-0.828c0-0.27,0.045-0.506,0.135-0.709c0.203-0.405,0.475-0.748,0.812-1.03
	c0.338-0.281,0.632-0.456,0.88-0.522l0.338-0.136c0.045,0.091,0.097,0.22,0.152,0.389c0.057,0.169,0.136,0.507,0.237,1.013
	c0.102,0.507,0.084,0.94-0.051,1.301c-0.294,0.45-0.648,0.788-1.066,1.013c-0.417,0.226-0.738,0.338-0.964,0.338l1.015,2.027
	c0-0.157-0.022-0.344-0.067-0.558C5.978,21.86,5.956,21.669,5.956,21.5s0.045-0.354,0.135-0.558c0.09-0.404,0.305-0.776,0.644-1.114
	c0.338-0.338,0.653-0.574,0.947-0.709l0.439-0.203c0.022,0.046,0.057,0.096,0.102,0.152c0.046,0.057,0.113,0.191,0.203,0.405
	s0.157,0.422,0.203,0.625c0.045,0.202,0.062,0.444,0.051,0.726C8.668,21.106,8.595,21.371,8.46,21.618z M4.737,9.458
	c-0.203,0.09-0.418,0.135-0.644,0.135S3.654,9.57,3.451,9.525S3.113,9.458,3.045,9.458c-0.226,0-0.524-0.096-0.896-0.287
	S1.511,8.737,1.354,8.444C1.263,8.242,1.189,8,1.134,7.719C1.076,7.438,1.037,7.206,1.015,7.026V6.756
	c0.902,0,1.467,0.226,1.692,0.676c0.09,0.09,0.163,0.219,0.22,0.388c0.056,0.17,0.096,0.311,0.118,0.423v0.202
	c0-0.45,0.113-0.9,0.338-1.351c-0.676,0-1.128-0.338-1.353-1.014C1.939,5.878,1.895,5.636,1.895,5.354
	c0-0.282,0.022-0.512,0.067-0.692L2.03,4.392c0.677,0.226,1.128,0.676,1.353,1.352v1.014c0.091-0.158,0.17-0.339,0.237-0.541
	c0.068-0.202,0.136-0.365,0.203-0.49c0.067-0.123,0.146-0.23,0.237-0.32C3.834,5.63,3.722,6.08,3.722,6.757
	c0-0.181,0.067-0.339,0.203-0.474S4.218,6.08,4.398,6.08c0.203-0.09,0.445-0.135,0.728-0.135S5.64,5.968,5.82,6.014L6.091,6.08
	C5.865,6.757,5.527,7.206,5.076,7.432H3.383c0,0.113-0.056,0.338-0.169,0.676S3.045,8.671,3.045,8.782
	c0.067-0.067,0.146-0.174,0.236-0.32s0.191-0.275,0.305-0.389C3.698,7.961,3.856,7.86,4.06,7.77c0.203-0.09,0.446-0.135,0.728-0.135
	c0.282,0,0.514,0.022,0.694,0.067L5.752,7.77C5.752,8.444,5.414,9.008,4.737,9.458z M4.398,21.618
	c0.812,0.271,1.489,0.946,2.03,2.027c-0.09,0.067-0.226,0.157-0.406,0.27c-0.181,0.113-0.507,0.231-0.981,0.355
	c-0.474,0.123-0.913,0.141-1.319,0.05c-0.406-0.202-0.778-0.473-1.116-0.811c-0.339-0.338-0.576-0.63-0.711-0.878l-0.203-0.338
	c0.09-0.067,0.226-0.157,0.406-0.271c0.181-0.112,0.508-0.23,0.981-0.354C3.553,21.546,3.993,21.528,4.398,21.618z M5.414,5.405
	c-0.203,0.09-0.39,0.134-0.559,0.134S4.528,5.518,4.382,5.472C4.234,5.427,4.128,5.405,4.061,5.405
	C3.993,5.383,3.902,5.343,3.789,5.286C3.677,5.23,3.524,5.084,3.333,4.847c-0.192-0.236-0.288-0.5-0.288-0.794
	c-0.09-0.202-0.136-0.416-0.136-0.641c0-0.226,0.023-0.395,0.068-0.507l0.067-0.203c0.677,0.226,1.016,0.563,1.016,1.014
	c0.09,0.09,0.135,0.219,0.135,0.388c0,0.17-0.022,0.355-0.067,0.558C4.082,4.864,4.061,4.999,4.061,5.066
	c0.09-0.157,0.169-0.338,0.236-0.54C4.365,4.323,4.433,4.16,4.5,4.036c0.067-0.123,0.146-0.23,0.237-0.32
	c0,0.112-0.058,0.281-0.17,0.507C4.454,4.447,4.398,4.617,4.398,4.729c0-0.225,0.226-0.337,0.677-0.337
	c0.203-0.09,0.418-0.136,0.643-0.136c0.226,0,0.395,0.022,0.508,0.067l0.203,0.068C6.203,5.066,5.865,5.405,5.414,5.405z
	 M8.121,23.308c0.09-0.405,0.276-0.805,0.559-1.199c0.281-0.394,0.547-0.692,0.795-0.896l0.339-0.271
	c0.09,0.091,0.208,0.231,0.354,0.423s0.316,0.552,0.508,1.081s0.242,1.042,0.152,1.537c-0.226,0.676-0.79,1.464-1.692,2.364
	l0.339,0.338H9.136l-0.338-0.338c-0.203,0.203-0.609,0.423-1.219,0.659c-0.608,0.236-1.218,0.354-1.827,0.354
	c-0.406-0.091-0.807-0.305-1.201-0.642c-0.395-0.338-0.693-0.653-0.897-0.946l-0.271-0.439c0.902-0.675,1.918-1.013,3.046-1.013
	c0.112,0.113,0.339,0.226,0.678,0.338c0.338,0.113,0.563,0.226,0.676,0.338c-0.451-0.45-0.79-0.9-1.015-1.352
	c0.902,0.901,1.466,1.577,1.691,2.026C8.008,24.771,7.896,23.983,8.121,23.308z M7.106,3.378C6.88,3.829,6.542,4.053,6.091,4.053
	c-0.248,0-0.514-0.056-0.795-0.168C5.014,3.771,4.827,3.716,4.737,3.716c0-0.112-0.113-0.281-0.339-0.507S4.061,2.815,4.061,2.702
	C3.97,2.478,3.947,2.263,3.993,2.061c0.045-0.203,0.123-0.372,0.236-0.507l0.169-0.203C4.85,1.576,5.076,1.914,5.076,2.364V3.04
	c0.451-0.45,0.676-0.788,0.676-1.014c0.113,0,0.282-0.056,0.508-0.169c0.226-0.112,0.395-0.169,0.508-0.169
	c0.203,0,0.417,0.028,0.643,0.085c0.226,0.056,0.396,0.117,0.508,0.185l0.203,0.068c-0.451,0.45-0.79,0.675-1.015,0.675
	c-0.203,0-0.39-0.027-0.559-0.084C6.379,2.562,6.26,2.499,6.192,2.432L6.091,2.364c-0.339,0-0.677,0.337-1.015,1.013l0.676-0.676
	c0.204,0,0.418,0.058,0.644,0.17S6.79,3.096,6.903,3.208L7.106,3.378z M6.429,1.014c0,0.675-0.226,1.013-0.677,1.013
	C5.301,1.802,5.075,1.464,5.075,1.014c0-0.203,0.057-0.389,0.17-0.558C5.357,0.287,5.47,0.169,5.583,0.102L5.752,0
	C6.203,0.226,6.429,0.562,6.429,1.014z M55.159,23.308c0,1.126-0.113,1.914-0.338,2.364c0.225-0.45,0.788-1.126,1.692-2.026
	c-0.227,0.45-0.564,0.9-1.016,1.352c0.09-0.091,0.197-0.169,0.321-0.237c0.124-0.067,0.287-0.135,0.491-0.202
	c0.203-0.067,0.383-0.146,0.541-0.236c0.406,0,0.862,0.084,1.37,0.253s0.908,0.332,1.202,0.489l0.474,0.271
	c-0.067,0.135-0.176,0.299-0.321,0.49c-0.146,0.191-0.457,0.473-0.931,0.845c-0.474,0.371-0.959,0.603-1.455,0.692
	c-0.632,0-1.241-0.124-1.827-0.372c-0.588-0.247-0.88-0.461-0.88-0.642c-0.091,0.091-0.191,0.164-0.305,0.22
	c-0.113,0.057-0.203,0.097-0.271,0.118h-0.102c0-0.226,0.112-0.338,0.338-0.338c-0.022-0.021-0.118-0.112-0.287-0.27
	c-0.17-0.158-0.321-0.305-0.457-0.439c-0.135-0.135-0.282-0.292-0.439-0.474c-0.158-0.179-0.283-0.376-0.373-0.591
	c-0.09-0.213-0.135-0.41-0.135-0.591c-0.09-0.495-0.079-0.996,0.034-1.503c0.112-0.507,0.248-0.884,0.405-1.132l0.236-0.405
	C54.257,21.618,54.933,22.407,55.159,23.308z M55.159,18.916c0.902,0.451,1.579,1.126,2.03,2.026v1.689l-0.338,0.338v0.676
	c0-0.383,0.181-0.777,0.541-1.182c0.361-0.406,0.857-0.688,1.489-0.846c0.406-0.09,0.834-0.078,1.286,0.034
	c0.45,0.113,0.8,0.248,1.049,0.405l0.372,0.237c-0.452,0.9-1.128,1.576-2.03,2.026c-0.406,0.09-0.864,0.079-1.371-0.034
	c-0.507-0.112-0.908-0.247-1.201-0.405l-0.474-0.236c-1.083-0.541-1.76-1.216-2.03-2.026c-0.091-0.406-0.08-0.833,0.034-1.284
	c0.111-0.45,0.247-0.799,0.405-1.047L55.159,18.916z M56.174,2.702c-0.202,0-0.389-0.056-0.558-0.169
	c-0.169-0.112-0.288-0.225-0.355-0.338l-0.102-0.169c0.045-0.045,0.107-0.096,0.187-0.151c0.079-0.057,0.221-0.136,0.423-0.237
	c0.203-0.101,0.338-0.084,0.405,0.051c0.204,0,0.39,0.029,0.559,0.085c0.17,0.057,0.288,0.118,0.355,0.186l0.102,0.068
	c-0.226-0.451-0.339-0.788-0.339-1.014c0-0.202,0.057-0.389,0.17-0.558c0.112-0.169,0.225-0.287,0.338-0.354L57.528,0
	c0.225,0.226,0.338,0.562,0.338,1.014c0,0.202-0.029,0.388-0.084,0.557c-0.058,0.169-0.119,0.287-0.188,0.355l-0.066,0.101
	c0,0.226,0.225,0.563,0.676,1.014c-0.226-0.225-0.338-0.45-0.338-0.676c0.09-0.202,0.22-0.389,0.389-0.557
	c0.17-0.17,0.311-0.287,0.423-0.355l0.204-0.102c0.226,0.451,0.338,0.901,0.338,1.352c0,0.113-0.112,0.281-0.338,0.507
	c-0.227,0.226-0.339,0.395-0.339,0.507c0,0.09,0.057,0.22,0.17,0.389c0.112,0.169,0.169,0.377,0.169,0.624V3.716
	c0.09-0.203,0.22-0.389,0.389-0.558s0.311-0.287,0.423-0.354l0.203-0.102c0.045,0.046,0.096,0.113,0.152,0.203
	s0.135,0.259,0.237,0.507c0.102,0.248,0.084,0.461-0.051,0.642c-0.091,0.203-0.22,0.388-0.389,0.558
	c-0.169,0.169-0.311,0.287-0.423,0.354l-0.203,0.101c0,0.226,0.056,0.507,0.169,0.845c0.112,0.339,0.169,0.62,0.169,0.845
	c0-0.247-0.057-0.512-0.169-0.794c-0.113-0.281-0.169-0.467-0.169-0.557c-0.068,0-0.203,0.021-0.407,0.067
	c-0.202,0.045-0.388,0.067-0.558,0.067c-0.169,0-0.3-0.045-0.39-0.135c-0.203-0.09-0.389-0.22-0.558-0.389
	c-0.169-0.17-0.287-0.31-0.354-0.423l-0.103-0.202c0.451-0.225,0.902-0.338,1.354-0.338l0.677,0.676
	c-0.112-0.112-0.226-0.281-0.338-0.507c-0.113-0.226-0.226-0.394-0.339-0.507c-0.451,0.226-0.79,0.338-1.015,0.338
	c-0.203-0.09-0.418-0.22-0.643-0.389c-0.226-0.169-0.396-0.31-0.508-0.422L55.836,3.04c0.452-0.225,0.902-0.338,1.354-0.338
	c0.112,0.113,0.281,0.226,0.507,0.338c0.226,0.113,0.396,0.226,0.508,0.338c-0.136-0.135-0.266-0.275-0.389-0.422
	c-0.124-0.146-0.21-0.259-0.254-0.338c-0.046-0.079-0.097-0.141-0.152-0.187c-0.057-0.044-0.13-0.067-0.22-0.067
	C56.738,2.59,56.399,2.702,56.174,2.702z M58.544,20.268c0.111-0.226,0.281-0.619,0.508-1.183c0.225-0.562,0.394-0.956,0.507-1.183
	c0,0.113-0.057,0.338-0.17,0.676c-0.112,0.338-0.169,0.563-0.169,0.676c0-0.09,0.028-0.17,0.085-0.236
	c0.056-0.068,0.146-0.136,0.271-0.203s0.231-0.146,0.321-0.236c0.405-0.09,0.835-0.135,1.286-0.135c0.45,0,0.8,0.022,1.049,0.067
	l0.372,0.067c-0.226,1.126-0.789,1.914-1.692,2.364c-0.36,0.113-0.716,0.157-1.065,0.135c-0.35-0.021-0.654-0.078-0.914-0.168
	c-0.259-0.091-0.389-0.191-0.389-0.305c-0.451,0.451-0.903,1.127-1.354,2.027l1.015-2.027c-0.249,0-0.575-0.135-0.981-0.405
	c-0.406-0.27-0.757-0.697-1.049-1.283c-0.203-0.293-0.305-0.636-0.305-1.03c0-0.394,0.056-0.715,0.17-0.963l0.135-0.371
	c1.128,0.226,1.805,0.676,2.03,1.351c0.203,0.316,0.332,0.598,0.39,0.845c0.056,0.248,0.062,0.546,0.017,0.896
	S58.544,20.2,58.544,20.268z M62.266,17.228c-0.294,0.293-0.638,0.495-1.032,0.607c-0.395,0.113-0.716,0.158-0.964,0.136
	l-0.373-0.068h-0.338c-0.158-0.067-0.372-0.146-0.643-0.236c-0.271-0.09-0.52-0.19-0.745-0.304
	c-0.226-0.112-0.439-0.271-0.643-0.473c-0.203-0.292-0.333-0.664-0.389-1.115c-0.057-0.45-0.062-0.821-0.018-1.115l0.067-0.473
	c0.903,0.226,1.58,0.563,2.031,1.014c0.067,0.112,0.152,0.259,0.253,0.438c0.102,0.181,0.175,0.321,0.222,0.423
	c0.045,0.102,0.09,0.225,0.135,0.371s0.067,0.299,0.067,0.456c0-0.675,0.113-1.125,0.339-1.351c0,0.226-0.057,0.562-0.17,1.013
	c-0.113,0.451-0.169,0.788-0.169,1.014c0-0.203,0.09-0.513,0.271-0.93c0.181-0.416,0.43-0.781,0.745-1.098
	c0.293-0.202,0.637-0.332,1.031-0.388c0.396-0.057,0.717-0.062,0.965-0.018l0.373,0.068C63.281,16.102,62.942,16.777,62.266,17.228z
	 M58.882,6.08c0.181,0,0.338,0.068,0.474,0.202c0.136,0.136,0.203,0.294,0.203,0.474c0-0.45,0.112-0.9,0.338-1.351
	c0.091-0.203,0.221-0.389,0.39-0.559c0.169-0.169,0.31-0.287,0.423-0.354l0.203-0.101c0.045,0.067,0.096,0.163,0.152,0.286
	c0.056,0.125,0.135,0.35,0.236,0.676c0.103,0.327,0.085,0.569-0.05,0.727c-0.091,0.202-0.249,0.389-0.474,0.558
	c-0.227,0.169-0.431,0.287-0.609,0.354l-0.271,0.102c-0.226,0.225-0.789,0.338-1.692,0.338c-0.202-0.09-0.389-0.248-0.558-0.474
	c-0.17-0.225-0.288-0.427-0.355-0.607L57.189,6.08C57.866,5.855,58.43,5.855,58.882,6.08z M59.22,7.77l1.016,1.013
	c-0.226-0.225-0.339-0.788-0.339-1.688c0,0.248,0.056,0.513,0.169,0.794c0.113,0.282,0.17,0.468,0.17,0.557
	c0-0.45,0.111-0.787,0.338-1.013c0.09-0.203,0.248-0.389,0.474-0.558s0.429-0.287,0.609-0.354l0.271-0.102
	c0.226,0.901,0.226,1.576,0,2.026c-0.676,0.676-1.24,1.014-1.691,1.014c-0.046,0-0.165,0.012-0.355,0.034
	c-0.191,0.022-0.361,0.039-0.508,0.051s-0.305-0.018-0.474-0.085c-0.17-0.067-0.288-0.18-0.355-0.338
	c-0.293-0.09-0.524-0.247-0.693-0.473c-0.169-0.225-0.266-0.428-0.287-0.608l-0.035-0.27C58.205,7.544,58.769,7.544,59.22,7.77z
	 M59.559,10.134c0.157,0,0.31,0.124,0.457,0.371c0.146,0.248,0.22,0.462,0.22,0.642V9.458c0,0.226,0.057,0.563,0.17,1.014
	c0.112,0.45,0.169,0.788,0.169,1.014v0.337c0-0.9,0.112-1.575,0.338-2.026c0.203-0.203,0.446-0.359,0.728-0.473
	c0.282-0.112,0.513-0.181,0.693-0.203h0.271c0.226,0.676,0.112,1.352-0.339,2.026c-0.203,0.203-0.445,0.36-0.728,0.474
	c-0.283,0.112-0.513,0.18-0.693,0.202h-0.271c0,1.127-0.113,1.915-0.338,2.364v0.338c-0.902,0-1.58-0.225-2.031-0.675
	c-0.203-0.203-0.36-0.474-0.474-0.811c-0.113-0.339-0.181-0.631-0.203-0.879v-0.338c0.901,0,1.579,0.226,2.03,0.676
	c0.451,0.451,0.677,0.788,0.677,1.014v-1.689c-0.677,0-1.24-0.112-1.691-0.337c-0.294-0.203-0.525-0.474-0.694-0.812
	s-0.266-0.63-0.287-0.878l-0.034-0.338C58.43,9.458,59.107,9.684,59.559,10.134z M62.604,13.85
	c-0.293,0.293-0.638,0.495-1.032,0.608c-0.396,0.112-0.718,0.157-0.965,0.135l-0.372-0.067c0-0.203,0.091-0.513,0.271-0.929
	c0.18-0.417,0.428-0.783,0.744-1.099c0.203-0.202,0.474-0.359,0.812-0.473c0.339-0.112,0.631-0.181,0.88-0.203h0.339
	C63.281,12.724,63.056,13.399,62.604,13.85z"/>
<g>
	<g>
		<path d="M20.836,6.766h-0.216l-1.176,2.922h-0.33v0.19h1.002v-0.19h-0.441l0.369-0.943h1.175l0.347,0.943h-0.489v0.19h1.231v-0.19
			H21.93L20.836,6.766z M20.117,8.563l0.534-1.351h0.009l0.495,1.351H20.117z M23.833,6.789h-1.346v0.191h0.527v2.708h-0.527v0.19
			h1.443v-0.19h-0.58V8.591h0.483c0.377,0.001,0.67-0.083,0.877-0.254c0.207-0.171,0.311-0.394,0.311-0.671
			C25.022,7.081,24.625,6.789,23.833,6.789z M24.45,8.199c-0.138,0.134-0.342,0.201-0.611,0.201H23.35v-1.42h0.503
			c0.537,0,0.806,0.226,0.806,0.677C24.659,7.885,24.589,8.066,24.45,8.199z M26.709,6.789h-1.345v0.191h0.527v2.708h-0.527v0.19
			h1.442v-0.19h-0.581V8.591h0.484c0.377,0.001,0.67-0.083,0.877-0.254c0.208-0.171,0.311-0.394,0.311-0.671
			C27.898,7.081,27.502,6.789,26.709,6.789z M27.327,8.199c-0.139,0.134-0.343,0.201-0.612,0.201h-0.489v-1.42h0.504
			c0.536,0,0.806,0.226,0.806,0.677C27.535,7.885,27.465,8.066,27.327,8.199z M31.025,8.395c-0.129-0.072-0.307-0.135-0.532-0.193
			c-0.226-0.059-0.37-0.096-0.43-0.115c-0.179-0.054-0.313-0.127-0.401-0.219c-0.089-0.094-0.134-0.228-0.134-0.401
			c0-0.174,0.06-0.313,0.178-0.418c0.118-0.104,0.27-0.157,0.454-0.157c0.185,0,0.362,0.067,0.531,0.202
			c0.168,0.134,0.301,0.342,0.399,0.625h0.157V6.735h-0.167L30.984,7.08c-0.22-0.24-0.482-0.359-0.787-0.359
			c-0.306,0-0.545,0.081-0.717,0.242c-0.172,0.162-0.259,0.361-0.259,0.598c0,0.236,0.068,0.421,0.203,0.555
			c0.136,0.135,0.382,0.248,0.739,0.338c0.358,0.088,0.601,0.177,0.732,0.268c0.13,0.09,0.195,0.236,0.195,0.438
			c0,0.202-0.059,0.356-0.179,0.462c-0.118,0.107-0.273,0.16-0.463,0.16c-0.482,0-0.853-0.292-1.112-0.879H29.18v1.038h0.166
			l0.105-0.409c0.275,0.282,0.601,0.422,0.974,0.422c0.284,0,0.518-0.086,0.699-0.26c0.181-0.174,0.273-0.396,0.273-0.665
			c-0.004-0.149-0.044-0.292-0.123-0.428C31.237,8.536,31.154,8.467,31.025,8.395z M31.795,7.836h0.15
			C32,7.451,32.046,7.212,32.087,7.119c0.043-0.093,0.141-0.139,0.293-0.139h0.595v2.708h-0.548v0.19h1.432v-0.19h-0.549V6.979
			h0.597c0.152,0,0.249,0.046,0.291,0.139c0.042,0.093,0.09,0.333,0.146,0.717h0.147V6.789h-2.696V7.836z M36.387,6.721
			c-0.404,0-0.743,0.154-1.022,0.46c-0.277,0.308-0.415,0.694-0.415,1.16c0,0.467,0.136,0.853,0.408,1.157
			c0.273,0.305,0.61,0.457,1.013,0.457c0.401,0,0.74-0.153,1.02-0.461c0.276-0.309,0.415-0.698,0.415-1.167
			c0-0.469-0.135-0.854-0.407-1.156C37.127,6.871,36.788,6.721,36.387,6.721z M37.152,9.366C36.957,9.622,36.7,9.75,36.377,9.75
			c-0.324,0.001-0.582-0.128-0.775-0.388c-0.194-0.261-0.291-0.604-0.291-1.028c0-0.423,0.097-0.764,0.291-1.022
			c0.193-0.258,0.451-0.386,0.775-0.386c0.323,0,0.58,0.128,0.775,0.386c0.192,0.258,0.29,0.601,0.29,1.029
			C37.442,8.769,37.345,9.111,37.152,9.366z M40.904,9.696c-0.108,0-0.17-0.073-0.183-0.219l-0.034-0.428
			c-0.014-0.191-0.066-0.339-0.152-0.445c-0.087-0.104-0.231-0.184-0.434-0.238V8.357c0.238-0.047,0.417-0.144,0.533-0.287
			c0.118-0.143,0.176-0.303,0.176-0.481c0-0.246-0.094-0.44-0.28-0.584c-0.186-0.145-0.45-0.216-0.789-0.216h-1.515v0.191h0.527
			v2.708h-0.527v0.19h1.396v-0.19h-0.534V8.462h0.635c0.232,0,0.396,0.041,0.485,0.122c0.091,0.081,0.138,0.219,0.143,0.414
			l0.01,0.379c0.006,0.369,0.145,0.554,0.417,0.552c0.128,0,0.229-0.034,0.302-0.102c0.074-0.069,0.137-0.173,0.188-0.313
			l-0.118-0.06C41.084,9.616,41.003,9.696,40.904,9.696z M39.697,8.29h-0.608V6.979h0.672c0.458,0,0.688,0.196,0.688,0.591
			c0,0.224-0.061,0.402-0.184,0.529C40.144,8.227,39.954,8.29,39.697,8.29z M43.909,8.849c-0.05,0.378-0.098,0.613-0.143,0.704
			c-0.046,0.09-0.139,0.135-0.278,0.135h-1.186V8.376h0.59c0.114,0,0.189,0.027,0.225,0.081c0.036,0.054,0.064,0.191,0.088,0.41
			h0.149V7.731h-0.149c-0.025,0.213-0.052,0.345-0.088,0.396c-0.033,0.051-0.109,0.077-0.225,0.077h-0.59V6.979h1.186
			c0.121,0,0.202,0.041,0.245,0.124c0.041,0.082,0.086,0.289,0.134,0.619h0.151V6.789H41.44v0.191h0.527v2.708H41.44v0.19h2.623
			V8.849H43.909z"/>
	</g>
</g>
<g>
	<g>
		<path fill="#D1A92B" d="M12.377,14.711v-0.037c0.391-0.061,0.673-0.185,0.845-0.373c0.172-0.186,0.257-0.389,0.257-0.61
			c0-0.682-0.547-1.023-1.644-1.023h-2.05v0.484h0.667v3.322H9.785v0.484h2.067c0.652,0,1.116-0.112,1.392-0.336
			c0.276-0.225,0.414-0.514,0.414-0.867c0-0.287-0.107-0.523-0.324-0.709C13.12,14.863,12.8,14.751,12.377,14.711z M11.292,13.153
			h0.498c0.328,0,0.55,0.048,0.669,0.144c0.12,0.096,0.179,0.254,0.179,0.473c0,0.461-0.284,0.691-0.854,0.691h-0.492V13.153z
			 M12.587,16.297c-0.152,0.12-0.42,0.179-0.803,0.179h-0.492v-1.531h0.479c0.697,0.002,1.045,0.248,1.045,0.735
			C12.817,15.972,12.741,16.178,12.587,16.297z M16.691,14.356c-0.234-0.309-0.574-0.464-1.021-0.464
			c-0.446,0-0.819,0.151-1.119,0.455c-0.3,0.304-0.449,0.68-0.449,1.13c0,0.449,0.141,0.82,0.423,1.11
			c0.283,0.291,0.657,0.438,1.123,0.438c0.74,0,1.188-0.335,1.346-1.003h-0.392c-0.153,0.345-0.415,0.519-0.784,0.519
			c-0.282,0-0.494-0.08-0.639-0.243c-0.145-0.162-0.223-0.419-0.236-0.773h2.069C17.032,15.059,16.924,14.671,16.691,14.356z
			 M14.951,15.181c0.047-0.604,0.272-0.907,0.672-0.907c0.382,0,0.593,0.303,0.631,0.907H14.951z M19.011,15.12
			c-0.327-0.085-0.545-0.163-0.657-0.235c-0.109-0.071-0.166-0.165-0.168-0.277c0-0.113,0.041-0.2,0.122-0.261
			c0.081-0.062,0.196-0.092,0.347-0.092c0.283,0,0.547,0.224,0.794,0.671h0.437v-1.037h-0.437l-0.079,0.353
			c-0.17-0.237-0.424-0.353-0.762-0.353c-0.338,0-0.606,0.089-0.804,0.266c-0.198,0.179-0.296,0.396-0.296,0.65
			c0,0.257,0.082,0.455,0.245,0.596c0.164,0.14,0.414,0.254,0.75,0.343s0.559,0.171,0.669,0.245
			c0.111,0.075,0.166,0.172,0.166,0.293c-0.002,0.245-0.155,0.367-0.459,0.367c-0.195,0-0.381-0.07-0.558-0.211
			c-0.177-0.139-0.314-0.321-0.415-0.547h-0.443v1.126h0.431l0.085-0.404c0.226,0.275,0.519,0.412,0.88,0.412
			s0.644-0.098,0.848-0.293c0.205-0.195,0.305-0.423,0.303-0.682c0-0.258-0.085-0.455-0.255-0.592
			C19.586,15.317,19.339,15.205,19.011,15.12z M22.129,16.412c-0.068,0.085-0.155,0.128-0.261,0.128
			c-0.213,0-0.319-0.146-0.319-0.438v-1.679h0.979v-0.484h-0.979v-0.814L20.8,13.21v0.729h-0.583v0.484h0.567v1.697
			c0,0.289,0.074,0.512,0.224,0.668c0.148,0.156,0.368,0.236,0.66,0.236c0.512,0.001,0.842-0.301,0.992-0.911l-0.333-0.118
			C22.263,16.188,22.197,16.327,22.129,16.412z M27.116,13.153h0.63v2.598h-0.06l-2.009-3.082h-1.597v0.484h0.605v3.322h-0.605
			v0.484h1.775v-0.484h-0.633v-2.878h0.057l2.251,3.449h0.752v-3.893h0.605v-0.484h-1.771V13.153z M31.725,14.356
			c-0.233-0.309-0.573-0.464-1.019-0.464c-0.448,0-0.819,0.151-1.12,0.455c-0.299,0.304-0.45,0.68-0.45,1.13
			c0,0.449,0.141,0.82,0.425,1.11c0.282,0.291,0.657,0.438,1.122,0.438c0.74,0,1.187-0.335,1.344-1.003h-0.391
			c-0.152,0.345-0.415,0.519-0.785,0.519c-0.279,0-0.492-0.08-0.637-0.243c-0.145-0.162-0.223-0.419-0.236-0.773h2.069
			C32.067,15.059,31.96,14.671,31.725,14.356z M29.984,15.181c0.049-0.604,0.273-0.907,0.674-0.907c0.382,0,0.592,0.303,0.632,0.907
			H29.984z M36.109,14.426h0.393l-0.574,1.922h-0.029l-0.617-1.922h0.487v-0.483h-1.634v0.483h0.387l0.105,0.321l-0.615,1.608
			h-0.026l-0.587-1.929h0.443v-0.483h-1.638v0.49h0.412l0.775,2.56h0.818l0.634-1.63l0.548,1.63h0.763l0.857-2.56h0.383v-0.49
			h-1.285V14.426z M41.265,12.644H40.43l-1.445,3.832h-0.469v0.484h1.571v-0.484h-0.542l0.341-0.916H41.4l0.333,0.916h-0.638v0.484
			h2.119v-0.484h-0.562L41.265,12.644z M40.043,15.076l0.605-1.688h0.026l0.576,1.688H40.043z M45.476,13.889
			c-0.463,0-0.801,0.252-1.008,0.758v-0.704h-1.188v0.483h0.424v3.075h-0.424v0.484h1.782v-0.484H44.5v-1.097
			c0.204,0.37,0.52,0.556,0.945,0.556c0.299,0,0.561-0.113,0.783-0.339c0.292-0.293,0.438-0.703,0.438-1.229
			c0-0.526-0.138-0.922-0.405-1.188C46.048,13.994,45.786,13.889,45.476,13.889z M45.184,16.476c-0.23-0.002-0.406-0.096-0.53-0.285
			c-0.123-0.189-0.186-0.435-0.186-0.736c0-0.302,0.072-0.557,0.213-0.767c0.146-0.21,0.314-0.316,0.51-0.316
			c0.194,0.002,0.347,0.088,0.462,0.257c0.115,0.17,0.171,0.421,0.171,0.755C45.823,16.113,45.61,16.476,45.184,16.476z
			 M49.217,13.889c-0.465,0-0.801,0.252-1.008,0.758v-0.704h-1.19v0.483h0.423v3.075h-0.423v0.484h1.784v-0.484h-0.563v-1.097
			c0.205,0.37,0.521,0.556,0.945,0.556c0.297,0,0.561-0.113,0.784-0.339c0.289-0.293,0.436-0.703,0.436-1.229
			c0-0.526-0.134-0.922-0.405-1.188C49.786,13.994,49.527,13.889,49.217,13.889z M48.925,16.476
			c-0.231-0.002-0.41-0.096-0.533-0.285c-0.122-0.189-0.183-0.435-0.183-0.736c0-0.302,0.07-0.557,0.212-0.767
			c0.146-0.21,0.315-0.316,0.51-0.316c0.193,0.002,0.347,0.088,0.461,0.257c0.113,0.17,0.173,0.421,0.173,0.755
			C49.564,16.113,49.351,16.476,48.925,16.476z M53.149,15.458c-0.168-0.14-0.414-0.252-0.741-0.337
			c-0.33-0.085-0.548-0.163-0.659-0.235c-0.11-0.071-0.167-0.165-0.167-0.277c0-0.113,0.04-0.2,0.12-0.261
			c0.079-0.062,0.198-0.092,0.348-0.092c0.283,0,0.548,0.224,0.793,0.671h0.438v-1.037h-0.438l-0.077,0.353
			c-0.171-0.237-0.426-0.353-0.762-0.353c-0.339,0-0.607,0.089-0.806,0.266c-0.197,0.179-0.296,0.396-0.296,0.65
			c0,0.257,0.082,0.455,0.245,0.596c0.164,0.14,0.414,0.254,0.75,0.343c0.334,0.089,0.558,0.171,0.668,0.245
			c0.11,0.075,0.166,0.172,0.166,0.293c-0.002,0.245-0.154,0.367-0.457,0.367c-0.196,0-0.384-0.07-0.559-0.211
			c-0.175-0.139-0.314-0.321-0.416-0.547h-0.442v1.126h0.431l0.085-0.404c0.226,0.275,0.52,0.412,0.882,0.412
			c0.36,0,0.643-0.098,0.847-0.293c0.205-0.195,0.306-0.423,0.304-0.682C53.405,15.791,53.32,15.594,53.149,15.458z"/>
	</g>
</g>
</svg>
