<?xml version="1.0" encoding="utf-8"?>
<!-- Generator: Adobe Illustrator 16.0.0, SVG Export Plug-In . SVG Version: 6.00 Build 0)  -->
<!DOCTYPE svg PUBLIC "-//W3C//DTD SVG 1.1//EN" "http://www.w3.org/Graphics/SVG/1.1/DTD/svg11.dtd">
<svg version="1.1" id="Layer_1" xmlns="http://www.w3.org/2000/svg" xmlns:xlink="http://www.w3.org/1999/xlink" x="0px" y="0px"
	 width="63.282px" height="27.361px" viewBox="0 0 63.282 27.361" enable-background="new 0 0 63.282 27.361" xml:space="preserve">
<path fill="#E4E4E4" d="M2.707,14.525v-0.338v-2.365c-0.903,0-1.579-0.225-2.031-0.676c-0.09-0.292-0.163-0.607-0.22-0.945
	S0.36,9.593,0.338,9.391V9.12c0.902,0,1.579,0.228,2.03,0.676c0.226,0.451,0.339,1.126,0.339,2.026c0-1.126,0.112-1.913,0.338-2.364
	v1.688c0-0.182,0.073-0.396,0.22-0.644c0.147-0.247,0.299-0.371,0.457-0.371C3.925,9.93,4.167,9.773,4.45,9.659
	c0.282-0.112,0.514-0.18,0.694-0.202h0.271c0,0.9-0.226,1.577-0.677,2.027c-0.452,0.226-1.016,0.338-1.692,0.338v1.688
	c0-0.448,0.113-0.786,0.338-1.014c0.294-0.202,0.61-0.357,0.948-0.473c0.339-0.112,0.609-0.183,0.812-0.203h0.271
	c0.226,0.901,0,1.577-0.677,2.027c-0.136,0.27-0.435,0.488-0.896,0.656c-0.463,0.169-0.728,0.287-0.796,0.354V15.2
	c0-0.225-0.113-0.338-0.338-0.338c-0.903,0-1.58-0.225-2.031-0.676c-0.202-0.292-0.361-0.638-0.474-1.03
	C0.09,12.764,0.021,12.442,0,12.194v-0.372c0.901,0,1.578,0.226,2.029,0.676C2.48,12.949,2.707,13.625,2.707,14.525z M8.46,21.618
	c-0.316,0.946-0.88,1.622-1.692,2.027H6.429c0-0.228-0.113-0.45-0.338-0.679c-0.452-0.897-0.903-1.573-1.354-2.024
	c-0.046,0-0.209,0.021-0.491,0.066c-0.282,0.047-0.592,0.066-0.931,0.066c-0.338,0-0.654-0.045-0.947-0.135
	c-0.406-0.202-0.75-0.5-1.032-0.896c-0.282-0.395-0.457-0.736-0.524-1.028l-0.136-0.439c0.902-0.225,1.805-0.225,2.707,0
	l0.678,0.676c-0.113-0.11-0.226-0.338-0.339-0.676c-0.113-0.338-0.226-0.562-0.339-0.676c-0.901,0.227-1.691,0-2.368-0.675
	c-0.293-0.203-0.524-0.476-0.693-0.812c-0.17-0.338-0.266-0.631-0.288-0.879L0,15.2c0.901-0.225,1.691-0.112,2.368,0.338
	c0.451,0.451,0.677,0.789,0.677,1.014v-1.014c0,0.091,0.056,0.276,0.17,0.56c0.112,0.28,0.168,0.547,0.168,0.794
	c0-0.45,0.226-0.9,0.678-1.354c0.203-0.292,0.474-0.552,0.812-0.777c0.338-0.225,0.631-0.369,0.879-0.438l0.339-0.136
	c0.226,1.127,0.113,2.025-0.339,2.703c-0.248,0.247-0.626,0.456-1.133,0.625c-0.508,0.169-0.807,0.299-0.896,0.388
	c0.112,0.226,0.281,0.62,0.507,1.183c0.226,0.563,0.395,0.957,0.508,1.185c0-0.045-0.022-0.208-0.067-0.49
	c-0.046-0.281-0.067-0.558-0.067-0.828c0-0.27,0.045-0.506,0.135-0.709c0.203-0.405,0.475-0.748,0.812-1.03
	c0.338-0.279,0.632-0.456,0.88-0.521l0.338-0.136c0.045,0.091,0.097,0.22,0.152,0.389c0.057,0.169,0.136,0.507,0.237,1.013
	c0.102,0.507,0.084,0.94-0.051,1.301c-0.294,0.45-0.648,0.788-1.066,1.015c-0.417,0.226-0.738,0.338-0.964,0.338l1.015,2.026
	c0-0.156-0.022-0.345-0.067-0.559c-0.047-0.219-0.069-0.41-0.069-0.579s0.045-0.354,0.135-0.558c0.09-0.404,0.305-0.776,0.644-1.114
	c0.338-0.338,0.653-0.574,0.947-0.709l0.439-0.203c0.022,0.046,0.057,0.098,0.102,0.152c0.046,0.057,0.113,0.189,0.203,0.405
	c0.09,0.214,0.157,0.422,0.203,0.625c0.045,0.2,0.062,0.442,0.051,0.726C8.668,21.106,8.595,21.371,8.46,21.618z M4.737,9.458
	c-0.203,0.09-0.418,0.135-0.644,0.135c-0.226,0-0.439-0.021-0.642-0.066C3.248,9.48,3.113,9.458,3.045,9.458
	c-0.226,0-0.524-0.096-0.896-0.287C1.777,8.98,1.511,8.737,1.354,8.444C1.263,8.242,1.189,8,1.134,7.719
	C1.076,7.439,1.037,7.206,1.015,7.027V6.756c0.902,0,1.467,0.228,1.692,0.678c0.09,0.09,0.163,0.219,0.22,0.388
	c0.056,0.17,0.096,0.311,0.118,0.423v0.202c0-0.45,0.113-0.9,0.338-1.353c-0.676,0-1.128-0.338-1.353-1.014
	C1.939,5.878,1.895,5.635,1.895,5.354c0-0.282,0.022-0.514,0.067-0.692l0.068-0.27c0.677,0.226,1.128,0.676,1.353,1.352v1.014
	C3.474,6.6,3.553,6.419,3.62,6.217c0.068-0.2,0.136-0.363,0.203-0.488c0.067-0.123,0.146-0.23,0.237-0.32
	C3.834,5.63,3.722,6.08,3.722,6.757c0-0.181,0.067-0.339,0.203-0.474C4.061,6.148,4.218,6.08,4.398,6.08
	c0.203-0.09,0.445-0.135,0.728-0.135S5.64,5.968,5.82,6.014L6.091,6.08C5.865,6.757,5.527,7.206,5.076,7.432H3.383
	c0,0.111-0.056,0.338-0.169,0.676C3.101,8.446,3.045,8.671,3.045,8.782c0.067-0.067,0.146-0.174,0.236-0.32
	c0.09-0.146,0.191-0.273,0.305-0.389C3.698,7.961,3.856,7.86,4.06,7.77c0.203-0.09,0.446-0.137,0.728-0.137
	c0.282,0,0.514,0.022,0.694,0.067l0.27,0.068C5.752,8.444,5.414,9.008,4.737,9.458z M4.398,21.618
	c0.812,0.271,1.489,0.946,2.03,2.027c-0.09,0.065-0.226,0.155-0.406,0.27c-0.181,0.113-0.507,0.231-0.981,0.355
	c-0.474,0.123-0.913,0.141-1.319,0.05c-0.406-0.202-0.778-0.473-1.116-0.812c-0.339-0.338-0.576-0.63-0.711-0.878l-0.203-0.338
	c0.09-0.065,0.226-0.157,0.406-0.271c0.181-0.112,0.508-0.23,0.981-0.354C3.553,21.546,3.993,21.528,4.398,21.618z M5.414,5.405
	c-0.203,0.09-0.39,0.134-0.559,0.134S4.528,5.518,4.382,5.472C4.234,5.427,4.128,5.405,4.061,5.405
	C3.993,5.383,3.902,5.343,3.789,5.286C3.677,5.23,3.524,5.084,3.333,4.847c-0.192-0.236-0.288-0.5-0.288-0.794
	c-0.09-0.202-0.136-0.416-0.136-0.643c0-0.226,0.023-0.395,0.068-0.507l0.067-0.203C3.721,2.928,4.06,3.265,4.06,3.716
	c0.09,0.092,0.135,0.221,0.135,0.39c0,0.17-0.022,0.354-0.067,0.558C4.082,4.864,4.061,4.999,4.061,5.066
	c0.09-0.157,0.169-0.338,0.236-0.54C4.365,4.323,4.433,4.16,4.5,4.036c0.067-0.123,0.146-0.229,0.237-0.32
	c0,0.112-0.058,0.281-0.17,0.509C4.454,4.447,4.398,4.617,4.398,4.729c0-0.227,0.226-0.337,0.677-0.337
	c0.203-0.092,0.418-0.138,0.643-0.138c0.226,0,0.395,0.022,0.508,0.067L6.429,4.39C6.203,5.066,5.865,5.405,5.414,5.405z
	 M8.121,23.308c0.09-0.405,0.276-0.807,0.559-1.199c0.281-0.396,0.547-0.692,0.795-0.896l0.339-0.271
	c0.09,0.091,0.208,0.229,0.354,0.423s0.316,0.552,0.508,1.081c0.192,0.529,0.242,1.042,0.152,1.537
	c-0.226,0.676-0.79,1.464-1.692,2.364l0.339,0.338H9.136l-0.338-0.338c-0.203,0.201-0.609,0.423-1.219,0.657
	c-0.608,0.236-1.218,0.354-1.827,0.354c-0.406-0.091-0.807-0.305-1.201-0.644c-0.395-0.338-0.693-0.651-0.897-0.944l-0.271-0.439
	c0.902-0.675,1.918-1.013,3.046-1.013c0.112,0.113,0.339,0.226,0.678,0.338c0.338,0.113,0.563,0.226,0.676,0.338
	c-0.451-0.45-0.79-0.898-1.015-1.352c0.902,0.899,1.466,1.577,1.691,2.024C8.008,24.771,7.896,23.983,8.121,23.308z M7.106,3.378
	C6.88,3.829,6.542,4.053,6.091,4.053c-0.248,0-0.514-0.058-0.795-0.17C5.014,3.771,4.827,3.716,4.737,3.716
	c0-0.11-0.113-0.279-0.339-0.507C4.172,2.983,4.061,2.815,4.061,2.702C3.97,2.478,3.947,2.263,3.993,2.061
	c0.045-0.203,0.123-0.372,0.236-0.507l0.169-0.203C4.85,1.576,5.076,1.914,5.076,2.364V3.04c0.451-0.45,0.676-0.788,0.676-1.014
	c0.113,0,0.282-0.056,0.508-0.169c0.226-0.112,0.395-0.169,0.508-0.169c0.203,0,0.417,0.026,0.643,0.085
	C7.637,1.829,7.807,1.89,7.919,1.958l0.203,0.068c-0.451,0.45-0.79,0.675-1.015,0.675c-0.203,0-0.39-0.027-0.559-0.084
	C6.379,2.562,6.26,2.499,6.192,2.432L6.091,2.364c-0.339,0-0.677,0.337-1.015,1.013l0.676-0.676c0.204,0,0.418,0.058,0.644,0.17
	S6.79,3.096,6.903,3.208L7.106,3.378z M6.429,1.014c0,0.675-0.226,1.013-0.677,1.013C5.301,1.802,5.075,1.464,5.075,1.014
	c0-0.203,0.057-0.391,0.17-0.56C5.357,0.287,5.47,0.169,5.583,0.102L5.752,0C6.203,0.226,6.429,0.562,6.429,1.014z M55.159,23.308
	c0,1.126-0.113,1.914-0.338,2.362c0.225-0.448,0.788-1.126,1.692-2.024c-0.228,0.45-0.563,0.898-1.017,1.352
	c0.09-0.091,0.196-0.169,0.32-0.237c0.124-0.065,0.287-0.135,0.491-0.2c0.202-0.067,0.383-0.146,0.541-0.236
	c0.405,0,0.86,0.084,1.37,0.253c0.508,0.169,0.906,0.332,1.201,0.489l0.475,0.271c-0.066,0.137-0.176,0.299-0.32,0.49
	c-0.146,0.191-0.457,0.473-0.932,0.845c-0.475,0.371-0.959,0.604-1.455,0.692c-0.632,0-1.241-0.124-1.827-0.372
	c-0.588-0.247-0.88-0.461-0.88-0.642c-0.091,0.091-0.189,0.164-0.307,0.22c-0.111,0.057-0.201,0.097-0.27,0.118h-0.104
	c0-0.228,0.113-0.338,0.339-0.338c-0.022-0.021-0.118-0.112-0.287-0.271c-0.17-0.158-0.321-0.305-0.457-0.438
	c-0.136-0.137-0.282-0.292-0.438-0.476c-0.158-0.179-0.283-0.376-0.373-0.591c-0.09-0.213-0.135-0.41-0.135-0.591
	c-0.091-0.495-0.08-0.996,0.033-1.503c0.112-0.507,0.248-0.884,0.405-1.132l0.235-0.405C54.256,21.618,54.933,22.407,55.159,23.308z
	 M55.159,18.916c0.902,0.451,1.579,1.126,2.03,2.026v1.688l-0.338,0.338v0.678c0-0.383,0.181-0.777,0.541-1.184
	c0.36-0.405,0.856-0.688,1.489-0.846c0.406-0.09,0.834-0.078,1.285,0.034c0.451,0.113,0.801,0.248,1.049,0.405l0.373,0.235
	c-0.453,0.9-1.129,1.576-2.03,2.026c-0.406,0.09-0.864,0.079-1.371-0.034c-0.507-0.112-0.908-0.247-1.201-0.405l-0.474-0.234
	c-1.083-0.541-1.76-1.217-2.03-2.026c-0.091-0.406-0.08-0.833,0.034-1.284c0.111-0.45,0.247-0.799,0.404-1.047L55.159,18.916z
	 M56.174,2.702c-0.202,0-0.389-0.056-0.559-0.169c-0.17-0.112-0.287-0.225-0.355-0.338l-0.102-0.169
	c0.045-0.045,0.106-0.096,0.188-0.151c0.078-0.057,0.221-0.136,0.423-0.235c0.203-0.103,0.338-0.084,0.405,0.051
	c0.203,0,0.39,0.027,0.559,0.085c0.17,0.057,0.288,0.118,0.355,0.186l0.102,0.068c-0.227-0.451-0.339-0.788-0.339-1.014
	c0-0.202,0.058-0.391,0.17-0.56s0.226-0.287,0.338-0.354L57.528,0c0.225,0.228,0.338,0.562,0.338,1.016
	c0,0.2-0.029,0.388-0.084,0.557c-0.058,0.169-0.119,0.287-0.188,0.354l-0.066,0.103c0,0.226,0.225,0.562,0.676,1.014
	c-0.226-0.225-0.338-0.45-0.338-0.676c0.09-0.202,0.221-0.389,0.389-0.557c0.17-0.17,0.312-0.287,0.425-0.355l0.202-0.102
	c0.228,0.449,0.34,0.899,0.34,1.352c0,0.113-0.112,0.281-0.34,0.507c-0.227,0.228-0.338,0.396-0.338,0.507
	c0,0.092,0.058,0.222,0.17,0.391c0.111,0.169,0.168,0.377,0.168,0.624V3.716c0.092-0.201,0.222-0.389,0.391-0.558
	s0.312-0.287,0.423-0.354l0.203-0.104c0.045,0.046,0.097,0.113,0.151,0.203c0.057,0.09,0.136,0.259,0.236,0.507
	c0.104,0.248,0.084,0.461-0.051,0.644c-0.091,0.201-0.22,0.388-0.389,0.558c-0.17,0.169-0.311,0.287-0.424,0.354L59.22,5.067
	c0,0.226,0.056,0.507,0.169,0.845c0.111,0.339,0.169,0.62,0.169,0.845c0-0.247-0.058-0.512-0.169-0.794
	c-0.113-0.279-0.169-0.467-0.169-0.557c-0.068,0-0.203,0.021-0.407,0.067c-0.202,0.045-0.389,0.065-0.559,0.065
	c-0.168,0-0.299-0.045-0.389-0.135c-0.203-0.09-0.391-0.22-0.56-0.389c-0.169-0.17-0.287-0.312-0.354-0.425L56.85,4.391
	c0.451-0.227,0.902-0.338,1.354-0.338l0.678,0.676c-0.111-0.112-0.227-0.281-0.338-0.507c-0.112-0.228-0.227-0.396-0.34-0.509
	c-0.451,0.228-0.789,0.34-1.015,0.34c-0.203-0.092-0.418-0.222-0.644-0.391c-0.227-0.169-0.396-0.31-0.508-0.422L55.836,3.04
	c0.451-0.225,0.9-0.338,1.354-0.338c0.111,0.113,0.281,0.228,0.507,0.338c0.226,0.113,0.396,0.228,0.509,0.338
	c-0.137-0.135-0.267-0.273-0.39-0.422c-0.124-0.146-0.21-0.259-0.254-0.338c-0.046-0.079-0.097-0.141-0.151-0.187
	c-0.058-0.044-0.131-0.067-0.221-0.067C56.738,2.59,56.399,2.702,56.174,2.702z M58.543,20.268c0.11-0.228,0.281-0.619,0.508-1.185
	c0.226-0.562,0.395-0.956,0.508-1.183c0,0.113-0.057,0.338-0.17,0.676c-0.112,0.338-0.169,0.563-0.169,0.676
	c0-0.09,0.028-0.17,0.085-0.234c0.056-0.068,0.146-0.138,0.271-0.203c0.125-0.067,0.229-0.146,0.319-0.236
	c0.403-0.09,0.835-0.135,1.286-0.135c0.449,0,0.8,0.021,1.049,0.065l0.372,0.067c-0.228,1.126-0.789,1.914-1.69,2.364
	c-0.361,0.113-0.718,0.157-1.065,0.135c-0.351-0.021-0.654-0.078-0.914-0.168c-0.259-0.091-0.39-0.191-0.39-0.305
	c-0.451,0.451-0.902,1.127-1.354,2.025l1.017-2.025c-0.25,0-0.576-0.137-0.981-0.405c-0.406-0.27-0.757-0.697-1.05-1.283
	c-0.202-0.293-0.305-0.636-0.305-1.03c0-0.394,0.057-0.715,0.17-0.963l0.135-0.371c1.129,0.228,1.806,0.678,2.031,1.353
	c0.203,0.314,0.332,0.598,0.39,0.845c0.056,0.248,0.062,0.546,0.017,0.896C58.567,19.994,58.543,20.2,58.543,20.268z M62.266,17.228
	c-0.294,0.293-0.639,0.495-1.032,0.605c-0.396,0.113-0.716,0.158-0.964,0.138l-0.373-0.068h-0.338
	c-0.158-0.067-0.372-0.146-0.643-0.236c-0.271-0.09-0.521-0.188-0.746-0.304c-0.227-0.112-0.438-0.271-0.644-0.473
	c-0.202-0.292-0.333-0.664-0.389-1.115c-0.058-0.45-0.062-0.821-0.019-1.115l0.066-0.473c0.902,0.226,1.58,0.562,2.031,1.014
	c0.066,0.112,0.152,0.259,0.253,0.438c0.103,0.181,0.175,0.319,0.222,0.423c0.045,0.102,0.09,0.225,0.135,0.371
	c0.045,0.146,0.067,0.299,0.067,0.456c0-0.677,0.112-1.125,0.339-1.353c0,0.228-0.057,0.562-0.17,1.013
	c-0.113,0.451-0.169,0.788-0.169,1.016c0-0.203,0.09-0.515,0.271-0.932c0.183-0.416,0.432-0.779,0.746-1.098
	c0.293-0.202,0.637-0.332,1.03-0.388c0.396-0.059,0.718-0.062,0.966-0.02l0.373,0.068C63.282,16.102,62.942,16.777,62.266,17.228z
	 M58.881,6.08c0.182,0,0.339,0.068,0.475,0.202c0.137,0.136,0.203,0.294,0.203,0.474c0-0.448,0.111-0.898,0.338-1.351
	c0.091-0.203,0.221-0.389,0.391-0.559c0.168-0.171,0.311-0.287,0.422-0.354l0.203-0.101c0.045,0.065,0.096,0.163,0.152,0.284
	c0.057,0.125,0.135,0.352,0.236,0.678c0.103,0.327,0.084,0.567-0.051,0.727c-0.09,0.202-0.248,0.389-0.475,0.56
	c-0.229,0.169-0.431,0.285-0.607,0.354l-0.271,0.103c-0.227,0.226-0.789,0.339-1.691,0.339c-0.203-0.092-0.39-0.248-0.559-0.476
	c-0.17-0.225-0.288-0.427-0.355-0.605L57.189,6.08C57.866,5.855,58.43,5.855,58.881,6.08z M59.22,7.77l1.016,1.013
	c-0.226-0.225-0.339-0.788-0.339-1.688c0,0.246,0.057,0.513,0.169,0.794c0.113,0.28,0.17,0.468,0.17,0.557
	c0-0.45,0.111-0.787,0.339-1.013c0.09-0.203,0.247-0.391,0.473-0.56c0.228-0.169,0.431-0.287,0.609-0.354l0.271-0.104
	c0.226,0.901,0.226,1.576,0,2.026c-0.676,0.676-1.24,1.014-1.691,1.014c-0.046,0-0.165,0.014-0.355,0.034
	c-0.189,0.022-0.359,0.039-0.508,0.051c-0.146,0.014-0.305-0.018-0.474-0.085c-0.17-0.065-0.288-0.18-0.354-0.338
	c-0.293-0.09-0.523-0.247-0.692-0.473C57.684,8.42,57.586,8.22,57.565,8.04L57.53,7.77C58.206,7.544,58.769,7.544,59.22,7.77z
	 M59.559,10.134c0.156,0,0.311,0.124,0.457,0.371c0.146,0.248,0.22,0.462,0.22,0.644v-1.69c0,0.228,0.058,0.563,0.171,1.016
	c0.111,0.448,0.168,0.786,0.168,1.014v0.337c0-0.9,0.112-1.575,0.338-2.026c0.203-0.202,0.446-0.357,0.729-0.473
	c0.28-0.112,0.513-0.181,0.692-0.203h0.271c0.227,0.676,0.111,1.354-0.339,2.026c-0.203,0.203-0.445,0.358-0.729,0.474
	c-0.283,0.112-0.513,0.18-0.691,0.202h-0.271c0,1.127-0.113,1.915-0.339,2.364v0.338c-0.901,0-1.579-0.227-2.03-0.675
	c-0.203-0.203-0.359-0.476-0.475-0.812c-0.113-0.339-0.182-0.631-0.203-0.879v-0.338c0.901,0,1.579,0.226,2.03,0.676
	c0.45,0.451,0.677,0.788,0.677,1.016v-1.689c-0.677,0-1.24-0.112-1.691-0.337c-0.293-0.203-0.523-0.474-0.692-0.812
	c-0.169-0.338-0.267-0.63-0.287-0.878L57.53,9.459C58.43,9.458,59.107,9.684,59.559,10.134z M62.604,13.85
	c-0.293,0.293-0.639,0.495-1.032,0.606c-0.396,0.112-0.718,0.157-0.965,0.135l-0.372-0.065c0-0.203,0.092-0.513,0.271-0.929
	c0.18-0.417,0.428-0.783,0.744-1.101c0.203-0.202,0.474-0.357,0.812-0.473c0.339-0.112,0.631-0.183,0.88-0.203h0.34
	C63.282,12.724,63.056,13.399,62.604,13.85z"/>
<g>
	<g>
		<path d="M20.836,6.766H20.62l-1.176,2.922h-0.33v0.188h1.002V9.688h-0.441l0.369-0.943h1.175l0.347,0.943h-0.489v0.188h1.231
			V9.688H21.93L20.836,6.766z M20.117,8.563l0.534-1.353h0.009l0.495,1.353H20.117z M23.833,6.789h-1.346V6.98h0.527v2.708h-0.527
			v0.188h1.443V9.688h-0.58V8.591h0.483c0.377,0.001,0.67-0.083,0.877-0.254s0.311-0.394,0.311-0.671
			C25.022,7.081,24.625,6.789,23.833,6.789z M24.45,8.199C24.312,8.333,24.108,8.4,23.839,8.4H23.35V6.98h0.503
			c0.537,0,0.806,0.226,0.806,0.677C24.659,7.885,24.589,8.066,24.45,8.199z M26.709,6.789h-1.345V6.98h0.527v2.708h-0.527v0.188
			h1.442V9.688h-0.581V8.591h0.484c0.377,0.001,0.67-0.083,0.877-0.254c0.208-0.171,0.311-0.394,0.311-0.671
			C27.898,7.081,27.502,6.789,26.709,6.789z M27.327,8.199C27.188,8.333,26.984,8.4,26.715,8.4h-0.489V6.98h0.504
			c0.536,0,0.806,0.226,0.806,0.677C27.535,7.885,27.465,8.066,27.327,8.199z M31.025,8.395c-0.129-0.072-0.307-0.137-0.532-0.193
			c-0.226-0.059-0.37-0.096-0.43-0.115c-0.179-0.054-0.313-0.127-0.401-0.219c-0.089-0.094-0.134-0.228-0.134-0.401
			c0-0.173,0.06-0.312,0.178-0.418c0.118-0.104,0.27-0.155,0.454-0.155c0.185,0,0.362,0.065,0.531,0.2
			c0.168,0.136,0.301,0.344,0.399,0.625h0.157V6.735H31.08L30.984,7.08c-0.22-0.24-0.482-0.357-0.787-0.357
			c-0.306,0-0.545,0.079-0.717,0.24c-0.172,0.162-0.259,0.361-0.259,0.6c0,0.234,0.068,0.421,0.203,0.555
			c0.136,0.135,0.382,0.248,0.739,0.338c0.358,0.088,0.601,0.177,0.732,0.27c0.13,0.09,0.195,0.234,0.195,0.438
			s-0.059,0.356-0.179,0.462c-0.118,0.107-0.273,0.16-0.463,0.16c-0.482,0-0.853-0.292-1.112-0.879H29.18v1.038h0.166l0.105-0.409
			c0.275,0.282,0.601,0.422,0.974,0.422c0.284,0,0.518-0.086,0.699-0.26s0.273-0.396,0.273-0.665
			c-0.004-0.149-0.044-0.292-0.123-0.428C31.237,8.536,31.154,8.467,31.025,8.395z M31.795,7.836h0.15
			C32,7.451,32.046,7.212,32.087,7.119c0.043-0.093,0.141-0.139,0.292-0.139h0.596v2.708h-0.549v0.188h1.433V9.688H33.31V6.979
			h0.597c0.152,0,0.25,0.046,0.291,0.139c0.043,0.093,0.09,0.333,0.146,0.717h0.146V6.789h-2.697L31.795,7.836L31.795,7.836z
			 M36.387,6.721c-0.404,0-0.743,0.152-1.021,0.46C35.088,7.489,34.95,7.874,34.95,8.34c0,0.469,0.137,0.854,0.408,1.157
			c0.273,0.307,0.609,0.457,1.014,0.457c0.4,0,0.739-0.153,1.021-0.461c0.274-0.309,0.415-0.698,0.415-1.167S37.67,7.472,37.4,7.17
			C37.127,6.871,36.788,6.721,36.387,6.721z M37.152,9.366C36.958,9.622,36.7,9.75,36.377,9.75
			c-0.324,0.001-0.582-0.128-0.775-0.388c-0.193-0.261-0.291-0.604-0.291-1.028c0-0.423,0.098-0.764,0.291-1.021
			s0.451-0.388,0.775-0.388c0.322,0,0.58,0.13,0.773,0.388c0.191,0.258,0.29,0.601,0.29,1.027
			C37.442,8.769,37.345,9.111,37.152,9.366z M40.904,9.696c-0.108,0-0.17-0.073-0.183-0.219l-0.034-0.43
			c-0.015-0.189-0.065-0.339-0.151-0.443C40.448,8.5,40.304,8.42,40.101,8.366V8.357c0.237-0.047,0.417-0.146,0.532-0.287
			c0.119-0.145,0.177-0.303,0.177-0.481c0-0.246-0.095-0.438-0.28-0.584c-0.185-0.145-0.449-0.216-0.789-0.216h-1.515V6.98h0.526
			v2.708h-0.526v0.188h1.396V9.688h-0.533V8.462h0.636c0.231,0,0.396,0.041,0.483,0.122c0.092,0.081,0.14,0.221,0.145,0.414
			l0.01,0.379c0.008,0.369,0.146,0.556,0.417,0.554c0.13,0,0.229-0.034,0.304-0.104c0.072-0.069,0.137-0.173,0.188-0.312
			l-0.12-0.062C41.084,9.616,41.002,9.696,40.904,9.696z M39.697,8.29h-0.608V6.979h0.672c0.46,0,0.689,0.194,0.689,0.591
			c0,0.224-0.062,0.402-0.185,0.529C40.144,8.227,39.954,8.29,39.697,8.29z M43.909,8.849c-0.05,0.378-0.098,0.611-0.143,0.704
			c-0.046,0.09-0.139,0.135-0.278,0.135h-1.187V8.376h0.591c0.114,0,0.188,0.027,0.226,0.081c0.035,0.054,0.063,0.191,0.088,0.41
			h0.148V7.731h-0.148c-0.024,0.213-0.053,0.345-0.088,0.396c-0.033,0.053-0.109,0.077-0.226,0.077h-0.591V6.979h1.187
			c0.121,0,0.202,0.041,0.245,0.124c0.041,0.082,0.086,0.289,0.135,0.619h0.15V6.789H41.44V6.98h0.527v2.708H41.44v0.188h2.623
			V8.849H43.909z"/>
	</g>
</g>
<g>
	<g>
		<path fill="#D1A92B" d="M18.505,14.732v-0.037c0.387-0.062,0.665-0.183,0.835-0.367c0.169-0.185,0.254-0.386,0.254-0.604
			c0-0.676-0.542-1.013-1.625-1.013h-2.026v0.479h0.659v3.284h-0.659v0.478h2.044c0.644,0,1.102-0.11,1.375-0.332
			c0.272-0.222,0.409-0.507,0.409-0.854c0-0.284-0.106-0.519-0.319-0.7C19.238,14.882,18.923,14.771,18.505,14.732z M17.434,13.192
			h0.491c0.323,0,0.543,0.047,0.662,0.143c0.118,0.096,0.176,0.25,0.176,0.467c0,0.456-0.281,0.685-0.845,0.685h-0.485
			L17.434,13.192L17.434,13.192z M18.713,16.299c-0.151,0.118-0.416,0.179-0.794,0.179h-0.485v-1.515h0.473
			c0.688,0.002,1.034,0.244,1.034,0.729C18.94,15.978,18.864,16.181,18.713,16.299z M22.767,14.381
			c-0.23-0.306-0.567-0.459-1.007-0.459c-0.442,0-0.811,0.15-1.106,0.45c-0.296,0.299-0.444,0.672-0.444,1.115
			c0,0.445,0.139,0.811,0.419,1.099c0.279,0.287,0.649,0.433,1.109,0.433c0.731,0,1.173-0.33,1.33-0.992H22.68
			c-0.151,0.342-0.409,0.514-0.775,0.514c-0.277,0-0.488-0.081-0.63-0.24s-0.221-0.415-0.233-0.763h2.044
			C23.104,15.076,22.999,14.691,22.767,14.381z M21.047,15.196c0.048-0.598,0.27-0.897,0.664-0.897c0.378,0,0.586,0.301,0.625,0.897
			H21.047z M25.061,15.135c-0.324-0.084-0.539-0.16-0.648-0.231c-0.109-0.072-0.165-0.163-0.167-0.274
			c0-0.109,0.04-0.195,0.119-0.257c0.081-0.062,0.195-0.092,0.344-0.092c0.28,0,0.541,0.222,0.785,0.665h0.432v-1.026h-0.432
			l-0.08,0.352c-0.167-0.233-0.418-0.352-0.752-0.352s-0.599,0.088-0.794,0.266c-0.195,0.177-0.292,0.39-0.292,0.642
			c0,0.254,0.08,0.45,0.242,0.588c0.162,0.138,0.408,0.252,0.74,0.34c0.332,0.089,0.552,0.169,0.662,0.242
			c0.109,0.073,0.164,0.17,0.164,0.289c-0.002,0.241-0.153,0.361-0.454,0.361c-0.194,0-0.377-0.069-0.552-0.207
			c-0.174-0.14-0.311-0.319-0.41-0.541h-0.437v1.111h0.424l0.086-0.397c0.222,0.271,0.512,0.406,0.869,0.406
			c0.356,0,0.636-0.099,0.838-0.29c0.202-0.193,0.301-0.418,0.299-0.673c0-0.258-0.083-0.451-0.251-0.587
			C25.628,15.331,25.384,15.22,25.061,15.135z M28.142,16.413c-0.067,0.084-0.153,0.126-0.258,0.126
			c-0.21,0-0.315-0.145-0.315-0.433v-1.659h0.967v-0.479h-0.967v-0.805l-0.741,0.084v0.72h-0.576v0.479h0.562v1.676
			c0,0.286,0.073,0.506,0.22,0.661c0.148,0.154,0.364,0.233,0.652,0.233c0.506,0.002,0.833-0.3,0.98-0.898l-0.328-0.117
			C28.275,16.192,28.209,16.329,28.142,16.413z M31.625,13.922c-0.459,0-0.832,0.146-1.121,0.438
			c-0.291,0.292-0.435,0.666-0.435,1.123s0.142,0.827,0.423,1.108c0.28,0.283,0.65,0.427,1.109,0.427
			c0.458,0,0.835-0.146,1.126-0.438c0.287-0.292,0.434-0.667,0.434-1.126c0-0.458-0.145-0.828-0.427-1.11
			C32.452,14.062,32.083,13.922,31.625,13.922z M31.64,16.633c-0.494,0-0.741-0.389-0.739-1.167c0-0.403,0.057-0.698,0.167-0.884
			c0.111-0.185,0.285-0.275,0.521-0.275c0.494,0,0.74,0.388,0.74,1.162C32.329,16.245,32.1,16.633,31.64,16.633z M35.354,12.478
			c-0.365-0.002-0.678,0.111-0.938,0.344c-0.258,0.231-0.389,0.572-0.389,1.02v0.126h-0.562v0.479h0.562v2.029h-0.449v0.478h1.854
			v-0.478h-0.647v-2.029h0.85v-0.479h-0.871V13.73c0-0.335,0.044-0.572,0.132-0.708c0.088-0.139,0.215-0.205,0.382-0.205
			c0.088,0,0.152,0.013,0.194,0.038c-0.044,0.074-0.065,0.165-0.065,0.271c0,0.109,0.038,0.2,0.112,0.271
			c0.073,0.07,0.174,0.105,0.3,0.105c0.125,0,0.227-0.042,0.303-0.126c0.074-0.083,0.114-0.185,0.116-0.304
			c0.003-0.177-0.075-0.32-0.229-0.432C35.853,12.534,35.633,12.478,35.354,12.478z M37.006,13.198h0.658v3.277h-0.658v0.478h2.248
			v-0.478h-0.758v-1.351h0.332c0.213,0,0.354,0.036,0.426,0.108c0.066,0.072,0.119,0.241,0.154,0.508h0.41v-1.68h-0.41
			c-0.043,0.258-0.1,0.42-0.164,0.485c-0.066,0.065-0.207,0.101-0.416,0.101h-0.332V13.19h1.01c0.258,0,0.438,0.06,0.543,0.179
			c0.107,0.12,0.219,0.39,0.339,0.812h0.416v-1.47h-3.796v0.485L37.006,13.198L37.006,13.198z M43.48,14.381
			c-0.229-0.306-0.567-0.459-1.008-0.459s-0.81,0.15-1.104,0.45c-0.297,0.299-0.445,0.672-0.445,1.115
			c0,0.445,0.142,0.811,0.42,1.099c0.279,0.287,0.648,0.433,1.109,0.433c0.729,0,1.174-0.33,1.328-0.992h-0.388
			c-0.151,0.342-0.409,0.514-0.774,0.514c-0.277,0-0.486-0.081-0.631-0.24c-0.143-0.159-0.221-0.415-0.232-0.763h2.045
			C43.818,15.076,43.711,14.691,43.48,14.381z M41.76,15.196c0.05-0.598,0.271-0.897,0.666-0.897c0.378,0,0.586,0.301,0.623,0.897
			H41.76z M46.185,13.918c-0.206,0.002-0.396,0.062-0.565,0.175c-0.168,0.114-0.309,0.271-0.41,0.471v-2.047h-1.207v0.478h0.449
			v3.999h0.412l0.245-0.613c0.241,0.426,0.581,0.64,1.021,0.64c0.313,0,0.582-0.112,0.804-0.333c0.29-0.292,0.437-0.711,0.437-1.256
			c0-0.548-0.136-0.95-0.402-1.215C46.766,14.017,46.506,13.918,46.185,13.918z M46.374,16.26c-0.107,0.188-0.266,0.279-0.467,0.279
			c-0.205,0-0.379-0.092-0.521-0.273c-0.143-0.187-0.213-0.438-0.213-0.757c0-0.317,0.068-0.585,0.207-0.796
			s0.316-0.314,0.533-0.314c0.414,0,0.621,0.353,0.621,1.059C46.534,15.806,46.48,16.074,46.374,16.26z"/>
	</g>
</g>
</svg>
