<?xml version="1.0" encoding="UTF-8"?>
<svg width="169px" height="30px" viewBox="0 0 169 30" version="1.1" xmlns="http://www.w3.org/2000/svg" xmlns:xlink="http://www.w3.org/1999/xlink">
    <!-- Generator: Sketch 42 (36781) - http://www.bohemiancoding.com/sketch -->
    <title>Group 5</title>
    <desc>Created with Sketch.</desc>
    <defs></defs>
    <g id="Page-1" stroke="none" stroke-width="1" fill="none" fill-rule="evenodd">
        <g id="Desktop-HD-Copy-9" transform="translate(-460.000000, -3572.000000)" fill-rule="nonzero" fill="#AE8EE8">
            <g id="Group-5" transform="translate(460.000000, 3572.000000)">
                <path d="M0,0.0172626766 C4.75049327,0.0234510174 9.50286996,-0.047849431 14.2510762,0.0609846497 C17.9112108,0.144930838 20.7789686,2.63102949 21.3963229,6.02681425 C22.0950673,9.87085012 20.1005381,13.1530923 17.0235874,14.0338546 C16.945426,14.0561864 16.8817937,14.1286977 16.7767265,14.202016 C19.7095964,15.0416125 21.4603587,16.9828681 21.953139,19.8911192 C22.7659641,24.6897739 20.1192377,28.6329577 15.1186547,29.1907156 C14.0095964,29.3143479 12.8834529,29.3111192 11.7649776,29.3169039 C7.84345291,29.337756 3.92179372,29.3370833 0.000134529148,29.3446169 C0,19.5687873 0,9.79309227 0,0.0172626766 Z M6.31547085,23.7456483 C6.39699552,23.7736304 6.47825112,23.8258277 6.55950673,23.8259622 C8.52793722,23.8291909 10.4998655,23.898877 12.463991,23.8057829 C14.4964574,23.7093255 15.7049327,22.4602223 15.7588789,20.61946 C15.8130942,18.7699533 14.6967713,17.4359622 12.7061435,17.1970385 C11.4480269,17.0459622 10.1627354,17.1151102 8.88955157,17.0973524 C8.04591928,17.0856483 7.20188341,17.0951999 6.31547085,17.0951999 L6.31547085,23.7456483 Z M6.27242152,11.6382941 C8.1073991,11.6382941 9.8496861,11.6413882 11.5919731,11.6356035 C11.9272197,11.6343927 12.2701345,11.6372178 12.5962332,11.5715676 C13.8265022,11.3245721 14.7530045,10.6937649 15.0752018,9.41143308 C15.5889686,7.36699362 14.2859193,5.60076043 12.170583,5.49596223 C11.1870404,5.44739721 10.1994619,5.48250931 9.21363229,5.48156761 C8.25766816,5.48035685 7.30156951,5.48129855 6.31573991,5.48129855 C6.29623318,5.69304743 6.27403587,5.82219541 6.27390135,5.95134339 C6.27161435,7.80851828 6.27242152,9.66569317 6.27242152,11.6382941 Z" id="Shape"></path>
                <path d="M113.200419,29.8566912 C112.457818,29.7185298 111.707415,29.6126554 110.973827,29.4368258 C105.230105,28.060189 102.303423,23.1163773 102.805352,17.6539558 C103.225755,13.0800993 105.531316,9.73624282 109.923154,8.18821591 C116.054455,6.02687062 123.164858,8.94494237 124.214051,17.1031935 C124.352616,18.181041 124.345755,19.2775881 124.411675,20.4622518 L116.440015,20.4622518 L108.577594,20.4622518 C108.944589,22.4722518 109.958132,23.8821173 111.725576,24.6315791 C114.597504,25.849606 117.287953,25.242476 119.824634,23.6098303 C119.9745,23.5133729 120.112796,23.398754 120.258491,23.2951666 C120.272885,23.2849424 120.301136,23.2938213 120.402706,23.2938213 C121.178805,24.4361083 121.98006,25.6157944 122.880464,26.9414446 C122.063737,27.4509065 121.31024,28.0030141 120.48719,28.4166912 C118.973199,29.1774536 117.345397,29.580772 115.653962,29.721624 C115.46145,29.737633 115.273648,29.8102787 115.083693,29.8566912 L113.200419,29.8566912 Z M118.946293,16.6018034 C119.056473,13.9678572 116.546966,11.9563773 113.369657,12.0817585 C110.726562,12.1860186 108.377145,14.42418 108.659253,16.6018034 L118.946293,16.6018034 Z" id="Shape"></path>
                <path d="M135.674021,29.8647698 C134.760299,29.6808685 133.831644,29.5509133 132.935276,29.3036487 C128.654559,28.1227519 125.701644,24.5029761 125.313124,20.0785815 C124.946397,15.9053528 126.156083,12.3685815 129.506128,9.73584603 C134.58272,5.74638415 144.559536,6.65136173 146.541285,16.0905994 C146.683348,16.7670119 146.766756,17.4611824 146.809536,18.1513169 C146.855142,18.8842317 146.819761,19.6222586 146.819761,20.4700613 L138.947115,20.4700613 L131.089402,20.4700613 C131.226218,21.6498819 131.684559,22.598716 132.444783,23.3834245 C134.184648,25.1791196 136.355814,25.5170568 138.701734,25.1053976 C140.196891,24.8429312 141.576891,24.2750837 142.818729,23.2109581 C143.654559,24.4361151 144.46698,25.6271016 145.351106,26.9231554 C144.691913,27.3642765 144.094604,27.8308236 143.438505,28.1897474 C141.807743,29.0819447 140.04272,29.5526622 138.194559,29.7256667 C137.979716,29.7457115 137.76985,29.8171465 137.557563,29.8646353 C136.929581,29.8647698 136.301868,29.8647698 135.674021,29.8647698 Z M131.126935,16.6061151 L141.424335,16.6061151 C141.556711,14.0531554 139.106397,12.0251285 136.027429,12.0852631 C133.295276,12.1384021 130.930119,14.2992093 131.126935,16.6061151 Z" id="Shape"></path>
                <path d="M31.8533508,29.9877578 C31.180436,29.85 30.5030817,29.7306726 29.835279,29.5713901 C25.6987768,28.5855605 23.2553239,25.4892377 23.2516916,21.2330045 C23.2483283,17.153139 23.2510189,13.0734081 23.2510189,8.9935426 L23.2510189,8.26251121 L28.8421848,8.26251121 L28.8421848,9.04156951 C28.8421848,12.8973094 28.8534853,16.7529148 28.8370727,20.6085202 C28.8295391,22.3573991 29.364427,23.8384305 31.0216916,24.5994619 C32.8176557,25.4242601 34.6570727,25.3942601 36.3186422,24.2108072 C37.5355929,23.3441704 37.8797185,22.0178475 37.8822745,20.5926457 C37.8895391,16.7593722 37.8848306,12.9260987 37.8848306,9.09295964 L37.8848306,8.25 L43.4154584,8.25 C43.4154584,8.49188341 43.4155929,8.74883408 43.4155929,9.00565022 C43.4155929,13.0407175 43.4174763,17.0757848 43.4150548,21.1107175 C43.4122297,25.9798655 40.3816916,29.3268161 35.5247857,29.8370852 C35.2850548,29.8622422 35.0503014,29.9362332 34.8131265,29.9874888 C33.8264898,29.9877578 32.839853,29.9877578 31.8533508,29.9877578 Z" id="Shape"></path>
                <path d="M84.75,29.2403139 L84.75,0 L105.087848,0 L105.087848,2.83641256 C105.087848,3.46412556 105.04574,4.09547085 105.099686,4.71860987 C105.153229,5.3390583 104.904081,5.45946188 104.333139,5.45623318 C100.320269,5.43336323 96.30713,5.44412556 92.2941256,5.44412556 L91.024843,5.44412556 L91.024843,11.6012556 L91.7822422,11.6012556 C94.8088789,11.6012556 97.8356502,11.6186099 100.861883,11.586861 C101.473722,11.5805381 101.616861,11.7750673 101.60287,12.3527354 C101.565336,13.8933632 101.589955,15.4354709 101.589955,17.0533184 L90.9792377,17.0533184 L90.9792377,29.2401794 C88.8698206,29.2403139 86.8417937,29.2403139 84.75,29.2403139 Z" id="Shape"></path>
                <path d="M148.500022,29.5195503 L148.500022,28.7503126 C148.500022,22.2066803 148.499887,15.6631826 148.500291,9.11941578 C148.500291,8.26044717 148.501232,8.25291353 149.387779,8.26111981 C152.456389,8.28937093 155.53751,8.1586086 158.590111,8.39497631 C162.940111,8.73156824 166.34464,10.6907162 167.956434,14.9846176 C169.594326,19.3478014 168.345896,24.3276669 165.017779,27.0557835 C163.057017,28.6630032 160.749708,29.4543037 158.264551,29.5440346 C155.1089,29.6581153 151.946255,29.5799539 148.786703,29.5823754 C148.722533,29.5825099 148.658228,29.5553351 148.500022,29.5195503 Z M153.832219,25.0316579 C154.904013,25.0316579 155.907465,25.031927 156.910784,25.0316579 C160.521412,25.0305817 162.79482,22.9958283 163.199483,19.4032274 C163.489932,16.8237656 162.09473,14.2581602 159.872712,13.3472633 C157.915448,12.5452005 155.870739,12.9716579 153.832353,12.8582499 C153.832219,16.9545279 153.832219,20.9371288 153.832219,25.0316579 Z" id="Shape"></path>
                <path d="M54.5304674,13.0481166 L45.0570593,13.0481166 L45.0570593,8.25 L62.1832925,8.25 C62.1832925,9.15524664 62.1378217,10.0649327 62.1966109,10.9681614 C62.2506916,11.8007623 61.9972387,12.4439462 61.4717679,13.0976233 C58.6233822,16.6421973 55.8199293,20.2224215 53.0018127,23.7910762 C52.8506019,23.9825112 52.7067903,24.1797309 52.4712297,24.4907623 L62.2969697,24.4907623 L62.2969697,29.3810314 L45.0049966,29.3810314 C45.0049966,28.0452915 44.9854898,26.7100897 45.0235616,25.3763677 C45.0301535,25.1473991 45.2601984,24.9088789 45.422306,24.7025112 C48.3134719,21.0203139 51.2104226,17.3428251 54.1044136,13.6627803 C54.2249517,13.5092825 54.327732,13.3416592 54.5304674,13.0481166 Z" id="Shape"></path>
                <path d="M63.750278,13.0448879 C63.750278,11.5307623 63.7489327,10.1428251 63.7521614,8.75475336 C63.7524304,8.60165919 63.7778564,8.44856502 63.7958833,8.25 L80.8692466,8.25 C80.8692466,9.54 80.8833721,10.8092825 80.8541793,12.0776233 C80.8497398,12.2687892 80.6612645,12.4701794 80.5261972,12.641704 C77.5863318,16.3724664 74.6417578,20.0994619 71.6997398,23.8284753 C71.5544484,24.0126457 71.4247623,24.2093274 71.1984842,24.5243946 L72.0555694,24.5243946 C74.8346726,24.5243946 77.6139102,24.5359641 80.3930134,24.5143049 C80.9093362,24.5102691 81.1021165,24.63713 81.0870493,25.1874888 C81.0492466,26.5716592 81.074538,27.9575785 81.074538,29.3846637 L63.766825,29.3846637 C63.766825,28.0022422 63.7557936,26.6429596 63.7808161,25.2843498 C63.7839102,25.1141704 63.9625649,24.9361883 64.0843138,24.7812108 C66.907408,21.1865919 69.7341345,17.5949327 72.5596502,14.0021973 C72.7754349,13.7276233 72.9866457,13.449417 73.2988878,13.0447534 C70.0404573,13.0448879 66.9438654,13.0448879 63.750278,13.0448879 Z" id="Shape"></path>
            </g>
        </g>
    </g>
</svg>