<svg width="1072" height="646" viewBox="0 0 1072 646" fill="none" xmlns="http://www.w3.org/2000/svg">
<g clip-path="url(#clip0_2111_8488)">
<path d="M-67.7478 268.775C-73.3483 259.075 -76.1486 254.225 -76.3999 249.43C-76.6209 245.212 -75.501 241.032 -73.2007 237.49C-70.5856 233.463 -65.7354 230.663 -56.035 225.063L-4.93949 195.562C4.7609 189.962 9.6111 187.162 14.4061 186.91C18.6239 186.689 22.8034 187.809 26.3456 190.11C30.3725 192.725 33.1728 197.575 38.7733 207.275L90.2733 296.476C95.8738 306.176 98.6741 311.027 98.9254 315.822C99.1464 320.039 98.0266 324.219 95.7262 327.761C93.1111 331.788 88.2609 334.588 78.5605 340.189L27.465 369.689C17.7646 375.289 12.9144 378.09 8.11942 378.341C3.90163 378.562 -0.277879 377.442 -3.82008 375.142C-7.84702 372.527 -10.6473 367.676 -16.2478 357.976L-67.7478 268.775Z" fill="#C3F5DD"/>
<path d="M47.4312 202.271C41.8306 192.571 39.0304 187.721 38.7791 182.926C38.558 178.708 39.6779 174.529 41.9782 170.986C44.5934 166.959 49.4436 164.159 59.144 158.559L110.239 129.059C119.94 123.458 124.79 120.658 129.585 120.407C133.803 120.185 137.982 121.305 141.525 123.606C145.551 126.221 148.352 131.071 153.952 140.771L205.452 229.972C211.053 239.672 213.853 244.523 214.104 249.318C214.325 253.535 213.206 257.715 210.905 261.257C208.29 265.284 203.44 268.084 193.739 273.685L142.644 303.185C132.944 308.785 128.093 311.586 123.298 311.837C119.081 312.058 114.901 310.938 111.359 308.638C107.332 306.023 104.532 301.172 98.9312 291.472L47.4312 202.271Z" fill="#C3F5DD"/>
<path d="M162.619 135.775C157.019 126.075 154.219 121.225 153.967 116.43C153.746 112.212 154.866 108.032 157.166 104.49C159.782 100.463 164.632 97.663 174.332 92.0625L225.428 62.5625C235.128 56.962 239.978 54.1617 244.773 53.9104C248.991 53.6894 253.171 54.8093 256.713 57.1096C260.74 59.7247 263.54 64.5749 269.141 74.2753L320.641 163.476C326.241 173.176 329.041 178.027 329.293 182.822C329.514 187.039 328.394 191.219 326.093 194.761C323.478 198.788 318.628 201.588 308.928 207.189L257.832 236.689C248.132 242.289 243.282 245.09 238.487 245.341C234.269 245.562 230.089 244.442 226.547 242.142C222.52 239.527 219.72 234.676 214.119 224.976L162.619 135.775Z" fill="#C3F5DD"/>
<path d="M-156.249 115.486C-161.849 105.786 -164.649 100.936 -164.901 96.1407C-165.122 91.9229 -164.002 87.7434 -161.701 84.2012C-159.086 80.1742 -154.236 77.374 -144.536 71.7734L-93.4402 42.2734C-83.7398 36.6729 -78.8896 33.8726 -74.0946 33.6214C-69.8768 33.4003 -65.6973 34.5202 -62.1551 36.8205C-58.1282 39.4357 -55.3279 44.2859 -49.7274 53.9863L1.77259 143.187C7.37311 152.887 10.1734 157.737 10.4247 162.532C10.6457 166.75 9.52582 170.93 7.22549 174.472C4.61037 178.499 -0.239831 181.299 -9.94022 186.9L-61.0357 216.4C-70.7361 222 -75.5863 224.8 -80.3813 225.052C-84.5991 225.273 -88.7786 224.153 -92.3208 221.853C-96.3477 219.237 -99.148 214.387 -104.749 204.687L-156.249 115.486Z" fill="#C3F5DD"/>
<path d="M197.754 728.637C192.154 718.936 189.354 714.086 189.102 709.291C188.881 705.073 190.001 700.894 192.301 697.352C194.917 693.325 199.767 690.524 209.467 684.924L260.563 655.424C270.263 649.823 275.113 647.023 279.908 646.772C284.126 646.551 288.306 647.671 291.848 649.971C295.875 652.586 298.675 657.436 304.276 667.137L355.776 756.337C361.376 766.038 364.176 770.888 364.428 775.683C364.649 779.901 363.529 784.08 361.228 787.622C358.613 791.649 353.763 794.45 344.063 800.05L292.967 829.55C283.267 835.151 278.417 837.951 273.622 838.202C269.404 838.423 265.224 837.303 261.682 835.003C257.655 832.388 254.855 827.538 249.254 817.837L197.754 728.637Z" fill="#C3F5DD"/>
<path d="M277.799 69.2734C272.198 59.573 269.398 54.7228 269.147 49.9278C268.925 45.71 270.045 41.5305 272.346 37.9883C274.961 33.9613 279.811 31.1611 289.511 25.5605L340.607 -3.93945C350.307 -9.53998 355.157 -12.3402 359.952 -12.5915C364.17 -12.8126 368.35 -11.6927 371.892 -9.39236C375.919 -6.77723 378.719 -1.92703 384.32 7.77336L435.82 96.974C441.42 106.674 444.22 111.525 444.472 116.32C444.693 120.537 443.573 124.717 441.273 128.259C438.657 132.286 433.807 135.086 424.107 140.687L373.011 170.187C363.311 175.787 358.461 178.588 353.666 178.839C349.448 179.06 345.269 177.94 341.726 175.64C337.699 173.025 334.899 168.174 329.299 158.474L277.799 69.2734Z" fill="#C3F5DD"/>
<path d="M631.802 682.424C626.201 672.723 623.401 667.873 623.149 663.078C622.928 658.86 624.048 654.681 626.349 651.139C628.964 647.112 633.814 644.311 643.514 638.711L694.61 609.211C704.31 603.61 709.16 600.81 713.955 600.559C718.173 600.338 722.353 601.458 725.895 603.758C729.922 606.373 732.722 611.223 738.323 620.924L789.823 710.124C795.423 719.825 798.223 724.675 798.475 729.47C798.696 733.688 797.576 737.867 795.276 741.409C792.66 745.436 787.81 748.237 778.11 753.837L727.014 783.337C717.314 788.938 712.464 791.738 707.669 791.989C703.451 792.21 699.271 791.09 695.729 788.79C691.702 786.175 688.902 781.325 683.302 771.624L631.802 682.424Z" fill="#C3F5DD"/>
<path d="M-41.0684 48.9863C-46.6689 39.2859 -49.4691 34.4357 -49.7204 29.6407C-49.9415 25.4229 -48.8216 21.2434 -46.5213 17.7012C-43.9061 13.6742 -39.0559 10.874 -29.3555 5.27344L21.74 -24.2266C31.4403 -29.8271 36.2905 -32.6274 41.0855 -32.8786C45.3033 -33.0997 49.4828 -31.9798 53.025 -29.6795C57.052 -27.0643 59.8522 -22.2141 65.4528 -12.5137L116.953 76.6869C122.553 86.3873 125.354 91.2375 125.605 96.0325C125.826 100.25 124.706 104.43 122.406 107.972C119.791 111.999 114.94 114.799 105.24 120.4L54.1445 149.9C44.4441 155.5 39.5939 158.3 34.7989 158.552C30.5811 158.773 26.4016 157.653 22.8594 155.353C18.8324 152.737 16.0322 147.887 10.4316 138.187L-41.0684 48.9863Z" fill="#C3F5DD"/>
<path d="M312.935 662.139C307.334 652.438 304.534 647.588 304.282 642.793C304.061 638.575 305.181 634.396 307.482 630.854C310.097 626.827 314.947 624.026 324.647 618.426L375.743 588.926C385.443 583.325 390.293 580.525 395.088 580.274C399.306 580.053 403.486 581.173 407.028 583.473C411.055 586.088 413.855 590.938 419.456 600.639L470.956 689.839C476.556 699.54 479.356 704.39 479.608 709.185C479.829 713.403 478.709 717.582 476.409 721.124C473.793 725.151 468.943 727.951 459.243 733.552L408.147 763.052C398.447 768.653 393.597 771.453 388.802 771.704C384.584 771.925 380.404 770.805 376.862 768.505C372.835 765.89 370.035 761.04 364.435 751.339L312.935 662.139Z" fill="#C3F5DD"/>
<path d="M20.752 422.06C15.1514 412.36 12.3512 407.51 12.0999 402.715C11.8788 398.497 12.9987 394.318 15.299 390.775C17.9142 386.748 22.7644 383.948 32.4648 378.348L83.5603 348.848C93.2607 343.247 98.1109 340.447 102.906 340.196C107.124 339.975 111.303 341.094 114.845 343.395C118.872 346.01 121.673 350.86 127.273 360.56L178.773 449.761C184.374 459.461 187.174 464.312 187.425 469.107C187.646 473.324 186.526 477.504 184.226 481.046C181.611 485.073 176.761 487.873 167.06 493.474L115.965 522.974C106.264 528.574 101.414 531.375 96.6192 531.626C92.4014 531.847 88.2219 530.727 84.6797 528.427C80.6527 525.812 77.8525 520.961 72.252 511.261L20.752 422.06Z" fill="#C3F5DD"/>
<path d="M74.1196 -17.5118C68.5191 -27.2122 65.7188 -32.0624 65.4675 -36.8574C65.2465 -41.0752 66.3664 -45.2547 68.6667 -48.7969C71.2819 -52.8238 76.132 -55.6241 85.8324 -61.2246L136.928 -90.7246C146.628 -96.3251 151.479 -99.1254 156.274 -99.3767C160.491 -99.5977 164.671 -98.4778 168.213 -96.1775C172.24 -93.5624 175.04 -88.7122 180.641 -79.0118L232.141 10.1888C237.741 19.8892 240.542 24.7394 240.793 29.5344C241.014 33.7522 239.894 37.9317 237.594 41.4739C234.979 45.5008 230.128 48.3011 220.428 53.9016L169.332 83.4016C159.632 89.0022 154.782 91.8024 149.987 92.0537C145.769 92.2748 141.59 91.1549 138.047 88.8545C134.02 86.2394 131.22 81.3892 125.62 71.6888L74.1196 -17.5118Z" fill="#C3F5DD"/>
<path d="M428.123 595.639C422.522 585.938 419.722 581.088 419.47 576.293C419.249 572.075 420.369 567.896 422.67 564.354C425.285 560.327 430.135 557.526 439.835 551.926L490.931 522.426C500.631 516.825 505.481 514.025 510.276 513.774C514.494 513.553 518.674 514.673 522.216 516.973C526.243 519.588 529.043 524.438 534.644 534.139L586.144 623.339C591.744 633.04 594.544 637.89 594.796 642.685C595.017 646.903 593.897 651.082 591.597 654.624C588.981 658.651 584.131 661.451 574.431 667.052L523.335 696.552C513.635 702.153 508.785 704.953 503.99 705.204C499.772 705.425 495.592 704.305 492.05 702.005C488.023 699.39 485.223 694.54 479.623 684.839L428.123 595.639Z" fill="#C3F5DD"/>
<path d="M189.299 -84.0137C183.698 -93.7141 180.898 -98.5643 180.647 -103.359C180.425 -107.577 181.545 -111.757 183.846 -115.299C186.461 -119.326 191.311 -122.126 201.011 -127.727L252.107 -157.227C261.807 -162.827 266.657 -165.627 271.452 -165.879C275.67 -166.1 279.85 -164.98 283.392 -162.679C287.419 -160.064 290.219 -155.214 295.82 -145.514L347.32 -56.3131C352.92 -46.6127 355.72 -41.7625 355.972 -36.9675C356.193 -32.7498 355.073 -28.5702 352.773 -25.0281C350.157 -21.0011 345.307 -18.2008 335.607 -12.6003L284.511 16.8997C274.811 22.5002 269.961 25.3005 265.166 25.5518C260.948 25.7728 256.769 24.6529 253.226 22.3526C249.199 19.7375 246.399 14.8873 240.799 5.18686L189.299 -84.0137Z" fill="#C3F5DD"/>
<path d="M543.302 529.139C537.701 519.438 534.901 514.588 534.649 509.793C534.428 505.575 535.548 501.396 537.849 497.854C540.464 493.827 545.314 491.026 555.014 485.426L606.11 455.926C615.81 450.325 620.66 447.525 625.455 447.274C629.673 447.053 633.853 448.173 637.395 450.473C641.422 453.088 644.222 457.938 649.823 467.639L701.323 556.839C706.923 566.54 709.723 571.39 709.975 576.185C710.196 580.403 709.076 584.582 706.776 588.124C704.16 592.151 699.31 594.951 689.61 600.552L638.514 630.052C628.814 635.653 623.964 638.453 619.169 638.704C614.951 638.925 610.771 637.805 607.229 635.505C603.202 632.89 600.402 628.04 594.802 618.339L543.302 529.139Z" fill="#C3F5DD"/>
<path d="M-94.428 488.56C-100.029 478.86 -102.829 474.01 -103.08 469.215C-103.301 464.997 -102.181 460.818 -99.8809 457.275C-97.2658 453.248 -92.4156 450.448 -82.7152 444.848L-31.6197 415.348C-21.9193 409.747 -17.0691 406.947 -12.2741 406.696C-8.05629 406.475 -3.87678 407.594 -0.334583 409.895C3.69236 412.51 6.49262 417.36 12.0931 427.06L63.5931 516.261C69.1937 525.961 71.9939 530.812 72.2452 535.607C72.4663 539.824 71.3464 544.004 69.046 547.546C66.4309 551.573 61.5807 554.373 51.8803 559.974L0.784833 589.474C-8.91556 595.074 -13.7658 597.875 -18.5608 598.126C-22.7785 598.347 -26.9581 597.227 -30.5003 594.927C-34.5272 592.312 -37.3275 587.461 -42.928 577.761L-94.428 488.56Z" fill="#C3F5DD"/>
<path d="M109.252 575.348C103.651 565.647 100.851 560.797 100.6 556.002C100.379 551.784 101.498 547.605 103.799 544.062C106.414 540.036 111.264 537.235 120.965 531.635L172.06 502.135C181.76 496.534 186.611 493.734 191.406 493.483C195.623 493.262 199.803 494.382 203.345 496.682C207.372 499.297 210.172 504.147 215.773 513.848L267.273 603.048C272.873 612.749 275.674 617.599 275.925 622.394C276.146 626.612 275.026 630.791 272.726 634.333C270.111 638.36 265.26 641.16 255.56 646.761L204.465 676.261C194.764 681.862 189.914 684.662 185.119 684.913C180.901 685.134 176.722 684.014 173.179 681.714C169.152 679.099 166.352 674.249 160.752 664.548L109.252 575.348Z" fill="#C3F5DD"/>
<path d="M135.932 355.562C130.332 345.862 127.531 341.012 127.28 336.217C127.059 331.999 128.179 327.82 130.479 324.277C133.094 320.25 137.945 317.45 147.645 311.85L198.74 282.35C208.441 276.749 213.291 273.949 218.086 273.698C222.304 273.476 226.483 274.596 230.026 276.897C234.052 279.512 236.853 284.362 242.453 294.062L293.953 383.263C299.554 392.963 302.354 397.814 302.605 402.609C302.826 406.826 301.706 411.006 299.406 414.548C296.791 418.575 291.941 421.375 282.24 426.976L231.145 456.476C221.445 462.076 216.594 464.877 211.799 465.128C207.582 465.349 203.402 464.229 199.86 461.929C195.833 459.314 193.033 454.463 187.432 444.763L135.932 355.562Z" fill="#C3F5DD"/>
<path d="M251.119 289.06C245.519 279.36 242.718 274.51 242.467 269.715C242.246 265.497 243.366 261.318 245.666 257.775C248.281 253.748 253.132 250.948 262.832 245.348L313.927 215.848C323.628 210.247 328.478 207.447 333.273 207.196C337.491 206.975 341.67 208.094 345.213 210.395C349.239 213.01 352.04 217.86 357.64 227.56L409.14 316.761C414.741 326.461 417.541 331.312 417.792 336.107C418.013 340.324 416.893 344.504 414.593 348.046C411.978 352.073 407.128 354.873 397.427 360.474L346.332 389.974C336.632 395.574 331.781 398.375 326.986 398.626C322.769 398.847 318.589 397.727 315.047 395.427C311.02 392.812 308.22 387.961 302.619 378.261L251.119 289.06Z" fill="#C3F5DD"/>
<path d="M366.299 222.56C360.699 212.86 357.898 208.01 357.647 203.215C357.426 198.997 358.546 194.818 360.846 191.275C363.461 187.248 368.311 184.448 378.012 178.848L429.107 149.348C438.808 143.747 443.658 140.947 448.453 140.696C452.671 140.475 456.85 141.594 460.392 143.895C464.419 146.51 467.22 151.36 472.82 161.06L524.32 250.261C529.921 259.961 532.721 264.812 532.972 269.607C533.193 273.824 532.073 278.004 529.773 281.546C527.158 285.573 522.308 288.373 512.607 293.974L461.512 323.474C451.811 329.074 446.961 331.875 442.166 332.126C437.949 332.347 433.769 331.227 430.227 328.927C426.2 326.312 423.4 321.461 417.799 311.761L366.299 222.56Z" fill="#C3F5DD"/>
<path d="M-5.92749 641.85C-11.528 632.149 -14.3283 627.299 -14.5796 622.504C-14.8006 618.286 -13.6807 614.107 -11.3804 610.564C-8.76527 606.538 -3.91507 603.737 5.78532 598.137L56.8808 568.637C66.5812 563.036 71.4314 560.236 76.2264 559.985C80.4442 559.764 84.6237 560.883 88.1659 563.184C92.1928 565.799 94.9931 570.649 100.594 580.35L152.094 669.55C157.694 679.251 160.494 684.101 160.746 688.896C160.967 693.114 159.847 697.293 157.547 700.835C154.931 704.862 150.081 707.662 140.381 713.263L89.2853 742.763C79.5849 748.363 74.7347 751.164 69.9397 751.415C65.7219 751.636 61.5424 750.516 58.0002 748.216C53.9733 745.601 51.173 740.751 45.5725 731.05L-5.92749 641.85Z" fill="#C3F5DD"/>
<path d="M224.432 508.85C218.831 499.149 216.031 494.299 215.78 489.504C215.559 485.286 216.678 481.107 218.979 477.564C221.594 473.538 226.444 470.737 236.144 465.137L287.24 435.637C296.94 430.036 301.791 427.236 306.586 426.985C310.803 426.764 314.983 427.883 318.525 430.184C322.552 432.799 325.352 437.649 330.953 447.35L382.453 536.55C388.053 546.251 390.854 551.101 391.105 555.896C391.326 560.114 390.206 564.293 387.906 567.835C385.291 571.862 380.44 574.662 370.74 580.263L319.644 609.763C309.944 615.363 305.094 618.164 300.299 618.415C296.081 618.636 291.902 617.516 288.359 615.216C284.332 612.601 281.532 607.751 275.932 598.05L224.432 508.85Z" fill="#C3F5DD"/>
<path d="M339.619 442.348C334.018 432.647 331.218 427.797 330.967 423.002C330.746 418.784 331.865 414.605 334.166 411.062C336.781 407.036 341.631 404.235 351.331 398.635L402.427 369.135C412.127 363.534 416.978 360.734 421.773 360.483C425.99 360.262 430.17 361.382 433.712 363.682C437.739 366.297 440.539 371.147 446.14 380.848L497.64 470.048C503.24 479.749 506.041 484.599 506.292 489.394C506.513 493.612 505.393 497.791 503.093 501.333C500.478 505.36 495.627 508.16 485.927 513.761L434.831 543.261C425.131 548.862 420.281 551.662 415.486 551.913C411.268 552.134 407.089 551.014 403.546 548.714C399.519 546.099 396.719 541.249 391.119 531.548L339.619 442.348Z" fill="#C3F5DD"/>
<path d="M454.799 375.848C449.198 366.147 446.398 361.297 446.147 356.502C445.926 352.284 447.046 348.105 449.346 344.562C451.961 340.536 456.811 337.735 466.512 332.135L517.607 302.635C527.308 297.034 532.158 294.234 536.953 293.983C541.171 293.762 545.35 294.882 548.892 297.182C552.919 299.797 555.719 304.647 561.32 314.348L612.82 403.548C618.42 413.249 621.221 418.099 621.472 422.894C621.693 427.112 620.573 431.291 618.273 434.833C615.658 438.86 610.808 441.66 601.107 447.261L550.012 476.761C540.311 482.362 535.461 485.162 530.666 485.413C526.448 485.634 522.269 484.514 518.727 482.214C514.7 479.599 511.899 474.749 506.299 465.048L454.799 375.848Z" fill="#C3F5DD"/>
<path d="M508.485 -63.9141C502.884 -73.6145 500.084 -78.4647 499.833 -83.2597C499.611 -87.4775 500.731 -91.657 503.032 -95.1992C505.647 -99.2262 510.497 -102.026 520.197 -107.627L571.293 -137.127C580.993 -142.727 585.844 -145.528 590.639 -145.779C594.856 -146 599.036 -144.88 602.578 -142.58C606.605 -139.965 609.405 -135.115 615.006 -125.414L666.506 -36.2135C672.106 -26.5131 674.907 -21.6629 675.158 -16.8679C675.379 -12.6501 674.259 -8.47064 671.959 -4.92844C669.344 -0.901501 664.493 1.89876 654.793 7.49929L603.697 36.9993C593.997 42.5998 589.147 45.4001 584.352 45.6514C580.134 45.8724 575.955 44.7525 572.412 42.4522C568.385 39.8371 565.585 34.9869 559.985 25.2865L508.485 -63.9141Z" fill="#C3F5DD"/>
<path d="M862.488 549.238C856.887 539.538 854.087 534.688 853.835 529.893C853.614 525.675 854.734 521.495 857.035 517.953C859.65 513.926 864.5 511.126 874.2 505.525L925.296 476.025C934.996 470.425 939.846 467.625 944.641 467.373C948.859 467.152 953.039 468.272 956.581 470.572C960.608 473.188 963.408 478.038 969.009 487.738L1020.51 576.939C1026.11 586.639 1028.91 591.489 1029.16 596.284C1029.38 600.502 1028.26 604.682 1025.96 608.224C1023.35 612.251 1018.5 615.051 1008.8 620.652L957.7 650.152C948 655.752 943.15 658.552 938.355 658.804C934.137 659.025 929.957 657.905 926.415 655.605C922.388 652.989 919.588 648.139 913.988 638.439L862.488 549.238Z" fill="#C3F5DD"/>
<path d="M393.304 2.58781C387.704 -7.11258 384.904 -11.9628 384.652 -16.7578C384.431 -20.9756 385.551 -25.1551 387.852 -28.6973C390.467 -32.7242 395.317 -35.5245 405.017 -41.125L456.113 -70.625C465.813 -76.2255 470.663 -79.0258 475.458 -79.2771C479.676 -79.4981 483.856 -78.3782 487.398 -76.0779C491.425 -73.4628 494.225 -68.6126 499.826 -58.9122L551.326 30.2884C556.926 39.9888 559.726 44.839 559.978 49.634C560.199 53.8518 559.079 58.0313 556.778 61.5735C554.163 65.6005 549.313 68.4007 539.613 74.0012L488.517 103.501C478.817 109.102 473.967 111.902 469.172 112.153C464.954 112.374 460.774 111.254 457.232 108.954C453.205 106.339 450.405 101.489 444.804 91.7884L393.304 2.58781Z" fill="#C3F5DD"/>
<path d="M747.307 615.74C741.707 606.04 738.907 601.19 738.655 596.395C738.434 592.177 739.554 587.997 741.854 584.455C744.47 580.428 749.32 577.628 759.02 572.027L810.116 542.527C819.816 536.927 824.666 534.127 829.461 533.875C833.679 533.654 837.859 534.774 841.401 537.074C845.428 539.69 848.228 544.54 853.828 554.24L905.328 643.441C910.929 653.141 913.729 657.991 913.981 662.786C914.202 667.004 913.082 671.184 910.781 674.726C908.166 678.753 903.316 681.553 893.616 687.154L842.52 716.654C832.82 722.254 827.97 725.054 823.175 725.306C818.957 725.527 814.777 724.407 811.235 722.106C807.208 719.491 804.408 714.641 798.807 704.941L747.307 615.74Z" fill="#C3F5DD"/>
<path d="M977.667 482.734C972.066 473.034 969.266 468.184 969.014 463.389C968.793 459.171 969.913 454.991 972.214 451.449C974.829 447.422 979.679 444.622 989.379 439.021L1040.47 409.521C1050.18 403.921 1055.03 401.121 1059.82 400.869C1064.04 400.648 1068.22 401.768 1071.76 404.069C1075.79 406.684 1078.59 411.534 1084.19 421.234L1135.69 510.435C1141.29 520.135 1144.09 524.986 1144.34 529.78C1144.56 533.998 1143.44 538.178 1141.14 541.72C1138.53 545.747 1133.68 548.547 1123.97 554.148L1072.88 583.648C1063.18 589.248 1058.33 592.049 1053.53 592.3C1049.32 592.521 1045.14 591.401 1041.59 589.101C1037.57 586.486 1034.77 581.635 1029.17 571.935L977.667 482.734Z" fill="#C3F5DD"/>
<path d="M773.987 395.949C768.386 386.249 765.586 381.399 765.334 376.604C765.113 372.386 766.233 368.206 768.534 364.664C771.149 360.637 775.999 357.837 785.699 352.236L836.795 322.736C846.495 317.136 851.345 314.336 856.14 314.084C860.358 313.863 864.538 314.983 868.08 317.283C872.107 319.899 874.907 324.749 880.508 334.449L932.008 423.65C937.608 433.35 940.408 438.2 940.66 442.995C940.881 447.213 939.761 451.393 937.461 454.935C934.845 458.962 929.995 461.762 920.295 467.363L869.199 496.863C859.499 502.463 854.649 505.263 849.854 505.515C845.636 505.736 841.456 504.616 837.914 502.315C833.887 499.7 831.087 494.85 825.487 485.15L773.987 395.949Z" fill="#C3F5DD"/>
<path d="M658.808 462.451C653.207 452.751 650.407 447.901 650.156 443.106C649.934 438.888 651.054 434.708 653.355 431.166C655.97 427.139 660.82 424.339 670.52 418.738L721.616 389.238C731.316 383.638 736.167 380.837 740.962 380.586C745.179 380.365 749.359 381.485 752.901 383.785C756.928 386.401 759.728 391.251 765.329 400.951L816.829 490.152C822.429 499.852 825.23 504.702 825.481 509.497C825.702 513.715 824.582 517.895 822.282 521.437C819.667 525.464 814.816 528.264 805.116 533.865L754.02 563.365C744.32 568.965 739.47 571.765 734.675 572.017C730.457 572.238 726.278 571.118 722.735 568.817C718.708 566.202 715.908 561.352 710.308 551.652L658.808 462.451Z" fill="#C3F5DD"/>
<path d="M889.167 329.451C883.566 319.751 880.766 314.901 880.514 310.106C880.293 305.888 881.413 301.708 883.714 298.166C886.329 294.139 891.179 291.339 900.879 285.738L951.975 256.238C961.675 250.638 966.525 247.837 971.32 247.586C975.538 247.365 979.718 248.485 983.26 250.785C987.287 253.401 990.087 258.251 995.688 267.951L1047.19 357.152C1052.79 366.852 1055.59 371.702 1055.84 376.497C1056.06 380.715 1054.94 384.895 1052.64 388.437C1050.03 392.464 1045.18 395.264 1035.47 400.865L984.379 430.365C974.679 435.965 969.829 438.765 965.034 439.017C960.816 439.238 956.636 438.118 953.094 435.817C949.067 433.202 946.267 428.352 940.667 418.652L889.167 329.451Z" fill="#C3F5DD"/>
<path d="M596.984 89.373C591.384 79.6726 588.584 74.8224 588.332 70.0274C588.111 65.8096 589.231 61.6301 591.531 58.0879C594.147 54.0609 598.997 51.2607 608.697 45.6602L659.793 16.1602C669.493 10.5596 674.343 7.75937 679.138 7.50807C683.356 7.28703 687.536 8.40692 691.078 10.7073C695.105 13.3224 697.905 18.1726 703.505 27.873L755.005 117.074C760.606 126.774 763.406 131.624 763.658 136.419C763.879 140.637 762.759 144.816 760.458 148.359C757.843 152.386 752.993 155.186 743.293 160.786L692.197 190.286C682.497 195.887 677.647 198.687 672.852 198.938C668.634 199.16 664.454 198.04 660.912 195.739C656.885 193.124 654.085 188.274 648.484 178.574L596.984 89.373Z" fill="#C3F5DD"/>
<path d="M950.987 702.525C945.387 692.825 942.587 687.975 942.335 683.18C942.114 678.962 943.234 674.782 945.534 671.24C948.15 667.213 953 664.413 962.7 658.813L1013.8 629.312C1023.5 623.712 1028.35 620.912 1033.14 620.66C1037.36 620.439 1041.54 621.559 1045.08 623.86C1049.11 626.475 1051.91 631.325 1057.51 641.025L1109.01 730.226C1114.61 739.926 1117.41 744.777 1117.66 749.572C1117.88 753.789 1116.76 757.969 1114.46 761.511C1111.85 765.538 1107 768.338 1097.3 773.939L1046.2 803.439C1036.5 809.039 1031.65 811.84 1026.85 812.091C1022.64 812.312 1018.46 811.192 1014.92 808.892C1010.89 806.277 1008.09 801.426 1002.49 791.726L950.987 702.525Z" fill="#C3F5DD"/>
<path d="M1004.35 262.951C998.754 253.251 995.954 248.401 995.703 243.606C995.482 239.388 996.602 235.208 998.902 231.666C1001.52 227.639 1006.37 224.839 1016.07 219.238L1067.16 189.738C1076.86 184.138 1081.71 181.337 1086.51 181.086C1090.73 180.865 1094.91 181.985 1098.45 184.285C1102.48 186.901 1105.28 191.751 1110.88 201.451L1162.38 290.652C1167.98 300.352 1170.78 305.202 1171.03 309.997C1171.25 314.215 1170.13 318.395 1167.83 321.937C1165.21 325.964 1160.36 328.764 1150.66 334.365L1099.57 363.865C1089.87 369.465 1085.02 372.265 1080.22 372.517C1076 372.738 1071.82 371.618 1068.28 369.317C1064.26 366.702 1061.46 361.852 1055.85 352.152L1004.35 262.951Z" fill="#C3F5DD"/>
<path d="M481.804 155.873C476.204 146.173 473.403 141.322 473.152 136.527C472.931 132.31 474.051 128.13 476.351 124.588C478.966 120.561 483.817 117.761 493.517 112.16L544.613 82.6602C554.313 77.0596 559.163 74.2594 563.958 74.0081C568.176 73.787 572.355 74.9069 575.898 77.2073C579.925 79.8224 582.725 84.6726 588.325 94.373L639.825 183.574C645.426 193.274 648.226 198.124 648.477 202.919C648.698 207.137 647.579 211.316 645.278 214.859C642.663 218.886 637.813 221.686 628.113 227.286L577.017 256.786C567.317 262.387 562.466 265.187 557.671 265.438C553.454 265.66 549.274 264.54 545.732 262.239C541.705 259.624 538.905 254.774 533.304 245.074L481.804 155.873Z" fill="#C3F5DD"/>
<path d="M685.484 242.66C679.883 232.96 677.083 228.109 676.832 223.314C676.611 219.097 677.731 214.917 680.031 211.375C682.646 207.348 687.496 204.548 697.197 198.947L748.292 169.447C757.993 163.847 762.843 161.046 767.638 160.795C771.856 160.574 776.035 161.694 779.577 163.994C783.604 166.609 786.404 171.46 792.005 181.16L843.505 270.361C849.106 280.061 851.906 284.911 852.157 289.706C852.378 293.924 851.258 298.104 848.958 301.646C846.343 305.673 841.493 308.473 831.792 314.074L780.697 343.574C770.996 349.174 766.146 351.974 761.351 352.226C757.133 352.447 752.954 351.327 749.412 349.026C745.385 346.411 742.584 341.561 736.984 331.861L685.484 242.66Z" fill="#C3F5DD"/>
<path d="M712.165 22.8749C706.564 13.1745 703.764 8.32433 703.512 3.52934C703.291 -0.68846 704.411 -4.86797 706.712 -8.41016C709.327 -12.4371 714.177 -15.2374 723.877 -20.8379L774.973 -50.3379C784.673 -55.9384 789.523 -58.7387 794.318 -58.99C798.536 -59.211 802.716 -58.0911 806.258 -55.7908C810.285 -53.1757 813.085 -48.3255 818.686 -38.6251L870.186 50.5755C875.786 60.2759 878.586 65.1261 878.838 69.9211C879.059 74.1389 877.939 78.3184 875.639 81.8606C873.023 85.8876 868.173 88.6878 858.473 94.2883L807.377 123.788C797.677 129.389 792.827 132.189 788.032 132.44C783.814 132.661 779.634 131.542 776.092 129.241C772.065 126.626 769.265 121.776 763.665 112.076L712.165 22.8749Z" fill="#C3F5DD"/>
<path d="M1066.17 636.025C1060.57 626.325 1057.77 621.475 1057.52 616.68C1057.29 612.462 1058.41 608.282 1060.71 604.74C1063.33 600.713 1068.18 597.913 1077.88 592.313L1128.98 562.812C1138.68 557.212 1143.53 554.412 1148.32 554.16C1152.54 553.939 1156.72 555.059 1160.26 557.36C1164.29 559.975 1167.09 564.825 1172.69 574.525L1224.19 663.726C1229.79 673.426 1232.59 678.277 1232.84 683.072C1233.06 687.289 1231.94 691.469 1229.64 695.011C1227.03 699.038 1222.18 701.838 1212.48 707.439L1161.38 736.939C1151.68 742.539 1146.83 745.34 1142.03 745.591C1137.82 745.812 1133.64 744.692 1130.1 742.392C1126.07 739.777 1123.27 734.926 1117.67 725.226L1066.17 636.025Z" fill="#C3F5DD"/>
<path d="M827.352 -43.627C821.751 -53.3274 818.951 -58.1776 818.699 -62.9726C818.478 -67.1904 819.598 -71.3699 821.899 -74.9121C824.514 -78.9391 829.364 -81.7393 839.064 -87.3398L890.16 -116.84C899.86 -122.44 904.71 -125.241 909.505 -125.492C913.723 -125.713 917.903 -124.593 921.445 -122.293C925.472 -119.678 928.272 -114.827 933.873 -105.127L985.373 -15.9264C990.973 -6.22602 993.773 -1.37583 994.025 3.41917C994.246 7.63697 993.126 11.8165 990.826 15.3587C988.21 19.3856 983.36 22.1859 973.66 27.7864L922.564 57.2864C912.864 62.8869 908.014 65.6872 903.219 65.9385C899.001 66.1595 894.821 65.0396 891.279 62.7393C887.252 60.1242 884.452 55.274 878.852 45.5736L827.352 -43.627Z" fill="#C3F5DD"/>
<path d="M942.532 -110.129C936.931 -119.829 934.131 -124.68 933.88 -129.475C933.659 -133.692 934.779 -137.872 937.079 -141.414C939.694 -145.441 944.544 -148.241 954.245 -153.842L1005.34 -183.342C1015.04 -188.942 1019.89 -191.743 1024.69 -191.994C1028.9 -192.215 1033.08 -191.095 1036.63 -188.795C1040.65 -186.18 1043.45 -181.329 1049.05 -171.629L1100.55 -82.4284C1106.15 -72.728 1108.95 -67.8778 1109.2 -63.0828C1109.43 -58.865 1108.31 -54.6855 1106.01 -51.1433C1103.39 -47.1163 1098.54 -44.3161 1088.84 -38.7156L1037.74 -9.21556C1028.04 -3.61503 1023.19 -0.814769 1018.4 -0.563474C1014.18 -0.342429 1010 -1.46232 1006.46 -3.76265C1002.43 -6.37778 999.632 -11.228 994.032 -20.9284L942.532 -110.129Z" fill="#C3F5DD"/>
<path d="M570.305 309.162C564.704 299.462 561.904 294.611 561.653 289.816C561.432 285.599 562.551 281.419 564.852 277.877C567.467 273.85 572.317 271.05 582.017 265.449L633.113 235.949C642.813 230.349 647.664 227.548 652.459 227.297C656.676 227.076 660.856 228.196 664.398 230.496C668.425 233.111 671.225 237.962 676.826 247.662L728.326 336.863C733.926 346.563 736.727 351.413 736.978 356.208C737.199 360.426 736.079 364.606 733.779 368.148C731.164 372.175 726.313 374.975 716.613 380.575L665.517 410.075C655.817 415.676 650.967 418.476 646.172 418.728C641.954 418.949 637.775 417.829 634.232 415.528C630.205 412.913 627.405 408.063 621.805 398.363L570.305 309.162Z" fill="#C3F5DD"/>
<path d="M800.664 176.16C795.063 166.46 792.263 161.609 792.012 156.814C791.791 152.597 792.911 148.417 795.211 144.875C797.826 140.848 802.676 138.048 812.377 132.447L863.472 102.947C873.173 97.3467 878.023 94.5465 882.818 94.2952C887.036 94.0741 891.215 95.194 894.757 97.4944C898.784 100.109 901.584 104.96 907.185 114.66L958.685 203.861C964.285 213.561 967.086 218.411 967.337 223.206C967.558 227.424 966.438 231.604 964.138 235.146C961.523 239.173 956.673 241.973 946.972 247.574L895.877 277.074C886.176 282.674 881.326 285.474 876.531 285.726C872.313 285.947 868.134 284.827 864.592 282.526C860.565 279.911 857.764 275.061 852.164 265.361L800.664 176.16Z" fill="#C3F5DD"/>
<path d="M915.851 109.66C910.251 99.9597 907.45 95.1095 907.199 90.3145C906.978 86.0967 908.098 81.9172 910.398 78.375C913.013 74.3481 917.863 71.5478 927.564 65.9473L978.659 36.4473C988.36 30.8467 993.21 28.0465 998.005 27.7952C1002.22 27.5741 1006.4 28.694 1009.94 30.9944C1013.97 33.6095 1016.77 38.4597 1022.37 48.1601L1073.87 137.361C1079.47 147.061 1082.27 151.911 1082.52 156.706C1082.75 160.924 1081.63 165.104 1079.33 168.646C1076.71 172.673 1071.86 175.473 1062.16 181.074L1011.06 210.574C1001.36 216.174 996.513 218.974 991.718 219.226C987.501 219.447 983.321 218.327 979.779 216.026C975.752 213.411 972.952 208.561 967.351 198.861L915.851 109.66Z" fill="#C3F5DD"/>
<path d="M1031.03 43.1601C1025.43 33.4597 1022.63 28.6095 1022.38 23.8145C1022.16 19.5967 1023.28 15.4172 1025.58 11.875C1028.19 7.84805 1033.04 5.04779 1042.74 -0.552734L1093.84 -30.0527C1103.54 -35.6533 1108.39 -38.4535 1113.18 -38.7048C1117.4 -38.9259 1121.58 -37.806 1125.12 -35.5056C1129.15 -32.8905 1131.95 -28.0403 1137.55 -18.3399L1189.05 70.8607C1194.65 80.5611 1197.45 85.4113 1197.7 90.2063C1197.93 94.4241 1196.81 98.6036 1194.5 102.146C1191.89 106.173 1187.04 108.973 1177.34 114.574L1126.24 144.074C1116.54 149.674 1111.69 152.474 1106.9 152.726C1102.68 152.947 1098.5 151.827 1094.96 149.526C1090.93 146.911 1088.13 142.061 1082.53 132.361L1031.03 43.1601Z" fill="#C3F5DD"/>
</g>
<defs>
<clipPath id="clip0_2111_8488">
<rect width="1072" height="646" fill="white"/>
</clipPath>
</defs>
</svg>
