<?xml version="1.0" encoding="utf-8"?>
<!-- Generator: Adobe Illustrator 16.0.0, SVG Export Plug-In . SVG Version: 6.00 Build 0)  -->
<!DOCTYPE svg PUBLIC "-//W3C//DTD SVG 1.1//EN" "http://www.w3.org/Graphics/SVG/1.1/DTD/svg11.dtd">
<svg version="1.1" id="Layer_1" xmlns="http://www.w3.org/2000/svg" xmlns:xlink="http://www.w3.org/1999/xlink" x="0px" y="0px"
	 width="445.109px" height="445.609px" viewBox="0 0 445.109 445.609" enable-background="new 0 0 445.109 445.609"
	 xml:space="preserve">
<path fill="#9265AB" d="M435.187,385.773L272.197,222.784L435.145,59.837c13.232-13.232,13.231-34.685,0-47.917l-1.997-1.997
	c-13.231-13.232-34.685-13.232-47.916,0L222.284,172.871L59.878,10.465c-13.232-13.232-34.686-13.231-47.917,0l-1.997,1.997
	c-13.231,13.231-13.232,34.685,0,47.917l162.406,162.406L9.923,385.231c-13.231,13.231-13.231,34.685,0,47.916l1.997,1.997
	c13.232,13.231,34.686,13.231,47.917,0.001l162.448-162.448l162.989,162.989c13.23,13.23,34.684,13.23,47.915-0.001l1.997-1.997
	C448.417,420.457,448.417,399.004,435.187,385.773z"/>
</svg>
