<?xml version="1.0" encoding="UTF-8"?>
<svg width="36px" height="38px" viewBox="0 0 36 38" version="1.1" xmlns="http://www.w3.org/2000/svg" xmlns:xlink="http://www.w3.org/1999/xlink">
    <!-- Generator: Sketch 42 (36781) - http://www.bohemiancoding.com/sketch -->
    <title>Combined Shape</title>
    <desc>Created with Sketch.</desc>
    <defs>
        <path d="M60.3382497,57.6910411 C59.2565001,57.8939036 58.1406401,58 57,58 C55.8593599,58 54.7434999,57.8939036 53.6617503,57.6910411 C52.6708582,54.3984331 49.6155211,52 46,52 C45.2553801,52 44.5345208,52.1017314 43.8505627,52.2920537 C42.5407127,50.8914262 41.4520311,49.2813688 40.6401987,47.5175624 C42.673927,46.0670411 44,43.688381 44,41 C44,38.0387216 42.3910436,35.4532352 39.9996392,34.0700488 C40.6106769,32.3181223 41.4848738,30.6895771 42.5748723,29.2317708 C43.6131456,29.7243915 44.7743869,30 46,30 C50.3348012,30 53.8643587,26.5523421 53.9961829,22.2495161 C54.9730112,22.0854188 55.9765303,22 57,22 C58.0234697,22 59.0269888,22.0854188 60.0038171,22.2495161 C60.1356413,26.5523421 63.6651988,30 68,30 C69.2256131,30 70.3868544,29.7243915 71.4251277,29.2317708 C72.5151262,30.6895771 73.3893231,32.3181223 74.0003608,34.0700488 C71.6089564,35.4532352 70,38.0387216 70,41 C70,43.688381 71.326073,46.0670411 73.3598013,47.5175624 C72.5479689,49.2813688 71.4592873,50.8914262 70.1494373,52.2920537 C69.4654792,52.1017314 68.7446199,52 68,52 C64.3844789,52 61.3291418,54.3984331 60.3382464,57.6910417 Z M57,48 C61.418278,48 65,44.418278 65,40 C65,35.581722 61.418278,32 57,32 C52.581722,32 49,35.581722 49,40 C49,44.418278 52.581722,48 57,48 Z" id="path-1"></path>
        <mask id="mask-2" maskContentUnits="userSpaceOnUse" maskUnits="objectBoundingBox" x="-1" y="-1" width="36" height="38">
            <rect x="39" y="21" width="36" height="38" fill="white"></rect>
            <use xlink:href="#path-1" fill="black"></use>
        </mask>
    </defs>
    <g id="Icons" stroke="none" stroke-width="1" fill="none" fill-rule="evenodd" stroke-linecap="round" stroke-linejoin="round">
        <g id="iCloudIcon" transform="translate(-39.000000, -21.000000)" stroke="#FFFFFF" stroke-width="2">
            <use id="Combined-Shape" mask="url(#mask-2)" xlink:href="#path-1"></use>
        </g>
    </g>
</svg>