<?xml version="1.0" encoding="UTF-8"?>
<svg width="39px" height="39px" viewBox="0 0 39 39" version="1.1" xmlns="http://www.w3.org/2000/svg" xmlns:xlink="http://www.w3.org/1999/xlink">
    <!-- Generator: Sketch 42 (36781) - http://www.bohemiancoding.com/sketch -->
    <title>Group 6</title>
    <desc>Created with Sketch.</desc>
    <defs>
        <rect id="path-1" x="0" y="0" width="25" height="25" rx="4"></rect>
        <mask id="mask-2" maskContentUnits="userSpaceOnUse" maskUnits="objectBoundingBox" x="0" y="0" width="25" height="25" fill="white">
            <use xlink:href="#path-1"></use>
        </mask>
    </defs>
    <g id="Icons" stroke="none" stroke-width="1" fill="none" fill-rule="evenodd">
        <g id="iCloudIcon" transform="translate(-33.000000, -21.000000)" stroke="#FFFFFF">
            <g id="Group-6" transform="translate(33.000000, 21.000000)">
                <g id="Group-5" transform="translate(7.000000, 7.000000)" stroke-width="2">
                    <use id="Rectangle-15" mask="url(#mask-2)" xlink:href="#path-1"></use>
                </g>
                <path d="M7.5,4.5 L7.5,0.5" id="Line" stroke-linecap="square"></path>
                <path d="M31.5,4.5 L31.5,0.5" id="Line" stroke-linecap="square"></path>
                <path d="M7.5,38.5 L7.5,34.5" id="Line" stroke-linecap="square"></path>
                <path d="M2.5,9.5 L2.5,5.5" id="Line" stroke-linecap="square" transform="translate(2.500000, 7.500000) rotate(-90.000000) translate(-2.500000, -7.500000) "></path>
                <path d="M36.5,9.5 L36.5,5.5" id="Line" stroke-linecap="square" transform="translate(36.500000, 7.500000) rotate(-90.000000) translate(-36.500000, -7.500000) "></path>
                <path d="M2.5,33.5 L2.5,29.5" id="Line" stroke-linecap="square" transform="translate(2.500000, 31.500000) rotate(-90.000000) translate(-2.500000, -31.500000) "></path>
                <path d="M36.5,33.5 L36.5,29.5" id="Line" stroke-linecap="square" transform="translate(36.500000, 31.500000) rotate(-90.000000) translate(-36.500000, -31.500000) "></path>
                <path d="M31.5,38.5 L31.5,34.5" id="Line" stroke-linecap="square"></path>
            </g>
        </g>
    </g>
</svg>