<?xml version="1.0" encoding="UTF-8"?>
<svg width="112px" height="36px" viewBox="0 0 112 36" version="1.1" xmlns="http://www.w3.org/2000/svg" xmlns:xlink="http://www.w3.org/1999/xlink">
    <!-- Generator: Sketch 43.1 (39012) - http://www.bohemiancoding.com/sketch -->
    <title>Group</title>
    <desc>Created with Sketch.</desc>
    <defs>
        <rect id="path-1" x="0" y="0" width="64" height="38"></rect>
    </defs>
    <g id="Page-1" stroke="none" stroke-width="1" fill="none" fill-rule="evenodd">
        <g id="Desktop-HD-Copy-14" transform="translate(-1270.000000, -34.000000)">
            <g id="Group" transform="translate(1270.000000, 29.000000)">
                <path d="M0.5,20.0008642 C0.5,19.1708662 1.17077847,18.5 2.00276013,18.5 L10.9972399,18.5 C11.8250686,18.5 12.5,19.1756449 12.5,20.0008642 L12.5,38.9991358 C12.5,39.8291338 11.8292215,40.5 10.9972399,40.5 L2.00276013,40.5 C1.17493139,40.5 0.5,39.8243551 0.5,38.9991358 L0.5,20.0008642 Z" id="Rectangle-15" stroke="#FFFFFF"></path>
                <rect id="Rectangle-15" stroke="#FFFFFF" x="0.5" y="21.5" width="12" height="15"></rect>
                <rect id="Rectangle-15" stroke="#FFFFFF" x="19.5" y="14.5" width="22" height="22"></rect>
                <path d="M19.5,11.9982138 C19.5,11.1731464 20.1753911,10.5 21.0008642,10.5 L39.9991358,10.5 C40.8283012,10.5 41.5,11.1707411 41.5,11.9982138 L41.5,39.0017862 C41.5,39.8268536 40.8246089,40.5 39.9991358,40.5 L21.0008642,40.5 C20.1716988,40.5 19.5,39.8292589 19.5,39.0017862 L19.5,11.9982138 Z" id="Rectangle-15" stroke="#FFFFFF"></path>
                <g id="Rectangle-15-+-Rectangle-15-Mask" transform="translate(47.000000, 0.000000)">
                    <mask id="mask-2" fill="white">
                        <use xlink:href="#path-1"></use>
                    </mask>
                    <g id="Mask"></g>
                    <rect id="Rectangle-15" stroke="#FFFFFF" mask="url(#mask-2)" x="7.5" y="10.5" width="47" height="29"></rect>
                    <rect id="Rectangle-15" stroke="#FFFFFF" mask="url(#mask-2)" x="3.5" y="5.5" width="55" height="35" rx="4"></rect>
                </g>
                <path d="M45.5,38.5 L111.5,38.5 L111.5,39.5 C111.5,40.0549641 111.058063,40.5 110.506671,40.5 L46.4933292,40.5 C45.9429385,40.5 45.5,40.0562662 45.5,39.5 L45.5,38.5 Z" id="Rectangle-15" stroke="#FFFFFF"></path>
            </g>
        </g>
    </g>
</svg>