<svg width="480" height="228" viewBox="0 0 480 228" fill="none" xmlns="http://www.w3.org/2000/svg">
<path d="M46.1553 215.344L50.6684 210.673C54.6148 206.588 61.1252 206.477 65.2097 210.423L69.8806 214.936L65.3675 219.607C61.421 223.691 54.9106 223.803 50.8262 219.857L46.1553 215.344Z" fill="#ECE2C8"/>
<path d="M70.2251 190.432L65.712 195.103C61.7655 199.188 61.8774 205.698 65.9619 209.645L70.6328 214.158L75.1458 209.487C79.0923 205.402 78.9805 198.892 74.896 194.945L70.2251 190.432Z" fill="#ECE2C8"/>
<path d="M32.9678 200.17L37.8986 195.942C42.2103 192.245 48.7025 192.744 52.3993 197.056L56.6269 201.986L51.6962 206.214C47.3844 209.911 40.8922 209.412 37.1954 205.101L32.9678 200.17Z" fill="#ECE2C8"/>
<path d="M59.2653 177.623L54.3345 181.85C50.0228 185.547 49.5243 192.039 53.2211 196.351L57.4487 201.282L62.3795 197.054C66.6912 193.357 67.1897 186.865 63.4929 182.553L59.2653 177.623Z" fill="#ECE2C8"/>
<path d="M21.2949 182.65L26.7287 179.092C31.4803 175.981 37.8544 177.311 40.9657 182.063L44.5236 187.496L39.0898 191.054C34.3382 194.166 27.9641 192.836 24.8529 188.084L21.2949 182.65Z" fill="#ECE2C8"/>
<path d="M50.2753 163.675L44.8414 167.233C40.0898 170.344 38.7601 176.718 41.8713 181.47L45.4293 186.903L50.8631 183.345C55.6147 180.234 56.9444 173.86 53.8332 169.109L50.2753 163.675Z" fill="#ECE2C8"/>
<path d="M0.523438 119.736L6.94437 118.758C12.5592 117.903 17.8043 121.761 18.6596 127.376L19.6378 133.797L13.2169 134.775C7.60208 135.63 2.35698 131.772 1.50161 126.157L0.523438 119.736Z" fill="#ECE2C8"/>
<path d="M34.7684 114.519L28.3475 115.498C22.7327 116.353 18.8744 121.598 19.7298 127.213L20.708 133.634L27.1289 132.656C32.7437 131.8 36.602 126.555 35.7466 120.94L34.7684 114.519Z" fill="#ECE2C8"/>
<path d="M11.7236 162.961L17.6064 160.208C22.7507 157.801 28.8723 160.02 31.2795 165.164L34.0323 171.047L28.1495 173.8C23.0052 176.207 16.8836 173.988 14.4764 168.844L11.7236 162.961Z" fill="#ECE2C8"/>
<path d="M43.0986 148.279L37.2158 151.032C32.0716 153.439 29.8528 159.561 32.2599 164.705L35.0127 170.588L40.8955 167.835C46.0398 165.428 48.2586 159.306 45.8514 154.162L43.0986 148.279Z" fill="#ECE2C8"/>
<path d="M0 97.8418L6.49475 97.7825C12.1741 97.7307 16.8201 102.293 16.8719 107.972L16.9312 114.467L10.4364 114.526C4.75709 114.578 0.111069 110.016 0.0592542 104.337L0 97.8418Z" fill="#ECE2C8"/>
<path d="M34.6387 97.5258L28.1439 97.585C22.4646 97.6368 17.9026 102.283 17.9544 107.962L18.0136 114.457L24.5084 114.398C30.1877 114.346 34.7497 109.7 34.6979 104.021L34.6387 97.5258Z" fill="#ECE2C8"/>
<path d="M4.88184 141.994L11.1007 140.121C16.5389 138.482 22.2755 141.562 23.9139 147.001L25.7876 153.219L19.5687 155.093C14.1305 156.731 8.39387 153.651 6.75547 148.213L4.88184 141.994Z" fill="#ECE2C8"/>
<path d="M38.0493 132.001L31.8304 133.875C26.3923 135.513 23.312 141.25 24.9504 146.688L26.824 152.907L33.0429 151.034C38.4811 149.395 41.5614 143.658 39.923 138.22L38.0493 132.001Z" fill="#ECE2C8"/>
<path d="M2.4873 75.9316L8.92242 76.8117C14.5496 77.5813 18.4875 82.7669 17.7179 88.3941L16.8379 94.8292L10.4027 93.9491C4.77554 93.1796 0.837663 87.994 1.60724 82.3668L2.4873 75.9316Z" fill="#ECE2C8"/>
<path d="M36.8079 80.6253L30.3728 79.7453C24.7456 78.9757 19.56 82.9136 18.7904 88.5408L17.9104 94.9759L24.3455 95.8559C29.9727 96.6255 35.1583 92.6876 35.9279 87.0604L36.8079 80.6253Z" fill="#ECE2C8"/>
<path d="M10.5703 52.4121L16.65 54.6973C21.9664 56.6957 24.6563 62.6254 22.658 67.9418L20.3727 74.0216L14.293 71.7363C8.97661 69.738 6.28676 63.8082 8.28508 58.4918L10.5703 52.4121Z" fill="#ECE2C8"/>
<path d="M42.9955 64.6L36.9158 62.3148C31.5993 60.3164 25.6696 63.0063 23.6713 68.3227L21.386 74.4024L27.4658 76.6877C32.7822 78.686 38.7119 75.9961 40.7103 70.6797L42.9955 64.6Z" fill="#ECE2C8"/>
<path d="M19.2568 34.2812L25.0958 37.1259C30.2016 39.6135 32.3242 45.7691 29.8367 50.875L26.992 56.7139L21.153 53.8692C16.0472 51.3817 13.9246 45.226 16.4122 40.1202L19.2568 34.2812Z" fill="#ECE2C8"/>
<path d="M50.3978 49.4529L44.5588 46.6082C39.453 44.1207 33.2973 46.2432 30.8098 51.3491L27.9651 57.188L33.8041 60.0327C38.9099 62.5202 45.0656 60.3977 47.5531 55.2918L50.3978 49.4529Z" fill="#ECE2C8"/>
<path d="M30.6895 16.6113L36.1138 20.1837C40.8571 23.3076 42.1698 29.6852 39.0459 34.4285L35.4735 39.8529L30.0492 36.2804C25.3059 33.1566 23.9932 26.7789 27.117 22.0356L30.6895 16.6113Z" fill="#ECE2C8"/>
<path d="M59.6191 35.6642L54.1948 32.0918C49.4515 28.9679 43.0739 30.2806 39.95 35.0239L36.3776 40.4483L41.8019 44.0207C46.5452 47.1446 52.9228 45.8318 56.0467 41.0885L59.6191 35.6642Z" fill="#ECE2C8"/>
<path d="M44.957 0L49.8209 4.30439C54.0742 8.06836 54.4708 14.5676 50.7068 18.8208L46.4024 23.6847L41.5385 19.3803C37.2853 15.6164 36.8887 9.11714 40.6526 4.8639L44.957 0Z" fill="#ECE2C8"/>
<path d="M70.8978 22.9567L66.0339 18.6524C61.7807 14.8884 55.2814 15.285 51.5175 19.5382L47.2131 24.4021L52.077 28.7065C56.3302 32.4705 62.8295 32.0739 66.5934 27.8206L70.8978 22.9567Z" fill="#ECE2C8"/>
<path d="M151.96 103.425H149.432L159.224 80.7694H161.464L171.192 103.425H168.632L166.136 97.4734H154.424L151.96 103.425ZM155.288 95.3614H165.272L160.28 83.3294L155.288 95.3614Z" fill="black" fill-opacity="0.5"/>
<path d="M176.446 80.7694H182.846C183.998 80.7694 185.043 80.8974 185.982 81.1534C186.921 81.388 187.721 81.7614 188.382 82.2734C189.065 82.764 189.587 83.3934 189.95 84.1614C190.313 84.908 190.494 85.7934 190.494 86.8174C190.494 87.8414 190.302 88.7374 189.918 89.5054C189.555 90.252 189.033 90.8814 188.35 91.3934C187.689 91.884 186.878 92.2574 185.918 92.5134C184.979 92.7694 183.934 92.8974 182.782 92.8974H178.75V103.425H176.446V80.7694ZM178.75 90.9454H182.654C184.467 90.9454 185.843 90.5934 186.782 89.8894C187.721 89.1854 188.19 88.1614 188.19 86.8174C188.19 85.4094 187.699 84.3854 186.718 83.7454C185.758 83.084 184.403 82.7534 182.654 82.7534H178.75V90.9454Z" fill="black" fill-opacity="0.5"/>
<path d="M196.928 80.7694H203.328C204.48 80.7694 205.526 80.8974 206.464 81.1534C207.403 81.388 208.203 81.7614 208.864 82.2734C209.547 82.764 210.07 83.3934 210.432 84.1614C210.795 84.908 210.976 85.7934 210.976 86.8174C210.976 87.8414 210.784 88.7374 210.4 89.5054C210.038 90.252 209.515 90.8814 208.832 91.3934C208.171 91.884 207.36 92.2574 206.4 92.5134C205.462 92.7694 204.416 92.8974 203.264 92.8974H199.232V103.425H196.928V80.7694ZM199.232 90.9454H203.136C204.95 90.9454 206.326 90.5934 207.264 89.8894C208.203 89.1854 208.672 88.1614 208.672 86.8174C208.672 85.4094 208.182 84.3854 207.2 83.7454C206.24 83.084 204.886 82.7534 203.136 82.7534H199.232V90.9454Z" fill="black" fill-opacity="0.5"/>
<path d="M238.307 84.4174C237.816 83.7347 237.187 83.1907 236.419 82.7854C235.651 82.3587 234.723 82.1454 233.635 82.1454C233.08 82.1454 232.515 82.2307 231.939 82.4014C231.363 82.572 230.84 82.8387 230.371 83.2014C229.902 83.5427 229.518 83.98 229.219 84.5134C228.942 85.0467 228.803 85.676 228.803 86.4014C228.803 87.1267 228.942 87.724 229.219 88.1934C229.496 88.6627 229.859 89.068 230.307 89.4094C230.776 89.7294 231.299 89.996 231.875 90.2094C232.472 90.4227 233.091 90.636 233.731 90.8494C234.52 91.1054 235.31 91.3827 236.099 91.6814C236.91 91.98 237.635 92.3747 238.275 92.8654C238.915 93.3347 239.438 93.9427 239.843 94.6894C240.248 95.4147 240.451 96.3427 240.451 97.4734C240.451 98.604 240.227 99.5854 239.779 100.417C239.352 101.228 238.787 101.9 238.083 102.433C237.4 102.967 236.611 103.361 235.715 103.617C234.84 103.873 233.955 104.001 233.059 104.001C232.376 104.001 231.694 103.927 231.011 103.777C230.328 103.649 229.678 103.447 229.059 103.169C228.44 102.892 227.864 102.54 227.331 102.113C226.798 101.687 226.328 101.196 225.923 100.641L227.907 99.1694C228.398 99.98 229.08 100.663 229.955 101.217C230.851 101.751 231.896 102.017 233.091 102.017C233.667 102.017 234.254 101.932 234.851 101.761C235.448 101.569 235.982 101.292 236.451 100.929C236.942 100.545 237.336 100.087 237.635 99.5534C237.955 98.9987 238.115 98.3587 238.115 97.6334C238.115 96.844 237.955 96.1934 237.635 95.6814C237.336 95.148 236.931 94.7107 236.419 94.3694C235.907 94.0067 235.32 93.708 234.659 93.4734C233.998 93.2387 233.304 93.004 232.579 92.7694C231.832 92.5347 231.096 92.268 230.371 91.9694C229.646 91.6707 228.995 91.2867 228.419 90.8174C227.843 90.3267 227.374 89.7294 227.011 89.0254C226.67 88.3214 226.499 87.4574 226.499 86.4334C226.499 85.3454 226.712 84.4067 227.139 83.6174C227.587 82.828 228.163 82.1774 228.867 81.6654C229.571 81.1534 230.35 80.78 231.203 80.5454C232.056 80.3107 232.899 80.1934 233.731 80.1934C235.267 80.1934 236.579 80.4707 237.667 81.0254C238.755 81.5587 239.576 82.1987 240.131 82.9454L238.307 84.4174Z" fill="black" fill-opacity="0.5"/>
<path d="M254.015 103.425H251.711V82.8174H244.127V80.7694H261.599V82.8174H254.015V103.425Z" fill="black" fill-opacity="0.5"/>
<path d="M288.352 92.0974C288.352 93.8254 288.053 95.4147 287.456 96.8654C286.859 98.316 286.027 99.5747 284.96 100.641C283.915 101.687 282.667 102.508 281.216 103.105C279.787 103.703 278.229 104.001 276.544 104.001C274.859 104.001 273.291 103.703 271.84 103.105C270.411 102.508 269.163 101.687 268.096 100.641C267.051 99.5747 266.229 98.316 265.632 96.8654C265.035 95.4147 264.736 93.8254 264.736 92.0974C264.736 90.3694 265.035 88.78 265.632 87.3294C266.229 85.8787 267.051 84.6307 268.096 83.5854C269.163 82.5187 270.411 81.6867 271.84 81.0894C273.291 80.492 274.859 80.1934 276.544 80.1934C278.229 80.1934 279.787 80.492 281.216 81.0894C282.667 81.6867 283.915 82.5187 284.96 83.5854C286.027 84.6307 286.859 85.8787 287.456 87.3294C288.053 88.78 288.352 90.3694 288.352 92.0974ZM285.92 92.0974C285.92 90.7747 285.707 89.516 285.28 88.3214C284.853 87.1267 284.235 86.0814 283.424 85.1854C282.613 84.268 281.621 83.5427 280.448 83.0094C279.296 82.476 277.995 82.2094 276.544 82.2094C275.093 82.2094 273.781 82.476 272.608 83.0094C271.456 83.5427 270.475 84.268 269.664 85.1854C268.853 86.0814 268.235 87.1267 267.808 88.3214C267.381 89.516 267.168 90.7747 267.168 92.0974C267.168 93.42 267.381 94.6787 267.808 95.8734C268.235 97.068 268.853 98.1134 269.664 99.0094C270.475 99.9054 271.456 100.62 272.608 101.153C273.781 101.687 275.093 101.953 276.544 101.953C277.995 101.953 279.296 101.687 280.448 101.153C281.621 100.62 282.613 99.9054 283.424 99.0094C284.235 98.1134 284.853 97.068 285.28 95.8734C285.707 94.6787 285.92 93.42 285.92 92.0974Z" fill="black" fill-opacity="0.5"/>
<path d="M297.364 103.425H295.06V80.7694H301.716C302.825 80.7694 303.849 80.876 304.788 81.0894C305.748 81.3027 306.569 81.6547 307.252 82.1454C307.956 82.6147 308.5 83.2334 308.884 84.0014C309.268 84.7694 309.46 85.708 309.46 86.8174C309.46 87.6494 309.31 88.4067 309.012 89.0894C308.713 89.772 308.308 90.3694 307.796 90.8814C307.284 91.372 306.676 91.7667 305.972 92.0654C305.268 92.364 304.5 92.556 303.668 92.6414L310.292 103.425H307.476L301.204 92.8334H297.364V103.425ZM297.364 90.8494H301.364C303.22 90.8494 304.649 90.5187 305.652 89.8574C306.654 89.1747 307.156 88.1614 307.156 86.8174C307.156 86.0707 307.017 85.4414 306.74 84.9294C306.462 84.4174 306.078 84.0014 305.588 83.6814C305.097 83.3614 304.5 83.1267 303.796 82.9774C303.092 82.828 302.313 82.7534 301.46 82.7534H297.364V90.8494Z" fill="black" fill-opacity="0.5"/>
<path d="M318.44 101.377H330.568V103.425H316.136V80.7694H330.184V82.8174H318.44V90.6254H329.416V92.6414H318.44V101.377Z" fill="black" fill-opacity="0.5"/>
<path d="M106.875 118.578H115.707C116.56 118.578 117.403 118.685 118.235 118.898C119.067 119.09 119.803 119.421 120.443 119.89C121.104 120.338 121.638 120.925 122.043 121.65C122.448 122.375 122.651 123.25 122.651 124.274C122.651 125.554 122.288 126.61 121.563 127.442C120.838 128.274 119.888 128.871 118.715 129.234V129.298C120.144 129.49 121.318 130.045 122.235 130.962C123.152 131.879 123.611 133.106 123.611 134.642C123.611 135.879 123.366 136.925 122.875 137.778C122.384 138.61 121.734 139.282 120.923 139.794C120.134 140.306 119.216 140.679 118.171 140.914C117.147 141.127 116.102 141.234 115.035 141.234H106.875V118.578ZM110.907 127.794H114.491C115.835 127.794 116.859 127.527 117.563 126.994C118.267 126.461 118.619 125.703 118.619 124.722C118.619 123.698 118.256 122.973 117.531 122.546C116.806 122.119 115.675 121.906 114.139 121.906H110.907V127.794ZM110.907 137.842H114.523C115.035 137.842 115.59 137.81 116.187 137.746C116.784 137.661 117.328 137.501 117.819 137.266C118.331 137.031 118.747 136.69 119.067 136.242C119.408 135.794 119.579 135.197 119.579 134.45C119.579 133.255 119.174 132.423 118.363 131.954C117.552 131.485 116.326 131.25 114.683 131.25H110.907V137.842Z" fill="black"/>
<path d="M129.514 118.578H144.522V122.098H133.546V127.858H143.946V131.25H133.546V137.65H145.098V141.234H129.514V118.578Z" fill="black"/>
<path d="M162.517 123.314C162.09 122.759 161.482 122.301 160.693 121.938C159.925 121.554 159.146 121.362 158.357 121.362C157.888 121.362 157.418 121.426 156.949 121.554C156.48 121.661 156.053 121.842 155.669 122.098C155.285 122.333 154.965 122.653 154.709 123.058C154.474 123.442 154.357 123.911 154.357 124.466C154.357 124.978 154.464 125.415 154.677 125.778C154.89 126.141 155.178 126.45 155.541 126.706C155.925 126.962 156.384 127.186 156.917 127.378C157.45 127.57 158.037 127.762 158.677 127.954C159.402 128.189 160.149 128.455 160.917 128.754C161.706 129.053 162.421 129.447 163.061 129.938C163.722 130.429 164.256 131.047 164.661 131.794C165.088 132.541 165.301 133.469 165.301 134.578C165.301 135.794 165.077 136.861 164.629 137.778C164.181 138.674 163.584 139.421 162.837 140.018C162.09 140.615 161.216 141.063 160.213 141.362C159.21 141.661 158.154 141.81 157.045 141.81C155.573 141.81 154.133 141.543 152.725 141.01C151.317 140.455 150.165 139.645 149.269 138.578L152.149 135.89C152.704 136.658 153.44 137.266 154.357 137.714C155.296 138.162 156.213 138.386 157.109 138.386C157.578 138.386 158.058 138.333 158.549 138.226C159.04 138.098 159.477 137.895 159.861 137.618C160.266 137.341 160.586 136.999 160.821 136.594C161.077 136.167 161.205 135.645 161.205 135.026C161.205 134.429 161.066 133.938 160.789 133.554C160.512 133.149 160.138 132.807 159.669 132.53C159.2 132.231 158.645 131.975 158.005 131.762C157.365 131.549 156.693 131.325 155.989 131.09C155.306 130.877 154.624 130.621 153.941 130.322C153.258 130.023 152.64 129.629 152.085 129.138C151.552 128.647 151.114 128.05 150.773 127.346C150.432 126.621 150.261 125.725 150.261 124.658C150.261 123.506 150.496 122.514 150.965 121.682C151.456 120.85 152.085 120.167 152.853 119.634C153.642 119.079 154.528 118.674 155.509 118.418C156.512 118.141 157.525 118.002 158.549 118.002C159.701 118.002 160.864 118.205 162.037 118.61C163.232 119.015 164.266 119.623 165.141 120.434L162.517 123.314Z" fill="black"/>
<path d="M175.336 122.098H168.392V118.578H186.312V122.098H179.368V141.234H175.336V122.098Z" fill="black"/>
<path d="M200.006 118.578H205.35L215.878 135.538H215.942V118.578H219.974V141.234H214.854L204.102 123.73H204.038V141.234H200.006V118.578Z" fill="black"/>
<path d="M226.895 118.578H241.903V122.098H230.927V127.858H241.327V131.25H230.927V137.65H242.479V141.234H226.895V118.578Z" fill="black"/>
<path d="M246.042 118.578H250.458L254.842 135.218H254.906L259.898 118.578H264.058L268.954 135.218H269.018L273.498 118.578H277.786L271.162 141.234H267.258L261.946 124.242H261.882L256.57 141.234H252.666L246.042 118.578Z" fill="black"/>
<path d="M298.478 118.578H301.966L311.726 141.234H307.118L305.006 136.05H295.182L293.134 141.234H288.622L298.478 118.578ZM303.598 132.594L300.11 123.378L296.558 132.594H303.598Z" fill="black"/>
<path d="M315.887 118.578H323.279C324.581 118.578 325.754 118.695 326.799 118.93C327.845 119.165 328.741 119.549 329.488 120.082C330.234 120.615 330.81 121.298 331.215 122.13C331.621 122.962 331.824 123.965 331.824 125.138C331.824 126.397 331.589 127.453 331.119 128.306C330.65 129.159 330.01 129.853 329.199 130.386C328.41 130.898 327.482 131.271 326.415 131.506C325.349 131.741 324.218 131.858 323.023 131.858H319.919V141.234H315.887V118.578ZM322.735 128.466C323.397 128.466 324.026 128.423 324.623 128.338C325.221 128.231 325.754 128.061 326.223 127.826C326.693 127.57 327.066 127.229 327.343 126.802C327.621 126.375 327.759 125.821 327.759 125.138C327.759 124.477 327.621 123.943 327.343 123.538C327.066 123.111 326.693 122.781 326.223 122.546C325.775 122.311 325.253 122.162 324.656 122.098C324.079 122.013 323.482 121.97 322.863 121.97H319.919V128.466H322.735Z" fill="black"/>
<path d="M337.339 118.578H344.731C346.032 118.578 347.205 118.695 348.251 118.93C349.296 119.165 350.192 119.549 350.939 120.082C351.685 120.615 352.261 121.298 352.667 122.13C353.072 122.962 353.275 123.965 353.275 125.138C353.275 126.397 353.04 127.453 352.571 128.306C352.101 129.159 351.461 129.853 350.651 130.386C349.861 130.898 348.933 131.271 347.867 131.506C346.8 131.741 345.669 131.858 344.475 131.858H341.371V141.234H337.339V118.578ZM344.187 128.466C344.848 128.466 345.477 128.423 346.075 128.338C346.672 128.231 347.205 128.061 347.675 127.826C348.144 127.57 348.517 127.229 348.795 126.802C349.072 126.375 349.211 125.821 349.211 125.138C349.211 124.477 349.072 123.943 348.795 123.538C348.517 123.111 348.144 122.781 347.675 122.546C347.227 122.311 346.704 122.162 346.107 122.098C345.531 122.013 344.933 121.97 344.315 121.97H341.371V128.466H344.187Z" fill="black"/>
<path d="M370.342 123.314C369.915 122.759 369.307 122.301 368.518 121.938C367.75 121.554 366.971 121.362 366.182 121.362C365.713 121.362 365.243 121.426 364.774 121.554C364.305 121.661 363.878 121.842 363.494 122.098C363.11 122.333 362.79 122.653 362.534 123.058C362.299 123.442 362.182 123.911 362.182 124.466C362.182 124.978 362.289 125.415 362.502 125.778C362.715 126.141 363.003 126.45 363.366 126.706C363.75 126.962 364.209 127.186 364.742 127.378C365.275 127.57 365.862 127.762 366.502 127.954C367.227 128.189 367.974 128.455 368.742 128.754C369.531 129.053 370.246 129.447 370.886 129.938C371.547 130.429 372.081 131.047 372.486 131.794C372.913 132.541 373.126 133.469 373.126 134.578C373.126 135.794 372.902 136.861 372.454 137.778C372.006 138.674 371.409 139.421 370.662 140.018C369.915 140.615 369.041 141.063 368.038 141.362C367.035 141.661 365.979 141.81 364.87 141.81C363.398 141.81 361.958 141.543 360.55 141.01C359.142 140.455 357.99 139.645 357.094 138.578L359.974 135.89C360.529 136.658 361.265 137.266 362.182 137.714C363.121 138.162 364.038 138.386 364.934 138.386C365.403 138.386 365.883 138.333 366.374 138.226C366.865 138.098 367.302 137.895 367.686 137.618C368.091 137.341 368.411 136.999 368.646 136.594C368.902 136.167 369.03 135.645 369.03 135.026C369.03 134.429 368.891 133.938 368.614 133.554C368.337 133.149 367.963 132.807 367.494 132.53C367.025 132.231 366.47 131.975 365.83 131.762C365.19 131.549 364.518 131.325 363.814 131.09C363.131 130.877 362.449 130.621 361.766 130.322C361.083 130.023 360.465 129.629 359.91 129.138C359.377 128.647 358.939 128.05 358.598 127.346C358.257 126.621 358.086 125.725 358.086 124.658C358.086 123.506 358.321 122.514 358.79 121.682C359.281 120.85 359.91 120.167 360.678 119.634C361.467 119.079 362.353 118.674 363.334 118.418C364.337 118.141 365.35 118.002 366.374 118.002C367.526 118.002 368.689 118.205 369.862 118.61C371.057 119.015 372.091 119.623 372.966 120.434L370.342 123.314Z" fill="black"/>
<path d="M433.845 215.344L429.332 210.673C425.385 206.588 418.875 206.477 414.79 210.423L410.119 214.936L414.633 219.607C418.579 223.691 425.089 223.803 429.174 219.857L433.845 215.344Z" fill="#ECE2C8"/>
<path d="M409.775 190.432L414.288 195.103C418.234 199.188 418.123 205.698 414.038 209.645L409.367 214.158L404.854 209.487C400.908 205.402 401.02 198.892 405.104 194.945L409.775 190.432Z" fill="#ECE2C8"/>
<path d="M447.027 200.17L442.097 195.942C437.785 192.245 431.293 192.744 427.596 197.056L423.368 201.986L428.299 206.214C432.611 209.911 439.103 209.412 442.8 205.101L447.027 200.17Z" fill="#ECE2C8"/>
<path d="M420.73 177.623L425.661 181.85C429.972 185.547 430.471 192.039 426.774 196.351L422.546 201.282L417.616 197.054C413.304 193.357 412.805 186.865 416.502 182.553L420.73 177.623Z" fill="#ECE2C8"/>
<path d="M458.705 182.65L453.271 179.092C448.52 175.981 442.146 177.311 439.034 182.063L435.476 187.496L440.91 191.054C445.662 194.166 452.036 192.836 455.147 188.084L458.705 182.65Z" fill="#ECE2C8"/>
<path d="M429.725 163.675L435.159 167.233C439.91 170.344 441.24 176.718 438.129 181.47L434.571 186.903L429.137 183.345C424.385 180.234 423.056 173.86 426.167 169.109L429.725 163.675Z" fill="#ECE2C8"/>
<path d="M479.478 119.736L473.057 118.758C467.442 117.903 462.197 121.761 461.341 127.376L460.363 133.797L466.784 134.775C472.399 135.63 477.644 131.772 478.499 126.157L479.478 119.736Z" fill="#ECE2C8"/>
<path d="M445.233 114.519L451.653 115.498C457.268 116.353 461.127 121.598 460.271 127.213L459.293 133.634L452.872 132.656C447.257 131.8 443.399 126.555 444.254 120.94L445.233 114.519Z" fill="#ECE2C8"/>
<path d="M468.276 162.961L462.394 160.208C457.249 157.801 451.128 160.02 448.721 165.164L445.968 171.047L451.851 173.8C456.995 176.207 463.116 173.988 465.524 168.844L468.276 162.961Z" fill="#ECE2C8"/>
<path d="M436.901 148.279L442.784 151.032C447.928 153.439 450.147 159.561 447.74 164.705L444.987 170.588L439.104 167.835C433.96 165.428 431.741 159.306 434.149 154.162L436.901 148.279Z" fill="#ECE2C8"/>
<path d="M480 97.8418L473.505 97.7825C467.826 97.7307 463.18 102.293 463.128 107.972L463.069 114.467L469.564 114.526C475.243 114.578 479.889 110.016 479.941 104.337L480 97.8418Z" fill="#ECE2C8"/>
<path d="M445.361 97.5258L451.856 97.585C457.535 97.6368 462.097 102.283 462.046 107.962L461.986 114.457L455.492 114.398C449.812 114.346 445.25 109.7 445.302 104.021L445.361 97.5258Z" fill="#ECE2C8"/>
<path d="M475.119 141.994L468.9 140.121C463.462 138.482 457.725 141.562 456.087 147.001L454.213 153.219L460.432 155.093C465.87 156.731 471.607 153.651 473.246 148.213L475.119 141.994Z" fill="#ECE2C8"/>
<path d="M441.952 132.001L448.171 133.875C453.609 135.513 456.689 141.25 455.051 146.688L453.177 152.907L446.958 151.034C441.52 149.395 438.44 143.658 440.078 138.22L441.952 132.001Z" fill="#ECE2C8"/>
<path d="M477.513 75.9316L471.078 76.8117C465.45 77.5813 461.513 82.7669 462.282 88.3941L463.162 94.8292L469.597 93.9491C475.224 93.1796 479.162 87.994 478.393 82.3668L477.513 75.9316Z" fill="#ECE2C8"/>
<path d="M443.192 80.6253L449.627 79.7453C455.254 78.9757 460.44 82.9136 461.21 88.5408L462.09 94.9759L455.655 95.8559C450.027 96.6255 444.842 92.6876 444.072 87.0604L443.192 80.6253Z" fill="#ECE2C8"/>
<path d="M469.431 52.4121L463.351 54.6973C458.035 56.6957 455.345 62.6254 457.343 67.9418L459.628 74.0216L465.708 71.7363C471.024 69.738 473.714 63.8082 471.716 58.4918L469.431 52.4121Z" fill="#ECE2C8"/>
<path d="M437.005 64.6L443.085 62.3148C448.402 60.3164 454.331 63.0063 456.33 68.3227L458.615 74.4024L452.535 76.6877C447.219 78.686 441.289 75.9961 439.291 70.6797L437.005 64.6Z" fill="#ECE2C8"/>
<path d="M460.739 34.2812L454.9 37.1259C449.794 39.6135 447.672 45.7691 450.159 50.875L453.004 56.7139L458.843 53.8692C463.949 51.3817 466.071 45.226 463.584 40.1202L460.739 34.2812Z" fill="#ECE2C8"/>
<path d="M429.598 49.4529L435.437 46.6082C440.543 44.1207 446.699 46.2432 449.186 51.3491L452.031 57.188L446.192 60.0327C441.086 62.5202 434.931 60.3977 432.443 55.2918L429.598 49.4529Z" fill="#ECE2C8"/>
<path d="M449.309 16.6113L443.884 20.1837C439.141 23.3076 437.828 29.6852 440.952 34.4285L444.525 39.8529L449.949 36.2804C454.692 33.1566 456.005 26.7789 452.881 22.0356L449.309 16.6113Z" fill="#ECE2C8"/>
<path d="M420.379 35.6642L425.803 32.0918C430.547 28.9679 436.924 30.2806 440.048 35.0239L443.62 40.4483L438.196 44.0207C433.453 47.1446 427.075 45.8318 423.951 41.0885L420.379 35.6642Z" fill="#ECE2C8"/>
<path d="M435.041 0L430.177 4.30439C425.924 8.06836 425.527 14.5676 429.291 18.8208L433.596 23.6847L438.46 19.3803C442.713 15.6164 443.109 9.11714 439.345 4.8639L435.041 0Z" fill="#ECE2C8"/>
<path d="M409.1 22.9567L413.964 18.6524C418.217 14.8884 424.717 15.285 428.481 19.5382L432.785 24.4021L427.921 28.7065C423.668 32.4705 417.169 32.0739 413.405 27.8206L409.1 22.9567Z" fill="#ECE2C8"/>
</svg>
