<svg width="480" height="228" viewBox="0 0 480 228" fill="none" xmlns="http://www.w3.org/2000/svg">
<path d="M46.1555 215.437L50.6686 210.766C54.6151 206.681 61.1255 206.569 65.2099 210.516L69.8808 215.029L65.3677 219.7C61.4212 223.784 54.9109 223.896 50.8264 219.95L46.1555 215.437Z" fill="#ECE2C8"/>
<path d="M70.2254 190.525L65.7123 195.196C61.7658 199.28 61.8776 205.791 65.9621 209.737L70.633 214.25L75.1461 209.579C79.0926 205.495 78.9807 198.985 74.8962 195.038L70.2254 190.525Z" fill="#ECE2C8"/>
<path d="M32.9683 200.264L37.899 196.036C42.2108 192.339 48.703 192.838 52.3998 197.149L56.6274 202.08L51.6966 206.308C47.3849 210.005 40.8927 209.506 37.1959 205.194L32.9683 200.264Z" fill="#ECE2C8"/>
<path d="M59.2658 177.716L54.335 181.944C50.0233 185.641 49.5248 192.133 53.2216 196.445L57.4492 201.376L62.38 197.148C66.6917 193.451 67.1902 186.959 63.4934 182.647L59.2658 177.716Z" fill="#ECE2C8"/>
<path d="M21.2942 182.744L26.728 179.186C31.4796 176.075 37.8537 177.405 40.9649 182.156L44.5229 187.59L39.0891 191.148C34.3375 194.259 27.9634 192.93 24.8521 188.178L21.2942 182.744Z" fill="#ECE2C8"/>
<path d="M50.2745 163.768L44.8407 167.326C40.0891 170.438 38.7593 176.812 41.8706 181.563L45.4285 186.997L50.8623 183.439C55.6139 180.328 56.9437 173.954 53.8325 169.202L50.2745 163.768Z" fill="#ECE2C8"/>
<path d="M0.523438 119.83L6.94437 118.852C12.5592 117.997 17.8043 121.855 18.6596 127.47L19.6378 133.891L13.2169 134.869C7.60208 135.724 2.35698 131.866 1.50161 126.251L0.523438 119.83Z" fill="#ECE2C8"/>
<path d="M34.7684 114.613L28.3475 115.591C22.7327 116.447 18.8744 121.692 19.7298 127.307L20.708 133.728L27.1289 132.749C32.7437 131.894 36.602 126.649 35.7466 121.034L34.7684 114.613Z" fill="#ECE2C8"/>
<path d="M11.7231 163.056L17.606 160.303C22.7502 157.896 28.8718 160.115 31.279 165.259L34.0318 171.142L28.149 173.894C23.0047 176.302 16.8831 174.083 14.4759 168.938L11.7231 163.056Z" fill="#ECE2C8"/>
<path d="M43.0981 148.374L37.2153 151.127C32.0711 153.534 29.8523 159.656 32.2594 164.8L35.0122 170.683L40.895 167.93C46.0393 165.523 48.2581 159.401 45.8509 154.257L43.0981 148.374Z" fill="#ECE2C8"/>
<path d="M0 97.9365L6.49475 97.8773C12.1741 97.8255 16.8201 102.387 16.8719 108.067L16.9312 114.562L10.4364 114.621C4.75709 114.673 0.111069 110.111 0.0592542 104.431L0 97.9365Z" fill="#ECE2C8"/>
<path d="M34.6387 97.6205L28.1439 97.6798C22.4646 97.7316 17.9026 102.378 17.9544 108.057L18.0136 114.552L24.5084 114.492C30.1877 114.441 34.7497 109.795 34.6979 104.115L34.6387 97.6205Z" fill="#ECE2C8"/>
<path d="M4.88184 142.088L11.1007 140.214C16.5389 138.576 22.2755 141.656 23.9139 147.094L25.7876 153.313L19.5687 155.187C14.1305 156.825 8.39387 153.745 6.75547 148.307L4.88184 142.088Z" fill="#ECE2C8"/>
<path d="M38.0493 132.095L31.8304 133.969C26.3923 135.607 23.312 141.344 24.9504 146.782L26.824 153.001L33.0429 151.127C38.4811 149.489 41.5614 143.752 39.923 138.314L38.0493 132.095Z" fill="#ECE2C8"/>
<path d="M2.48779 76.0264L8.92291 76.9064C14.5501 77.676 18.488 82.8616 17.7184 88.4888L16.8383 94.9239L10.4032 94.0439C4.77603 93.2743 0.838151 88.0887 1.60773 82.4615L2.48779 76.0264Z" fill="#ECE2C8"/>
<path d="M36.8084 80.7201L30.3733 79.84C24.7461 79.0704 19.5605 83.0083 18.7909 88.6355L17.9109 95.0706L24.346 95.9507C29.9732 96.7202 35.1588 92.7824 35.9284 87.1552L36.8084 80.7201Z" fill="#ECE2C8"/>
<path d="M10.5703 52.5059L16.65 54.7911C21.9664 56.7894 24.6563 62.7192 22.658 68.0356L20.3727 74.1153L14.293 71.8301C8.97661 69.8318 6.28676 63.902 8.28508 58.5856L10.5703 52.5059Z" fill="#ECE2C8"/>
<path d="M42.9955 64.6937L36.9158 62.4085C31.5993 60.4102 25.6696 63.1 23.6713 68.4165L21.386 74.4962L27.4658 76.7814C32.7822 78.7797 38.7119 76.0899 40.7103 70.7735L42.9955 64.6937Z" fill="#ECE2C8"/>
<path d="M19.2568 34.375L25.0958 37.2197C30.2016 39.7072 32.3242 45.8629 29.8367 50.9687L26.992 56.8076L21.153 53.963C16.0472 51.4754 13.9246 45.3198 16.4122 40.2139L19.2568 34.375Z" fill="#ECE2C8"/>
<path d="M50.3978 49.5466L44.5588 46.7019C39.453 44.2144 33.2973 46.337 30.8098 51.4428L27.9651 57.2818L33.8041 60.1264C38.9099 62.614 45.0656 60.4914 47.5531 55.3855L50.3978 49.5466Z" fill="#ECE2C8"/>
<path d="M30.689 16.7051L36.1133 20.2775C40.8566 23.4014 42.1694 29.779 39.0455 34.5223L35.4731 39.9466L30.0487 36.3742C25.3054 33.2503 23.9927 26.8727 27.1166 22.1294L30.689 16.7051Z" fill="#ECE2C8"/>
<path d="M59.6186 35.7579L54.1943 32.1855C49.451 29.0616 43.0734 30.3744 39.9495 35.1177L36.3771 40.542L41.8014 44.1144C46.5447 47.2383 52.9223 45.9255 56.0462 41.1822L59.6186 35.7579Z" fill="#ECE2C8"/>
<path d="M44.9573 0.09375L49.8212 4.39814C54.0744 8.16211 54.471 14.6614 50.7071 18.9146L46.4027 23.7785L41.5388 19.4741C37.2855 15.7101 36.8889 9.21089 40.6529 4.95765L44.9573 0.09375Z" fill="#ECE2C8"/>
<path d="M70.8981 23.0505L66.0342 18.7461C61.7809 14.9821 55.2817 15.3787 51.5177 19.632L47.2133 24.4959L52.0772 28.8003C56.3305 32.5643 62.8297 32.1676 66.5937 27.9144L70.8981 23.0505Z" fill="#ECE2C8"/>
<path d="M151.96 106.018H149.432L159.224 83.3621H161.464L171.192 106.018H168.632L166.136 100.066H154.424L151.96 106.018ZM155.288 97.9541H165.272L160.28 85.9221L155.288 97.9541Z" fill="black" fill-opacity="0.5"/>
<path d="M176.446 83.3621H182.846C183.998 83.3621 185.043 83.4901 185.982 83.7461C186.921 83.9808 187.721 84.3541 188.382 84.8661C189.065 85.3568 189.587 85.9861 189.95 86.7541C190.313 87.5008 190.494 88.3861 190.494 89.4101C190.494 90.4341 190.302 91.3301 189.918 92.0981C189.555 92.8448 189.033 93.4741 188.35 93.9861C187.689 94.4768 186.878 94.8501 185.918 95.1061C184.979 95.3621 183.934 95.4901 182.782 95.4901H178.75V106.018H176.446V83.3621ZM178.75 93.5381H182.654C184.467 93.5381 185.843 93.1861 186.782 92.4821C187.721 91.7781 188.19 90.7541 188.19 89.4101C188.19 88.0021 187.699 86.9781 186.718 86.3381C185.758 85.6768 184.403 85.3461 182.654 85.3461H178.75V93.5381Z" fill="black" fill-opacity="0.5"/>
<path d="M196.929 83.3621H203.329C204.481 83.3621 205.526 83.4901 206.465 83.7461C207.403 83.9808 208.203 84.3541 208.865 84.8661C209.547 85.3568 210.07 85.9861 210.433 86.7541C210.795 87.5008 210.977 88.3861 210.977 89.4101C210.977 90.4341 210.785 91.3301 210.401 92.0981C210.038 92.8448 209.515 93.4741 208.833 93.9861C208.171 94.4768 207.361 94.8501 206.401 95.1061C205.462 95.3621 204.417 95.4901 203.265 95.4901H199.233V106.018H196.929V83.3621ZM199.233 93.5381H203.137C204.95 93.5381 206.326 93.1861 207.265 92.4821C208.203 91.7781 208.673 90.7541 208.673 89.4101C208.673 88.0021 208.182 86.9781 207.201 86.3381C206.241 85.6768 204.886 85.3461 203.137 85.3461H199.233V93.5381Z" fill="black" fill-opacity="0.5"/>
<path d="M238.307 87.0101C237.816 86.3275 237.187 85.7835 236.419 85.3781C235.651 84.9515 234.723 84.7381 233.635 84.7381C233.08 84.7381 232.515 84.8235 231.939 84.9941C231.363 85.1648 230.84 85.4315 230.371 85.7941C229.902 86.1355 229.518 86.5728 229.219 87.1061C228.942 87.6395 228.803 88.2688 228.803 88.9941C228.803 89.7195 228.942 90.3168 229.219 90.7861C229.496 91.2555 229.859 91.6608 230.307 92.0021C230.776 92.3221 231.299 92.5888 231.875 92.8021C232.472 93.0155 233.091 93.2288 233.731 93.4421C234.52 93.6981 235.31 93.9755 236.099 94.2741C236.91 94.5728 237.635 94.9675 238.275 95.4581C238.915 95.9275 239.438 96.5355 239.843 97.2821C240.248 98.0075 240.451 98.9355 240.451 100.066C240.451 101.197 240.227 102.178 239.779 103.01C239.352 103.821 238.787 104.493 238.083 105.026C237.4 105.559 236.611 105.954 235.715 106.21C234.84 106.466 233.955 106.594 233.059 106.594C232.376 106.594 231.694 106.519 231.011 106.37C230.328 106.242 229.678 106.039 229.059 105.762C228.44 105.485 227.864 105.133 227.331 104.706C226.798 104.279 226.328 103.789 225.923 103.234L227.907 101.762C228.398 102.573 229.08 103.255 229.955 103.81C230.851 104.343 231.896 104.61 233.091 104.61C233.667 104.61 234.254 104.525 234.851 104.354C235.448 104.162 235.982 103.885 236.451 103.522C236.942 103.138 237.336 102.679 237.635 102.146C237.955 101.591 238.115 100.951 238.115 100.226C238.115 99.4368 237.955 98.7861 237.635 98.2741C237.336 97.7408 236.931 97.3035 236.419 96.9621C235.907 96.5995 235.32 96.3008 234.659 96.0661C233.998 95.8315 233.304 95.5968 232.579 95.3621C231.832 95.1275 231.096 94.8608 230.371 94.5621C229.646 94.2635 228.995 93.8795 228.419 93.4101C227.843 92.9195 227.374 92.3221 227.011 91.6181C226.67 90.9141 226.499 90.0501 226.499 89.0261C226.499 87.9381 226.712 86.9995 227.139 86.2101C227.587 85.4208 228.163 84.7701 228.867 84.2581C229.571 83.7461 230.35 83.3728 231.203 83.1381C232.056 82.9035 232.899 82.7861 233.731 82.7861C235.267 82.7861 236.579 83.0635 237.667 83.6181C238.755 84.1515 239.576 84.7915 240.131 85.5381L238.307 87.0101Z" fill="black" fill-opacity="0.5"/>
<path d="M254.015 106.018H251.711V85.4101H244.127V83.3621H261.599V85.4101H254.015V106.018Z" fill="black" fill-opacity="0.5"/>
<path d="M288.352 94.6901C288.352 96.4181 288.054 98.0075 287.456 99.4581C286.859 100.909 286.027 102.167 284.96 103.234C283.915 104.279 282.667 105.101 281.216 105.698C279.787 106.295 278.23 106.594 276.544 106.594C274.859 106.594 273.291 106.295 271.84 105.698C270.411 105.101 269.163 104.279 268.096 103.234C267.051 102.167 266.23 100.909 265.632 99.4581C265.035 98.0075 264.736 96.4181 264.736 94.6901C264.736 92.9621 265.035 91.3728 265.632 89.9221C266.23 88.4715 267.051 87.2235 268.096 86.1781C269.163 85.1115 270.411 84.2795 271.84 83.6821C273.291 83.0848 274.859 82.7861 276.544 82.7861C278.23 82.7861 279.787 83.0848 281.216 83.6821C282.667 84.2795 283.915 85.1115 284.96 86.1781C286.027 87.2235 286.859 88.4715 287.456 89.9221C288.054 91.3728 288.352 92.9621 288.352 94.6901ZM285.92 94.6901C285.92 93.3675 285.707 92.1088 285.28 90.9141C284.854 89.7195 284.235 88.6741 283.424 87.7781C282.614 86.8608 281.622 86.1355 280.448 85.6021C279.296 85.0688 277.995 84.8021 276.544 84.8021C275.094 84.8021 273.782 85.0688 272.608 85.6021C271.456 86.1355 270.475 86.8608 269.664 87.7781C268.854 88.6741 268.235 89.7195 267.808 90.9141C267.382 92.1088 267.168 93.3675 267.168 94.6901C267.168 96.0128 267.382 97.2715 267.808 98.4661C268.235 99.6608 268.854 100.706 269.664 101.602C270.475 102.498 271.456 103.213 272.608 103.746C273.782 104.279 275.094 104.546 276.544 104.546C277.995 104.546 279.296 104.279 280.448 103.746C281.622 103.213 282.614 102.498 283.424 101.602C284.235 100.706 284.854 99.6608 285.28 98.4661C285.707 97.2715 285.92 96.0128 285.92 94.6901Z" fill="black" fill-opacity="0.5"/>
<path d="M297.364 106.018H295.06V83.3621H301.716C302.825 83.3621 303.849 83.4688 304.788 83.6821C305.748 83.8955 306.569 84.2475 307.252 84.7381C307.956 85.2075 308.5 85.8261 308.884 86.5941C309.268 87.3621 309.46 88.3008 309.46 89.4101C309.46 90.2421 309.311 90.9995 309.012 91.6821C308.713 92.3648 308.308 92.9621 307.796 93.4741C307.284 93.9648 306.676 94.3595 305.972 94.6581C305.268 94.9568 304.5 95.1488 303.668 95.2341L310.292 106.018H307.476L301.204 95.4261H297.364V106.018ZM297.364 93.4421H301.364C303.22 93.4421 304.649 93.1115 305.652 92.4501C306.655 91.7675 307.156 90.7541 307.156 89.4101C307.156 88.6635 307.017 88.0341 306.74 87.5221C306.463 87.0101 306.079 86.5941 305.588 86.2741C305.097 85.9541 304.5 85.7195 303.796 85.5701C303.092 85.4208 302.313 85.3461 301.46 85.3461H297.364V93.4421Z" fill="black" fill-opacity="0.5"/>
<path d="M318.44 103.97H330.568V106.018H316.136V83.3621H330.184V85.4101H318.44V93.2181H329.416V95.2341H318.44V103.97Z" fill="black" fill-opacity="0.5"/>
<path d="M123.884 121.17H132.716C133.569 121.17 134.412 121.276 135.244 121.49C136.076 121.682 136.812 122.012 137.452 122.482C138.113 122.93 138.646 123.516 139.052 124.242C139.457 124.967 139.66 125.842 139.66 126.866C139.66 128.146 139.297 129.202 138.572 130.034C137.846 130.866 136.897 131.463 135.724 131.826V131.89C137.153 132.082 138.326 132.636 139.244 133.554C140.161 134.471 140.62 135.698 140.62 137.234C140.62 138.471 140.374 139.516 139.884 140.37C139.393 141.202 138.742 141.874 137.932 142.386C137.142 142.898 136.225 143.271 135.18 143.506C134.156 143.719 133.11 143.826 132.044 143.826H123.884V121.17ZM127.916 130.386H131.5C132.844 130.386 133.868 130.119 134.572 129.586C135.276 129.052 135.628 128.295 135.628 127.314C135.628 126.29 135.265 125.564 134.54 125.138C133.814 124.711 132.684 124.498 131.148 124.498H127.916V130.386ZM127.916 140.434H131.532C132.044 140.434 132.598 140.402 133.196 140.338C133.793 140.252 134.337 140.092 134.828 139.858C135.34 139.623 135.756 139.282 136.076 138.834C136.417 138.386 136.588 137.788 136.588 137.042C136.588 135.847 136.182 135.015 135.372 134.546C134.561 134.076 133.334 133.842 131.692 133.842H127.916V140.434Z" fill="black"/>
<path d="M146.522 121.17H161.53V124.69H150.554V130.45H160.954V133.842H150.554V140.242H162.106V143.826H146.522V121.17Z" fill="black"/>
<path d="M179.526 125.906C179.099 125.351 178.491 124.892 177.702 124.53C176.934 124.146 176.155 123.954 175.366 123.954C174.896 123.954 174.427 124.018 173.958 124.146C173.488 124.252 173.062 124.434 172.678 124.69C172.294 124.924 171.974 125.244 171.718 125.65C171.483 126.034 171.366 126.503 171.366 127.058C171.366 127.57 171.472 128.007 171.686 128.37C171.899 128.732 172.187 129.042 172.55 129.298C172.934 129.554 173.392 129.778 173.926 129.97C174.459 130.162 175.046 130.354 175.686 130.546C176.411 130.78 177.158 131.047 177.926 131.346C178.715 131.644 179.43 132.039 180.07 132.53C180.731 133.02 181.264 133.639 181.67 134.386C182.096 135.132 182.31 136.06 182.31 137.17C182.31 138.386 182.086 139.452 181.638 140.37C181.19 141.266 180.592 142.012 179.846 142.61C179.099 143.207 178.224 143.655 177.222 143.954C176.219 144.252 175.163 144.402 174.054 144.402C172.582 144.402 171.142 144.135 169.734 143.602C168.326 143.047 167.174 142.236 166.278 141.17L169.158 138.482C169.712 139.25 170.448 139.858 171.366 140.306C172.304 140.754 173.222 140.978 174.118 140.978C174.587 140.978 175.067 140.924 175.558 140.818C176.048 140.69 176.486 140.487 176.87 140.21C177.275 139.932 177.595 139.591 177.83 139.186C178.086 138.759 178.214 138.236 178.214 137.618C178.214 137.02 178.075 136.53 177.798 136.146C177.52 135.74 177.147 135.399 176.678 135.122C176.208 134.823 175.654 134.567 175.014 134.354C174.374 134.14 173.702 133.916 172.998 133.682C172.315 133.468 171.632 133.212 170.95 132.914C170.267 132.615 169.648 132.22 169.094 131.73C168.56 131.239 168.123 130.642 167.782 129.938C167.44 129.212 167.27 128.316 167.27 127.25C167.27 126.098 167.504 125.106 167.974 124.274C168.464 123.442 169.094 122.759 169.862 122.226C170.651 121.671 171.536 121.266 172.518 121.01C173.52 120.732 174.534 120.594 175.558 120.594C176.71 120.594 177.872 120.796 179.046 121.202C180.24 121.607 181.275 122.215 182.15 123.026L179.526 125.906Z" fill="black"/>
<path d="M192.345 124.69H185.401V121.17H203.321V124.69H196.377V143.826H192.345V124.69Z" fill="black"/>
<path d="M215.927 132.434C215.927 130.62 216.225 128.988 216.823 127.538C217.441 126.066 218.284 124.818 219.351 123.794C220.439 122.77 221.719 121.98 223.191 121.426C224.684 120.871 226.305 120.594 228.055 120.594C229.825 120.594 231.457 120.871 232.951 121.426C234.444 121.98 235.735 122.77 236.823 123.794C237.911 124.818 238.753 126.066 239.351 127.538C239.969 128.988 240.279 130.62 240.279 132.434C240.279 134.204 239.969 135.826 239.351 137.298C238.753 138.748 237.911 140.007 236.823 141.074C235.735 142.119 234.444 142.94 232.951 143.538C231.457 144.114 229.825 144.402 228.055 144.402C226.305 144.402 224.684 144.114 223.191 143.538C221.719 142.94 220.439 142.119 219.351 141.074C218.284 140.007 217.441 138.748 216.823 137.298C216.225 135.826 215.927 134.204 215.927 132.434ZM220.311 132.434C220.311 133.65 220.492 134.77 220.855 135.794C221.239 136.796 221.772 137.671 222.455 138.418C223.159 139.164 223.98 139.751 224.919 140.178C225.879 140.583 226.935 140.786 228.087 140.786C229.239 140.786 230.295 140.583 231.255 140.178C232.215 139.751 233.036 139.164 233.719 138.418C234.423 137.671 234.956 136.796 235.319 135.794C235.703 134.77 235.895 133.65 235.895 132.434C235.895 131.26 235.703 130.172 235.319 129.17C234.956 128.167 234.433 127.292 233.751 126.546C233.068 125.799 232.247 125.212 231.287 124.786C230.327 124.359 229.26 124.146 228.087 124.146C226.913 124.146 225.847 124.359 224.887 124.786C223.948 125.212 223.137 125.799 222.455 126.546C221.772 127.292 221.239 128.167 220.855 129.17C220.492 130.172 220.311 131.26 220.311 132.434Z" fill="black"/>
<path d="M246.091 121.17H260.715V124.69H250.123V130.898H260.107V134.29H250.123V143.826H246.091V121.17Z" fill="black"/>
<path d="M275.987 140.306L284.723 131.73C285.427 131.047 285.981 130.364 286.387 129.682C286.813 128.978 287.027 128.178 287.027 127.282C287.027 126.215 286.675 125.372 285.971 124.754C285.288 124.114 284.435 123.794 283.411 123.794C282.323 123.794 281.448 124.167 280.787 124.914C280.125 125.639 279.72 126.556 279.571 127.666L275.827 127.09C275.933 126.151 276.2 125.287 276.627 124.498C277.053 123.708 277.597 123.026 278.259 122.45C278.92 121.874 279.688 121.426 280.563 121.106C281.459 120.764 282.429 120.594 283.475 120.594C284.456 120.594 285.395 120.732 286.291 121.01C287.208 121.287 288.019 121.714 288.723 122.29C289.427 122.844 289.981 123.538 290.387 124.37C290.813 125.18 291.027 126.13 291.027 127.218C291.027 127.943 290.931 128.626 290.739 129.266C290.547 129.884 290.28 130.471 289.939 131.026C289.619 131.58 289.235 132.114 288.787 132.626C288.36 133.116 287.891 133.596 287.379 134.066L280.851 140.306H291.059V143.826H275.987V140.306Z" fill="black"/>
<path d="M312.99 132.498C312.99 134.332 312.809 135.986 312.446 137.458C312.105 138.93 311.593 140.178 310.91 141.202C310.249 142.226 309.417 143.015 308.414 143.57C307.433 144.124 306.302 144.402 305.022 144.402C303.742 144.402 302.601 144.124 301.598 143.57C300.595 143.015 299.753 142.226 299.07 141.202C298.387 140.178 297.865 138.93 297.502 137.458C297.161 135.986 296.99 134.332 296.99 132.498C296.99 130.663 297.161 129.01 297.502 127.538C297.865 126.066 298.387 124.818 299.07 123.794C299.753 122.77 300.595 121.98 301.598 121.426C302.601 120.871 303.742 120.594 305.022 120.594C306.302 120.594 307.433 120.871 308.414 121.426C309.417 121.98 310.249 122.77 310.91 123.794C311.593 124.818 312.105 126.066 312.446 127.538C312.809 129.01 312.99 130.663 312.99 132.498ZM309.054 132.498C309.054 131.708 309.001 130.812 308.894 129.81C308.809 128.807 308.617 127.858 308.318 126.962C308.041 126.066 307.635 125.319 307.102 124.722C306.569 124.103 305.875 123.794 305.022 123.794C304.147 123.794 303.443 124.103 302.91 124.722C302.377 125.319 301.961 126.066 301.662 126.962C301.385 127.858 301.193 128.807 301.086 129.81C300.979 130.812 300.926 131.708 300.926 132.498C300.926 133.287 300.979 134.183 301.086 135.186C301.193 136.188 301.385 137.127 301.662 138.002C301.961 138.876 302.377 139.623 302.91 140.242C303.443 140.839 304.147 141.138 305.022 141.138C305.875 141.138 306.569 140.839 307.102 140.242C307.635 139.623 308.041 138.876 308.318 138.002C308.617 137.127 308.809 136.188 308.894 135.186C309.001 134.183 309.054 133.287 309.054 132.498Z" fill="black"/>
<path d="M325.609 125.842L321.129 129.522L318.889 126.866L325.961 121.17H329.449V143.826H325.609V125.842Z" fill="black"/>
<path d="M352.245 121.17L346.453 129.554L346.485 129.586C346.783 129.458 347.157 129.362 347.605 129.298C348.074 129.234 348.501 129.202 348.885 129.202C349.887 129.202 350.826 129.394 351.701 129.778C352.575 130.14 353.343 130.652 354.005 131.314C354.666 131.954 355.178 132.722 355.541 133.618C355.925 134.492 356.117 135.442 356.117 136.466C356.117 137.66 355.903 138.748 355.477 139.73C355.05 140.711 354.463 141.554 353.717 142.258C352.991 142.94 352.117 143.463 351.093 143.826C350.09 144.21 349.013 144.402 347.861 144.402C346.666 144.402 345.567 144.21 344.565 143.826C343.562 143.42 342.687 142.866 341.941 142.162C341.194 141.458 340.607 140.636 340.181 139.698C339.775 138.738 339.573 137.714 339.573 136.626C339.573 135.986 339.626 135.388 339.733 134.834C339.839 134.258 339.989 133.714 340.181 133.202C340.394 132.668 340.639 132.135 340.917 131.602C341.215 131.068 341.546 130.514 341.909 129.938L347.573 121.17H352.245ZM343.477 136.722C343.477 137.319 343.573 137.884 343.765 138.418C343.978 138.951 344.277 139.42 344.661 139.826C345.045 140.231 345.503 140.551 346.037 140.786C346.57 141.02 347.167 141.138 347.829 141.138C349.13 141.138 350.175 140.732 350.965 139.922C351.775 139.09 352.181 138.002 352.181 136.658C352.181 136.018 352.074 135.431 351.861 134.898C351.669 134.343 351.381 133.874 350.997 133.49C350.613 133.106 350.154 132.807 349.621 132.594C349.109 132.359 348.533 132.242 347.893 132.242C347.253 132.242 346.655 132.348 346.101 132.562C345.567 132.775 345.098 133.084 344.693 133.49C344.309 133.874 344.01 134.343 343.797 134.898C343.583 135.452 343.477 136.06 343.477 136.722Z" fill="black"/>
<path d="M433.844 215.437L429.331 210.766C425.385 206.681 418.874 206.569 414.79 210.516L410.119 215.029L414.632 219.7C418.579 223.784 425.089 223.896 429.173 219.95L433.844 215.437Z" fill="#ECE2C8"/>
<path d="M409.774 190.525L414.287 195.196C418.234 199.28 418.122 205.791 414.038 209.737L409.367 214.25L404.854 209.579C400.907 205.495 401.019 198.985 405.104 195.038L409.774 190.525Z" fill="#ECE2C8"/>
<path d="M447.027 200.264L442.097 196.036C437.785 192.339 431.293 192.838 427.596 197.149L423.368 202.08L428.299 206.308C432.611 210.005 439.103 209.506 442.8 205.194L447.027 200.264Z" fill="#ECE2C8"/>
<path d="M420.73 177.716L425.661 181.944C429.972 185.641 430.471 192.133 426.774 196.445L422.546 201.376L417.616 197.148C413.304 193.451 412.805 186.959 416.502 182.647L420.73 177.716Z" fill="#ECE2C8"/>
<path d="M458.706 182.744L453.272 179.186C448.52 176.075 442.146 177.405 439.035 182.156L435.477 187.59L440.911 191.148C445.662 194.259 452.036 192.93 455.148 188.178L458.706 182.744Z" fill="#ECE2C8"/>
<path d="M429.725 163.768L435.159 167.326C439.911 170.438 441.24 176.812 438.129 181.563L434.571 186.997L429.137 183.439C424.386 180.328 423.056 173.954 426.167 169.202L429.725 163.768Z" fill="#ECE2C8"/>
<path d="M479.478 119.83L473.057 118.852C467.442 117.997 462.197 121.855 461.341 127.47L460.363 133.891L466.784 134.869C472.399 135.724 477.644 131.866 478.499 126.251L479.478 119.83Z" fill="#ECE2C8"/>
<path d="M445.233 114.613L451.653 115.591C457.268 116.447 461.127 121.692 460.271 127.307L459.293 133.728L452.872 132.749C447.257 131.894 443.399 126.649 444.254 121.034L445.233 114.613Z" fill="#ECE2C8"/>
<path d="M468.277 163.056L462.394 160.303C457.25 157.896 451.128 160.115 448.721 165.259L445.968 171.142L451.851 173.894C456.995 176.302 463.117 174.083 465.524 168.938L468.277 163.056Z" fill="#ECE2C8"/>
<path d="M436.902 148.374L442.785 151.127C447.929 153.534 450.148 159.656 447.741 164.8L444.988 170.683L439.105 167.93C433.961 165.523 431.742 159.401 434.149 154.257L436.902 148.374Z" fill="#ECE2C8"/>
<path d="M480 97.9365L473.505 97.8773C467.826 97.8255 463.18 102.387 463.128 108.067L463.069 114.562L469.564 114.621C475.243 114.673 479.889 110.111 479.941 104.431L480 97.9365Z" fill="#ECE2C8"/>
<path d="M445.361 97.6205L451.856 97.6798C457.535 97.7316 462.097 102.378 462.046 108.057L461.986 114.552L455.492 114.492C449.812 114.441 445.25 109.795 445.302 104.115L445.361 97.6205Z" fill="#ECE2C8"/>
<path d="M475.119 142.088L468.9 140.214C463.462 138.576 457.725 141.656 456.087 147.094L454.213 153.313L460.432 155.187C465.87 156.825 471.607 153.745 473.246 148.307L475.119 142.088Z" fill="#ECE2C8"/>
<path d="M441.952 132.095L448.171 133.969C453.609 135.607 456.689 141.344 455.051 146.782L453.177 153.001L446.958 151.127C441.52 149.489 438.44 143.752 440.078 138.314L441.952 132.095Z" fill="#ECE2C8"/>
<path d="M477.512 76.0264L471.077 76.9064C465.45 77.676 461.512 82.8616 462.282 88.4888L463.162 94.9239L469.597 94.0439C475.224 93.2743 479.162 88.0887 478.392 82.4615L477.512 76.0264Z" fill="#ECE2C8"/>
<path d="M443.192 80.7201L449.627 79.84C455.254 79.0704 460.439 83.0083 461.209 88.6355L462.089 95.0706L455.654 95.9507C450.027 96.7202 444.841 92.7824 444.072 87.1552L443.192 80.7201Z" fill="#ECE2C8"/>
<path d="M469.43 52.5059L463.35 54.7911C458.034 56.7894 455.344 62.7192 457.342 68.0356L459.627 74.1153L465.707 71.8301C471.023 69.8318 473.713 63.902 471.715 58.5856L469.43 52.5059Z" fill="#ECE2C8"/>
<path d="M437.005 64.6937L443.084 62.4085C448.401 60.4102 454.33 63.1 456.329 68.4165L458.614 74.4962L452.534 76.7814C447.218 78.7797 441.288 76.0899 439.29 70.7735L437.005 64.6937Z" fill="#ECE2C8"/>
<path d="M460.739 34.375L454.9 37.2197C449.794 39.7072 447.672 45.8629 450.159 50.9687L453.004 56.8076L458.843 53.963C463.949 51.4754 466.071 45.3198 463.584 40.2139L460.739 34.375Z" fill="#ECE2C8"/>
<path d="M429.598 49.5466L435.437 46.7019C440.543 44.2144 446.699 46.337 449.186 51.4428L452.031 57.2818L446.192 60.1264C441.086 62.614 434.931 60.4914 432.443 55.3855L429.598 49.5466Z" fill="#ECE2C8"/>
<path d="M449.309 16.7051L443.884 20.2775C439.141 23.4014 437.828 29.779 440.952 34.5223L444.525 39.9466L449.949 36.3742C454.692 33.2503 456.005 26.8727 452.881 22.1294L449.309 16.7051Z" fill="#ECE2C8"/>
<path d="M420.379 35.7579L425.803 32.1855C430.547 29.0616 436.924 30.3744 440.048 35.1177L443.62 40.542L438.196 44.1144C433.453 47.2383 427.075 45.9255 423.951 41.1822L420.379 35.7579Z" fill="#ECE2C8"/>
<path d="M435.041 0.09375L430.177 4.39814C425.924 8.16211 425.527 14.6614 429.291 18.9146L433.596 23.7785L438.46 19.4741C442.713 15.7101 443.109 9.21089 439.345 4.95765L435.041 0.09375Z" fill="#ECE2C8"/>
<path d="M409.1 23.0505L413.964 18.7461C418.217 14.9821 424.717 15.3787 428.481 19.632L432.785 24.4959L427.921 28.8003C423.668 32.5643 417.169 32.1676 413.405 27.9144L409.1 23.0505Z" fill="#ECE2C8"/>
</svg>
