<?xml version="1.0" encoding="UTF-8"?>
<svg width="168px" height="19px" viewBox="0 0 168 19" version="1.1" xmlns="http://www.w3.org/2000/svg" xmlns:xlink="http://www.w3.org/1999/xlink">
    <!-- Generator: Sketch 64 (93537) - https://sketch.com -->
    <title>doo get things done</title>
    <desc>Created with Sketch.</desc>
    <g id="Web" stroke="none" stroke-width="1" fill="none" fill-rule="evenodd">
        <g id="Desktop-HD" transform="translate(-637.000000, -30.000000)" fill-rule="nonzero">
            <g id="Group-2">
                <g id="doo-get-things-done" transform="translate(637.473000, 30.392000)">
                    <path d="M4.266,13.86 C4.866,13.86 5.433,13.737 5.967,13.491 C6.501,13.245 6.912,12.894 7.2,12.438 L7.2,12.438 L7.236,12.438 L7.236,13.608 L9.954,13.608 L9.954,3.23296945e-13 L7.002,3.23296945e-13 L7.002,5.598 L6.966,5.598 C6.714,5.298 6.36,5.022 5.904,4.77 C5.448,4.518 4.89,4.392 4.23,4.392 C3.582,4.392 2.997,4.518 2.475,4.77 C1.953,5.022 1.509,5.364 1.143,5.796 C0.777,6.228 0.495,6.729 0.297,7.299 C0.099,7.869 3.18323146e-12,8.466 3.18323146e-12,9.09 C3.18323146e-12,9.714 0.096,10.314 0.288,10.89 C0.48,11.466 0.759,11.973 1.125,12.411 C1.491,12.849 1.938,13.2 2.466,13.464 C2.994,13.728 3.594,13.86 4.266,13.86 Z M4.968,11.412 C4.62,11.412 4.314,11.346 4.05,11.214 C3.786,11.082 3.564,10.908 3.384,10.692 C3.204,10.476 3.069,10.227 2.979,9.945 C2.889,9.663 2.844,9.378 2.844,9.09 C2.844,8.802 2.889,8.52 2.979,8.244 C3.069,7.968 3.204,7.725 3.384,7.515 C3.564,7.305 3.786,7.134 4.05,7.002 C4.314,6.87 4.62,6.804 4.968,6.804 C5.304,6.804 5.604,6.87 5.868,7.002 C6.132,7.134 6.357,7.308 6.543,7.524 C6.729,7.74 6.873,7.986 6.975,8.262 C7.077,8.538 7.128,8.82 7.128,9.108 C7.128,9.396 7.077,9.678 6.975,9.954 C6.873,10.23 6.729,10.476 6.543,10.692 C6.357,10.908 6.132,11.082 5.868,11.214 C5.604,11.346 5.304,11.412 4.968,11.412 Z M16.312,13.896 C16.996,13.896 17.638,13.782 18.238,13.554 C18.838,13.326 19.366,13.005 19.822,12.591 C20.278,12.177 20.638,11.673 20.902,11.079 C21.166,10.485 21.298,9.822 21.298,9.09 C21.298,8.358 21.166,7.698 20.902,7.11 C20.638,6.522 20.278,6.024 19.822,5.616 C19.366,5.208 18.838,4.896 18.238,4.68 C17.638,4.464 16.996,4.356 16.312,4.356 C15.64,4.356 15.001,4.464 14.395,4.68 C13.789,4.896 13.261,5.208 12.811,5.616 C12.361,6.024 12.004,6.522 11.74,7.11 C11.476,7.698 11.344,8.358 11.344,9.09 C11.344,9.822 11.476,10.485 11.74,11.079 C12.004,11.673 12.361,12.177 12.811,12.591 C13.261,13.005 13.789,13.326 14.395,13.554 C15.001,13.782 15.64,13.896 16.312,13.896 Z M16.33,11.412 C15.982,11.412 15.676,11.346 15.412,11.214 C15.148,11.082 14.926,10.905 14.746,10.683 C14.566,10.461 14.431,10.212 14.341,9.936 C14.251,9.66 14.206,9.378 14.206,9.09 C14.206,8.802 14.251,8.52 14.341,8.244 C14.431,7.968 14.563,7.725 14.737,7.515 C14.911,7.305 15.13,7.134 15.394,7.002 C15.658,6.87 15.964,6.804 16.312,6.804 C16.66,6.804 16.966,6.87 17.23,7.002 C17.494,7.134 17.716,7.305 17.896,7.515 C18.076,7.725 18.214,7.968 18.31,8.244 C18.406,8.52 18.454,8.802 18.454,9.09 C18.454,9.378 18.409,9.66 18.319,9.936 C18.229,10.212 18.094,10.461 17.914,10.683 C17.734,10.905 17.512,11.082 17.248,11.214 C16.984,11.346 16.678,11.412 16.33,11.412 Z M27.188,13.896 C27.872,13.896 28.514,13.782 29.114,13.554 C29.714,13.326 30.242,13.005 30.698,12.591 C31.154,12.177 31.514,11.673 31.778,11.079 C32.042,10.485 32.174,9.822 32.174,9.09 C32.174,8.358 32.042,7.698 31.778,7.11 C31.514,6.522 31.154,6.024 30.698,5.616 C30.242,5.208 29.714,4.896 29.114,4.68 C28.514,4.464 27.872,4.356 27.188,4.356 C26.516,4.356 25.877,4.464 25.271,4.68 C24.665,4.896 24.137,5.208 23.687,5.616 C23.237,6.024 22.88,6.522 22.616,7.11 C22.352,7.698 22.22,8.358 22.22,9.09 C22.22,9.822 22.352,10.485 22.616,11.079 C22.88,11.673 23.237,12.177 23.687,12.591 C24.137,13.005 24.665,13.326 25.271,13.554 C25.877,13.782 26.516,13.896 27.188,13.896 Z M27.206,11.412 C26.858,11.412 26.552,11.346 26.288,11.214 C26.024,11.082 25.802,10.905 25.622,10.683 C25.442,10.461 25.307,10.212 25.217,9.936 C25.127,9.66 25.082,9.378 25.082,9.09 C25.082,8.802 25.127,8.52 25.217,8.244 C25.307,7.968 25.439,7.725 25.613,7.515 C25.787,7.305 26.006,7.134 26.27,7.002 C26.534,6.87 26.84,6.804 27.188,6.804 C27.536,6.804 27.842,6.87 28.106,7.002 C28.37,7.134 28.592,7.305 28.772,7.515 C28.952,7.725 29.09,7.968 29.186,8.244 C29.282,8.52 29.33,8.802 29.33,9.09 C29.33,9.378 29.285,9.66 29.195,9.936 C29.105,10.212 28.97,10.461 28.79,10.683 C28.61,10.905 28.388,11.082 28.124,11.214 C27.86,11.346 27.554,11.412 27.206,11.412 Z" id="doo" fill="#0D0C22"></path>
                    <path d="M41.776,17.928 C42.568,17.928 43.291,17.823 43.945,17.613 C44.599,17.403 45.154,17.085 45.61,16.659 C46.066,16.233 46.42,15.696 46.672,15.048 C46.924,14.4 47.05,13.638 47.05,12.762 L47.05,12.762 L47.05,4.644 L44.26,4.644 L44.26,5.796 L44.224,5.796 C43.912,5.316 43.498,4.962 42.982,4.734 C42.466,4.506 41.926,4.392 41.362,4.392 C40.69,4.392 40.09,4.521 39.562,4.779 C39.034,5.037 38.587,5.382 38.221,5.814 C37.855,6.246 37.576,6.744 37.384,7.308 C37.192,7.872 37.096,8.466 37.096,9.09 C37.096,9.714 37.192,10.305 37.384,10.863 C37.576,11.421 37.855,11.91 38.221,12.33 C38.587,12.75 39.034,13.083 39.562,13.329 C40.09,13.575 40.696,13.698 41.38,13.698 C41.98,13.698 42.514,13.59 42.982,13.374 C43.45,13.158 43.822,12.87 44.098,12.51 L44.098,12.51 L44.152,12.51 L44.152,13.05 C44.152,13.806 43.945,14.412 43.531,14.868 C43.117,15.324 42.478,15.552 41.614,15.552 C41.11,15.552 40.597,15.459 40.075,15.273 C39.553,15.087 39.076,14.802 38.644,14.418 L38.644,14.418 L37.168,16.524 C37.78,16.98 38.503,17.328 39.337,17.568 C40.171,17.808 40.984,17.928 41.776,17.928 Z M42.064,11.358 C41.728,11.358 41.431,11.295 41.173,11.169 C40.915,11.043 40.696,10.875 40.516,10.665 C40.336,10.455 40.198,10.212 40.102,9.936 C40.006,9.66 39.958,9.372 39.958,9.072 C39.958,8.76 40.006,8.466 40.102,8.19 C40.198,7.914 40.336,7.674 40.516,7.47 C40.696,7.266 40.915,7.104 41.173,6.984 C41.431,6.864 41.728,6.804 42.064,6.804 C42.4,6.804 42.7,6.864 42.964,6.984 C43.228,7.104 43.456,7.269 43.648,7.479 C43.84,7.689 43.987,7.932 44.089,8.208 C44.191,8.484 44.242,8.772 44.242,9.072 C44.242,9.384 44.191,9.678 44.089,9.954 C43.987,10.23 43.843,10.47 43.657,10.674 C43.471,10.878 43.243,11.043 42.973,11.169 C42.703,11.295 42.4,11.358 42.064,11.358 Z M53.372,13.896 C54.284,13.896 55.085,13.731 55.775,13.401 C56.465,13.071 57.02,12.6 57.44,11.988 L57.44,11.988 L55.388,10.692 C55.184,10.968 54.92,11.193 54.596,11.367 C54.272,11.541 53.876,11.628 53.408,11.628 C53.144,11.628 52.889,11.586 52.643,11.502 C52.397,11.418 52.175,11.301 51.977,11.151 C51.779,11.001 51.617,10.824 51.491,10.62 C51.365,10.416 51.29,10.188 51.266,9.936 L51.266,9.936 L57.764,9.936 C57.776,9.828 57.782,9.714 57.782,9.594 L57.782,9.594 L57.782,9.234 C57.782,8.466 57.671,7.782 57.449,7.182 C57.227,6.582 56.918,6.072 56.522,5.652 C56.126,5.232 55.652,4.911 55.1,4.689 C54.548,4.467 53.942,4.356 53.282,4.356 C52.598,4.356 51.962,4.47 51.374,4.698 C50.786,4.926 50.276,5.247 49.844,5.661 C49.412,6.075 49.07,6.579 48.818,7.173 C48.566,7.767 48.44,8.43 48.44,9.162 C48.44,9.918 48.569,10.59 48.827,11.178 C49.085,11.766 49.439,12.261 49.889,12.663 C50.339,13.065 50.864,13.371 51.464,13.581 C52.064,13.791 52.7,13.896 53.372,13.896 Z M55.064,8.1 L51.266,8.1 C51.278,7.872 51.338,7.653 51.446,7.443 C51.554,7.233 51.698,7.05 51.878,6.894 C52.058,6.738 52.268,6.615 52.508,6.525 C52.748,6.435 53.012,6.39 53.3,6.39 C53.888,6.39 54.329,6.558 54.623,6.894 C54.917,7.23 55.064,7.632 55.064,8.1 L55.064,8.1 Z M62.628,13.824 C62.94,13.824 63.252,13.797 63.564,13.743 C63.876,13.689 64.134,13.626 64.338,13.554 L64.338,13.554 L64.302,11.394 C64.194,11.442 64.059,11.478 63.897,11.502 C63.735,11.526 63.582,11.538 63.438,11.538 C63.018,11.538 62.727,11.433 62.565,11.223 C62.403,11.013 62.322,10.698 62.322,10.278 L62.322,10.278 L62.322,6.858 L64.428,6.858 L64.428,4.644 L62.322,4.644 L62.322,2.286 L59.424,2.286 L59.424,4.644 L58.002,4.644 L58.002,6.858 L59.442,6.858 L59.442,10.638 C59.442,11.118 59.496,11.553 59.604,11.943 C59.712,12.333 59.889,12.669 60.135,12.951 C60.381,13.233 60.708,13.449 61.116,13.599 C61.524,13.749 62.028,13.824 62.628,13.824 Z M72.824,13.824 C73.136,13.824 73.448,13.797 73.76,13.743 C74.072,13.689 74.33,13.626 74.534,13.554 L74.534,13.554 L74.498,11.394 C74.39,11.442 74.255,11.478 74.093,11.502 C73.931,11.526 73.778,11.538 73.634,11.538 C73.214,11.538 72.923,11.433 72.761,11.223 C72.599,11.013 72.518,10.698 72.518,10.278 L72.518,10.278 L72.518,6.858 L74.624,6.858 L74.624,4.644 L72.518,4.644 L72.518,2.286 L69.62,2.286 L69.62,4.644 L68.198,4.644 L68.198,6.858 L69.638,6.858 L69.638,10.638 C69.638,11.118 69.692,11.553 69.8,11.943 C69.908,12.333 70.085,12.669 70.331,12.951 C70.577,13.233 70.904,13.449 71.312,13.599 C71.72,13.749 72.224,13.824 72.824,13.824 Z M78.498,13.608 L78.498,8.766 C78.498,8.226 78.636,7.773 78.912,7.407 C79.188,7.041 79.584,6.858 80.1,6.858 C80.364,6.858 80.58,6.909 80.748,7.011 C80.916,7.113 81.051,7.251 81.153,7.425 C81.255,7.599 81.324,7.8 81.36,8.028 C81.396,8.256 81.414,8.496 81.414,8.748 L81.414,8.748 L81.414,13.608 L84.384,13.608 L84.384,8.064 C84.384,7.62 84.327,7.176 84.213,6.732 C84.099,6.288 83.913,5.895 83.655,5.553 C83.397,5.211 83.061,4.932 82.647,4.716 C82.233,4.5 81.72,4.392 81.108,4.392 C80.484,4.392 79.95,4.533 79.506,4.815 C79.062,5.097 78.738,5.418 78.534,5.778 L78.534,5.778 L78.498,5.778 L78.498,-5.68434189e-14 L75.546,-5.68434189e-14 L75.546,13.608 L78.498,13.608 Z M87.628,3.402 C87.856,3.402 88.075,3.36 88.285,3.276 C88.495,3.192 88.675,3.078 88.825,2.934 C88.975,2.79 89.095,2.619 89.185,2.421 C89.275,2.223 89.32,2.01 89.32,1.782 C89.32,1.554 89.275,1.341 89.185,1.143 C89.095,0.945 88.975,0.774 88.825,0.63 C88.675,0.486 88.495,0.372 88.285,0.288 C88.075,0.204 87.856,0.162 87.628,0.162 C87.388,0.162 87.166,0.207 86.962,0.297 C86.758,0.387 86.578,0.504 86.422,0.648 C86.266,0.792 86.146,0.963 86.062,1.161 C85.978,1.359 85.936,1.566 85.936,1.782 C85.936,2.226 86.098,2.607 86.422,2.925 C86.746,3.243 87.148,3.402 87.628,3.402 Z M89.104,13.608 L89.104,4.644 L86.152,4.644 L86.152,13.608 L89.104,13.608 Z M93.914,13.608 L93.914,8.748 C93.914,8.496 93.947,8.253 94.013,8.019 C94.079,7.785 94.178,7.578 94.31,7.398 C94.442,7.218 94.607,7.077 94.805,6.975 C95.003,6.873 95.234,6.822 95.498,6.822 C95.762,6.822 95.981,6.873 96.155,6.975 C96.329,7.077 96.464,7.215 96.56,7.389 C96.656,7.563 96.725,7.764 96.767,7.992 C96.809,8.22 96.83,8.46 96.83,8.712 L96.83,8.712 L96.83,13.608 L99.8,13.608 L99.8,8.064 C99.8,7.62 99.743,7.176 99.629,6.732 C99.515,6.288 99.329,5.895 99.071,5.553 C98.813,5.211 98.474,4.932 98.054,4.716 C97.634,4.5 97.124,4.392 96.524,4.392 C96.212,4.392 95.918,4.434 95.642,4.518 C95.366,4.602 95.111,4.71 94.877,4.842 C94.643,4.974 94.439,5.133 94.265,5.319 C94.091,5.505 93.95,5.694 93.842,5.886 L93.842,5.886 L93.806,5.886 L93.806,4.644 L90.944,4.644 L90.944,13.608 L93.914,13.608 Z M105.762,17.928 C106.554,17.928 107.277,17.823 107.931,17.613 C108.585,17.403 109.14,17.085 109.596,16.659 C110.052,16.233 110.406,15.696 110.658,15.048 C110.91,14.4 111.036,13.638 111.036,12.762 L111.036,12.762 L111.036,4.644 L108.246,4.644 L108.246,5.796 L108.21,5.796 C107.898,5.316 107.484,4.962 106.968,4.734 C106.452,4.506 105.912,4.392 105.348,4.392 C104.676,4.392 104.076,4.521 103.548,4.779 C103.02,5.037 102.573,5.382 102.207,5.814 C101.841,6.246 101.562,6.744 101.37,7.308 C101.178,7.872 101.082,8.466 101.082,9.09 C101.082,9.714 101.178,10.305 101.37,10.863 C101.562,11.421 101.841,11.91 102.207,12.33 C102.573,12.75 103.02,13.083 103.548,13.329 C104.076,13.575 104.682,13.698 105.366,13.698 C105.966,13.698 106.5,13.59 106.968,13.374 C107.436,13.158 107.808,12.87 108.084,12.51 L108.084,12.51 L108.138,12.51 L108.138,13.05 C108.138,13.806 107.931,14.412 107.517,14.868 C107.103,15.324 106.464,15.552 105.6,15.552 C105.096,15.552 104.583,15.459 104.061,15.273 C103.539,15.087 103.062,14.802 102.63,14.418 L102.63,14.418 L101.154,16.524 C101.766,16.98 102.489,17.328 103.323,17.568 C104.157,17.808 104.97,17.928 105.762,17.928 Z M106.05,11.358 C105.714,11.358 105.417,11.295 105.159,11.169 C104.901,11.043 104.682,10.875 104.502,10.665 C104.322,10.455 104.184,10.212 104.088,9.936 C103.992,9.66 103.944,9.372 103.944,9.072 C103.944,8.76 103.992,8.466 104.088,8.19 C104.184,7.914 104.322,7.674 104.502,7.47 C104.682,7.266 104.901,7.104 105.159,6.984 C105.417,6.864 105.714,6.804 106.05,6.804 C106.386,6.804 106.686,6.864 106.95,6.984 C107.214,7.104 107.442,7.269 107.634,7.479 C107.826,7.689 107.973,7.932 108.075,8.208 C108.177,8.484 108.228,8.772 108.228,9.072 C108.228,9.384 108.177,9.678 108.075,9.954 C107.973,10.23 107.829,10.47 107.643,10.674 C107.457,10.878 107.229,11.043 106.959,11.169 C106.689,11.295 106.386,11.358 106.05,11.358 Z M115.828,13.896 C116.284,13.896 116.74,13.842 117.196,13.734 C117.652,13.626 118.063,13.452 118.429,13.212 C118.795,12.972 119.092,12.657 119.32,12.267 C119.548,11.877 119.662,11.4 119.662,10.836 C119.662,10.404 119.578,10.032 119.41,9.72 C119.242,9.408 119.02,9.144 118.744,8.928 C118.468,8.712 118.159,8.538 117.817,8.406 C117.475,8.274 117.136,8.172 116.8,8.1 C116.224,7.968 115.807,7.848 115.549,7.74 C115.291,7.632 115.162,7.452 115.162,7.2 C115.162,6.936 115.279,6.75 115.513,6.642 C115.747,6.534 116.002,6.48 116.278,6.48 C116.638,6.48 116.98,6.558 117.304,6.714 C117.628,6.87 117.91,7.062 118.15,7.29 L118.15,7.29 L119.77,5.616 C119.326,5.196 118.783,4.881 118.141,4.671 C117.499,4.461 116.842,4.356 116.17,4.356 C115.738,4.356 115.303,4.413 114.865,4.527 C114.427,4.641 114.028,4.818 113.668,5.058 C113.308,5.298 113.014,5.607 112.786,5.985 C112.558,6.363 112.444,6.822 112.444,7.362 C112.444,7.782 112.522,8.142 112.678,8.442 C112.834,8.742 113.035,8.994 113.281,9.198 C113.527,9.402 113.806,9.564 114.118,9.684 C114.43,9.804 114.742,9.9 115.054,9.972 C115.666,10.116 116.116,10.254 116.404,10.386 C116.692,10.518 116.836,10.722 116.836,10.998 C116.836,11.286 116.719,11.487 116.485,11.601 C116.251,11.715 116.014,11.772 115.774,11.772 C115.342,11.772 114.934,11.676 114.55,11.484 C114.166,11.292 113.842,11.052 113.578,10.764 L113.578,10.764 L111.922,12.51 C112.39,12.966 112.975,13.311 113.677,13.545 C114.379,13.779 115.096,13.896 115.828,13.896 Z M128.688,13.86 C129.288,13.86 129.855,13.737 130.389,13.491 C130.923,13.245 131.334,12.894 131.622,12.438 L131.622,12.438 L131.658,12.438 L131.658,13.608 L134.376,13.608 L134.376,-5.68434189e-14 L131.424,-5.68434189e-14 L131.424,5.598 L131.388,5.598 C131.136,5.298 130.782,5.022 130.326,4.77 C129.87,4.518 129.312,4.392 128.652,4.392 C128.004,4.392 127.419,4.518 126.897,4.77 C126.375,5.022 125.931,5.364 125.565,5.796 C125.199,6.228 124.917,6.729 124.719,7.299 C124.521,7.869 124.422,8.466 124.422,9.09 C124.422,9.714 124.518,10.314 124.71,10.89 C124.902,11.466 125.181,11.973 125.547,12.411 C125.913,12.849 126.36,13.2 126.888,13.464 C127.416,13.728 128.016,13.86 128.688,13.86 Z M129.39,11.412 C129.042,11.412 128.736,11.346 128.472,11.214 C128.208,11.082 127.986,10.908 127.806,10.692 C127.626,10.476 127.491,10.227 127.401,9.945 C127.311,9.663 127.266,9.378 127.266,9.09 C127.266,8.802 127.311,8.52 127.401,8.244 C127.491,7.968 127.626,7.725 127.806,7.515 C127.986,7.305 128.208,7.134 128.472,7.002 C128.736,6.87 129.042,6.804 129.39,6.804 C129.726,6.804 130.026,6.87 130.29,7.002 C130.554,7.134 130.779,7.308 130.965,7.524 C131.151,7.74 131.295,7.986 131.397,8.262 C131.499,8.538 131.55,8.82 131.55,9.108 C131.55,9.396 131.499,9.678 131.397,9.954 C131.295,10.23 131.151,10.476 130.965,10.692 C130.779,10.908 130.554,11.082 130.29,11.214 C130.026,11.346 129.726,11.412 129.39,11.412 Z M140.734,13.896 C141.418,13.896 142.06,13.782 142.66,13.554 C143.26,13.326 143.788,13.005 144.244,12.591 C144.7,12.177 145.06,11.673 145.324,11.079 C145.588,10.485 145.72,9.822 145.72,9.09 C145.72,8.358 145.588,7.698 145.324,7.11 C145.06,6.522 144.7,6.024 144.244,5.616 C143.788,5.208 143.26,4.896 142.66,4.68 C142.06,4.464 141.418,4.356 140.734,4.356 C140.062,4.356 139.423,4.464 138.817,4.68 C138.211,4.896 137.683,5.208 137.233,5.616 C136.783,6.024 136.426,6.522 136.162,7.11 C135.898,7.698 135.766,8.358 135.766,9.09 C135.766,9.822 135.898,10.485 136.162,11.079 C136.426,11.673 136.783,12.177 137.233,12.591 C137.683,13.005 138.211,13.326 138.817,13.554 C139.423,13.782 140.062,13.896 140.734,13.896 Z M140.752,11.412 C140.404,11.412 140.098,11.346 139.834,11.214 C139.57,11.082 139.348,10.905 139.168,10.683 C138.988,10.461 138.853,10.212 138.763,9.936 C138.673,9.66 138.628,9.378 138.628,9.09 C138.628,8.802 138.673,8.52 138.763,8.244 C138.853,7.968 138.985,7.725 139.159,7.515 C139.333,7.305 139.552,7.134 139.816,7.002 C140.08,6.87 140.386,6.804 140.734,6.804 C141.082,6.804 141.388,6.87 141.652,7.002 C141.916,7.134 142.138,7.305 142.318,7.515 C142.498,7.725 142.636,7.968 142.732,8.244 C142.828,8.52 142.876,8.802 142.876,9.09 C142.876,9.378 142.831,9.66 142.741,9.936 C142.651,10.212 142.516,10.461 142.336,10.683 C142.156,10.905 141.934,11.082 141.67,11.214 C141.406,11.346 141.1,11.412 140.752,11.412 Z M150.062,13.608 L150.062,8.748 C150.062,8.496 150.095,8.253 150.161,8.019 C150.227,7.785 150.326,7.578 150.458,7.398 C150.59,7.218 150.755,7.077 150.953,6.975 C151.151,6.873 151.382,6.822 151.646,6.822 C151.91,6.822 152.129,6.873 152.303,6.975 C152.477,7.077 152.612,7.215 152.708,7.389 C152.804,7.563 152.873,7.764 152.915,7.992 C152.957,8.22 152.978,8.46 152.978,8.712 L152.978,8.712 L152.978,13.608 L155.948,13.608 L155.948,8.064 C155.948,7.62 155.891,7.176 155.777,6.732 C155.663,6.288 155.477,5.895 155.219,5.553 C154.961,5.211 154.622,4.932 154.202,4.716 C153.782,4.5 153.272,4.392 152.672,4.392 C152.36,4.392 152.066,4.434 151.79,4.518 C151.514,4.602 151.259,4.71 151.025,4.842 C150.791,4.974 150.587,5.133 150.413,5.319 C150.239,5.505 150.098,5.694 149.99,5.886 L149.99,5.886 L149.954,5.886 L149.954,4.644 L147.092,4.644 L147.092,13.608 L150.062,13.608 Z M162.162,13.896 C163.074,13.896 163.875,13.731 164.565,13.401 C165.255,13.071 165.81,12.6 166.23,11.988 L166.23,11.988 L164.178,10.692 C163.974,10.968 163.71,11.193 163.386,11.367 C163.062,11.541 162.666,11.628 162.198,11.628 C161.934,11.628 161.679,11.586 161.433,11.502 C161.187,11.418 160.965,11.301 160.767,11.151 C160.569,11.001 160.407,10.824 160.281,10.62 C160.155,10.416 160.08,10.188 160.056,9.936 L160.056,9.936 L166.554,9.936 C166.566,9.828 166.572,9.714 166.572,9.594 L166.572,9.594 L166.572,9.234 C166.572,8.466 166.461,7.782 166.239,7.182 C166.017,6.582 165.708,6.072 165.312,5.652 C164.916,5.232 164.442,4.911 163.89,4.689 C163.338,4.467 162.732,4.356 162.072,4.356 C161.388,4.356 160.752,4.47 160.164,4.698 C159.576,4.926 159.066,5.247 158.634,5.661 C158.202,6.075 157.86,6.579 157.608,7.173 C157.356,7.767 157.23,8.43 157.23,9.162 C157.23,9.918 157.359,10.59 157.617,11.178 C157.875,11.766 158.229,12.261 158.679,12.663 C159.129,13.065 159.654,13.371 160.254,13.581 C160.854,13.791 161.49,13.896 162.162,13.896 Z M163.854,8.1 L160.056,8.1 C160.068,7.872 160.128,7.653 160.236,7.443 C160.344,7.233 160.488,7.05 160.668,6.894 C160.848,6.738 161.058,6.615 161.298,6.525 C161.538,6.435 161.802,6.39 162.09,6.39 C162.678,6.39 163.119,6.558 163.413,6.894 C163.707,7.23 163.854,7.632 163.854,8.1 L163.854,8.1 Z" id="getthingsdone" fill-opacity="0.3" fill="#000000"></path>
                </g>
            </g>
        </g>
    </g>
</svg>