<?xml version="1.0" encoding="UTF-8"?>
<svg width="56px" height="18px" viewBox="0 0 56 18" version="1.1" xmlns="http://www.w3.org/2000/svg" xmlns:xlink="http://www.w3.org/1999/xlink">
    <title>Group 10</title>
    <g id="Web" stroke="none" stroke-width="1" fill="none" fill-rule="evenodd">
        <g id="Desktop-HD" transform="translate(-203.000000, -36.000000)" fill="#FFFFFF" fill-rule="nonzero" stroke="#FFFFFF">
            <g id="Group-10" transform="translate(204.000000, 37.000000)">
                <path d="M5.47352025,15 C6.47663551,15 7.48701973,14.855226 8.5046729,14.565678 C9.52232606,14.2761299 10.4382139,13.8276836 11.2523364,13.220339 C12.066459,12.6129944 12.7279335,11.8361582 13.2367601,10.8898305 C13.7455867,9.94350282 14,8.81355932 14,7.5 C14,6.08757062 13.7455867,4.90466102 13.2367601,3.95127119 C12.7279335,2.99788136 12.066459,2.22810734 11.2523364,1.64194915 C10.4382139,1.05579096 9.52232606,0.63559322 8.5046729,0.381355932 C7.48701973,0.127118644 6.47663551,0 5.47352025,0 L5.47352025,0 L0,0 L0,15 L5.47352025,15 Z M5.0703177,12.7027027 L2.78606965,12.7027027 L2.78606965,2.2972973 L5.0703177,2.2972973 C5.78097265,2.2972973 6.4916276,2.36808237 7.20228255,2.50965251 C7.9129375,2.65122265 8.55470243,2.91312741 9.12757734,3.2953668 C9.70045224,3.67760618 10.1681792,4.20849421 10.5307583,4.88803089 C10.8933373,5.56756757 11.0746269,6.44530245 11.0746269,7.52123552 C11.0746269,8.54054054 10.8933373,9.38288288 10.5307583,10.0482625 C10.1681792,10.7136422 9.70045224,11.240991 9.12757734,11.6303089 C8.55470243,12.0196268 7.9129375,12.2956885 7.20228255,12.4584942 C6.4916276,12.6212999 5.78097265,12.7027027 5.0703177,12.7027027 L5.0703177,12.7027027 Z" id="D" transform="translate(7.000000, 7.500000) rotate(-360.000000) translate(-7.000000, -7.500000) "></path>
                <path d="M25.9684625,16 C27.1318441,16 28.2041174,15.8028674 29.1852825,15.4086022 C30.1664477,15.0143369 31.0144547,14.4623656 31.7293035,13.7526882 C32.4441524,13.0430108 33.0013141,12.1971326 33.4007884,11.2150538 C33.8002628,10.2329749 34,9.14695341 34,7.95698925 C34,6.73835125 33.8002628,5.63799283 33.4007884,4.65591398 C33.0013141,3.67383513 32.4441524,2.83870968 31.7293035,2.15053763 C31.0144547,1.46236559 30.1664477,0.931899642 29.1852825,0.559139785 C28.2041174,0.186379928 27.1318441,0 25.9684625,0 C24.8190977,0 23.7573368,0.186379928 22.78318,0.559139785 C21.8090232,0.931899642 20.9680245,1.46236559 20.260184,2.15053763 C19.5523434,2.83870968 18.9986859,3.67383513 18.5992116,4.65591398 C18.1997372,5.63799283 18,6.73835125 18,7.95698925 C18,9.14695341 18.1997372,10.2329749 18.5992116,11.2150538 C18.9986859,12.1971326 19.5523434,13.0430108 20.260184,13.7526882 C20.9680245,14.4623656 21.8090232,15.0143369 22.78318,15.4086022 C23.7573368,15.8028674 24.8190977,16 25.9684625,16 Z M26.0230532,13.5965665 C25.2627129,13.5965665 24.5692544,13.4566524 23.9426777,13.176824 C23.316101,12.8969957 22.7740065,12.5059536 22.3163943,12.0036976 C21.8587821,11.5014416 21.5067727,10.9094971 21.2603662,10.227864 C21.0139596,9.54623088 20.8907563,8.79643447 20.8907563,7.97847474 C20.8907563,7.18921536 21.0139596,6.45735666 21.2603662,5.78289865 C21.5067727,5.10844063 21.855262,4.52008364 22.305834,4.01782767 C22.7564061,3.5155717 23.2949804,3.12094201 23.9215571,2.83393859 C24.5481338,2.54693518 25.2486325,2.40343348 26.0230532,2.40343348 C26.7974738,2.40343348 27.5014926,2.54693518 28.1351095,2.83393859 C28.7687264,3.12094201 29.3108208,3.5155717 29.7613929,4.01782767 C30.2119649,4.52008364 30.5604542,5.10844063 30.8068607,5.78289865 C31.0532673,6.45735666 31.1764706,7.18921536 31.1764706,7.97847474 C31.1764706,8.79643447 31.0532673,9.54623088 30.8068607,10.227864 C30.5604542,10.9094971 30.2084448,11.5014416 29.7508326,12.0036976 C29.2932204,12.5059536 28.7476058,12.8969957 28.1139889,13.176824 C27.480372,13.4566524 26.7833934,13.5965665 26.0230532,13.5965665 Z" id="O"></path>
                <path d="M45.9684625,16 C47.1318441,16 48.2041174,15.8028674 49.1852825,15.4086022 C50.1664477,15.0143369 51.0144547,14.4623656 51.7293035,13.7526882 C52.4441524,13.0430108 53.0013141,12.1971326 53.4007884,11.2150538 C53.8002628,10.2329749 54,9.14695341 54,7.95698925 C54,6.73835125 53.8002628,5.63799283 53.4007884,4.65591398 C53.0013141,3.67383513 52.4441524,2.83870968 51.7293035,2.15053763 C51.0144547,1.46236559 50.1664477,0.931899642 49.1852825,0.559139785 C48.2041174,0.186379928 47.1318441,0 45.9684625,0 C44.8190977,0 43.7573368,0.186379928 42.78318,0.559139785 C41.8090232,0.931899642 40.9680245,1.46236559 40.260184,2.15053763 C39.5523434,2.83870968 38.9986859,3.67383513 38.5992116,4.65591398 C38.1997372,5.63799283 38,6.73835125 38,7.95698925 C38,9.14695341 38.1997372,10.2329749 38.5992116,11.2150538 C38.9986859,12.1971326 39.5523434,13.0430108 40.260184,13.7526882 C40.9680245,14.4623656 41.8090232,15.0143369 42.78318,15.4086022 C43.7573368,15.8028674 44.8190977,16 45.9684625,16 Z M46.0230532,13.5965665 C45.2627129,13.5965665 44.5692544,13.4566524 43.9426777,13.176824 C43.316101,12.8969957 42.7740065,12.5059536 42.3163943,12.0036976 C41.8587821,11.5014416 41.5067727,10.9094971 41.2603662,10.227864 C41.0139596,9.54623088 40.8907563,8.79643447 40.8907563,7.97847474 C40.8907563,7.18921536 41.0139596,6.45735666 41.2603662,5.78289865 C41.5067727,5.10844063 41.855262,4.52008364 42.305834,4.01782767 C42.7564061,3.5155717 43.2949804,3.12094201 43.9215571,2.83393859 C44.5481338,2.54693518 45.2486325,2.40343348 46.0230532,2.40343348 C46.7974738,2.40343348 47.5014926,2.54693518 48.1351095,2.83393859 C48.7687264,3.12094201 49.3108208,3.5155717 49.7613929,4.01782767 C50.2119649,4.52008364 50.5604542,5.10844063 50.8068607,5.78289865 C51.0532673,6.45735666 51.1764706,7.18921536 51.1764706,7.97847474 C51.1764706,8.79643447 51.0532673,9.54623088 50.8068607,10.227864 C50.5604542,10.9094971 50.2084448,11.5014416 49.7508326,12.0036976 C49.2932204,12.5059536 48.7476058,12.8969957 48.1139889,13.176824 C47.480372,13.4566524 46.7833934,13.5965665 46.0230532,13.5965665 Z" id="O"></path>
            </g>
        </g>
    </g>
</svg>