<?xml version="1.0" encoding="UTF-8"?>
<svg width="72px" height="24px" viewBox="0 0 72 24" version="1.1" xmlns="http://www.w3.org/2000/svg" xmlns:xlink="http://www.w3.org/1999/xlink">
    <!-- Generator: Sketch 42 (36781) - http://www.bohemiancoding.com/sketch -->
    <title>Combined Shape</title>
    <desc>Created with Sketch.</desc>
    <defs></defs>
    <g id="Page-1" stroke="none" stroke-width="1" fill="none" fill-rule="evenodd">
        <g id="Desktop-HD" transform="translate(-102.000000, -35.000000)" fill-rule="nonzero" fill="#FFFFFF">
            <path d="M102.019003,58.1447007 L102.019003,57.19721 C102.019003,50.3305663 102.033429,43.4637479 102.000058,36.5971041 C101.995887,35.7708224 102.214012,35.4885837 103.046712,35.48544 C105.82151,35.4751355 108.604302,35.2398783 111.368497,35.3869359 C114.430594,35.5497122 117.299072,36.5352771 119.54724,38.7549377 C122.931919,42.0965669 123.343316,46.2002057 122.156575,50.5532484 C121.005117,54.7770482 117.925465,57.0075372 113.868682,58.0114407 C110.38702,58.8730022 106.852173,58.5808084 103.328276,58.2990936 C102.926092,58.2669575 102.526166,58.2053052 102.019003,58.1447007 Z M107.349082,53.7055542 C108.702502,53.7055542 110.025679,53.7727954 111.339819,53.691582 C114.155113,53.5174533 116.28266,51.7113702 116.83397,48.9588443 C117.053486,47.8625496 117.135,46.6935994 117.022548,45.5840311 C116.781655,43.2054366 115.562238,41.4611805 113.27705,40.5760409 C111.361023,39.8337671 109.385729,39.8889573 107.349082,40.0749624 L107.349082,53.7055542 Z M136.519577,58.7315511 C129.643503,58.7313764 124.924175,53.9144562 124.921742,46.8941181 C124.919482,39.9270491 129.808965,35.0016696 136.729186,35.0000977 C143.568762,34.9985258 148.387854,39.9417199 148.366823,46.936908 C148.34614,53.7792751 143.371493,58.7317257 136.519577,58.7315511 Z M142.729109,46.3217814 C142.61631,45.7964262 142.510115,44.7081655 142.144256,43.7164877 C141.23317,41.2481218 139.427162,39.8226068 136.775418,39.7457596 C134.288268,39.6738027 132.413433,40.8263356 131.349051,43.0973441 C130.174651,45.6032604 130.154663,48.1858492 131.364694,50.6783172 C133.098573,54.2496147 137.514263,55.1827838 140.43749,52.6057839 C142.136608,51.1079627 142.67662,49.0730846 142.729109,46.3217814 Z M150.554627,46.9269528 C150.540722,39.9506272 155.403092,35.0259463 162.330613,35.0000977 C169.133515,34.9747731 173.971726,39.874304 173.999882,46.817271 C174.027865,53.7170987 169.071293,58.7156577 162.186354,58.7312018 C155.306804,58.7467458 150.568531,53.938209 150.554627,46.9269528 Z M168.383025,46.4562639 C168.259971,45.8692563 168.153429,44.7836154 167.799388,43.7866981 C166.918022,41.3069797 165.133219,39.9275731 162.48304,39.7305649 C160.26859,39.5658674 158.061787,40.8266849 157.013569,43.0304521 C155.795891,45.59086 155.773123,48.2302109 157.042768,50.7687873 C158.733718,54.149364 162.769123,55.1080324 165.742231,52.8667149 C167.685024,51.4020778 168.261362,49.2672984 168.383025,46.4562639 Z" id="Combined-Shape"></path>
        </g>
    </g>
</svg>