<?xml version="1.0" encoding="UTF-8"?>
<svg width="58px" height="19px" viewBox="0 0 58 19" version="1.1" xmlns="http://www.w3.org/2000/svg" xmlns:xlink="http://www.w3.org/1999/xlink">
    <!-- Generator: Sketch 42 (36781) - http://www.bohemiancoding.com/sketch -->
    <title>Group 3</title>
    <desc>Created with Sketch.</desc>
    <defs></defs>
    <g id="Page-1" stroke="none" stroke-width="1" fill="none" fill-rule="evenodd">
        <g id="Doo-iOS-::-Desktop-Copy-13" transform="translate(-88.000000, -40.000000)" fill="#FFFFFF">
            <g id="Group-3" transform="translate(88.000000, 40.000000)">
                <path d="M4.10714,14.5084528 C5.14630571,14.5084528 6.16225133,14.5601246 7.17125761,14.4977158 C9.33286107,14.3639061 10.9664077,12.9760158 11.3897072,10.8608286 C11.5582531,10.0183774 11.6208405,9.12009395 11.5344992,8.26744267 C11.3495392,6.43960419 10.4132625,5.0992251 8.6586778,4.41903673 C7.18753836,3.84863409 5.67089289,3.89104521 4.10714,4.0339814 L4.10714,14.5084528 Z M0.0146660218,17.919729 L0.0146660218,17.1916268 C0.0146660218,11.9149327 0.0257422712,6.63810431 0.00012010391,1.36141017 C-0.003082667,0.726451377 0.164395562,0.509564163 0.803748704,0.50714834 C2.9342586,0.499229809 5.07090714,0.318445726 7.19327666,0.431452555 C9.5443774,0.556538498 11.7468162,1.31389899 13.4729763,3.01960419 C16.071758,5.58748976 16.3876312,8.74094396 15.4764429,12.0860534 C14.5923447,15.3318458 12.2277656,17.0458721 9.11293747,17.8173249 C6.43969136,18.4793946 3.72560991,18.2548573 1.01993574,18.0383727 C0.711135245,18.0136777 0.404069584,17.9663007 0.0146660218,17.919729 L0.0146660218,17.919729 Z" id="Fill-1"></path>
                <path d="M32.2721872,8.8343692 C32.185579,8.43065835 32.1040418,7.59438097 31.8231321,6.83232305 C31.1235935,4.93549941 29.7369272,3.84005792 27.700899,3.78100447 C25.7912469,3.72570897 24.3517348,4.6113765 23.5344944,6.35654015 C22.632781,8.28221945 22.6174343,10.266818 23.5465048,12.1821629 C24.8777899,14.9265378 28.2681898,15.6436346 30.512665,13.6633308 C31.8172603,12.5123254 32.2318857,10.9486169 32.2721872,8.8343692 M27.5044624,18.370696 C22.2249615,18.3705618 18.6014265,14.6689842 18.5995582,9.27418319 C18.5978234,3.92031693 22.3520047,0.135393454 27.6654016,0.134185543 C32.9168783,0.132977631 36.6170129,3.93159077 36.6008656,9.30706522 C36.5849852,14.5651038 32.765414,18.3708302 27.5044624,18.370696" id="Fill-3"></path>
                <path d="M52.9694537,8.93771274 C52.8749719,8.48662491 52.7931678,7.65236073 52.5213326,6.88627643 C51.8446138,4.98072899 50.4742282,3.92071957 48.4394011,3.769328 C46.7391301,3.64276572 45.0447308,4.61164493 44.2399012,6.3051368 C43.304959,8.27269037 43.2874772,10.3009079 44.2623206,12.251685 C45.5606439,14.8494999 48.6590578,15.5861917 50.9418328,13.8638441 C52.4335233,12.7383391 52.8760395,11.0978611 52.9694537,8.93771274 M39.2806774,9.29941512 C39.2700015,3.9384356 43.0033647,0.154048976 48.3223665,0.134185543 C53.5456855,0.114724747 57.2604994,3.87978479 57.2821181,9.21512974 C57.3036034,14.5173242 53.4979109,18.3584827 48.211604,18.3704276 C42.9294341,18.3823725 39.2913533,14.6872371 39.2806774,9.29941512" id="Fill-6"></path>
            </g>
        </g>
    </g>
</svg>