<svg width="70" height="66" viewBox="0 0 70 66" fill="none" xmlns="http://www.w3.org/2000/svg">
<path d="M59.6043 16.3654C59.6049 16.3062 59.6053 16.2469 59.6053 16.1875C59.6053 7.24739 52.43 0 43.5789 0C37.1825 0 31.6613 3.78498 29.0909 9.25852C27.8134 8.28534 26.2234 7.70833 24.5 7.70833C20.2852 7.70833 16.8684 11.1595 16.8684 15.4167C16.8684 15.4371 16.8685 15.4575 16.8687 15.4778C12.8384 17.1478 10 21.1505 10 25.8229C10 31.8669 14.7494 36.7969 20.6842 37L58.0789 36.993C63.5922 36.7902 68 32.2119 68 26.5937C68 21.5046 64.3832 17.2688 59.6043 16.3654Z" fill="#D0EAFF"/>
<path d="M51.6043 23.3654C51.6049 23.3062 51.6053 23.2469 51.6053 23.1875C51.6053 14.2474 44.43 7 35.5789 7C29.1825 7 23.6613 10.785 21.0909 16.2585C19.8134 15.2853 18.2234 14.7083 16.5 14.7083C12.2852 14.7083 8.86842 18.1595 8.86842 22.4167C8.86842 22.4371 8.8685 22.4575 8.86866 22.4778C4.83844 24.1478 2 28.1505 2 32.8229C2 38.8669 6.74943 43.7969 12.6842 44L50.0789 43.993C55.5922 43.7902 60 39.2119 60 33.5937C60 28.5046 56.3832 24.2688 51.6043 23.3654Z" stroke="black" stroke-width="3"/>
</svg>
