<svg width="480" height="228" viewBox="0 0 480 228" fill="none" xmlns="http://www.w3.org/2000/svg">
<path d="M46.1555 215.437L50.6686 210.766C54.6151 206.681 61.1255 206.569 65.2099 210.516L69.8808 215.029L65.3677 219.7C61.4212 223.784 54.9109 223.896 50.8264 219.95L46.1555 215.437Z" fill="#ECE2C8"/>
<path d="M70.2254 190.525L65.7123 195.196C61.7658 199.28 61.8776 205.791 65.9621 209.737L70.633 214.25L75.1461 209.579C79.0926 205.495 78.9807 198.985 74.8962 195.038L70.2254 190.525Z" fill="#ECE2C8"/>
<path d="M32.9683 200.264L37.899 196.036C42.2108 192.339 48.703 192.838 52.3998 197.149L56.6274 202.08L51.6966 206.308C47.3849 210.005 40.8927 209.506 37.1959 205.194L32.9683 200.264Z" fill="#ECE2C8"/>
<path d="M59.2658 177.716L54.335 181.944C50.0233 185.641 49.5248 192.133 53.2216 196.445L57.4492 201.376L62.38 197.148C66.6917 193.451 67.1902 186.959 63.4934 182.647L59.2658 177.716Z" fill="#ECE2C8"/>
<path d="M21.2952 182.744L26.729 179.186C31.4806 176.075 37.8547 177.405 40.9659 182.156L44.5239 187.59L39.09 191.148C34.3384 194.259 27.9643 192.93 24.8531 188.178L21.2952 182.744Z" fill="#ECE2C8"/>
<path d="M50.2755 163.768L44.8417 167.326C40.0901 170.438 38.7603 176.812 41.8716 181.563L45.4295 186.997L50.8633 183.439C55.6149 180.328 56.9447 173.954 53.8334 169.202L50.2755 163.768Z" fill="#ECE2C8"/>
<path d="M0.523438 119.83L6.94437 118.852C12.5592 117.997 17.8043 121.855 18.6596 127.47L19.6378 133.891L13.2169 134.869C7.60208 135.724 2.35698 131.866 1.50161 126.251L0.523438 119.83Z" fill="#ECE2C8"/>
<path d="M34.7684 114.613L28.3475 115.591C22.7327 116.447 18.8744 121.692 19.7298 127.307L20.708 133.728L27.1289 132.749C32.7437 131.894 36.602 126.649 35.7466 121.034L34.7684 114.613Z" fill="#ECE2C8"/>
<path d="M11.7231 163.056L17.606 160.303C22.7502 157.896 28.8718 160.115 31.279 165.259L34.0318 171.142L28.149 173.894C23.0047 176.302 16.8831 174.083 14.4759 168.938L11.7231 163.056Z" fill="#ECE2C8"/>
<path d="M43.0981 148.374L37.2153 151.127C32.0711 153.534 29.8523 159.656 32.2594 164.8L35.0122 170.683L40.895 167.93C46.0393 165.523 48.2581 159.401 45.8509 154.257L43.0981 148.374Z" fill="#ECE2C8"/>
<path d="M0 97.9365L6.49475 97.8773C12.1741 97.8255 16.8201 102.387 16.8719 108.067L16.9312 114.562L10.4364 114.621C4.75709 114.673 0.111069 110.111 0.0592542 104.431L0 97.9365Z" fill="#ECE2C8"/>
<path d="M34.6387 97.6205L28.1439 97.6798C22.4646 97.7316 17.9026 102.378 17.9544 108.057L18.0136 114.552L24.5084 114.492C30.1877 114.441 34.7497 109.795 34.6979 104.115L34.6387 97.6205Z" fill="#ECE2C8"/>
<path d="M4.88184 142.088L11.1007 140.214C16.5389 138.576 22.2755 141.656 23.9139 147.094L25.7876 153.313L19.5687 155.187C14.1305 156.825 8.39387 153.745 6.75547 148.307L4.88184 142.088Z" fill="#ECE2C8"/>
<path d="M38.0493 132.095L31.8304 133.969C26.3923 135.607 23.312 141.344 24.9504 146.782L26.824 153.001L33.0429 151.127C38.4811 149.489 41.5614 143.752 39.923 138.314L38.0493 132.095Z" fill="#ECE2C8"/>
<path d="M2.48779 76.0264L8.92291 76.9064C14.5501 77.676 18.488 82.8616 17.7184 88.4888L16.8383 94.9239L10.4032 94.0439C4.77603 93.2743 0.838151 88.0887 1.60773 82.4615L2.48779 76.0264Z" fill="#ECE2C8"/>
<path d="M36.8084 80.7201L30.3733 79.84C24.7461 79.0704 19.5605 83.0083 18.7909 88.6355L17.9109 95.0706L24.346 95.9507C29.9732 96.7202 35.1588 92.7824 35.9284 87.1552L36.8084 80.7201Z" fill="#ECE2C8"/>
<path d="M10.5703 52.5059L16.65 54.7911C21.9664 56.7894 24.6563 62.7192 22.658 68.0356L20.3727 74.1153L14.293 71.8301C8.97661 69.8318 6.28676 63.902 8.28508 58.5856L10.5703 52.5059Z" fill="#ECE2C8"/>
<path d="M42.9955 64.6937L36.9158 62.4085C31.5993 60.4102 25.6696 63.1 23.6713 68.4165L21.386 74.4962L27.4658 76.7814C32.7822 78.7797 38.7119 76.0899 40.7103 70.7735L42.9955 64.6937Z" fill="#ECE2C8"/>
<path d="M19.2568 34.375L25.0958 37.2197C30.2016 39.7072 32.3242 45.8629 29.8367 50.9687L26.992 56.8076L21.153 53.963C16.0472 51.4754 13.9246 45.3198 16.4122 40.2139L19.2568 34.375Z" fill="#ECE2C8"/>
<path d="M50.3978 49.5466L44.5588 46.7019C39.453 44.2144 33.2973 46.337 30.8098 51.4428L27.9651 57.2818L33.8041 60.1264C38.9099 62.614 45.0656 60.4914 47.5531 55.3855L50.3978 49.5466Z" fill="#ECE2C8"/>
<path d="M30.689 16.7051L36.1133 20.2775C40.8566 23.4014 42.1694 29.779 39.0455 34.5223L35.4731 39.9466L30.0487 36.3742C25.3054 33.2503 23.9927 26.8727 27.1166 22.1294L30.689 16.7051Z" fill="#ECE2C8"/>
<path d="M59.6186 35.7579L54.1943 32.1855C49.451 29.0616 43.0734 30.3744 39.9495 35.1177L36.3771 40.542L41.8014 44.1144C46.5447 47.2383 52.9223 45.9255 56.0462 41.1822L59.6186 35.7579Z" fill="#ECE2C8"/>
<path d="M44.9573 0.09375L49.8212 4.39814C54.0744 8.16211 54.471 14.6614 50.7071 18.9146L46.4027 23.7785L41.5388 19.4741C37.2855 15.7101 36.8889 9.21089 40.6529 4.95765L44.9573 0.09375Z" fill="#ECE2C8"/>
<path d="M70.8981 23.0505L66.0342 18.7461C61.7809 14.9821 55.2817 15.3787 51.5177 19.632L47.2133 24.4959L52.0772 28.8003C56.3305 32.5643 62.8297 32.1676 66.5937 27.9144L70.8981 23.0505Z" fill="#ECE2C8"/>
<path d="M151.96 106.018H149.432L159.224 83.3621H161.464L171.192 106.018H168.632L166.136 100.066H154.424L151.96 106.018ZM155.288 97.9541H165.272L160.28 85.9221L155.288 97.9541Z" fill="black" fill-opacity="0.5"/>
<path d="M176.446 83.3621H182.846C183.998 83.3621 185.043 83.4901 185.982 83.7461C186.921 83.9808 187.721 84.3541 188.382 84.8661C189.065 85.3568 189.587 85.9861 189.95 86.7541C190.313 87.5008 190.494 88.3861 190.494 89.4101C190.494 90.4341 190.302 91.3301 189.918 92.0981C189.555 92.8448 189.033 93.4741 188.35 93.9861C187.689 94.4768 186.878 94.8501 185.918 95.1061C184.979 95.3621 183.934 95.4901 182.782 95.4901H178.75V106.018H176.446V83.3621ZM178.75 93.5381H182.654C184.467 93.5381 185.843 93.1861 186.782 92.4821C187.721 91.7781 188.19 90.7541 188.19 89.4101C188.19 88.0021 187.699 86.9781 186.718 86.3381C185.758 85.6768 184.403 85.3461 182.654 85.3461H178.75V93.5381Z" fill="black" fill-opacity="0.5"/>
<path d="M196.929 83.3621H203.329C204.481 83.3621 205.526 83.4901 206.465 83.7461C207.403 83.9808 208.203 84.3541 208.865 84.8661C209.547 85.3568 210.07 85.9861 210.433 86.7541C210.795 87.5008 210.977 88.3861 210.977 89.4101C210.977 90.4341 210.785 91.3301 210.401 92.0981C210.038 92.8448 209.515 93.4741 208.833 93.9861C208.171 94.4768 207.361 94.8501 206.401 95.1061C205.462 95.3621 204.417 95.4901 203.265 95.4901H199.233V106.018H196.929V83.3621ZM199.233 93.5381H203.137C204.95 93.5381 206.326 93.1861 207.265 92.4821C208.203 91.7781 208.673 90.7541 208.673 89.4101C208.673 88.0021 208.182 86.9781 207.201 86.3381C206.241 85.6768 204.886 85.3461 203.137 85.3461H199.233V93.5381Z" fill="black" fill-opacity="0.5"/>
<path d="M238.307 87.0101C237.816 86.3275 237.187 85.7835 236.419 85.3781C235.651 84.9515 234.723 84.7381 233.635 84.7381C233.08 84.7381 232.515 84.8235 231.939 84.9941C231.363 85.1648 230.84 85.4315 230.371 85.7941C229.902 86.1355 229.518 86.5728 229.219 87.1061C228.942 87.6395 228.803 88.2688 228.803 88.9941C228.803 89.7195 228.942 90.3168 229.219 90.7861C229.496 91.2555 229.859 91.6608 230.307 92.0021C230.776 92.3221 231.299 92.5888 231.875 92.8021C232.472 93.0155 233.091 93.2288 233.731 93.4421C234.52 93.6981 235.31 93.9755 236.099 94.2741C236.91 94.5728 237.635 94.9675 238.275 95.4581C238.915 95.9275 239.438 96.5355 239.843 97.2821C240.248 98.0075 240.451 98.9355 240.451 100.066C240.451 101.197 240.227 102.178 239.779 103.01C239.352 103.821 238.787 104.493 238.083 105.026C237.4 105.559 236.611 105.954 235.715 106.21C234.84 106.466 233.955 106.594 233.059 106.594C232.376 106.594 231.694 106.519 231.011 106.37C230.328 106.242 229.678 106.039 229.059 105.762C228.44 105.485 227.864 105.133 227.331 104.706C226.798 104.279 226.328 103.789 225.923 103.234L227.907 101.762C228.398 102.573 229.08 103.255 229.955 103.81C230.851 104.343 231.896 104.61 233.091 104.61C233.667 104.61 234.254 104.525 234.851 104.354C235.448 104.162 235.982 103.885 236.451 103.522C236.942 103.138 237.336 102.679 237.635 102.146C237.955 101.591 238.115 100.951 238.115 100.226C238.115 99.4368 237.955 98.7861 237.635 98.2741C237.336 97.7408 236.931 97.3035 236.419 96.9621C235.907 96.5995 235.32 96.3008 234.659 96.0661C233.998 95.8315 233.304 95.5968 232.579 95.3621C231.832 95.1275 231.096 94.8608 230.371 94.5621C229.646 94.2635 228.995 93.8795 228.419 93.4101C227.843 92.9195 227.374 92.3221 227.011 91.6181C226.67 90.9141 226.499 90.0501 226.499 89.0261C226.499 87.9381 226.712 86.9995 227.139 86.2101C227.587 85.4208 228.163 84.7701 228.867 84.2581C229.571 83.7461 230.35 83.3728 231.203 83.1381C232.056 82.9035 232.899 82.7861 233.731 82.7861C235.267 82.7861 236.579 83.0635 237.667 83.6181C238.755 84.1515 239.576 84.7915 240.131 85.5381L238.307 87.0101Z" fill="black" fill-opacity="0.5"/>
<path d="M254.015 106.018H251.711V85.4101H244.127V83.3621H261.599V85.4101H254.015V106.018Z" fill="black" fill-opacity="0.5"/>
<path d="M288.352 94.6901C288.352 96.4181 288.054 98.0075 287.456 99.4581C286.859 100.909 286.027 102.167 284.96 103.234C283.915 104.279 282.667 105.101 281.216 105.698C279.787 106.295 278.23 106.594 276.544 106.594C274.859 106.594 273.291 106.295 271.84 105.698C270.411 105.101 269.163 104.279 268.096 103.234C267.051 102.167 266.23 100.909 265.632 99.4581C265.035 98.0075 264.736 96.4181 264.736 94.6901C264.736 92.9621 265.035 91.3728 265.632 89.9221C266.23 88.4715 267.051 87.2235 268.096 86.1781C269.163 85.1115 270.411 84.2795 271.84 83.6821C273.291 83.0848 274.859 82.7861 276.544 82.7861C278.23 82.7861 279.787 83.0848 281.216 83.6821C282.667 84.2795 283.915 85.1115 284.96 86.1781C286.027 87.2235 286.859 88.4715 287.456 89.9221C288.054 91.3728 288.352 92.9621 288.352 94.6901ZM285.92 94.6901C285.92 93.3675 285.707 92.1088 285.28 90.9141C284.854 89.7195 284.235 88.6741 283.424 87.7781C282.614 86.8608 281.622 86.1355 280.448 85.6021C279.296 85.0688 277.995 84.8021 276.544 84.8021C275.094 84.8021 273.782 85.0688 272.608 85.6021C271.456 86.1355 270.475 86.8608 269.664 87.7781C268.854 88.6741 268.235 89.7195 267.808 90.9141C267.382 92.1088 267.168 93.3675 267.168 94.6901C267.168 96.0128 267.382 97.2715 267.808 98.4661C268.235 99.6608 268.854 100.706 269.664 101.602C270.475 102.498 271.456 103.213 272.608 103.746C273.782 104.279 275.094 104.546 276.544 104.546C277.995 104.546 279.296 104.279 280.448 103.746C281.622 103.213 282.614 102.498 283.424 101.602C284.235 100.706 284.854 99.6608 285.28 98.4661C285.707 97.2715 285.92 96.0128 285.92 94.6901Z" fill="black" fill-opacity="0.5"/>
<path d="M297.364 106.018H295.06V83.3621H301.716C302.825 83.3621 303.849 83.4688 304.788 83.6821C305.748 83.8955 306.569 84.2475 307.252 84.7381C307.956 85.2075 308.5 85.8261 308.884 86.5941C309.268 87.3621 309.46 88.3008 309.46 89.4101C309.46 90.2421 309.311 90.9995 309.012 91.6821C308.713 92.3648 308.308 92.9621 307.796 93.4741C307.284 93.9648 306.676 94.3595 305.972 94.6581C305.268 94.9568 304.5 95.1488 303.668 95.2341L310.292 106.018H307.476L301.204 95.4261H297.364V106.018ZM297.364 93.4421H301.364C303.22 93.4421 304.649 93.1115 305.652 92.4501C306.655 91.7675 307.156 90.7541 307.156 89.4101C307.156 88.6635 307.017 88.0341 306.74 87.5221C306.463 87.0101 306.079 86.5941 305.588 86.2741C305.097 85.9541 304.5 85.7195 303.796 85.5701C303.092 85.4208 302.313 85.3461 301.46 85.3461H297.364V93.4421Z" fill="black" fill-opacity="0.5"/>
<path d="M318.44 103.97H330.568V106.018H316.136V83.3621H330.184V85.4101H318.44V93.2181H329.416V95.2341H318.44V103.97Z" fill="black" fill-opacity="0.5"/>
<path d="M106.875 121.17H115.707C116.56 121.17 117.403 121.276 118.235 121.49C119.067 121.682 119.803 122.012 120.443 122.482C121.104 122.93 121.637 123.516 122.043 124.242C122.448 124.967 122.651 125.842 122.651 126.866C122.651 128.146 122.288 129.202 121.563 130.034C120.837 130.866 119.888 131.463 118.715 131.826V131.89C120.144 132.082 121.317 132.636 122.235 133.554C123.152 134.471 123.611 135.698 123.611 137.234C123.611 138.471 123.365 139.516 122.875 140.37C122.384 141.202 121.733 141.874 120.923 142.386C120.133 142.898 119.216 143.271 118.171 143.506C117.147 143.719 116.101 143.826 115.035 143.826H106.875V121.17ZM110.907 130.386H114.491C115.835 130.386 116.859 130.119 117.563 129.586C118.267 129.052 118.619 128.295 118.619 127.314C118.619 126.29 118.256 125.564 117.531 125.138C116.805 124.711 115.675 124.498 114.139 124.498H110.907V130.386ZM110.907 140.434H114.523C115.035 140.434 115.589 140.402 116.187 140.338C116.784 140.252 117.328 140.092 117.819 139.858C118.331 139.623 118.747 139.282 119.067 138.834C119.408 138.386 119.579 137.788 119.579 137.042C119.579 135.847 119.173 135.015 118.363 134.546C117.552 134.076 116.325 133.842 114.683 133.842H110.907V140.434Z" fill="black"/>
<path d="M129.513 121.17H144.521V124.69H133.545V130.45H143.945V133.842H133.545V140.242H145.097V143.826H129.513V121.17Z" fill="black"/>
<path d="M162.517 125.906C162.09 125.351 161.482 124.892 160.693 124.53C159.925 124.146 159.146 123.954 158.357 123.954C157.887 123.954 157.418 124.018 156.949 124.146C156.479 124.252 156.053 124.434 155.669 124.69C155.285 124.924 154.965 125.244 154.709 125.65C154.474 126.034 154.357 126.503 154.357 127.058C154.357 127.57 154.463 128.007 154.677 128.37C154.89 128.732 155.178 129.042 155.541 129.298C155.925 129.554 156.383 129.778 156.917 129.97C157.45 130.162 158.037 130.354 158.677 130.546C159.402 130.78 160.149 131.047 160.917 131.346C161.706 131.644 162.421 132.039 163.061 132.53C163.722 133.02 164.255 133.639 164.661 134.386C165.087 135.132 165.301 136.06 165.301 137.17C165.301 138.386 165.077 139.452 164.629 140.37C164.181 141.266 163.583 142.012 162.837 142.61C162.09 143.207 161.215 143.655 160.213 143.954C159.21 144.252 158.154 144.402 157.045 144.402C155.573 144.402 154.133 144.135 152.725 143.602C151.317 143.047 150.165 142.236 149.269 141.17L152.149 138.482C152.703 139.25 153.439 139.858 154.357 140.306C155.295 140.754 156.213 140.978 157.109 140.978C157.578 140.978 158.058 140.924 158.549 140.818C159.039 140.69 159.477 140.487 159.861 140.21C160.266 139.932 160.586 139.591 160.821 139.186C161.077 138.759 161.205 138.236 161.205 137.618C161.205 137.02 161.066 136.53 160.789 136.146C160.511 135.74 160.138 135.399 159.669 135.122C159.199 134.823 158.645 134.567 158.005 134.354C157.365 134.14 156.693 133.916 155.989 133.682C155.306 133.468 154.623 133.212 153.941 132.914C153.258 132.615 152.639 132.22 152.085 131.73C151.551 131.239 151.114 130.642 150.773 129.938C150.431 129.212 150.261 128.316 150.261 127.25C150.261 126.098 150.495 125.106 150.965 124.274C151.455 123.442 152.085 122.759 152.853 122.226C153.642 121.671 154.527 121.266 155.509 121.01C156.511 120.732 157.525 120.594 158.549 120.594C159.701 120.594 160.863 120.796 162.037 121.202C163.231 121.607 164.266 122.215 165.141 123.026L162.517 125.906Z" fill="black"/>
<path d="M175.336 124.69H168.392V121.17H186.312V124.69H179.368V143.826H175.336V124.69Z" fill="black"/>
<path d="M200.006 121.17H205.35L215.878 138.13H215.942V121.17H219.974V143.826H214.854L204.102 126.322H204.038V143.826H200.006V121.17Z" fill="black"/>
<path d="M226.895 121.17H241.903V124.69H230.927V130.45H241.327V133.842H230.927V140.242H242.479V143.826H226.895V121.17Z" fill="black"/>
<path d="M246.042 121.17H250.458L254.842 137.81H254.906L259.898 121.17H264.058L268.954 137.81H269.018L273.498 121.17H277.786L271.162 143.826H267.258L261.946 126.834H261.882L256.57 143.826H252.666L246.042 121.17Z" fill="black"/>
<path d="M298.477 121.17H301.965L311.725 143.826H307.117L305.005 138.642H295.181L293.133 143.826H288.621L298.477 121.17ZM303.597 135.186L300.109 125.97L296.557 135.186H303.597Z" fill="black"/>
<path d="M315.887 121.17H323.279C324.58 121.17 325.754 121.287 326.799 121.522C327.844 121.756 328.74 122.14 329.487 122.674C330.234 123.207 330.81 123.89 331.215 124.722C331.62 125.554 331.823 126.556 331.823 127.73C331.823 128.988 331.588 130.044 331.119 130.898C330.65 131.751 330.01 132.444 329.199 132.978C328.41 133.49 327.482 133.863 326.415 134.098C325.348 134.332 324.218 134.45 323.023 134.45H319.919V143.826H315.887V121.17ZM322.735 131.058C323.396 131.058 324.026 131.015 324.623 130.93C325.22 130.823 325.754 130.652 326.223 130.418C326.692 130.162 327.066 129.82 327.343 129.394C327.62 128.967 327.759 128.412 327.759 127.73C327.759 127.068 327.62 126.535 327.343 126.13C327.066 125.703 326.692 125.372 326.223 125.138C325.775 124.903 325.252 124.754 324.655 124.69C324.079 124.604 323.482 124.562 322.863 124.562H319.919V131.058H322.735Z" fill="black"/>
<path d="M337.338 121.17H344.73C346.032 121.17 347.205 121.287 348.25 121.522C349.296 121.756 350.192 122.14 350.938 122.674C351.685 123.207 352.261 123.89 352.666 124.722C353.072 125.554 353.274 126.556 353.274 127.73C353.274 128.988 353.04 130.044 352.57 130.898C352.101 131.751 351.461 132.444 350.65 132.978C349.861 133.49 348.933 133.863 347.866 134.098C346.8 134.332 345.669 134.45 344.474 134.45H341.37V143.826H337.338V121.17ZM344.186 131.058C344.848 131.058 345.477 131.015 346.074 130.93C346.672 130.823 347.205 130.652 347.674 130.418C348.144 130.162 348.517 129.82 348.794 129.394C349.072 128.967 349.21 128.412 349.21 127.73C349.21 127.068 349.072 126.535 348.794 126.13C348.517 125.703 348.144 125.372 347.674 125.138C347.226 124.903 346.704 124.754 346.106 124.69C345.53 124.604 344.933 124.562 344.314 124.562H341.37V131.058H344.186Z" fill="black"/>
<path d="M370.342 125.906C369.915 125.351 369.307 124.892 368.518 124.53C367.75 124.146 366.971 123.954 366.182 123.954C365.712 123.954 365.243 124.018 364.774 124.146C364.304 124.252 363.878 124.434 363.494 124.69C363.11 124.924 362.789 125.244 362.533 125.65C362.299 126.034 362.182 126.503 362.182 127.058C362.182 127.57 362.288 128.007 362.502 128.37C362.715 128.732 363.003 129.042 363.366 129.298C363.75 129.554 364.208 129.778 364.742 129.97C365.275 130.162 365.862 130.354 366.502 130.546C367.227 130.78 367.974 131.047 368.742 131.346C369.531 131.644 370.246 132.039 370.886 132.53C371.547 133.02 372.08 133.639 372.486 134.386C372.912 135.132 373.126 136.06 373.126 137.17C373.126 138.386 372.902 139.452 372.454 140.37C372.006 141.266 371.408 142.012 370.662 142.61C369.915 143.207 369.04 143.655 368.038 143.954C367.035 144.252 365.979 144.402 364.87 144.402C363.398 144.402 361.958 144.135 360.55 143.602C359.142 143.047 357.99 142.236 357.094 141.17L359.973 138.482C360.528 139.25 361.264 139.858 362.182 140.306C363.12 140.754 364.038 140.978 364.934 140.978C365.403 140.978 365.883 140.924 366.374 140.818C366.864 140.69 367.302 140.487 367.686 140.21C368.091 139.932 368.411 139.591 368.646 139.186C368.902 138.759 369.03 138.236 369.03 137.618C369.03 137.02 368.891 136.53 368.614 136.146C368.336 135.74 367.963 135.399 367.494 135.122C367.024 134.823 366.47 134.567 365.83 134.354C365.19 134.14 364.518 133.916 363.814 133.682C363.131 133.468 362.448 133.212 361.766 132.914C361.083 132.615 360.464 132.22 359.91 131.73C359.376 131.239 358.939 130.642 358.598 129.938C358.256 129.212 358.086 128.316 358.086 127.25C358.086 126.098 358.32 125.106 358.79 124.274C359.28 123.442 359.91 122.759 360.678 122.226C361.467 121.671 362.352 121.266 363.334 121.01C364.336 120.732 365.35 120.594 366.374 120.594C367.526 120.594 368.688 120.796 369.862 121.202C371.056 121.607 372.091 122.215 372.966 123.026L370.342 125.906Z" fill="black"/>
<path d="M433.844 215.437L429.331 210.766C425.385 206.681 418.875 206.569 414.79 210.516L410.119 215.029L414.632 219.7C418.579 223.784 425.089 223.896 429.174 219.95L433.844 215.437Z" fill="#ECE2C8"/>
<path d="M409.775 190.525L414.288 195.196C418.234 199.28 418.122 205.791 414.038 209.737L409.367 214.25L404.854 209.579C400.907 205.495 401.019 198.985 405.104 195.038L409.775 190.525Z" fill="#ECE2C8"/>
<path d="M447.027 200.264L442.097 196.036C437.785 192.339 431.293 192.838 427.596 197.149L423.368 202.08L428.299 206.308C432.611 210.005 439.103 209.506 442.8 205.194L447.027 200.264Z" fill="#ECE2C8"/>
<path d="M420.73 177.716L425.661 181.944C429.972 185.641 430.471 192.133 426.774 196.445L422.546 201.376L417.616 197.148C413.304 193.451 412.805 186.959 416.502 182.647L420.73 177.716Z" fill="#ECE2C8"/>
<path d="M458.706 182.744L453.272 179.186C448.52 176.075 442.146 177.405 439.035 182.156L435.477 187.59L440.911 191.148C445.662 194.259 452.036 192.93 455.148 188.178L458.706 182.744Z" fill="#ECE2C8"/>
<path d="M429.725 163.768L435.159 167.326C439.911 170.438 441.24 176.812 438.129 181.563L434.571 186.997L429.137 183.439C424.386 180.328 423.056 173.954 426.167 169.202L429.725 163.768Z" fill="#ECE2C8"/>
<path d="M479.478 119.83L473.057 118.852C467.442 117.997 462.197 121.855 461.341 127.47L460.363 133.891L466.784 134.869C472.399 135.724 477.644 131.866 478.499 126.251L479.478 119.83Z" fill="#ECE2C8"/>
<path d="M445.233 114.613L451.653 115.591C457.268 116.447 461.127 121.692 460.271 127.307L459.293 133.728L452.872 132.749C447.257 131.894 443.399 126.649 444.254 121.034L445.233 114.613Z" fill="#ECE2C8"/>
<path d="M468.277 163.056L462.394 160.303C457.25 157.896 451.128 160.115 448.721 165.259L445.968 171.142L451.851 173.894C456.995 176.302 463.117 174.083 465.524 168.938L468.277 163.056Z" fill="#ECE2C8"/>
<path d="M436.902 148.374L442.785 151.127C447.929 153.534 450.148 159.656 447.741 164.8L444.988 170.683L439.105 167.93C433.961 165.523 431.742 159.401 434.149 154.257L436.902 148.374Z" fill="#ECE2C8"/>
<path d="M480 97.9365L473.505 97.8773C467.826 97.8255 463.18 102.387 463.128 108.067L463.069 114.562L469.564 114.621C475.243 114.673 479.889 110.111 479.941 104.431L480 97.9365Z" fill="#ECE2C8"/>
<path d="M445.361 97.6205L451.856 97.6798C457.535 97.7316 462.097 102.378 462.046 108.057L461.986 114.552L455.492 114.492C449.812 114.441 445.25 109.795 445.302 104.115L445.361 97.6205Z" fill="#ECE2C8"/>
<path d="M475.119 142.088L468.9 140.214C463.462 138.576 457.725 141.656 456.087 147.094L454.213 153.313L460.432 155.187C465.87 156.825 471.607 153.745 473.246 148.307L475.119 142.088Z" fill="#ECE2C8"/>
<path d="M441.952 132.095L448.171 133.969C453.609 135.607 456.689 141.344 455.051 146.782L453.177 153.001L446.958 151.127C441.52 149.489 438.44 143.752 440.078 138.314L441.952 132.095Z" fill="#ECE2C8"/>
<path d="M477.512 76.0264L471.077 76.9064C465.45 77.676 461.512 82.8616 462.282 88.4888L463.162 94.9239L469.597 94.0439C475.224 93.2743 479.162 88.0887 478.392 82.4615L477.512 76.0264Z" fill="#ECE2C8"/>
<path d="M443.192 80.7201L449.627 79.84C455.254 79.0704 460.439 83.0083 461.209 88.6355L462.089 95.0706L455.654 95.9507C450.027 96.7202 444.841 92.7824 444.072 87.1552L443.192 80.7201Z" fill="#ECE2C8"/>
<path d="M469.431 52.5059L463.351 54.7911C458.035 56.7894 455.345 62.7192 457.343 68.0356L459.628 74.1153L465.708 71.8301C471.024 69.8318 473.714 63.902 471.716 58.5856L469.431 52.5059Z" fill="#ECE2C8"/>
<path d="M437.005 64.6937L443.085 62.4085C448.402 60.4102 454.331 63.1 456.33 68.4165L458.615 74.4962L452.535 76.7814C447.219 78.7797 441.289 76.0899 439.291 70.7735L437.005 64.6937Z" fill="#ECE2C8"/>
<path d="M460.74 34.375L454.901 37.2197C449.795 39.7072 447.672 45.8629 450.16 50.9687L453.004 56.8076L458.843 53.963C463.949 51.4754 466.072 45.3198 463.584 40.2139L460.74 34.375Z" fill="#ECE2C8"/>
<path d="M429.599 49.5466L435.437 46.7019C440.543 44.2144 446.699 46.337 449.187 51.4428L452.031 57.2818L446.192 60.1264C441.086 62.614 434.931 60.4914 432.443 55.3855L429.599 49.5466Z" fill="#ECE2C8"/>
<path d="M449.309 16.7051L443.884 20.2775C439.141 23.4014 437.828 29.779 440.952 34.5223L444.525 39.9466L449.949 36.3742C454.692 33.2503 456.005 26.8727 452.881 22.1294L449.309 16.7051Z" fill="#ECE2C8"/>
<path d="M420.379 35.7579L425.803 32.1855C430.547 29.0616 436.924 30.3744 440.048 35.1177L443.62 40.542L438.196 44.1144C433.453 47.2383 427.075 45.9255 423.951 41.1822L420.379 35.7579Z" fill="#ECE2C8"/>
<path d="M435.041 0.09375L430.177 4.39814C425.924 8.16211 425.527 14.6614 429.291 18.9146L433.596 23.7785L438.46 19.4741C442.713 15.7101 443.11 9.21089 439.346 4.95765L435.041 0.09375Z" fill="#ECE2C8"/>
<path d="M409.1 23.0505L413.964 18.7461C418.218 14.9821 424.717 15.3787 428.481 19.632L432.785 24.4959L427.921 28.8003C423.668 32.5643 417.169 32.1676 413.405 27.9144L409.1 23.0505Z" fill="#ECE2C8"/>
</svg>
