<svg width="70" height="66" viewBox="0 0 70 66" fill="none" xmlns="http://www.w3.org/2000/svg">
<circle cx="31.5" cy="24.5" r="24.5" fill="#FFDFEF"/>
<path d="M2 26.313C4.13953 24.4458 4.85271 18.4696 4.85271 18.4696C4.85271 18.4696 5.92248 39.0118 6.99225 39.0118C8.06202 39.0118 9.48837 13.988 10.5581 13.988C11.6279 13.988 13.6248 42 14.4806 42C15.5504 42 16.9767 11 18.0465 11C19.1163 11 20.5426 34.9036 21.2558 34.9036C21.969 34.9036 23.7519 18.0964 25.1783 18.0964C26.6047 18.0964 26.2481 28.9277 28.3876 28.9277C30.5271 28.9277 30.8837 23.6988 32.3101 23.6988C33.7364 23.6988 35.876 41.253 37.3023 41.253C38.7287 41.253 38.0155 11.747 39.4419 11.747C40.8682 11.747 41.2248 32.2892 42.6512 32.2892C43.7922 32.2892 45.2661 25.8153 45.8605 22.5783C45.8605 22.5783 46.5736 26.313 48 26.6867" stroke="black" stroke-width="2.5" stroke-linecap="round" stroke-linejoin="round"/>
</svg>
