<?xml version="1.0" encoding="UTF-8"?>
<svg width="63px" height="38px" viewBox="0 0 63 38" version="1.1" xmlns="http://www.w3.org/2000/svg" xmlns:xlink="http://www.w3.org/1999/xlink">
    <!-- Generator: Sketch 42 (36781) - http://www.bohemiancoding.com/sketch -->
    <title>Group</title>
    <desc>Created with Sketch.</desc>
    <defs>
        <path d="M22.3310226,31 C25.1181781,23.9707602 31.9785974,19 40,19 C45.4648694,19 50.3908677,21.3071815 53.8570755,25.0006251 C53.9046677,25.0002087 53.9523095,25 54,25 C62.836556,25 70,32.163444 70,41 C70,49.836556 62.836556,57 54,57 C53.6466539,57 53.295983,56.988546 52.9483384,56.9659891 C52.635712,56.988533 52.3200444,57 52.0017276,57 L19.9982724,57 C12.8195248,57 7,51.1812804 7,44 C7,36.8202983 12.8268186,31 19.9982724,31 L22.3310226,31 Z" id="path-1"></path>
        <mask id="mask-2" maskContentUnits="userSpaceOnUse" maskUnits="objectBoundingBox" x="0" y="0" width="63" height="38" fill="white">
            <use xlink:href="#path-1"></use>
        </mask>
        <ellipse id="path-3" cx="17.5" cy="17.5" rx="17.5" ry="17.5"></ellipse>
        <ellipse id="path-5" cx="2" cy="38" rx="19" ry="19"></ellipse>
        <mask id="mask-6" maskContentUnits="userSpaceOnUse" maskUnits="objectBoundingBox" x="0" y="0" width="38" height="38" fill="white">
            <use xlink:href="#path-5"></use>
        </mask>
        <ellipse id="path-7" cx="17.5" cy="17.5" rx="17.5" ry="17.5"></ellipse>
        <ellipse id="path-9" cx="20" cy="38" rx="13" ry="13"></ellipse>
        <mask id="mask-10" maskContentUnits="userSpaceOnUse" maskUnits="objectBoundingBox" x="0" y="0" width="26" height="26" fill="white">
            <use xlink:href="#path-9"></use>
        </mask>
    </defs>
    <g id="Icons" stroke="none" stroke-width="1" fill="none" fill-rule="evenodd">
        <g id="iCloudIcon" transform="translate(-8.000000, -21.000000)">
            <g id="Group" transform="translate(1.000000, 2.000000)">
                <use id="Combined-Shape" stroke="#FFFFFF" mask="url(#mask-2)" stroke-width="2" xlink:href="#path-1"></use>
                <g id="Oval" transform="translate(38.000000, 0.000000)">
                    <mask id="mask-4" fill="white">
                        <use xlink:href="#path-3"></use>
                    </mask>
                    <g id="Mask"></g>
                    <g mask="url(#mask-4)" stroke-width="2" stroke="#FFFFFF">
                        <use mask="url(#mask-6)" xlink:href="#path-5"></use>
                    </g>
                </g>
                <g id="Oval" transform="translate(0.000000, 6.000000)">
                    <mask id="mask-8" fill="white">
                        <use xlink:href="#path-7"></use>
                    </mask>
                    <g id="Mask"></g>
                    <g mask="url(#mask-8)" stroke-width="2" stroke="#FFFFFF">
                        <use mask="url(#mask-10)" xlink:href="#path-9"></use>
                    </g>
                </g>
            </g>
        </g>
    </g>
</svg>