<?xml version="1.0" encoding="UTF-8"?>
<svg width="30px" height="30px" viewBox="0 0 30 30" version="1.1" xmlns="http://www.w3.org/2000/svg" xmlns:xlink="http://www.w3.org/1999/xlink">
    <!-- Generator: Sketch 42 (36781) - http://www.bohemiancoding.com/sketch -->
    <title>Artboard</title>
    <desc>Created with Sketch.</desc>
    <defs>
        <path d="M9.89690766,13.5964912 C11.1321498,10.5134913 14.1726258,8.33333333 17.727639,8.33333333 C20.1496198,8.33333333 22.3327778,9.34525505 23.8689698,10.9651864 C23.8900622,10.9650038 23.9111766,10.9649123 23.9323127,10.9649123 C27.8485945,10.9649123 31.0233683,14.1067737 31.0233683,17.9824561 C31.0233683,21.8581386 27.8485945,25 23.9323127,25 C23.7849703,25 23.6386775,24.9955527 23.4935639,24.9867864 C23.3643707,24.995548 23.2340095,25 23.1026238,25 L8.80712644,25 C5.65645814,25 3.10233683,22.44083 3.10233683,19.2982456 C3.10233683,16.1492536 5.66101389,13.5964912 8.80712644,13.5964912 L9.89690766,13.5964912 Z" id="path-1"></path>
        <mask id="mask-2" maskContentUnits="userSpaceOnUse" maskUnits="objectBoundingBox" x="0" y="0" width="27.9210314" height="16.6666667" fill="white">
            <use xlink:href="#path-1"></use>
        </mask>
        <ellipse id="path-3" cx="7.75584206" cy="7.6754386" rx="7.75584206" ry="7.6754386"></ellipse>
        <ellipse id="path-5" cx="0.88638195" cy="16.6666667" rx="8.42062853" ry="8.33333333"></ellipse>
        <mask id="mask-6" maskContentUnits="userSpaceOnUse" maskUnits="objectBoundingBox" x="0" y="0" width="16.8412571" height="16.6666667" fill="white">
            <use xlink:href="#path-5"></use>
        </mask>
        <ellipse id="path-7" cx="7.75584206" cy="7.6754386" rx="7.75584206" ry="7.6754386"></ellipse>
        <ellipse id="path-9" cx="8.8638195" cy="16.6666667" rx="5.76148268" ry="5.70175439"></ellipse>
        <mask id="mask-10" maskContentUnits="userSpaceOnUse" maskUnits="objectBoundingBox" x="0" y="0" width="11.5229654" height="11.4035088" fill="white">
            <use xlink:href="#path-9"></use>
        </mask>
    </defs>
    <g id="Icons" stroke="none" stroke-width="1" fill="none" fill-rule="evenodd">
        <g id="Artboard">
            <g id="Group" transform="translate(-2.000000, -1.000000)">
                <use id="Combined-Shape" stroke="#FFFFFF" mask="url(#mask-2)" stroke-width="2" xlink:href="#path-1"></use>
                <g id="Oval" transform="translate(16.841257, 0.000000)">
                    <mask id="mask-4" fill="white">
                        <use xlink:href="#path-3"></use>
                    </mask>
                    <g id="Mask"></g>
                    <g mask="url(#mask-4)" stroke-width="2" stroke="#FFFFFF">
                        <use mask="url(#mask-6)" xlink:href="#path-5"></use>
                    </g>
                </g>
                <g id="Oval" transform="translate(0.000000, 2.631579)">
                    <mask id="mask-8" fill="white">
                        <use xlink:href="#path-7"></use>
                    </mask>
                    <g id="Mask"></g>
                    <g mask="url(#mask-8)" stroke-width="2" stroke="#FFFFFF">
                        <use mask="url(#mask-10)" xlink:href="#path-9"></use>
                    </g>
                </g>
            </g>
        </g>
    </g>
</svg>