<?xml version="1.0" encoding="UTF-8"?>
<svg width="109px" height="31px" viewBox="0 0 109 31" version="1.1" xmlns="http://www.w3.org/2000/svg" xmlns:xlink="http://www.w3.org/1999/xlink">
    <!-- Generator: Sketch 42 (36781) - http://www.bohemiancoding.com/sketch -->
    <title>Group 9</title>
    <desc>Created with Sketch.</desc>
    <defs></defs>
    <g id="Page-1" stroke="none" stroke-width="1" fill="none" fill-rule="evenodd">
        <g id="Desktop-HD-Copy-9" transform="translate(-1056.000000, -3571.000000)" fill-rule="nonzero" fill="#AE8EE8">
            <g id="Group-9" transform="translate(1056.000000, 3571.000000)">
                <path d="M13.0207494,30.9566525 C13.0152843,22.860661 12.9767686,14.7644068 13.0210096,6.66867797 C13.0374048,3.67455085 15.5458674,1.02352542 18.8813759,0.222254237 C19.1470819,0.158415254 19.4081036,0.0743474576 19.6712072,0 L21.1491156,0 L21.1491156,4.84887288 C20.9050096,4.89458475 20.6970771,4.94055932 20.4870626,4.97208475 C18.4889325,5.27236441 17.8724217,5.99797458 17.8726819,8.05448305 L17.8726819,11.5908475 L21.116065,11.5908475 L21.116065,16.5571525 L17.8240168,16.5571525 L17.8240168,30.9566525 L13.0207494,30.9566525 Z" id="Fill-7"></path>
                <path d="M29.9546686,14.455792 C29.7633915,13.5694022 30.3216084,12.6107666 29.3576758,12.0832412 C29.0909289,11.9371734 28.5087698,12.0102073 28.2878252,12.2177496 C27.6122397,12.8519361 27.9424855,13.6810547 27.9370204,14.455792 L29.9546686,14.455792 Z M27.8959024,19.4073852 C27.8959024,19.8608259 27.8865337,20.1668852 27.897724,20.4724191 C27.9318156,21.41897 28.2607602,21.7612835 29.1955457,21.7725802 C30.4499072,21.7875547 31.7045289,21.7762581 33.0124999,21.7762581 L33.0124999,26.5350208 C31.1515168,26.5350208 29.2806445,26.7822327 27.5026783,26.4772242 C24.8375505,26.020631 23.053859,23.5779361 23.0244517,20.8383768 C22.995565,18.1663344 22.9877578,15.4935039 23.0260132,12.8217242 C23.0725963,9.56015642 25.6747457,7.01027507 28.9017337,7.00002931 C32.1211746,6.99004626 34.7389385,9.53178354 34.8263795,12.7849446 C34.861512,14.0890463 34.8477192,15.3949869 34.8297626,16.6998768 C34.8071216,18.3418259 33.7960855,19.3753344 32.1750445,19.4023937 C30.7960277,19.4255124 29.4162301,19.4073852 27.8959024,19.4073852 L27.8959024,19.4073852 Z" id="Fill-9"></path>
                <path d="M78.5496867,15.1162966 C79.7486169,13.1425424 80.9709687,11.1821864 82.1329446,9.18636441 C82.4743807,8.5994661 82.8595373,8.37327119 83.5270554,8.41451695 C84.474853,8.47310169 85.4286361,8.42949153 86.5075952,8.42949153 C86.3363566,8.76182203 86.2291373,9.00325424 86.0932916,9.22708475 C84.6341205,11.6369407 83.185359,14.0536271 81.6954795,16.4440424 C81.3896964,16.9345254 81.3969831,17.2799915 81.6863711,17.774678 C83.2337639,20.4199237 84.7400386,23.0901271 86.2582843,25.7524492 C86.4084434,26.0159492 86.5455904,26.2873305 86.773041,26.712661 C85.5038458,26.712661 84.3541012,26.7497034 83.2100819,26.6824492 C82.9690988,26.6685254 82.6856964,26.3099237 82.531894,26.0451102 C81.1812434,23.719322 79.8560964,21.3790847 78.3641349,19.0532966 L78.3641349,26.6517119 L75,26.6517119 L75,1 L78.2964723,1 L78.2964723,15.0516695 L78.5496867,15.1162966 Z" id="Fill-11"></path>
                <path d="M47.3578506,26.3354068 L44.0509687,26.3354068 C44.034053,25.982322 44.0046458,25.6547203 44.0043855,25.3268559 C44.0012627,21.4765508 44.004906,17.6262458 44.0012627,13.7754153 C43.9999614,12.2966102 43.6093398,11.910161 42.1405398,11.9059576 C41.564106,11.9041186 40.9879325,11.9056949 40.3227566,11.9056949 L40.3227566,26.2986271 L37,26.2986271 L37,1 L40.2933494,1 L40.2933494,8.51355932 C41.1339277,8.51355932 41.8907084,8.5064661 42.6472289,8.51487288 C45.1478843,8.54272034 47.2295518,10.2280169 47.3149108,12.7369153 C47.467412,17.2282373 47.3578506,21.7287542 47.3578506,26.3354068" id="Fill-13"></path>
                <path d="M56.059104,13.9667589 C56.059104,13.4523691 56.1010028,13.0806318 56.0512968,12.7215047 C55.9086847,11.6956148 55.5573594,11.3953352 54.5247233,11.388242 C53.1428438,11.3787843 51.760704,11.3858776 50.3116823,11.3858776 L50.3116823,8.09725044 C52.2390269,8.09725044 54.2314317,7.83716569 56.1220823,8.16765722 C58.1662751,8.52520807 59.1276052,10.2906318 59.2918173,12.2730555 C59.4682606,14.4012843 59.3836823,16.5515809 59.4050221,18.6926826 C59.4154317,19.7479962 59.4162124,20.8038352 59.4018992,21.8594115 C59.3961739,22.2608352 59.3771763,22.670403 59.2933787,23.0613182 C58.8155763,25.2875386 56.283692,26.7384962 53.4244245,26.4429454 C50.8347667,26.175242 49.0370221,24.3937928 49.0065739,22.0511911 C48.9933016,21.0268776 49.0042317,20.0023013 49.0042317,18.977725 C49.0047522,16.0235301 50.7202606,14.1672081 53.6659281,13.9741148 C54.4276534,13.9239369 55.1953642,13.9667589 56.059104,13.9667589 Z M55.8316644,17.0306162 C54.9223824,17.0306162 54.0976788,16.9486501 53.2963969,17.0529468 C52.4532162,17.1627603 51.925968,17.659023 52.0084644,18.6426162 C52.0649367,19.3177857 52.0287632,20.0024129 52.0167921,20.6820485 C52.0040403,21.3997773 51.9236258,22.1353705 52.768368,22.4876671 C53.6438186,22.8528366 54.5148451,22.8685993 55.3104017,22.3260993 C55.554768,22.15954 55.7991342,21.7927942 55.8085029,21.5095908 C55.8582089,20.0355146 55.8316644,18.5588112 55.8316644,17.0306162 Z" id="Fill-15"></path>
                <path d="M90.3920143,15.4379852 L93.8526987,15.4379852 C93.8769011,15.2459429 93.9104721,15.0985615 93.9112529,14.9511801 C93.9148962,14.3317056 93.9383179,13.710392 93.8992818,13.0930191 C93.8396866,12.150409 93.1393782,11.4531717 92.2540384,11.3982649 C91.3577685,11.3428327 90.4987131,12.0279852 90.4076288,12.9863581 C90.3324191,13.7765954 90.3920143,14.5797056 90.3920143,15.4379852 M90.3735372,18.8829259 C90.3735372,19.803731 90.3477734,20.5490446 90.3792625,21.291731 C90.4279276,22.4408327 91.1214697,23.1091717 92.2647083,23.1425361 C92.7875324,23.1577734 93.3111372,23.1459513 93.8344818,23.1459513 C94.3539227,23.146214 94.8731035,23.1459513 95.4674938,23.1459513 L95.4674938,26.6292479 C93.8612866,26.528892 92.2150023,26.6224174 90.6621444,26.2811547 C88.4810649,25.8014429 87.0434938,23.7360022 87.0208529,21.46407 C86.9930071,18.6990276 86.9935276,15.9337225 87.0195517,13.1684174 C87.046877,10.271231 89.2945782,8.01611235 92.1200143,8.00008693 C94.9506553,7.98406151 97.2095468,10.1855869 97.3042746,13.0938073 C97.3453926,14.3663835 97.3300384,15.6415869 97.3066167,16.915214 C97.2834553,18.1901547 96.6159372,18.8613835 95.3485637,18.8779344 C93.7259613,18.8989513 92.1023179,18.8829259 90.3735372,18.8829259" id="Fill-17"></path>
                <path d="M68.9083597,21.3179246 L72.240485,21.3179246 C72.1884368,21.8380941 72.1884368,22.3227975 72.0856416,22.7843822 C71.5570922,25.1540433 69.3851211,26.7881111 66.9214199,26.6995772 C64.4873862,26.6118314 62.2992801,24.7993822 62.153285,22.3566873 C61.9635693,19.1718314 61.9591452,15.9638568 62.0895259,12.7747975 C62.2037717,9.98558564 64.4650055,7.99501784 67.1480898,8.00000937 C69.827791,8.00473818 71.9570826,10.0139585 72.2126392,12.7994924 C72.2547982,13.2566111 72.218885,13.7213483 72.218885,14.255967 L68.8235211,14.255967 C68.8235211,13.7962212 68.8560512,13.36695 68.8167548,12.9445094 C68.7350392,12.0662636 67.9923115,11.4016026 67.1384609,11.3992382 C66.2861717,11.3968738 65.4750006,12.0594331 65.4632898,12.9376789 C65.4229524,15.8858314 65.4252946,18.8352975 65.4601669,21.78345 C65.4697958,22.5939161 66.1732271,23.2157551 66.961497,23.2929924 C67.7539308,23.3704924 68.5088898,22.8905178 68.7566392,22.128128 C68.8321091,21.8958907 68.849285,21.6447382 68.9083597,21.3179246" id="Fill-19"></path>
                <path d="M108.091852,8.00776118 L108.091852,11.3967442 C107.349385,11.3967442 106.596507,11.3899137 105.84337,11.3983205 C104.264748,11.4159222 103.385394,12.288651 103.38097,13.883312 C103.37056,17.7039307 103.377847,21.524812 103.377587,25.3456934 C103.377587,25.680651 103.377847,26.0156086 103.377847,26.4086256 L100.083197,26.4086256 C100.055871,26.2591425 100.016835,26.1424985 100.016575,26.0261171 C100.014753,21.8017103 99.9707725,17.5765154 100.034011,13.3528968 C100.078252,10.4270747 102.492768,8.0878883 105.394715,8.01143914 C106.277973,7.98805779 107.162532,8.00776118 108.091852,8.00776118" id="Fill-21"></path>
                <polygon id="Fill-23" points="0 26.9336017 4.72675663 26.9336017 4.72675663 1 0 1"></polygon>
                <polygon id="Fill-25" points="7 26.8183136 11.760588 26.8183136 11.760588 8 7 8"></polygon>
                <path d="M12.0319707,5.58263336 C12.0080285,6.97553166 10.8429297,8.11596387 9.46859722,8.09153166 C8.0765683,8.06709946 6.98251529,6.9187859 7.00021168,5.50145539 C7.01790806,4.08596387 8.15047674,2.97469268 9.54875143,3.00043844 C10.942602,3.0261842 12.0559129,4.18395539 12.0319707,5.58263336" id="Fill-26"></path>
            </g>
        </g>
    </g>
</svg>