<?xml version="1.0" encoding="UTF-8"?>
<svg width="427px" height="118px" viewBox="0 0 427 118" version="1.1" xmlns="http://www.w3.org/2000/svg" xmlns:xlink="http://www.w3.org/1999/xlink">
    <!-- Generator: Sketch 42 (36781) - http://www.bohemiancoding.com/sketch -->
    <title>Group</title>
    <desc>Created with Sketch.</desc>
    <defs>
        <polygon id="path-1" points="0 117.835 426.547 117.835 426.547 0 0 0"></polygon>
    </defs>
    <g id="Page-1" stroke="none" stroke-width="1" fill="none" fill-rule="evenodd">
        <g id="Group">
            <path d="M420.0161,30.4209 C416.4451,30.4209 413.0461,30.3459 409.6521,30.4349 C398.5011,30.7259 389.2231,39.6299 389.0531,50.7669 C388.8101,66.8439 388.9791,82.9269 388.9861,99.0069 C388.9871,99.4499 389.1371,99.8939 389.2421,100.4629 L401.9021,100.4629 C401.9021,98.9669 401.9011,97.6919 401.9011,96.4169 C401.9021,81.8729 401.8741,67.3289 401.9141,52.7859 C401.9311,46.7159 405.3101,43.3939 411.3761,43.3269 C414.2701,43.2949 417.1631,43.3209 420.0161,43.3209 L420.0161,30.4209 Z M270.1661,81.2509 C269.9401,82.4949 269.8731,83.4509 269.5831,84.3349 C268.6311,87.2369 265.7311,89.0649 262.6851,88.7689 C259.6571,88.4749 256.9541,86.1089 256.9161,83.0239 C256.7831,71.8009 256.7741,60.5739 256.9281,49.3519 C256.9731,46.0089 260.0901,43.4869 263.3661,43.4959 C266.6471,43.5049 269.5001,46.0349 269.8151,49.3779 C269.9651,50.9859 269.8401,52.6199 269.8401,54.3699 L282.8871,54.3699 C282.8871,52.3349 283.0261,50.5669 282.8641,48.8259 C281.8811,38.2229 273.7001,30.5749 263.4031,30.5569 C253.0921,30.5379 244.4041,38.1149 243.9641,48.7329 C243.4631,60.8709 243.4811,73.0819 244.2091,85.2049 C244.7701,94.5029 253.1781,101.4019 262.5321,101.7359 C271.9981,102.0729 280.3441,95.8529 282.3751,86.8329 C282.7711,85.0759 282.7711,83.2319 282.9701,81.2509 L270.1661,81.2509 Z M353.6091,72.5809 C360.2521,72.5809 366.4911,72.6419 372.7261,72.5619 C377.5961,72.4989 380.1621,69.9429 380.2501,65.0909 C380.3401,60.2429 380.3991,55.3889 380.2411,50.5449 C379.8771,39.4749 371.1971,31.0949 360.3201,31.1559 C349.4631,31.2159 340.8261,39.8009 340.7211,50.8289 C340.6211,61.3549 340.6201,71.8809 340.7261,82.4059 C340.8131,91.0539 346.3371,98.9159 354.7181,100.7419 C360.6851,102.0409 367.0111,101.6849 373.1831,102.0669 L373.1831,88.8079 C370.8991,88.8079 368.9041,88.8089 366.9081,88.8079 C364.8971,88.8079 362.8851,88.8529 360.8761,88.7949 C356.4831,88.6679 353.8181,86.1239 353.6311,81.7499 C353.5101,78.9229 353.6091,76.0859 353.6091,72.5809 L353.6091,72.5809 Z M221.0921,55.4039 C217.7731,55.4039 214.8231,55.2419 211.8961,55.4329 C200.5781,56.1679 193.9851,63.2339 193.9831,74.4789 C193.9831,78.3789 193.9411,82.2779 193.9931,86.1779 C194.1091,95.0949 201.0171,101.8759 210.9681,102.8949 C221.9551,104.0199 231.6841,98.4969 233.5201,90.0229 C233.8421,88.5349 233.9151,86.9759 233.9371,85.4469 C233.9931,81.4299 233.9891,77.4109 233.9491,73.3939 C233.8681,65.2439 234.1921,57.0589 233.5141,48.9579 C232.8831,41.4119 229.1891,34.6919 221.3341,33.3309 C214.0691,32.0719 206.4131,33.0629 199.0071,33.0629 L199.0071,45.5809 C204.5761,45.5809 209.8861,45.5539 215.1961,45.5899 C219.1641,45.6169 220.5141,46.7599 221.0621,50.6649 C221.2531,52.0309 221.0921,53.4459 221.0921,55.4039 L221.0921,55.4039 Z M185.5981,99.7269 C185.5981,82.1919 186.0191,65.0609 185.4331,47.9649 C185.1051,38.4149 177.1061,31.9999 167.4971,31.8939 C164.5901,31.8619 161.6821,31.8889 158.4531,31.8889 L158.4531,3.2889 L145.7971,3.2889 L145.7971,99.5869 L158.5651,99.5869 L158.5651,44.8009 C161.1211,44.8009 163.3351,44.7949 165.5501,44.8019 C171.1941,44.8169 172.6951,46.2889 172.7001,51.9179 C172.7141,66.5749 172.7001,81.2319 172.7121,95.8879 C172.7131,97.1359 172.8261,98.3829 172.8911,99.7269 L185.5981,99.7269 Z M307.2071,56.5269 L306.2351,56.2809 L306.2351,2.7949 L293.5681,2.7949 L293.5681,100.4369 L306.4951,100.4369 L306.4951,71.5139 C312.2271,80.3659 317.3201,89.2749 322.5091,98.1269 C323.1001,99.1359 324.1901,100.4999 325.1161,100.5539 C329.5111,100.8099 333.9291,100.6679 338.8061,100.6679 C337.9321,99.0499 337.4061,98.0169 336.8281,97.0139 C330.9951,86.8789 325.2061,76.7159 319.2601,66.6469 C318.1491,64.7639 318.1201,63.4479 319.2951,61.5809 C325.0211,52.4829 330.5871,43.2839 336.1951,34.1109 C336.7161,33.2579 337.1281,32.3389 337.7871,31.0739 C333.6401,31.0739 329.9751,31.2409 326.3331,31.0179 C323.7681,30.8599 322.2881,31.7219 320.9761,33.9559 C316.5111,41.5529 311.8151,49.0149 307.2071,56.5269 L307.2071,56.5269 Z M110.9691,75.3859 C116.8111,75.3859 122.1131,75.4549 127.4121,75.3669 C133.6411,75.2639 137.5271,71.3299 137.6141,65.0799 C137.6831,60.1129 137.7351,55.1429 137.6001,50.1779 C137.2641,37.7949 127.2051,28.1199 114.8341,28.1579 C102.4341,28.1969 92.4351,37.9029 92.2561,50.3179 C92.1101,60.4879 92.1391,70.6619 92.2501,80.8329 C92.3631,91.2609 99.2171,100.5589 109.4581,102.2969 C116.2901,103.4579 123.4791,102.5179 130.6301,102.5179 L130.6301,84.4029 C125.6041,84.4029 120.7831,84.4459 115.9641,84.3889 C112.3711,84.3459 111.1071,83.0429 110.9761,79.4409 C110.9331,78.2769 110.9691,77.1119 110.9691,75.3859 L110.9691,75.3859 Z M86.6021,-0.0001 L426.5471,-0.0001 L426.5471,117.8349 L73.8251,117.8349 L73.8251,63.0249 L86.4751,63.0249 L86.4751,44.1199 L74.0121,44.1199 L74.0121,30.6589 C74.0111,22.8309 76.3801,20.0689 84.0581,18.9259 C84.8651,18.8059 85.6641,18.6309 86.6021,18.4569 L86.6021,-0.0001 Z" id="Fill-1" fill="#FFFFFF"></path>
            <path d="M50.3384,19.4356 C50.4304,14.1116 46.1524,9.7046 40.7964,9.6066 C35.4234,9.5086 31.0714,13.7386 31.0034,19.1266 C30.9354,24.5216 35.1394,28.8926 40.4884,28.9856 C45.7694,29.0786 50.2464,24.7376 50.3384,19.4356 L50.3384,19.4356 Z M31.4634,101.9156 L49.7564,101.9156 L49.7564,30.2846 L31.4634,30.2846 L31.4634,101.9156 Z M6.0094,101.9046 L24.1724,101.9046 L24.1724,3.1896 L6.0094,3.1896 L6.0094,101.9046 Z M55.3684,117.8346 L0.0004,117.8346 L0.0004,-0.0004 L80.9224,-0.0004 C79.9124,0.2836 78.9094,0.6026 77.8884,0.8456 C65.0714,3.8956 55.4324,13.9876 55.3694,25.3846 C55.1984,56.2006 55.3464,87.0176 55.3684,117.8346 L55.3684,117.8346 Z" id="Fill-4" fill="#FFFFFF"></path>
            <path d="M55.3682,117.835 C55.3472,87.018 55.1992,56.2 55.3692,25.384 C55.4322,13.987 65.0712,3.896 77.8882,0.846 C78.9092,0.603 79.9122,0.283 80.9232,0 L86.6022,0 L86.6022,18.457 C85.6642,18.631 84.8652,18.806 84.0582,18.926 C76.3802,20.069 74.0112,22.831 74.0122,30.659 L74.0122,44.12 L86.4752,44.12 L86.4752,63.024 L73.8252,63.024 L73.8252,117.835 L55.3682,117.835 Z" id="Fill-7" fill="#000000"></path>
            <path d="M118.8804,56.5381 C118.1454,53.1641 120.2904,49.5151 116.5864,47.5071 C115.5614,46.9511 113.3244,47.2291 112.4754,48.0191 C109.8794,50.4331 111.1484,53.5891 111.1274,56.5381 L118.8804,56.5381 Z M110.9694,75.3861 C110.9694,77.1121 110.9334,78.2771 110.9764,79.4401 C111.1074,83.0431 112.3714,84.3461 115.9634,84.3891 C120.7834,84.4461 125.6044,84.4031 130.6304,84.4031 L130.6304,102.5171 C123.4794,102.5171 116.2904,103.4581 109.4584,102.2971 C99.2174,100.5591 92.3634,91.2611 92.2504,80.8331 C92.1394,70.6621 92.1094,60.4881 92.2564,50.3181 C92.4354,37.9031 102.4344,28.1971 114.8344,28.1581 C127.2054,28.1201 137.2644,37.7951 137.6004,50.1781 C137.7354,55.1421 137.6824,60.1131 137.6134,65.0801 C137.5264,71.3301 133.6414,75.2641 127.4124,75.3671 C122.1134,75.4551 116.8114,75.3861 110.9694,75.3861 L110.9694,75.3861 Z" id="Fill-9" fill="#000000"></path>
            <path d="M307.2075,56.5274 C311.8145,49.0144 316.5115,41.5524 320.9765,33.9554 C322.2885,31.7214 323.7685,30.8604 326.3335,31.0174 C329.9755,31.2404 333.6405,31.0744 337.7865,31.0744 C337.1285,32.3394 336.7165,33.2584 336.1945,34.1104 C330.5875,43.2834 325.0205,52.4824 319.2955,61.5814 C318.1205,63.4484 318.1485,64.7634 319.2605,66.6464 C325.2065,76.7154 330.9945,86.8794 336.8285,97.0134 C337.4055,98.0164 337.9325,99.0494 338.8065,100.6684 C333.9295,100.6684 329.5115,100.8094 325.1155,100.5534 C324.1895,100.5004 323.1005,99.1354 322.5095,98.1274 C317.3195,89.2744 312.2275,80.3664 306.4945,71.5134 L306.4945,100.4364 L293.5675,100.4364 L293.5675,2.7944 L306.2345,2.7944 L306.2345,56.2814 L307.2075,56.5274 Z" id="Fill-11" fill="#000000"></path>
            <path d="M185.5981,99.7266 L172.8911,99.7266 C172.8261,98.3826 172.7131,97.1356 172.7121,95.8876 C172.7001,81.2316 172.7141,66.5756 172.7001,51.9176 C172.6951,46.2886 171.1941,44.8176 165.5501,44.8016 C163.3351,44.7946 161.1211,44.8006 158.5651,44.8006 L158.5651,99.5866 L145.7971,99.5866 L145.7971,3.2886 L158.4521,3.2886 L158.4521,31.8886 C161.6821,31.8886 164.5901,31.8616 167.4971,31.8936 C177.1061,31.9996 185.1051,38.4146 185.4331,47.9646 C186.0191,65.0606 185.5981,82.1916 185.5981,99.7266" id="Fill-13" fill="#000000"></path>
            <path d="M221.3032,68.4688 C217.8092,68.4688 214.6402,68.1568 211.5612,68.5538 C208.3212,68.9718 206.2952,70.8608 206.6122,74.6048 C206.8292,77.1748 206.6902,79.7808 206.6442,82.3678 C206.5952,85.0998 206.2862,87.8998 209.5322,89.2408 C212.8962,90.6308 216.2432,90.6908 219.3002,88.6258 C220.2392,87.9918 221.1782,86.5958 221.2142,85.5178 C221.4052,79.9068 221.3032,74.2858 221.3032,68.4688 M221.0922,55.4048 C221.0922,53.4468 221.2532,52.0318 221.0622,50.6648 C220.5142,46.7598 219.1642,45.6168 215.1962,45.5898 C209.8862,45.5538 204.5752,45.5808 199.0072,45.5808 L199.0072,33.0628 C206.4132,33.0628 214.0692,32.0728 221.3342,33.3308 C229.1892,34.6918 232.8832,41.4118 233.5142,48.9578 C234.1922,57.0588 233.8672,65.2438 233.9492,73.3938 C233.9892,77.4108 233.9922,81.4298 233.9372,85.4478 C233.9152,86.9758 233.8422,88.5348 233.5202,90.0228 C231.6842,98.4968 221.9552,104.0198 210.9682,102.8948 C201.0172,101.8758 194.1092,95.0948 193.9922,86.1778 C193.9412,82.2788 193.9832,78.3788 193.9832,74.4788 C193.9852,63.2338 200.5772,56.1678 211.8962,55.4328 C214.8232,55.2418 217.7732,55.4048 221.0922,55.4048" id="Fill-15" fill="#000000"></path>
            <path d="M353.6802,59.4678 L366.9782,59.4678 C367.0712,58.7368 367.2002,58.1758 367.2032,57.6148 C367.2172,55.2568 367.3072,52.8918 367.1572,50.5418 C366.9282,46.9538 364.2372,44.2998 360.8352,44.0908 C357.3912,43.8798 354.0902,46.4878 353.7402,50.1358 C353.4512,53.1438 353.6802,56.2008 353.6802,59.4678 M353.6092,72.5808 C353.6092,76.0858 353.5102,78.9228 353.6312,81.7498 C353.8182,86.1238 356.4832,88.6678 360.8762,88.7948 C362.8852,88.8528 364.8972,88.8078 366.9082,88.8078 C368.9042,88.8088 370.8992,88.8078 373.1832,88.8078 L373.1832,102.0668 C367.0112,101.6848 360.6852,102.0408 354.7182,100.7418 C346.3372,98.9158 340.8132,91.0538 340.7262,82.4058 C340.6192,71.8808 340.6212,61.3548 340.7212,50.8288 C340.8262,39.8008 349.4632,31.2168 360.3202,31.1558 C371.1972,31.0948 379.8772,39.4748 380.2412,50.5448 C380.3992,55.3888 380.3402,60.2428 380.2502,65.0908 C380.1612,69.9438 377.5962,72.4988 372.7262,72.5618 C366.4912,72.6418 360.2522,72.5808 353.6092,72.5808" id="Fill-17" fill="#000000"></path>
            <path d="M270.1665,81.251 L282.9705,81.251 C282.7705,83.231 282.7705,85.076 282.3755,86.833 C280.3445,95.853 271.9985,102.073 262.5315,101.736 C253.1785,101.402 244.7705,94.503 244.2095,85.205 C243.4805,73.082 243.4635,60.871 243.9645,48.732 C244.4035,38.115 253.0925,30.538 263.4025,30.557 C273.6995,30.575 281.8815,38.223 282.8635,48.826 C283.0255,50.566 282.8875,52.335 282.8875,54.37 L269.8405,54.37 C269.8405,52.62 269.9655,50.986 269.8145,49.378 C269.5005,46.035 266.6465,43.505 263.3655,43.496 C260.0905,43.487 256.9735,46.009 256.9285,49.352 C256.7735,60.574 256.7825,71.801 256.9165,83.023 C256.9535,86.108 259.6565,88.475 262.6855,88.769 C265.7305,89.064 268.6315,87.237 269.5835,84.335 C269.8735,83.451 269.9395,82.495 270.1665,81.251" id="Fill-19" fill="#000000"></path>
            <path d="M420.0161,30.4209 L420.0161,43.3209 C417.1631,43.3209 414.2701,43.2949 411.3761,43.3269 C405.3101,43.3939 401.9311,46.7159 401.9141,52.7859 C401.8741,67.3289 401.9021,81.8729 401.9011,96.4169 C401.9011,97.6919 401.9021,98.9669 401.9021,100.4629 L389.2421,100.4629 C389.1371,99.8939 388.9871,99.4499 388.9861,99.0069 C388.9791,82.9269 388.8101,66.8439 389.0531,50.7669 C389.2231,39.6299 398.5011,30.7259 409.6521,30.4349 C413.0461,30.3459 416.4451,30.4209 420.0161,30.4209" id="Fill-21" fill="#000000"></path>
            <mask id="mask-2" fill="white">
                <use xlink:href="#path-1"></use>
            </mask>
            <g id="Clip-24"></g>
            <polygon id="Fill-23" fill="#000000" mask="url(#mask-2)" points="6.01 101.904 24.173 101.904 24.173 3.189 6.01 3.189"></polygon>
            <polygon id="Fill-25" fill="#000000" mask="url(#mask-2)" points="31.463 101.916 49.756 101.916 49.756 30.285 31.463 30.285"></polygon>
            <path d="M50.3384,19.4356 C50.2464,24.7376 45.7694,29.0786 40.4884,28.9856 C35.1394,28.8926 30.9354,24.5216 31.0034,19.1266 C31.0714,13.7386 35.4234,9.5086 40.7964,9.6066 C46.1524,9.7046 50.4304,14.1116 50.3384,19.4356" id="Fill-26" fill="#000000" mask="url(#mask-2)"></path>
            <path d="M118.8804,56.5381 L111.1274,56.5381 C111.1484,53.5891 109.8794,50.4331 112.4754,48.0191 C113.3244,47.2291 115.5614,46.9511 116.5864,47.5071 C120.2904,49.5151 118.1454,53.1641 118.8804,56.5381" id="Fill-27" fill="#FFFFFF" mask="url(#mask-2)"></path>
            <path d="M221.3032,68.4688 C221.3032,74.2858 221.4052,79.9068 221.2142,85.5178 C221.1782,86.5958 220.2392,87.9918 219.3002,88.6258 C216.2432,90.6908 212.8962,90.6308 209.5322,89.2408 C206.2862,87.8998 206.5952,85.0998 206.6442,82.3678 C206.6902,79.7808 206.8292,77.1748 206.6122,74.6048 C206.2952,70.8608 208.3212,68.9718 211.5612,68.5538 C214.6402,68.1568 217.8092,68.4688 221.3032,68.4688" id="Fill-28" fill="#FFFFFF" mask="url(#mask-2)"></path>
            <path d="M353.6802,59.4678 C353.6802,56.2008 353.4512,53.1438 353.7402,50.1358 C354.0902,46.4878 357.3912,43.8798 360.8352,44.0908 C364.2372,44.2998 366.9282,46.9538 367.1572,50.5418 C367.3072,52.8918 367.2172,55.2568 367.2032,57.6148 C367.2002,58.1758 367.0712,58.7368 366.9782,59.4678 L353.6802,59.4678 Z" id="Fill-29" fill="#FFFFFF" mask="url(#mask-2)"></path>
        </g>
    </g>
</svg>