<svg width="214" height="287" viewBox="0 0 214 287" fill="none" xmlns="http://www.w3.org/2000/svg">
<rect x="54.5" y="72.5312" width="50.4024" height="68.4325" rx="10" fill="#D1CAFA"/>
<rect y="72.5312" width="50.4024" height="68.4325" rx="10" fill="white"/>
<rect x="109" y="72.5312" width="50.4024" height="68.4325" rx="10" fill="white"/>
<rect x="163.492" y="72.5312" width="50.4024" height="68.4325" rx="10" fill="white"/>
<rect x="54.5" width="50.4024" height="68.4325" rx="10" fill="white"/>
<rect width="50.4024" height="68.4325" rx="10" fill="white"/>
<rect x="109" width="50.4024" height="68.4325" rx="10" fill="white"/>
<rect x="54.5" y="145.062" width="50.4024" height="68.4325" rx="10" fill="white"/>
<rect x="163.492" width="50.4024" height="68.4325" rx="10" fill="white"/>
<rect y="145.062" width="50.4024" height="68.4325" rx="10" fill="white"/>
<rect x="54.5" y="217.594" width="50.4024" height="68.4325" rx="10" fill="white"/>
<rect x="109" y="145.062" width="50.4024" height="68.4325" rx="10" fill="#C3F5DD"/>
<rect x="163.492" y="145.062" width="50.4024" height="68.4325" rx="10" fill="white"/>
<rect y="217.594" width="50.4024" height="68.4325" rx="10" fill="#F5E29B"/>
<rect x="109" y="217.594" width="50.4024" height="68.4325" rx="10" fill="white"/>
<rect x="163.492" y="217.594" width="50.4024" height="68.4325" rx="10" fill="white"/>
</svg>
