<?xml version="1.0" encoding="UTF-8"?>
<svg width="97px" height="30px" viewBox="0 0 97 30" version="1.1" xmlns="http://www.w3.org/2000/svg" xmlns:xlink="http://www.w3.org/1999/xlink">
    <!-- Generator: Sketch 64 (93537) - https://sketch.com -->
    <title>netted_logo</title>
    <desc>Created with Sketch.</desc>
    <g id="Page-4" stroke="none" stroke-width="1" fill="none" fill-rule="evenodd">
        <g id="Desktop-HD" transform="translate(-1010.000000, -10298.000000)" fill="#0D0C22" fill-rule="nonzero">
            <g id="netted_logo" transform="translate(1010.000000, 10298.000000)">
                <path d="M-7.10542736e-15,6 L-7.10542736e-15,29.5708391 L4.92824723,29.5708391 L4.92824723,13.7909216 L4.99529822,13.7909216 L14.9523692,29.5708391 L20.2158713,29.5708391 L20.2158713,6 L15.2876241,6 L15.2876241,21.8129299 L15.2205731,21.8129299 L5.22997666,6 L-7.10542736e-15,6 Z M34.7412649,19.2049519 L26.9968763,19.2049519 C27.0192268,18.8748265 27.0918647,18.5006899 27.2147921,18.082531 C27.3377194,17.664372 27.5500455,17.2682275 27.8517764,16.8940853 C28.1535073,16.5199431 28.5558092,16.2063286 29.058694,15.9532324 C29.561579,15.7001363 30.1929693,15.5735901 30.9528844,15.5735901 C32.1151072,15.5735901 32.9811737,15.8817025 33.5511099,16.4979368 C34.1210461,17.114171 34.5177605,18.0165003 34.7412649,19.2049519 Z M26.9968763,22.176066 L39.5018847,22.176066 C39.5912864,20.8555643 39.4795359,19.5901023 39.1666298,18.3796424 C38.8537236,17.1691824 38.3452588,16.0907888 37.6412198,15.1444292 C36.937181,14.1980696 36.0375893,13.4442944 34.9424178,12.8830811 C33.8472463,12.3218679 32.5621152,12.0412655 31.0869863,12.0412655 C29.7683104,12.0412655 28.5669922,12.2723499 27.4829959,12.7345254 C26.3989996,13.1967011 25.4658828,13.829432 24.6836174,14.6327373 C23.9013521,15.4360426 23.2978993,16.3878899 22.8732409,17.4883081 C22.4485825,18.5887263 22.2362566,19.77716 22.2362566,21.0536452 C22.2362566,22.3741469 22.4429951,23.5845888 22.8564781,24.685007 C23.2699613,25.785425 23.8566515,26.7317705 24.6165665,27.5240715 C25.3764814,28.3163726 26.3040107,28.9270956 27.3991822,29.3562586 C28.4943538,29.7854217 29.7236095,30 31.0869863,30 C33.053825,30 34.7300828,29.5598394 36.11581,28.6795048 C37.5015373,27.7991703 38.5296421,26.3356361 39.2001552,24.2888584 L35.0094687,24.2888584 C34.8530158,24.8170591 34.4283638,25.3177418 33.7355001,25.7909216 C33.0426365,26.2641015 32.2156827,26.5006878 31.2546137,26.5006878 C29.9135874,26.5006878 28.8854827,26.1595632 28.1702685,25.4773041 C27.4550545,24.7950448 27.0639277,23.6946431 26.9968763,22.176066 Z M47.0875015,12.5034388 L47.0875015,7.38651994 L42.3268816,7.38651994 L42.3268816,12.5034388 L39.4436895,12.5034388 L39.4436895,15.6396148 L42.3268816,15.6396148 L42.3268816,25.7083907 C42.3268816,26.5667168 42.4721574,27.2599699 42.7627131,27.7881706 C43.0532688,28.3163713 43.4499831,28.72352 43.952868,29.0096286 C44.4557529,29.2957374 45.0368556,29.4883077 45.6961935,29.5873453 C46.3555316,29.6863829 47.0539723,29.735901 47.7915368,29.735901 C48.2608961,29.735901 48.7414233,29.724897 49.2331329,29.7028886 C49.7248426,29.6808802 50.1718447,29.6368643 50.5741526,29.5708391 L50.5741526,25.9394773 C50.3506482,25.9834941 50.1159721,26.0165061 49.8701172,26.0385145 C49.6242625,26.0605228 49.3672363,26.0715269 49.0990309,26.0715269 C48.2944151,26.0715269 47.7580126,25.9394787 47.4898074,25.6753783 C47.2216021,25.411278 47.0875015,24.8830851 47.0875015,24.090784 L47.0875015,15.6396148 L50.5741526,15.6396148 L50.5741526,12.5034388 L47.0875015,12.5034388 Z M57.6233616,12.5034388 L57.6233616,7.38651994 L52.8627417,7.38651994 L52.8627417,12.5034388 L49.9795496,12.5034388 L49.9795496,15.6396148 L52.8627417,15.6396148 L52.8627417,25.7083907 C52.8627417,26.5667168 53.0080174,27.2599699 53.2985732,27.7881706 C53.5891289,28.3163713 53.9858432,28.72352 54.4887281,29.0096286 C54.9916131,29.2957374 55.5727157,29.4883077 56.2320537,29.5873453 C56.8913916,29.6863829 57.5898324,29.735901 58.327397,29.735901 C58.7967561,29.735901 59.2772834,29.724897 59.7689928,29.7028886 C60.2607028,29.6808802 60.7077048,29.6368643 61.1100125,29.5708391 L61.1100125,25.9394773 C60.8865082,25.9834941 60.6518322,26.0165061 60.4059772,26.0385145 C60.1601228,26.0605228 59.9030967,26.0715269 59.6348909,26.0715269 C58.8302752,26.0715269 58.2938728,25.9394787 58.0256675,25.6753783 C57.7574622,25.411278 57.6233616,24.8830851 57.6233616,24.090784 L57.6233616,15.6396148 L61.1100125,15.6396148 L61.1100125,12.5034388 L57.6233616,12.5034388 Z M73.7915044,19.2049519 L66.0471158,19.2049519 C66.069466,18.8748265 66.1421037,18.5006899 66.2650316,18.082531 C66.3879587,17.664372 66.6002847,17.2682275 66.9020159,16.8940853 C67.2037465,16.5199431 67.6060482,16.2063286 68.1089336,15.9532324 C68.6118184,15.7001363 69.2432087,15.5735901 70.0031239,15.5735901 C71.1653467,15.5735901 72.0314131,15.8817025 72.6013494,16.4979368 C73.1712852,17.114171 73.5679995,18.0165003 73.7915044,19.2049519 Z M66.0471158,22.176066 L78.5521242,22.176066 C78.6415259,20.8555643 78.5297752,19.5901023 78.2168693,18.3796424 C77.9039626,17.1691824 77.3954983,16.0907888 76.6914593,15.1444292 C75.9874205,14.1980696 75.0878286,13.4442944 73.9926573,12.8830811 C72.8974855,12.3218679 71.6123546,12.0412655 70.1372258,12.0412655 C68.8185497,12.0412655 67.6172314,12.2723499 66.5332355,12.7345254 C65.4492391,13.1967011 64.5161222,13.829432 63.7338569,14.6327373 C62.9515911,15.4360426 62.3481388,16.3878899 61.9234804,17.4883081 C61.4988221,18.5887263 61.2864961,19.77716 61.2864961,21.0536452 C61.2864961,22.3741469 61.4932346,23.5845888 61.9067176,24.685007 C62.3202007,25.785425 62.9068908,26.7317705 63.666806,27.5240715 C64.4267206,28.3163726 65.3542499,28.9270956 66.4494217,29.3562586 C67.544593,29.7854217 68.7738489,30 70.1372258,30 C72.1040641,30 73.7803219,29.5598394 75.1660495,28.6795048 C76.5517767,27.7991703 77.5798813,26.3356361 78.2503947,24.2888584 L74.0597083,24.2888584 C73.9032551,24.8170591 73.4786032,25.3177418 72.7857397,25.7909216 C72.0928761,26.2641015 71.265922,26.5006878 70.3048533,26.5006878 C68.9638264,26.5006878 67.9357217,26.1595632 67.220508,25.4773041 C66.5052938,24.7950448 66.1141669,23.6946431 66.0471158,22.176066 Z M92.4070076,20.9876204 C92.4070076,21.6918879 92.3399573,22.3741371 92.2058547,23.0343879 C92.0717521,23.6946388 91.8482509,24.2833537 91.5353449,24.8005503 C91.2224389,25.3177467 90.8033745,25.7303974 90.278139,26.0385145 C89.7529034,26.3466316 89.0991629,26.5006878 88.3168977,26.5006878 C87.5793333,26.5006878 86.9479429,26.3411295 86.4227074,26.0220083 C85.897472,25.702887 85.4616454,25.2847344 85.1152132,24.7675379 C84.7687818,24.2503413 84.5173429,23.6616264 84.3608897,23.0013756 C84.2044364,22.3411246 84.1262112,21.6808837 84.1262112,21.0206327 C84.1262112,20.3163651 84.1988491,19.6396181 84.3441269,18.9903714 C84.4894048,18.3411247 84.7240809,17.7634139 85.0481623,17.2572215 C85.3722437,16.7510291 85.8024834,16.3438805 86.3388937,16.0357634 C86.8753045,15.7276464 87.5346325,15.5735901 88.3168977,15.5735901 C89.0991629,15.5735901 89.747316,15.7276464 90.2613762,16.0357634 C90.7754363,16.3438805 91.1945007,16.7455271 91.5185821,17.2407153 C91.8426635,17.7359035 92.0717521,18.3081123 92.2058547,18.957359 C92.3399573,19.6066057 92.4070076,20.2833528 92.4070076,20.9876204 Z M92.4740586,27.3920221 L92.4740586,29.5708391 L97,29.5708391 L97,6 L92.2393802,6 L92.2393802,14.5832187 L92.1723292,14.5832187 C91.6359189,13.7469009 90.9039527,13.1141699 89.9764095,12.6850068 C89.0488663,12.2558439 88.0710493,12.0412655 87.042929,12.0412655 C85.7689538,12.0412655 84.6514485,12.2888559 83.6903798,12.784044 C82.7293112,13.2792322 81.9302946,13.9339713 81.2933072,14.7482807 C80.6563199,15.5625901 80.1757925,16.5034335 79.8517111,17.5708391 C79.5276297,18.6382447 79.3655915,19.7441483 79.3655915,20.8885833 C79.3655915,22.0770348 79.5276297,23.2214526 79.8517111,24.3218708 C80.1757925,25.4222888 80.6563199,26.3961444 81.2933072,27.2434663 C81.9302946,28.0907883 82.740486,28.7620334 83.7239053,29.2572215 C84.7073247,29.7524096 85.8471801,30 87.1435055,30 C88.2833782,30 89.3058954,29.7964257 90.2110879,29.3892711 C91.116281,28.9821163 91.8482467,28.3163733 92.4070076,27.3920221 L92.4740586,27.3920221 Z" id="Netted"></path>
                <path d="M-3.55271368e-15,0.136363637 L2.2311793,0.136363637 C2.56403755,0.136363637 2.84228207,0.179143932 3.06592121,0.264705883 C3.28956034,0.350267832 3.46898906,0.462566125 3.60421271,0.601604279 C3.73943638,0.740642431 3.83695199,0.899731715 3.89676246,1.07887701 C3.95657292,1.25802229 3.9864777,1.43850179 3.9864777,1.62032085 C3.9864777,1.77540186 3.96047354,1.92245917 3.90846444,2.06149733 C3.85645534,2.20053549 3.78234348,2.32352888 3.68612664,2.43048128 C3.58990981,2.53743369 3.4754915,2.62700498 3.34286829,2.69919786 C3.21024507,2.77139075 3.06332157,2.81818173 2.90209336,2.8395722 L2.91769601,2.85561497 C2.95410238,2.85026736 3.03991611,2.86630996 3.17513978,2.90374332 C3.31036343,2.94117667 3.45208612,3.01203159 3.60031206,3.11631017 C3.74853799,3.22058873 3.88115921,3.36497234 3.99817969,3.54946524 C4.11520017,3.73395814 4.17370953,3.97058682 4.17370953,4.25935829 C4.17370953,4.5213917 4.12690204,4.75133589 4.03328566,4.94919786 C3.93966928,5.14705984 3.80834827,5.31417045 3.63931868,5.45053476 C3.4702891,5.58689908 3.26615644,5.68983925 3.02691458,5.75935829 C2.78767271,5.82887733 2.52243027,5.86363637 2.2311793,5.86363637 L-3.55271368e-15,5.86363637 L-3.55271368e-15,0.136363637 Z M2.2311793,2.73529411 C2.70446212,2.73529411 3.05811871,2.62700646 3.29215967,2.41042781 C3.52620062,2.19384915 3.64321934,1.9090927 3.64321934,1.55614974 C3.64321934,1.34759253 3.60421311,1.17246059 3.52619945,1.03074866 C3.4481858,0.889036734 3.34416916,0.774064603 3.21414641,0.685828877 C3.08412365,0.597593152 2.93459973,0.534759564 2.76557015,0.497326204 C2.59654056,0.459892843 2.41841207,0.441176471 2.2311793,0.441176471 L0.343258354,0.441176471 L0.343258354,2.73529411 L2.2311793,2.73529411 Z M2.2311793,5.55882354 C2.73046668,5.55882354 3.1218293,5.45053588 3.4052789,5.23395722 C3.6887285,5.01737857 3.83045117,4.69251553 3.83045117,4.25935829 C3.83045117,4.01336773 3.78104327,3.81149808 3.68222598,3.65374332 C3.58340868,3.49598855 3.4572885,3.37165823 3.30386165,3.28074866 C3.15043482,3.1898391 2.97880735,3.12700551 2.78897413,3.09224599 C2.5991409,3.05748646 2.41321115,3.04010696 2.2311793,3.04010696 L0.343258354,3.04010696 L0.343258354,5.55882354 L2.2311793,5.55882354 Z M8.6828761,0.136363637 L9.06514108,0.136363637 L6.82616045,3.46524065 L6.82616045,5.86363637 L6.4829021,5.86363637 L6.4829021,3.46524065 L4.25952412,0.136363637 L4.64959044,0.136363637 L6.6623326,3.1684492 L8.6828761,0.136363637 Z M10.9608633,0.441176471 L10.9608633,0.136363637 L15.2281888,0.136363637 L15.2281888,0.441176471 L13.2622546,0.441176471 L13.2622546,5.86363637 L12.9189962,5.86363637 L12.9189962,0.441176471 L10.9608633,0.441176471 Z M15.6104538,0.136363637 L15.9537122,0.136363637 L15.9537122,2.73529411 L19.5111169,2.73529411 L19.5111169,0.136363637 L19.8543752,0.136363637 L19.8543752,5.86363637 L19.5111169,5.86363637 L19.5111169,3.04010696 L15.9537122,3.04010696 L15.9537122,5.86363637 L15.6104538,5.86363637 L15.6104538,0.136363637 Z M20.8373423,0.136363637 L24.5819789,0.136363637 L24.5819789,0.441176471 L21.1806007,0.441176471 L21.1806007,2.73529411 L24.3791444,2.73529411 L24.3791444,3.04010696 L21.1806007,3.04010696 L21.1806007,5.55882354 L24.6209856,5.55882354 L24.6209856,5.86363637 L20.8373423,5.86363637 L20.8373423,0.136363637 Z M26.9301781,0.136363637 L27.9209466,0.136363637 L28.9273176,4.51604279 L28.9429203,4.51604279 L30.0663113,0.136363637 L31.064881,0.136363637 L32.1570668,4.51604279 L32.1726693,4.51604279 L33.2102458,0.136363637 L34.2010142,0.136363637 L32.6641529,5.86363637 L31.6733845,5.86363637 L30.5577949,1.48395722 L30.5421922,1.48395722 L29.4031986,5.86363637 L28.3968275,5.86363637 L26.9301781,0.136363637 Z M34.8407229,0.136363637 L38.8506046,0.136363637 L38.8506046,1.0026738 L35.8158887,1.0026738 L35.8158887,2.50267379 L38.6243662,2.50267379 L38.6243662,3.32085561 L35.8158887,3.32085561 L35.8158887,4.9973262 L38.905214,4.9973262 L38.905214,5.86363637 L34.8407229,5.86363637 L34.8407229,0.136363637 Z M40.7307242,2.53475936 L42.3221948,2.53475936 C42.5562357,2.53475936 42.751267,2.46657822 42.9072942,2.33021391 C43.0633216,2.1938496 43.1413341,1.9973275 43.1413341,1.74064171 C43.1413341,1.45187024 43.0711228,1.24866368 42.9306982,1.13101604 C42.7902736,1.01336841 42.5874412,0.954545455 42.3221948,0.954545455 L40.7307242,0.954545455 L40.7307242,2.53475936 Z M39.7555585,0.136363637 L42.4626187,0.136363637 C42.9619061,0.136363637 43.3623701,0.254009544 43.6640229,0.489304813 C43.9656757,0.724600083 44.1164998,1.08021152 44.1164998,1.55614974 C44.1164998,1.8449212 44.0475888,2.09224499 43.9097646,2.29812835 C43.7719406,2.50401171 43.5756091,2.66310105 43.3207645,2.77540107 L43.3207645,2.79144385 C43.6640246,2.86631051 43.9240663,3.03342119 44.1008971,3.29278075 C44.2777281,3.55214031 44.3661423,3.87700342 44.3661423,4.26737968 C44.3661423,4.49197972 44.327136,4.7018707 44.2491223,4.89705883 C44.1711087,5.09224696 44.0488891,5.26069449 43.8824601,5.40240642 C43.716031,5.54411835 43.5027968,5.65641671 43.2427513,5.73930482 C42.9827058,5.82219292 42.6732562,5.86363637 42.3143934,5.86363637 L39.7555585,5.86363637 L39.7555585,0.136363637 Z M40.7307242,5.04545455 L42.4548173,5.04545455 C42.7512693,5.04545455 42.981406,4.96657831 43.1452347,4.80882353 C43.3090633,4.65106876 43.3909765,4.42780891 43.3909765,4.13903743 C43.3909765,3.85561357 43.3090633,3.63770127 43.1452347,3.48529412 C42.981406,3.33288696 42.7512693,3.25668449 42.4548173,3.25668449 L40.7307242,3.25668449 L40.7307242,5.04545455 Z M46.2228579,2.53475936 L47.8143285,2.53475936 C48.0483694,2.53475936 48.2434006,2.46657822 48.3994279,2.33021391 C48.5554553,2.1938496 48.6334678,1.9973275 48.6334678,1.74064171 C48.6334678,1.45187024 48.5632565,1.24866368 48.4228319,1.13101604 C48.2824073,1.01336841 48.0795749,0.954545455 47.8143285,0.954545455 L46.2228579,0.954545455 L46.2228579,2.53475936 Z M45.2476921,0.136363637 L47.9547524,0.136363637 C48.4540398,0.136363637 48.8545038,0.254009544 49.1561566,0.489304813 C49.4578094,0.724600083 49.6086335,1.08021152 49.6086335,1.55614974 C49.6086335,1.8449212 49.5397224,2.09224499 49.4018983,2.29812835 C49.2640743,2.50401171 49.0677428,2.66310105 48.8128982,2.77540107 L48.8128982,2.79144385 C49.1561583,2.86631051 49.4161999,3.03342119 49.5930308,3.29278075 C49.7698618,3.55214031 49.8582759,3.87700342 49.8582759,4.26737968 C49.8582759,4.49197972 49.8192697,4.7018707 49.741256,4.89705883 C49.6632425,5.09224696 49.5410228,5.26069449 49.3745937,5.40240642 C49.2081646,5.54411835 48.9949305,5.65641671 48.734885,5.73930482 C48.4748394,5.82219292 48.1653899,5.86363637 47.8065271,5.86363637 L45.2476921,5.86363637 L45.2476921,0.136363637 Z M46.2228579,5.04545455 L47.946951,5.04545455 C48.243403,5.04545455 48.4735397,4.96657831 48.6373683,4.80882353 C48.8011971,4.65106876 48.8831102,4.42780891 48.8831102,4.13903743 C48.8831102,3.85561357 48.8011971,3.63770127 48.6373683,3.48529412 C48.4735397,3.33288696 48.243403,3.25668449 47.946951,3.25668449 L46.2228579,3.25668449 L46.2228579,5.04545455 Z M52.1908725,3.61764706 L50.1001171,0.136363637 L51.2313094,0.136363637 L52.7057601,2.70320855 L54.1568067,0.136363637 L55.2489923,0.136363637 L53.1660383,3.61764706 L53.1660383,5.86363637 L52.1908725,5.86363637 L52.1908725,3.61764706 Z M56.434794,3.95454546 C56.434794,4.17379789 56.4711998,4.36096179 56.5440125,4.51604279 C56.6168252,4.67112378 56.7182415,4.79812788 56.8482642,4.89705883 C56.978287,4.99598978 57.1278109,5.06818161 57.2968405,5.11363636 C57.4658701,5.15909112 57.6491994,5.18181818 57.846834,5.18181818 C58.0600713,5.18181818 58.2421005,5.15641734 58.3929268,5.10561497 C58.5437533,5.05481261 58.6659727,4.98930525 58.7595892,4.90909091 C58.8532056,4.82887663 58.9208163,4.73663151 58.9624237,4.63235295 C59.0040309,4.52807438 59.0248343,4.42246043 59.0248343,4.31550803 C59.0248343,4.0962556 58.9767266,3.93449248 58.8805097,3.8302139 C58.7842929,3.72593534 58.678976,3.65240665 58.5645559,3.60962567 C58.3669215,3.53475902 58.1367846,3.4639041 57.8741386,3.39705882 C57.6114927,3.33021356 57.2877408,3.24331604 56.9028736,3.13636364 C56.6636316,3.07219221 56.4646999,2.98796841 56.306072,2.88368985 C56.1474443,2.77941127 56.0213241,2.66310222 55.9277077,2.53475936 C55.8340914,2.40641649 55.7677808,2.27005422 55.7287739,2.12566845 C55.6897672,1.98128269 55.670264,1.83422536 55.670264,1.68449198 C55.670264,1.39572051 55.7287733,1.14572295 55.8457938,0.934491979 C55.9628143,0.723261004 56.1175391,0.548129062 56.3099727,0.409090909 C56.5024064,0.270052756 56.7208413,0.167112649 56.9652842,0.10026738 C57.2097269,0.0334221103 57.4567664,0 57.7064101,0 C57.9976611,0 58.272005,0.0387696627 58.52945,0.11631016 C58.7868951,0.193850659 59.0131314,0.310159647 59.2081654,0.465240642 C59.4031995,0.620321637 59.5579241,0.811496175 59.6723443,1.03877005 C59.7867646,1.26604393 59.8439735,1.52941024 59.8439735,1.82887701 L58.8688077,1.82887701 C58.8428032,1.4598912 58.7205836,1.1991986 58.5021453,1.04679144 C58.2837072,0.894384287 58.0054627,0.818181819 57.6674035,0.818181819 C57.5529835,0.818181819 57.4359647,0.83021378 57.3163438,0.854278076 C57.1967229,0.87834237 57.0875054,0.918448889 56.9886881,0.974598931 C56.8898708,1.03074897 56.8079577,1.10695138 56.7429463,1.20320856 C56.677935,1.29946574 56.6454297,1.41978535 56.6454297,1.56417113 C56.6454297,1.76738071 56.7065395,1.92646999 56.828761,2.04144385 C56.9509823,2.15641771 57.1109079,2.24331522 57.3085424,2.30213904 C57.329346,2.30748665 57.4112592,2.33021372 57.5542843,2.37032086 C57.6973093,2.41042799 57.8572349,2.45454521 58.0340659,2.50267379 C58.2108967,2.55080239 58.3838244,2.59759338 58.552854,2.64304813 C58.7218836,2.68850288 58.8428029,2.72192505 58.9156157,2.74331551 C59.0976476,2.80213933 59.2562728,2.88235243 59.3914966,2.98395722 C59.5267199,3.08556202 59.6398386,3.201871 59.7308543,3.3328877 C59.8218699,3.46390441 59.889481,3.60427731 59.9336888,3.75401069 C59.9778965,3.90374408 60,4.05347518 60,4.20320856 C60,4.52406578 59.9362896,4.7981272 59.8088675,5.02540107 C59.6814455,5.25267495 59.5137184,5.43850194 59.3056821,5.5828877 C59.0976456,5.72727347 58.8610077,5.83288735 58.5957613,5.89973263 C58.3305149,5.96657789 58.0600716,6 57.7844234,6 C57.4671678,6 57.1681199,5.95989342 56.8872709,5.87967914 C56.6064217,5.79946481 56.3619826,5.67647142 56.1539462,5.51069519 C55.9459098,5.34491896 55.7794831,5.13235422 55.6546613,4.87299465 C55.5298395,4.61363509 55.464829,4.30748842 55.4596282,3.95454546 L56.434794,3.95454546 Z" id="BY-THE-WEBBYS"></path>
            </g>
        </g>
    </g>
</svg>