<?xml version="1.0" encoding="UTF-8"?>
<svg width="84px" height="27px" viewBox="0 0 84 27" version="1.1" xmlns="http://www.w3.org/2000/svg" xmlns:xlink="http://www.w3.org/1999/xlink">
    <!-- Generator: Sketch 42 (36781) - http://www.bohemiancoding.com/sketch -->
    <title>Group 8</title>
    <desc>Created with Sketch.</desc>
    <defs></defs>
    <g id="Page-1" stroke="none" stroke-width="1" fill="none" fill-rule="evenodd">
        <g id="Desktop-HD-Copy-9" transform="translate(-906.000000, -3566.000000)" fill-rule="nonzero" fill="#AE8EE8">
            <g id="Group-8" transform="translate(906.000000, 3566.000000)">
                <path d="M0,5 L0,25.6813793 L4.25793103,25.6813793 L4.25793103,11.8358621 L4.31586207,11.8358621 L12.9186207,25.6813793 L17.4662069,25.6813793 L17.4662069,5 L13.2082759,5 L13.2082759,18.8744828 L13.1503448,18.8744828 L4.51862069,5 L0,5 Z M30.0159271,16.5862069 L23.3248926,16.5862069 C23.3442031,16.2965503 23.4069611,15.9682777 23.5131685,15.6013793 C23.6193759,15.2344809 23.8028224,14.8868982 24.0635133,14.5586207 C24.3242043,14.2303432 24.671787,13.9551735 25.1062719,13.7331034 C25.5407569,13.5110334 26.0862686,13.4 26.7428237,13.4 C27.7469666,13.4 28.495235,13.6703421 28.9876512,14.2110345 C29.4800675,14.7517269 29.8228227,15.5434431 30.0159271,16.5862069 Z M23.3248926,19.1931034 L34.1290306,19.1931034 C34.2062723,18.034477 34.1097216,16.9241432 33.8393754,15.862069 C33.5690292,14.7999947 33.1297233,13.8537973 32.5214443,13.0234483 C31.9131654,12.1930993 31.1359318,11.5317266 30.1897202,11.0393103 C29.2435086,10.5468941 28.1331748,10.3006897 26.8586857,10.3006897 C25.7193697,10.3006897 24.681449,10.5034463 23.7448926,10.9089655 C22.8083362,11.3144848 22.0021374,11.8696516 21.3262719,12.5744828 C20.6504065,13.2793139 20.1290324,14.1144779 19.762134,15.08 C19.3952356,16.0455221 19.2117892,17.0882702 19.2117892,18.2082759 C19.2117892,19.3669023 19.3904081,20.4289607 19.7476512,21.3944828 C20.1048944,22.3600048 20.6117859,23.1903414 21.2683409,23.8855172 C21.9248959,24.5806931 22.7262672,25.1165499 23.6724788,25.4931034 C24.6186905,25.869657 25.6807488,26.057931 26.8586857,26.057931 C28.5580046,26.057931 30.006266,25.671728 31.2035133,24.8993103 C32.4007607,24.1268927 33.2890277,22.8427676 33.8683409,21.0468966 L30.2476512,21.0468966 C30.1124782,21.5103472 29.7455853,21.9496531 29.1469616,22.3648276 C28.5483379,22.7800021 27.8338623,22.9875862 27.0035133,22.9875862 C25.8448868,22.9875862 24.9566199,22.6882788 24.3386857,22.0896552 C23.7207516,21.4910315 23.382824,20.5255239 23.3248926,19.1931034 Z M40.6828887,10.7062069 L40.6828887,6.21655172 L36.5697852,6.21655172 L36.5697852,10.7062069 L34.0787508,10.7062069 L34.0787508,13.457931 L36.5697852,13.457931 L36.5697852,22.2924138 C36.5697852,23.045521 36.6953013,23.6537908 36.946337,24.1172414 C37.1973727,24.580692 37.5401279,24.9379298 37.9746128,25.1889655 C38.4090978,25.4400013 38.9111617,25.6089651 39.4808197,25.6958621 C40.0504778,25.782759 40.65392,25.8262069 41.2911646,25.8262069 C41.6966839,25.8262069 42.1118521,25.8165518 42.5366818,25.7972414 C42.9615115,25.7779309 43.3477146,25.7393107 43.6953025,25.6813793 L43.6953025,22.4951724 C43.5021981,22.5337933 43.2994415,22.5627585 43.0870266,22.582069 C42.8746118,22.6013794 42.6525451,22.6110345 42.4208197,22.6110345 C41.7256438,22.6110345 41.2622002,22.4951736 41.0304749,22.2634483 C40.7987496,22.031723 40.6828887,21.5682793 40.6828887,20.8731034 L40.6828887,13.457931 L43.6953025,13.457931 L43.6953025,10.7062069 L40.6828887,10.7062069 Z M49.7857124,10.7062069 L49.7857124,6.21655172 L45.6726089,6.21655172 L45.6726089,10.7062069 L43.1815745,10.7062069 L43.1815745,13.457931 L45.6726089,13.457931 L45.6726089,22.2924138 C45.6726089,23.045521 45.7981249,23.6537908 46.0491607,24.1172414 C46.3001964,24.580692 46.6429516,24.9379298 47.0774365,25.1889655 C47.5119215,25.4400013 48.0139854,25.6089651 48.5836434,25.6958621 C49.1533014,25.782759 49.7567437,25.8262069 50.3939883,25.8262069 C50.7995075,25.8262069 51.2146758,25.8165518 51.6395053,25.7972414 C52.0643353,25.7779309 52.4505383,25.7393107 52.798126,25.6813793 L52.798126,22.4951724 C52.6050217,22.5337933 52.4022652,22.5627585 52.1898502,22.582069 C51.9774357,22.6013794 51.755369,22.6110345 51.5236433,22.6110345 C50.8284675,22.6110345 50.3650239,22.4951736 50.1332986,22.2634483 C49.9015733,22.031723 49.7857124,21.5682793 49.7857124,20.8731034 L49.7857124,13.457931 L52.798126,13.457931 L52.798126,10.7062069 L49.7857124,10.7062069 Z M63.7547431,16.5862069 L57.0637086,16.5862069 C57.0830188,16.2965503 57.1457767,15.9682777 57.2519845,15.6013793 C57.3581917,15.2344809 57.5416381,14.8868982 57.8023293,14.5586207 C58.06302,14.2303432 58.4106026,13.9551735 58.8450879,13.7331034 C59.2795728,13.5110334 59.8250845,13.4 60.4816397,13.4 C61.4857826,13.4 62.2340509,13.6703421 62.7264672,14.2110345 C63.2188831,14.7517269 63.5616383,15.5434431 63.7547431,16.5862069 Z M57.0637086,19.1931034 L67.8678466,19.1931034 C67.9450883,18.034477 67.8485374,16.9241432 67.5781914,15.862069 C67.3078448,14.7999947 66.8685393,13.8537973 66.2602603,13.0234483 C65.6519814,12.1930993 64.8747476,11.5317266 63.9285362,11.0393103 C62.9823243,10.5468941 61.8719907,10.3006897 60.5975017,10.3006897 C59.4581855,10.3006897 58.4202647,10.5034463 57.4837086,10.9089655 C56.5471521,11.3144848 55.7409533,11.8696516 55.0650879,12.5744828 C54.3892221,13.2793139 53.8678484,14.1144779 53.50095,15.08 C53.1340516,16.0455221 52.9506052,17.0882702 52.9506052,18.2082759 C52.9506052,19.3669023 53.1292241,20.4289607 53.4864672,21.3944828 C53.8437103,22.3600048 54.3506017,23.1903414 55.0071569,23.8855172 C55.6637116,24.5806931 56.4650829,25.1165499 57.4112948,25.4931034 C58.3575062,25.869657 59.4195647,26.057931 60.5975017,26.057931 C62.2968202,26.057931 63.7450816,25.671728 64.9423293,24.8993103 C66.1395766,24.1268927 67.0278434,22.8427676 67.6071569,21.0468966 L63.9864672,21.0468966 C63.851294,21.5103472 63.4844012,21.9496531 62.8857776,22.3648276 C62.287154,22.7800021 61.5726781,22.9875862 60.7423293,22.9875862 C59.5837024,22.9875862 58.6954355,22.6882788 58.0775017,22.0896552 C57.4595674,21.4910315 57.1216397,20.5255239 57.0637086,19.1931034 Z M79.8382562,18.1503448 C79.8382562,18.7682789 79.7803257,19.3668937 79.6644631,19.9462069 C79.5486005,20.5255201 79.3554988,21.0420667 79.0851528,21.4958621 C78.8148067,21.9496574 78.4527414,22.3117228 77.9989459,22.582069 C77.5451503,22.8524152 76.9803284,22.9875862 76.3044631,22.9875862 C75.6672186,22.9875862 75.1217069,22.8475876 74.6679114,22.5675862 C74.2141159,22.2875848 73.8375683,21.9206919 73.5382562,21.4668966 C73.2389447,21.0131012 73.0217053,20.4965546 72.8865321,19.9172414 C72.7513588,19.3379281 72.6837734,18.7586236 72.6837734,18.1793103 C72.6837734,17.5613762 72.7465314,16.967589 72.8720493,16.397931 C72.9975672,15.828273 73.2003238,15.3213816 73.4803252,14.8772414 C73.7603266,14.4331012 74.1320472,14.0758634 74.5954976,13.8055172 C75.0589484,13.5351711 75.6285978,13.4 76.3044631,13.4 C76.9803284,13.4 77.5403229,13.5351711 77.9844631,13.8055172 C78.4286033,14.0758634 78.7906686,14.4282737 79.07067,14.8627586 C79.3506714,15.2972436 79.5486005,15.7993075 79.6644631,16.3689655 C79.7803257,16.9386235 79.8382562,17.5324107 79.8382562,18.1503448 Z M79.8961872,23.7696552 L79.8961872,25.6813793 L83.8065321,25.6813793 L83.8065321,5 L79.6934286,5 L79.6934286,12.5310345 L79.6354976,12.5310345 C79.1720472,11.7972377 78.5396395,11.2420708 77.7382562,10.8655172 C76.9368729,10.4889637 76.0920538,10.3006897 75.2037734,10.3006897 C74.1030781,10.3006897 73.1375705,10.5179289 72.3072217,10.9524138 C71.4768729,11.3868987 70.7865347,11.9613758 70.2361872,12.6758621 C69.6858398,13.3903484 69.2706714,14.2158574 68.99067,15.1524138 C68.7106686,16.0889702 68.57067,17.0593053 68.57067,18.0634483 C68.57067,19.1062121 68.7106686,20.11034 68.99067,21.0758621 C69.2706714,22.0413841 69.6858398,22.8958584 70.2361872,23.6393103 C70.7865347,24.3827623 71.4865278,24.971722 72.3361872,25.4062069 C73.1858467,25.8406918 74.1706645,26.057931 75.29067,26.057931 C76.2755028,26.057931 77.1589422,25.8793121 77.9410148,25.522069 C78.7230879,25.1648258 79.3554952,24.5806937 79.8382562,23.7696552 L79.8961872,23.7696552 Z" id="Netted"></path>
                <path d="M0,0.114310345 L1.92310345,0.114310345 C2.21000143,0.114310345 2.44982662,0.150172034 2.64258621,0.221896552 C2.83534579,0.293621069 2.98999942,0.387758017 3.10655172,0.504310345 C3.22310403,0.620862672 3.30715492,0.754223379 3.3587069,0.904396552 C3.41025888,1.05456972 3.43603448,1.20586133 3.43603448,1.35827586 C3.43603448,1.48827652 3.41362091,1.61155112 3.3687931,1.72810345 C3.32396529,1.84465578 3.26008662,1.94775817 3.17715517,2.03741379 C3.09422373,2.12706941 2.99560402,2.20215486 2.8812931,2.26267241 C2.76698218,2.32318997 2.64034552,2.36241372 2.50137931,2.38034483 L2.51482759,2.3937931 C2.54620705,2.38931033 2.62017183,2.40275845 2.73672414,2.43413793 C2.85327644,2.46551741 2.9754304,2.52491338 3.10318966,2.61232759 C3.23094891,2.69974179 3.34525811,2.82077509 3.44612069,2.97543103 C3.54698326,3.13008698 3.59741379,3.32844709 3.59741379,3.57051724 C3.59741379,3.79017352 3.55706937,3.98293019 3.47637931,4.1487931 C3.39568925,4.31465602 3.28250073,4.45474081 3.13681034,4.56905172 C2.99111996,4.68336264 2.81517344,4.7696549 2.60896552,4.82793103 C2.40275759,4.88620717 2.17413919,4.91534483 1.92310345,4.91534483 L0,4.91534483 L0,0.114310345 Z M1.92310345,2.29293103 C2.33103652,2.29293103 2.63586106,2.2021561 2.83758621,2.02060345 C3.03931135,1.83905079 3.14017241,1.60034633 3.14017241,1.30448276 C3.14017241,1.12965429 3.10655206,0.982845414 3.03931034,0.864051724 C2.97206863,0.745258034 2.88241435,0.648879672 2.77034483,0.574913793 C2.6582753,0.500947914 2.52939728,0.448276034 2.3837069,0.416896552 C2.23801651,0.385517069 2.08448357,0.369827586 1.92310345,0.369827586 L0.295862069,0.369827586 L0.295862069,2.29293103 L1.92310345,2.29293103 Z M1.92310345,4.65982759 C2.35345043,4.65982759 2.69077464,4.56905266 2.93508621,4.3875 C3.17939777,4.20594734 3.30155172,3.9336225 3.30155172,3.57051724 C3.30155172,3.36430929 3.25896594,3.19508684 3.1737931,3.06284483 C3.08862026,2.93060281 2.97991445,2.82637971 2.84767241,2.75017241 C2.71543038,2.67396512 2.56750082,2.62129324 2.40387931,2.59215517 C2.2402578,2.5630171 2.08000078,2.54844828 1.92310345,2.54844828 L0.295862069,2.54844828 L0.295862069,4.65982759 L1.92310345,4.65982759 Z M7.48396552,0.114310345 L7.81344828,0.114310345 L5.88362069,2.90482759 L5.88362069,4.91534483 L5.58775862,4.91534483 L5.58775862,2.90482759 L3.67137931,0.114310345 L4.00758621,0.114310345 L5.74241379,2.65603448 L7.48396552,0.114310345 Z M9.44741379,0.369827586 L9.44741379,0.114310345 L13.1255172,0.114310345 L13.1255172,0.369827586 L11.4310345,0.369827586 L11.4310345,4.91534483 L11.1351724,4.91534483 L11.1351724,0.369827586 L9.44741379,0.369827586 Z M13.455,0.114310345 L13.7508621,0.114310345 L13.7508621,2.29293103 L16.817069,2.29293103 L16.817069,0.114310345 L17.112931,0.114310345 L17.112931,4.91534483 L16.817069,4.91534483 L16.817069,2.54844828 L13.7508621,2.54844828 L13.7508621,4.91534483 L13.455,4.91534483 L13.455,0.114310345 Z M17.9601724,0.114310345 L21.1877586,0.114310345 L21.1877586,0.369827586 L18.2560345,0.369827586 L18.2560345,2.29293103 L21.012931,2.29293103 L21.012931,2.54844828 L18.2560345,2.54844828 L18.2560345,4.65982759 L21.2213793,4.65982759 L21.2213793,4.91534483 L17.9601724,4.91534483 L17.9601724,0.114310345 Z M23.2117241,0.114310345 L24.0656897,0.114310345 L24.9331034,3.78568966 L24.9465517,3.78568966 L25.9148276,0.114310345 L26.7755172,0.114310345 L27.7168966,3.78568966 L27.7303448,3.78568966 L28.6246552,0.114310345 L29.4786207,0.114310345 L28.1539655,4.91534483 L27.3,4.91534483 L26.3384483,1.24396552 L26.325,1.24396552 L25.3432759,4.91534483 L24.4758621,4.91534483 L23.2117241,0.114310345 Z M30.03,0.114310345 L33.4862069,0.114310345 L33.4862069,0.840517241 L30.8705172,0.840517241 L30.8705172,2.09793103 L33.2912069,2.09793103 L33.2912069,2.7837931 L30.8705172,2.7837931 L30.8705172,4.18913793 L33.5332759,4.18913793 L33.5332759,4.91534483 L30.03,4.91534483 L30.03,0.114310345 Z M35.1067241,2.12482759 L36.4784483,2.12482759 C36.6801734,2.12482759 36.8482752,2.06767298 36.9827586,1.95336207 C37.1172421,1.83905116 37.1844828,1.67431143 37.1844828,1.45913793 C37.1844828,1.21706778 37.1239661,1.04672462 37.002931,0.948103448 C36.8818959,0.849482276 36.7070701,0.800172414 36.4784483,0.800172414 L35.1067241,0.800172414 L35.1067241,2.12482759 Z M34.2662069,0.114310345 L36.5994828,0.114310345 C37.0298298,0.114310345 37.3749987,0.212930069 37.635,0.410172414 C37.8950013,0.607414759 38.025,0.905515241 38.025,1.30448276 C38.025,1.54655291 37.965604,1.75387847 37.8468103,1.92646552 C37.7280167,2.09905257 37.5587942,2.23241333 37.3391379,2.32655172 L37.3391379,2.34 C37.6350015,2.40275891 37.8591372,2.54284376 38.0115517,2.76025862 C38.1639663,2.97767348 38.2401724,3.24999838 38.2401724,3.57724138 C38.2401724,3.76551817 38.206552,3.94146471 38.1393103,4.10508621 C38.0720686,4.26870771 37.9667248,4.40991321 37.8232759,4.5287069 C37.6798269,4.64750059 37.4960356,4.74163759 37.2718966,4.81112069 C37.0477575,4.88060379 36.781036,4.91534483 36.4717241,4.91534483 L34.2662069,4.91534483 L34.2662069,0.114310345 Z M35.1067241,4.22948276 L36.5927586,4.22948276 C36.8482772,4.22948276 37.0466372,4.16336271 37.1878448,4.03112069 C37.3290524,3.89887867 37.3996552,3.71172533 37.3996552,3.46965517 C37.3996552,3.23206779 37.3290524,3.04939717 37.1878448,2.92163793 C37.0466372,2.79387869 36.8482772,2.73 36.5927586,2.73 L35.1067241,2.73 L35.1067241,4.22948276 Z M39.8405172,2.12482759 L41.2122414,2.12482759 C41.4139665,2.12482759 41.5820683,2.06767298 41.7165517,1.95336207 C41.8510352,1.83905116 41.9182759,1.67431143 41.9182759,1.45913793 C41.9182759,1.21706778 41.8577592,1.04672462 41.7367241,0.948103448 C41.615689,0.849482276 41.4408632,0.800172414 41.2122414,0.800172414 L39.8405172,0.800172414 L39.8405172,2.12482759 Z M39,0.114310345 L41.3332759,0.114310345 C41.7636229,0.114310345 42.1087918,0.212930069 42.3687931,0.410172414 C42.6287944,0.607414759 42.7587931,0.905515241 42.7587931,1.30448276 C42.7587931,1.54655291 42.6993971,1.75387847 42.5806034,1.92646552 C42.4618098,2.09905257 42.2925873,2.23241333 42.072931,2.32655172 L42.072931,2.34 C42.3687946,2.40275891 42.5929303,2.54284376 42.7453448,2.76025862 C42.8977594,2.97767348 42.9739655,3.24999838 42.9739655,3.57724138 C42.9739655,3.76551817 42.9403452,3.94146471 42.8731034,4.10508621 C42.8058618,4.26870771 42.7005179,4.40991321 42.557069,4.5287069 C42.41362,4.64750059 42.2298287,4.74163759 42.0056897,4.81112069 C41.7815506,4.88060379 41.5148291,4.91534483 41.2055172,4.91534483 L39,4.91534483 L39,0.114310345 Z M39.8405172,4.22948276 L41.3265517,4.22948276 C41.5820703,4.22948276 41.7804303,4.16336271 41.9216379,4.03112069 C42.0628456,3.89887867 42.1334483,3.71172533 42.1334483,3.46965517 C42.1334483,3.23206779 42.0628456,3.04939717 41.9216379,2.92163793 C41.7804303,2.79387869 41.5820703,2.73 41.3265517,2.73 L39.8405172,2.73 L39.8405172,4.22948276 Z M44.9844828,3.03258621 L43.1824138,0.114310345 L44.1574138,0.114310345 L45.4282759,2.26603448 L46.6789655,0.114310345 L47.6203448,0.114310345 L45.825,3.03258621 L45.825,4.91534483 L44.9844828,4.91534483 L44.9844828,3.03258621 Z M48.6424138,3.315 C48.6424138,3.49879402 48.6737928,3.655689 48.7365517,3.78568966 C48.7993106,3.91569031 48.8867236,4.02215478 48.9987931,4.10508621 C49.1108626,4.18801764 49.2397406,4.24853431 49.385431,4.28663793 C49.5311214,4.32474155 49.6891371,4.3437931 49.8594828,4.3437931 C50.0432768,4.3437931 50.2001718,4.32250019 50.3301724,4.27991379 C50.4601731,4.2373274 50.5655168,4.18241416 50.6462069,4.11517241 C50.726897,4.04793072 50.7851722,3.97060386 50.8210345,3.88318966 C50.8568967,3.79577545 50.8748276,3.70724183 50.8748276,3.61758621 C50.8748276,3.43379219 50.8333625,3.29819007 50.750431,3.21077586 C50.6674996,3.12336166 50.5767246,3.06172433 50.4781034,3.02586207 C50.3077578,2.96310316 50.1093977,2.90370719 49.8830172,2.84767241 C49.6566368,2.79163764 49.3775878,2.71879355 49.0458621,2.62913793 C48.8396541,2.57534457 48.6681904,2.50474179 48.5314655,2.41732759 C48.3947407,2.32991338 48.2860349,2.23241431 48.2053448,2.12482759 C48.1246548,2.01724086 48.0675002,1.90293166 48.0338793,1.78189655 C48.0002585,1.66086145 47.9834483,1.53758684 47.9834483,1.41206897 C47.9834483,1.16999881 48.0338788,0.960431897 48.1347414,0.783362069 C48.235604,0.606292241 48.3689647,0.459483362 48.5348276,0.342931034 C48.7006905,0.226378707 48.8889644,0.1400865 49.0996552,0.0840517241 C49.3103459,0.0280169483 49.5232748,0 49.7384483,0 C49.989484,0 50.2259472,0.0324996724 50.4478448,0.0975 C50.6697425,0.162500328 50.8647406,0.259999345 51.0328448,0.39 C51.2009491,0.520000655 51.3343097,0.680257655 51.432931,0.870775862 C51.5315524,1.06129407 51.5808621,1.28206769 51.5808621,1.53310345 L50.7403448,1.53310345 C50.7179309,1.22379155 50.6125871,1.00525924 50.4243103,0.8775 C50.2360336,0.749740759 49.9962084,0.685862069 49.7048276,0.685862069 C49.6062064,0.685862069 49.5053453,0.695948172 49.4022414,0.71612069 C49.2991374,0.736293207 49.2050004,0.769913534 49.1198276,0.816982759 C49.0346547,0.864051983 48.964052,0.927930621 48.9080172,1.00862069 C48.8519825,1.08931076 48.8239655,1.19017179 48.8239655,1.3112069 C48.8239655,1.48155259 48.8766374,1.61491329 48.9819828,1.7112931 C49.0873281,1.80767291 49.2251716,1.880517 49.3955172,1.92982759 C49.4134483,1.93431036 49.4840511,1.95336191 49.6073276,1.98698276 C49.7306041,2.0206036 49.8684475,2.057586 50.0208621,2.09793103 C50.1732766,2.13827607 50.3223268,2.17749983 50.4680172,2.21560345 C50.6137076,2.25370707 50.7179307,2.28172407 50.7806897,2.29965517 C50.937587,2.34896576 51.0743097,2.41620647 51.1908621,2.50137931 C51.3074141,2.58655216 51.4049136,2.68405117 51.4833621,2.79387931 C51.5618105,2.90370745 51.620086,3.02137867 51.6581897,3.14689655 C51.6962933,3.27241443 51.7153448,3.3979304 51.7153448,3.52344828 C51.7153448,3.79241514 51.6604314,4.02215421 51.5506034,4.21267241 C51.4407755,4.40319062 51.2962078,4.5589649 51.1168966,4.68 C50.9375853,4.8010351 50.7336218,4.88956867 50.505,4.94560345 C50.2763782,5.00163822 50.043277,5.02965517 49.8056897,5.02965517 C49.53224,5.02965517 49.2744839,4.99603479 49.0324138,4.9287931 C48.7903436,4.86155136 48.5796561,4.75844897 48.4003448,4.61948276 C48.2210336,4.48051655 48.0775867,4.30232866 47.97,4.08491379 C47.8624133,3.86749893 47.8063793,3.61086357 47.8018966,3.315 L48.6424138,3.315 Z" id="BY-THE-WEBBYS"></path>
            </g>
        </g>
    </g>
</svg>