<?xml version="1.0" encoding="UTF-8"?>
<svg width="39px" height="39px" viewBox="0 0 39 39" version="1.1" xmlns="http://www.w3.org/2000/svg" xmlns:xlink="http://www.w3.org/1999/xlink">
    <!-- Generator: Sketch 42 (36781) - http://www.bohemiancoding.com/sketch -->
    <title>Group 5</title>
    <desc>Created with Sketch.</desc>
    <defs>
        <ellipse id="path-1" cx="37.7843137" cy="6.42857143" rx="5.52941176" ry="5.51020408"></ellipse>
        <mask id="mask-2" maskContentUnits="userSpaceOnUse" maskUnits="objectBoundingBox" x="0" y="0" width="11.0588235" height="11.0204082" fill="white">
            <use xlink:href="#path-1"></use>
        </mask>
        <path d="M0,0 L47,0 L47,45 L0,45 L0,0 Z M38,12 C40.5375661,12 43,9.53756612 43,7 C43,3.46243388 40.5375661,1 38,1 C34.4624339,1 32,3.46243388 32,7 C32,9.53756612 34.4624339,12 38,12 Z" id="path-3"></path>
    </defs>
    <g id="Icons" stroke="none" stroke-width="1" fill="none" fill-rule="evenodd">
        <g id="iCloudIcon" transform="translate(-29.000000, -21.000000)">
            <g id="Group-5" transform="translate(24.000000, 21.000000)">
                <use id="Oval" stroke="#FFFFFF" mask="url(#mask-2)" stroke-width="2" xlink:href="#path-1"></use>
                <g id="Rectangle-2">
                    <mask id="mask-4" fill="white">
                        <use xlink:href="#path-3"></use>
                    </mask>
                    <g id="Mask"></g>
                    <path d="M6,10 L6,32 C6,35.1186065 8.88249592,38 12,38 L34,38 C37.1186065,38 40,35.1175041 40,32 L40,10 C40,6.88139353 37.1175041,4 34,4 L12,4 C8.88139353,4 6,6.88249592 6,10 Z M5,10 C5,6.31030792 8.30621422,3 12,3 L34,3 C37.6896921,3 41,6.30621422 41,10 L41,32 C41,35.6896921 37.6937858,39 34,39 L12,39 C8.31030792,39 5,35.6937858 5,32 L5,10 Z" fill="#FFFFFF" fill-rule="nonzero" mask="url(#mask-4)"></path>
                </g>
            </g>
        </g>
    </g>
</svg>