<?xml version="1.0" encoding="UTF-8"?>
<svg width="30px" height="30px" viewBox="0 0 30 30" version="1.1" xmlns="http://www.w3.org/2000/svg" xmlns:xlink="http://www.w3.org/1999/xlink">
    <!-- Generator: Sketch 42 (36781) - http://www.bohemiancoding.com/sketch -->
    <title>Artboard</title>
    <desc>Created with Sketch.</desc>
    <defs>
        <path d="M21.719871,4.05029585 C21.4873166,4.01714711 21.2495946,4 21.0078595,4 L8.99214053,4 C6.23054698,4 4,6.23505745 4,8.99214053 L4,21.0078595 C4,23.769453 6.23505745,26 8.99214053,26 L21.0078595,26 C23.769453,26 26,23.7649426 26,21.0078595 L26,8.99214053 C26,8.75034017 25.982865,8.51261105 25.949745,8.28009398 C25.425371,8.72891813 24.7443428,9 24,9 C22.3431458,9 21,7.65685425 21,6 C21,5.25567657 21.2710678,4.57466442 21.719871,4.05029585 Z" id="path-1"></path>
        <mask id="mask-2" maskContentUnits="userSpaceOnUse" maskUnits="objectBoundingBox" x="0" y="0" width="22" height="22" fill="white">
            <use xlink:href="#path-1"></use>
        </mask>
        <circle id="path-3" cx="24" cy="6" r="3"></circle>
        <mask id="mask-4" maskContentUnits="userSpaceOnUse" maskUnits="objectBoundingBox" x="-1" y="-1" width="8" height="8">
            <rect x="20" y="2" width="8" height="8" fill="white"></rect>
            <use xlink:href="#path-3" fill="black"></use>
        </mask>
    </defs>
    <g id="Icons" stroke="none" stroke-width="1" fill="none" fill-rule="evenodd">
        <g id="Artboard" stroke="#FFFFFF" stroke-width="2">
            <use id="Combined-Shape" mask="url(#mask-2)" xlink:href="#path-1"></use>
            <use id="Oval-2" mask="url(#mask-4)" xlink:href="#path-3"></use>
        </g>
    </g>
</svg>