<?xml version="1.0" encoding="UTF-8"?>
<svg width="34px" height="35px" viewBox="0 0 34 35" version="1.1" xmlns="http://www.w3.org/2000/svg" xmlns:xlink="http://www.w3.org/1999/xlink">
    <!-- Generator: Sketch 42 (36781) - http://www.bohemiancoding.com/sketch -->
    <title>Group 7</title>
    <desc>Created with Sketch.</desc>
    <defs>
        <path d="M0,2.00454395 C0,0.897464896 0.891941149,0 1.9999204,0 L32.0000796,0 C33.1046051,0 34,0.890490367 34,2.00920846 L34,19.3477251 C34,20.4573803 33.4764362,22.0712351 32.8135993,22.9755479 L25.1864007,33.3813857 C24.5311697,34.2753217 23.1029399,35 21.9941413,35 L12.0058587,35 C10.8980535,35 9.46235657,34.2748639 8.81359935,33.3998653 L1.18640065,23.11283 C0.531169665,22.2291 0,20.6157104 0,19.5081514 L0,2.00454395 Z" id="path-1"></path>
        <mask id="mask-2" maskContentUnits="userSpaceOnUse" maskUnits="objectBoundingBox" x="0" y="0" width="34" height="35" fill="white">
            <use xlink:href="#path-1"></use>
        </mask>
        <rect id="path-3" x="8" y="7" width="5" height="13" rx="2"></rect>
        <mask id="mask-4" maskContentUnits="userSpaceOnUse" maskUnits="objectBoundingBox" x="0" y="0" width="5" height="13" fill="white">
            <use xlink:href="#path-3"></use>
        </mask>
        <rect id="path-5" x="21" y="7" width="5" height="13" rx="2"></rect>
        <mask id="mask-6" maskContentUnits="userSpaceOnUse" maskUnits="objectBoundingBox" x="0" y="0" width="5" height="13" fill="white">
            <use xlink:href="#path-5"></use>
        </mask>
    </defs>
    <g id="Icons" stroke="none" stroke-width="1" fill="none" fill-rule="evenodd">
        <g id="iCloudIcon" transform="translate(-34.000000, -24.000000)" stroke="#FFFFFF" stroke-width="2">
            <g id="Group-7" transform="translate(34.000000, 24.000000)">
                <use id="Rectangle-3" mask="url(#mask-2)" xlink:href="#path-1"></use>
                <use id="Rectangle-4" mask="url(#mask-4)" xlink:href="#path-3"></use>
                <use id="Rectangle-4" mask="url(#mask-6)" xlink:href="#path-5"></use>
            </g>
        </g>
    </g>
</svg>