<?xml version="1.0" encoding="utf-8"?>
<!-- Generator: Adobe Illustrator 16.0.0, SVG Export Plug-In . SVG Version: 6.00 Build 0)  -->
<!DOCTYPE svg PUBLIC "-//W3C//DTD SVG 1.1//EN" "http://www.w3.org/Graphics/SVG/1.1/DTD/svg11.dtd">
<svg version="1.1" id="Layer_1" xmlns="http://www.w3.org/2000/svg" xmlns:xlink="http://www.w3.org/1999/xlink" x="0px" y="0px"
	 width="245.959px" height="245.959px" viewBox="0 0 245.959 245.959" enable-background="new 0 0 245.959 245.959"
	 xml:space="preserve">
<g>
	<path fill="#FFFFFF" d="M122.979,0C55.168,0,0,55.168,0,122.979c0,67.812,55.168,122.979,122.979,122.979
		c67.812,0,122.979-55.168,122.979-122.979C245.959,55.168,190.791,0,122.979,0z M122.979,231.959
		C62.888,231.959,14,183.07,14,122.979C14,62.888,62.888,14,122.979,14c60.091,0,108.979,48.888,108.979,108.979
		C231.959,183.07,183.07,231.959,122.979,231.959z"/>
	<path fill="#FFFFFF" d="M171.498,116.542L94.455,67.68c-1.845-1.169-4.179-1.243-6.093-0.19c-1.914,1.052-3.103,3.063-3.103,5.248
		v97.726c0,2.184,1.189,4.195,3.103,5.247c0.9,0.495,1.894,0.741,2.885,0.741c1.117,0,2.231-0.312,3.208-0.932l77.043-48.862
		c1.732-1.099,2.781-3.007,2.781-5.058S173.23,117.641,171.498,116.542z"/>
</g>
</svg>
