<?xml version="1.0" encoding="UTF-8"?>
<svg width="201px" height="200px" viewBox="0 0 201 200" version="1.1" xmlns="http://www.w3.org/2000/svg" xmlns:xlink="http://www.w3.org/1999/xlink">
    <!-- Generator: Sketch 42 (36781) - http://www.bohemiancoding.com/sketch -->
    <title>quote_icon</title>
    <desc>Created with Sketch.</desc>
    <defs></defs>
    <g id="Page-1" stroke="none" stroke-width="1" fill="none" fill-rule="evenodd">
        <g id="Desktop-HD-Copy-9" transform="translate(-619.000000, -2330.000000)">
            <g id="quote_icon" transform="translate(619.000000, 2330.000000)">
                <polygon id="Star" fill="#6C41B9" points="100.5 186.061094 85.5212522 199.877498 75.2804249 182.259854 56.8946842 191.047371 52.3017197 171.193893 32.1426399 174.171713 33.6056432 153.846469 13.4644469 150.75 20.8534239 131.758978 2.51974483 122.863354 15.1781524 106.893989 0.281018383 92.9896256 17.0841015 81.4608655 6.94718826 63.7832271 26.4019192 57.7194531 21.925936 37.8392749 42.3036766 37.7792801 43.8863342 17.4630032 63.3764327 23.4121182 70.877105 4.46493302 87.7477807 15.894553 100.5 0 113.252219 15.894553 130.122895 4.46493302 137.623567 23.4121182 157.113666 17.4630032 158.696323 37.7792801 179.074064 37.8392749 174.598081 57.7194531 194.052812 63.7832271 183.915898 81.4608655 200.718982 92.9896256 185.821848 106.893989 198.480255 122.863354 180.146576 131.758978 187.535553 150.75 167.394357 153.846469 168.85736 174.171713 148.69828 171.193893 144.105316 191.047371 125.719575 182.259854 115.478748 199.877498"></polygon>
                <path d="M96.2441406,114.636719 C96.2441406,118.386737 94.7353667,121.667955 91.7177734,124.480469 C88.7001802,127.292983 85.1406455,128.699219 81.0390625,128.699219 C74.5937178,128.699219 69.6425954,126.560568 66.1855469,122.283203 C62.7284983,118.005838 61,112.087928 61,104.529297 C61,97.4980117 63.9736031,90.4082389 69.9208984,83.2597656 C75.8681938,76.1112924 83.0312081,70.6914247 91.4101562,67 L95.2773438,73.2402344 C88.6562169,76.4629067 83.4707219,80.2128692 79.7207031,84.4902344 C75.9706844,88.7675995 73.8027373,93.9530945 73.2167969,100.046875 L78.1386719,100.046875 C81.7715025,100.046875 84.7304573,100.457027 87.015625,101.277344 C89.3007927,102.09766 91.1464773,103.240227 92.5527344,104.705078 C93.9003974,106.111335 94.8525363,107.664054 95.4091797,109.363281 C95.9658231,111.062508 96.2441406,112.820303 96.2441406,114.636719 Z M139.574219,114.636719 C139.574219,118.386737 138.065445,121.667955 135.047852,124.480469 C132.030258,127.292983 128.470724,128.699219 124.369141,128.699219 C117.923796,128.699219 112.972674,126.560568 109.515625,122.283203 C106.058576,118.005838 104.330078,112.087928 104.330078,104.529297 C104.330078,97.4980117 107.303681,90.4082389 113.250977,83.2597656 C119.198272,76.1112924 126.361286,70.6914247 134.740234,67 L138.607422,73.2402344 C131.986295,76.4629067 126.8008,80.2128692 123.050781,84.4902344 C119.300763,88.7675995 117.132815,93.9530945 116.546875,100.046875 L121.46875,100.046875 C125.101581,100.046875 128.060535,100.457027 130.345703,101.277344 C132.630871,102.09766 134.476555,103.240227 135.882812,104.705078 C137.230475,106.111335 138.182614,107.664054 138.739258,109.363281 C139.295901,111.062508 139.574219,112.820303 139.574219,114.636719 Z" id="“" fill="#FFFFFF"></path>
            </g>
        </g>
    </g>
</svg>