<?xml version="1.0" encoding="UTF-8"?>
<svg width="30px" height="30px" viewBox="0 0 30 30" version="1.1" xmlns="http://www.w3.org/2000/svg" xmlns:xlink="http://www.w3.org/1999/xlink">
    <!-- Generator: Sketch 42 (36781) - http://www.bohemiancoding.com/sketch -->
    <title>Artboard</title>
    <desc>Created with Sketch.</desc>
    <defs></defs>
    <g id="Icons" stroke="none" stroke-width="1" fill="none" fill-rule="evenodd">
        <g id="Artboard" stroke="#FFFFFF" fill-rule="nonzero">
            <path d="M17.9255499,26 L11.820643,26 C10.4805415,26 9.2893401,25.8510998 8.24703892,25.4043993 C7.50253807,25.106599 6.90693739,24.8087986 6.46023689,24.3620981 C5.56683587,23.9153976 5.12013536,22.8730964 5.12013536,21.8307953 C5.12013536,20.9373942 5.4179357,20.1928934 6.01353638,19.4483926 C7.20473773,18.108291 9.14043993,17.0659898 11.820643,16.1725888 C11.9695431,16.0236887 12.1184433,15.8747885 12.2673435,15.7258883 C12.2673435,15.7258883 12.1184433,15.5769882 11.820643,15.2791878 C9.88494078,12.7478849 8.99153976,10.5143824 9.2893401,8.42978003 C9.58714044,7.08967851 10.1827411,5.89847716 11.3739425,5.00507614 C13.3096447,3.66497462 16.2876481,3.66497462 18.0744501,5.00507614 C19.2656514,5.89847716 20.0101523,7.08967851 20.1590525,8.42978003 C20.4568528,10.5143824 19.5634518,12.8967851 17.7766497,15.2791878 C17.3299492,15.7258883 17.3299492,15.8747885 17.3299492,15.8747885 C17.3299492,15.8747885 17.6277496,16.0236887 17.7766497,16.1725888 C20.4568528,17.0659898 22.392555,18.108291 23.5837563,19.4483926 C24.179357,20.0439932 24.4771574,20.9373942 24.4771574,21.8307953 C24.4771574,22.8730964 24.0304569,23.9153976 23.285956,24.5109983 C22.8392555,24.9576988 22.2436548,25.2554992 21.499154,25.5532995 C20.3079526,25.8510998 19.1167513,26 17.9255499,26 Z" id="Shape"></path>
        </g>
    </g>
</svg>