<?xml version="1.0" encoding="UTF-8"?>
<svg width="60px" height="60px" viewBox="0 0 60 60" version="1.1" xmlns="http://www.w3.org/2000/svg" xmlns:xlink="http://www.w3.org/1999/xlink">
    <!-- Generator: Sketch 42 (36781) - http://www.bohemiancoding.com/sketch -->
    <title>support_icon_creation</title>
    <desc>Created with Sketch.</desc>
    <defs>
        <rect id="path-1" x="0" y="0" width="60" height="60" rx="7"></rect>
        <mask id="mask-2" maskContentUnits="userSpaceOnUse" maskUnits="objectBoundingBox" x="0" y="0" width="60" height="60" fill="white">
            <use xlink:href="#path-1"></use>
        </mask>
        <path d="M15,23.9968389 C15,21.7894457 16.7856329,20 19.0062943,20 L33.9937057,20 C36.206321,20 38,21.7941203 38,23.9968389 L38,44.0031611 C38,46.2105543 36.2143671,48 33.9937057,48 L19.0062943,48 C16.793679,48 15,46.2058797 15,44.0031611 L15,23.9968389 Z" id="path-3"></path>
        <mask id="mask-4" maskContentUnits="userSpaceOnUse" maskUnits="objectBoundingBox" x="0" y="0" width="23" height="28" fill="white">
            <use xlink:href="#path-3"></use>
        </mask>
        <path d="M29,4 L29,0 L0,0 L0,8 L19,8 L19,33 L29,33 L29,4 Z" id="path-5"></path>
    </defs>
    <g id="Page-1" stroke="none" stroke-width="1" fill="none" fill-rule="evenodd">
        <g id="Desktop-HD-Copy-8" transform="translate(-307.000000, -1689.000000)">
            <g id="support_icon_creation" transform="translate(307.000000, 1689.000000)">
                <g id="support_icloud_icon" stroke="#FFFFFF" stroke-width="2">
                    <use id="Rectangle-10" mask="url(#mask-2)" transform="translate(30.000000, 30.000000) scale(-1, 1) rotate(-180.000000) translate(-30.000000, -30.000000) " xlink:href="#path-1"></use>
                </g>
                <use id="Rectangle-2" stroke="#FFFFFF" mask="url(#mask-4)" stroke-width="2" xlink:href="#path-3"></use>
                <g id="Rectangle-2" transform="translate(20.000000, 11.000000)">
                    <mask id="mask-6" fill="white">
                        <use xlink:href="#path-5"></use>
                    </mask>
                    <g id="Mask"></g>
                    <path d="M2,5.99683887 L2,26.0031611 C2,27.654861 3.34723286,29 5.00629425,29 L19.9937057,29 C21.6595215,29 23,27.6608274 23,26.0031611 L23,5.99683887 C23,4.34513903 21.6527671,3 19.9937057,3 L5.00629425,3 C3.3404785,3 2,4.33917258 2,5.99683887 Z M1,5.99683887 C1,3.78944571 2.78563292,2 5.00629425,2 L19.9937057,2 C22.206321,2 24,3.79412025 24,5.99683887 L24,26.0031611 C24,28.2105543 22.2143671,30 19.9937057,30 L5.00629425,30 C2.79367903,30 1,28.2058797 1,26.0031611 L1,5.99683887 Z" fill="#FFFFFF" fill-rule="nonzero" mask="url(#mask-6)"></path>
                </g>
            </g>
        </g>
    </g>
</svg>