<?xml version="1.0" encoding="UTF-8"?>
<svg width="60px" height="60px" viewBox="0 0 60 60" version="1.1" xmlns="http://www.w3.org/2000/svg" xmlns:xlink="http://www.w3.org/1999/xlink">
    <!-- Generator: Sketch 42 (36781) - http://www.bohemiancoding.com/sketch -->
    <title>support_icloud_icon</title>
    <desc>Created with Sketch.</desc>
    <defs>
        <rect id="path-1" x="0" y="0" width="60" height="60" rx="7"></rect>
        <mask id="mask-2" maskContentUnits="userSpaceOnUse" maskUnits="objectBoundingBox" x="0" y="0" width="60" height="60" fill="white">
            <use xlink:href="#path-1"></use>
        </mask>
        <path d="M13.4597944,18.4912281 C15.1397238,14.2983482 19.274771,11.3333333 24.109589,11.3333333 C27.4034829,11.3333333 30.3725778,12.7095469 32.4617989,14.9126536 C32.4904846,14.9124052 32.5192002,14.9122807 32.5479452,14.9122807 C37.8740885,14.9122807 42.1917808,19.1852122 42.1917808,24.4561404 C42.1917808,29.7270685 37.8740885,34 32.5479452,34 C32.3475596,34 32.1486014,33.9939517 31.9512469,33.9820295 C31.7755442,33.9939452 31.5982529,34 31.4195683,34 L11.977692,34 C7.69278307,34 4.21917808,30.5195289 4.21917808,26.245614 C4.21917808,21.9629849 7.69897889,18.4912281 11.977692,18.4912281 L13.4597944,18.4912281 Z" id="path-3"></path>
        <mask id="mask-4" maskContentUnits="userSpaceOnUse" maskUnits="objectBoundingBox" x="0" y="0" width="37.9726027" height="22.6666667" fill="white">
            <use xlink:href="#path-3"></use>
        </mask>
        <ellipse id="path-5" cx="10.5479452" cy="10.4385965" rx="10.5479452" ry="10.4385965"></ellipse>
        <ellipse id="path-7" cx="1.20547945" cy="22.6666667" rx="11.4520548" ry="11.3333333"></ellipse>
        <mask id="mask-8" maskContentUnits="userSpaceOnUse" maskUnits="objectBoundingBox" x="0" y="0" width="22.9041096" height="22.6666667" fill="white">
            <use xlink:href="#path-7"></use>
        </mask>
        <ellipse id="path-9" cx="10.5479452" cy="10.4385965" rx="10.5479452" ry="10.4385965"></ellipse>
        <ellipse id="path-11" cx="12.0547945" cy="22.6666667" rx="7.83561644" ry="7.75438596"></ellipse>
        <mask id="mask-12" maskContentUnits="userSpaceOnUse" maskUnits="objectBoundingBox" x="0" y="0" width="15.6712329" height="15.5087719" fill="white">
            <use xlink:href="#path-11"></use>
        </mask>
    </defs>
    <g id="Page-1" stroke="none" stroke-width="1" fill="none" fill-rule="evenodd">
        <g id="Desktop-HD-Copy-8" transform="translate(-307.000000, -1689.000000)">
            <g id="support_icloud_icon" transform="translate(307.000000, 1689.000000)">
                <use id="Rectangle-10" stroke="#FFFFFF" mask="url(#mask-2)" stroke-width="2" transform="translate(30.000000, 30.000000) scale(-1, 1) rotate(-180.000000) translate(-30.000000, -30.000000) " xlink:href="#path-1"></use>
                <g id="Group" transform="translate(6.000000, 7.000000)">
                    <use id="Combined-Shape" stroke="#FFFFFF" mask="url(#mask-4)" stroke-width="2" xlink:href="#path-3"></use>
                    <g id="Oval" transform="translate(22.904110, 0.000000)">
                        <mask id="mask-6" fill="white">
                            <use xlink:href="#path-5"></use>
                        </mask>
                        <g id="Mask"></g>
                        <g mask="url(#mask-6)" stroke-width="2" stroke="#FFFFFF">
                            <use mask="url(#mask-8)" xlink:href="#path-7"></use>
                        </g>
                    </g>
                    <g id="Oval" transform="translate(0.000000, 3.578947)">
                        <mask id="mask-10" fill="white">
                            <use xlink:href="#path-9"></use>
                        </mask>
                        <g id="Mask"></g>
                        <g mask="url(#mask-10)" stroke-width="2" stroke="#FFFFFF">
                            <use mask="url(#mask-12)" xlink:href="#path-11"></use>
                        </g>
                    </g>
                </g>
            </g>
        </g>
    </g>
</svg>