<?xml version="1.0" encoding="UTF-8"?>
<svg width="60px" height="60px" viewBox="0 0 60 60" version="1.1" xmlns="http://www.w3.org/2000/svg" xmlns:xlink="http://www.w3.org/1999/xlink">
    <!-- Generator: Sketch 42 (36781) - http://www.bohemiancoding.com/sketch -->
    <title>support_extension_icon</title>
    <desc>Created with Sketch.</desc>
    <defs>
        <rect id="path-1" x="0" y="0" width="60" height="60" rx="7"></rect>
        <mask id="mask-2" maskContentUnits="userSpaceOnUse" maskUnits="objectBoundingBox" x="0" y="0" width="60" height="60" fill="white">
            <use xlink:href="#path-1"></use>
        </mask>
        <path d="M10,17 L10,0 L0,0 L0,22.5 L0,28 L24,28 L29,28 L29,0 L19,0 L19,17 L10,17 Z" id="path-3"></path>
        <rect id="path-5" x="2" y="1" width="25" height="25" rx="4"></rect>
        <mask id="mask-6" maskContentUnits="userSpaceOnUse" maskUnits="objectBoundingBox" x="0" y="0" width="25" height="25" fill="white">
            <use xlink:href="#path-5"></use>
        </mask>
    </defs>
    <g id="Page-1" stroke="none" stroke-width="1" fill="none" fill-rule="evenodd">
        <g id="Desktop-HD-Copy-8" transform="translate(-307.000000, -1689.000000)">
            <g id="support_extension_icon" transform="translate(307.000000, 1689.000000)">
                <g id="support_icon_creation" stroke-width="2" stroke="#FFFFFF">
                    <g id="support_icloud_icon">
                        <use id="Rectangle-10" mask="url(#mask-2)" transform="translate(30.000000, 30.000000) scale(-1, 1) rotate(-180.000000) translate(-30.000000, -30.000000) " xlink:href="#path-1"></use>
                    </g>
                </g>
                <g id="Rectangle-12" transform="translate(15.000000, 19.000000)">
                    <mask id="mask-4" fill="white">
                        <use xlink:href="#path-3"></use>
                    </mask>
                    <g id="Mask"></g>
                    <g mask="url(#mask-4)" stroke-width="2" stroke="#FFFFFF">
                        <use mask="url(#mask-6)" xlink:href="#path-5"></use>
                    </g>
                </g>
                <path d="M29.5,31.5 L29.5,10.5" id="Line" stroke="#FFFFFF" stroke-linecap="round"></path>
                <path d="M35.5827625,16.5827625 L29.5,10.5" id="Line" stroke="#FFFFFF" stroke-linecap="round"></path>
                <path d="M29.5827625,16.5827625 L23.5,10.5" id="Line" stroke="#FFFFFF" stroke-linecap="round" transform="translate(26.500000, 13.500000) scale(-1, 1) translate(-26.500000, -13.500000) "></path>
            </g>
        </g>
    </g>
</svg>