<?xml version="1.0" encoding="UTF-8"?>
<svg width="124px" height="30px" viewBox="0 0 124 30" version="1.1" xmlns="http://www.w3.org/2000/svg" xmlns:xlink="http://www.w3.org/1999/xlink">
    <!-- Generator: Sketch 42 (36781) - http://www.bohemiancoding.com/sketch -->
    <title>Shape</title>
    <desc>Created with Sketch.</desc>
    <defs></defs>
    <g id="Page-1" stroke="none" stroke-width="1" fill="none" fill-rule="evenodd">
        <g id="Desktop-HD-Copy-9" transform="translate(-275.000000, -3572.000000)" fill-rule="nonzero" fill="#AE8EE8">
            <path d="M338.75,3602 L327.5,3602 L327.5,3592.25 C327.5,3590.9375 326.9375,3589.8125 326.1875,3588.875 L321.875,3584.5625 C320.9375,3583.8125 319.8125,3583.25 318.5,3583.25 L316.25,3583.25 L316.25,3602 L305,3602 L305,3572 L321.3125,3572 C323.75,3572 326.1875,3572.9375 327.875,3574.8125 L335.9375,3582.875 C337.8125,3584.5625 338.75,3587 338.75,3589.4375 L338.75,3602 Z M387.5,3572 L387.5,3581.75 C387.5,3583.0625 386.9375,3584.1875 386.1875,3585.125 L381.875,3589.4375 C380.9375,3590.375 379.8125,3590.75 378.5,3590.75 L373.8125,3590.75 C375.3125,3589.0625 376.25,3586.8125 376.25,3584.5625 L376.25,3572 L365,3572 L365,3581.75 C365,3583.0625 364.4375,3584.1875 363.6875,3585.125 L359.375,3589.4375 C358.4375,3590.375 357.3125,3590.75 356,3590.75 L353.75,3590.75 L353.75,3572 L342.5,3572 L342.5,3602 L358.8125,3602 C361.25,3602 363.6875,3601.0625 365.375,3599.1875 L370.625,3593.9375 L370.625,3602 L381.3125,3602 C383.75,3602 386.1875,3601.0625 387.875,3599.1875 L395.9375,3591.125 C397.8125,3589.4375 398.75,3587 398.75,3584.5625 L398.75,3572 L387.5,3572 Z M301.25,3572 L275,3572 L275,3583.25 L282.5,3583.25 L282.5,3602 L293.75,3602 L293.75,3583.25 L301.25,3583.25 L301.25,3572 Z" id="Shape"></path>
        </g>
    </g>
</svg>