<?xml version="1.0" encoding="UTF-8"?>
<svg width="147px" height="30px" viewBox="0 0 147 30" version="1.1" xmlns="http://www.w3.org/2000/svg" xmlns:xlink="http://www.w3.org/1999/xlink">
    <!-- Generator: Sketch 42 (36781) - http://www.bohemiancoding.com/sketch -->
    <title>Combined Shape</title>
    <desc>Created with Sketch.</desc>
    <defs></defs>
    <g id="Page-1" stroke="none" stroke-width="1" fill="none" fill-rule="evenodd">
        <g id="Desktop-HD-Copy-9" transform="translate(-689.000000, -3572.000000)" fill-rule="nonzero" fill="#AE8EE8">
            <path d="M689,3572 L718.359756,3572 L718.359756,3602 L689,3602 L689,3572 L689,3572 Z M766.266185,3580.77594 C767.141615,3581.5145 766.957706,3582.8777 766.996341,3583.91382 C766.945122,3584.89431 766.926829,3586.46382 765.620732,3586.54065 C763.191463,3586.66504 760.75122,3586.55894 758.318293,3586.59187 L758.318293,3586.22996 C758.212182,3586.2309 758.106084,3586.23207 758,3586.23351 L758,3580.27375 C758,3580.27375 763.228049,3580.19326 765.832927,3580.32863 C766.013411,3580.45661 766.155042,3580.60778 766.266185,3580.77594 Z M695.264528,3577.26784 C695.236015,3577.08263 695.207595,3576.89742 695.179268,3576.7122 C693.840244,3576.70854 692.50122,3576.71585 691.162195,3576.70854 C691.201977,3576.89378 691.241635,3577.07905 691.281173,3577.26435 C691.270782,3577.2643 691.260391,3577.26424 691.25,3577.26419 C692.559756,3583.36297 693.734146,3589.49467 694.996341,3595.60443 C695.026355,3595.69971 695.050041,3595.79896 695.070105,3595.90062 C695.084761,3595.99863 695.100446,3596.09632 695.119344,3596.19242 C695.209144,3596.79382 695.263465,3597.42585 695.793902,3597.79223 C697.07439,3597.99711 698.387805,3597.94589 699.679268,3597.85809 C700.381707,3597.88004 700.55,3597.05321 700.678049,3596.52272 C701.559756,3592.17272 702.518293,3587.83736 703.396341,3583.48736 C703.465854,3583.08492 703.590244,3582.69345 703.780488,3582.33126 C704.87439,3586.99955 705.778049,3591.70809 706.795122,3596.39102 C706.934146,3596.88858 706.963415,3597.50321 707.453659,3597.80687 C708.85122,3597.97516 710.285366,3597.9898 711.679268,3597.79589 C712.180488,3597.49955 712.206098,3596.88858 712.334146,3596.3837 C713.62561,3590.01419 714.829268,3583.61906 716.193902,3577.26419 C716.124912,3577.2646 716.055932,3577.26497 715.986964,3577.26531 C716.026542,3577.07969 716.066251,3576.8941 716.106098,3576.70854 C714.873171,3576.71585 713.643902,3576.7122 712.414634,3576.7122 C711.434146,3582.25488 710.647561,3587.83415 709.564634,3593.35854 C708.346341,3588.67195 707.530488,3583.87195 706.469512,3579.14146 C706.228049,3578.33293 706.337805,3577.15488 705.452439,3576.74512 C704.369512,3576.67927 703.279268,3576.67561 702.196341,3576.74512 C701.581707,3576.79634 701.442683,3577.52439 701.321951,3578.00732 C700.341463,3582.69756 699.313415,3587.37683 698.354878,3592.06707 C698.256098,3592.50244 698.109756,3592.91951 697.945122,3593.33293 C697.145697,3588.84247 696.380068,3584.34237 695.665884,3579.83652 C695.531024,3578.98049 695.398047,3578.12425 695.267073,3577.26784 C695.266225,3577.26784 695.265377,3577.26784 695.264528,3577.26784 Z M747.5,3572 L776.859756,3572 L776.859756,3602 L747.5,3602 L747.5,3572 Z M806,3572 L835.72561,3572 L835.72561,3602 L806,3602 L806,3572 Z M725.760976,3576.50823 C730.491463,3576.49726 735.218293,3576.49726 739.945122,3576.50823 C739.963415,3577.73384 739.963415,3578.96311 739.94878,3580.19238 C738.276829,3580.20335 736.604878,3580.19604 734.932927,3580.19604 C734.940244,3584.72896 734.940244,3589.26555 734.932927,3593.79848 C736.604878,3593.79848 738.276829,3593.79116 739.952439,3593.80579 C739.959756,3595.0314 739.963415,3596.26067 739.945122,3597.48628 C735.218293,3597.49726 730.491463,3597.49726 725.764634,3597.48628 C725.746341,3596.25701 725.746341,3595.0314 725.760976,3593.80213 C727.432927,3593.79116 729.104878,3593.79848 730.776829,3593.79848 C730.769512,3589.26555 730.769512,3584.72896 730.776829,3580.19604 C729.104878,3580.19604 727.432927,3580.20335 725.760976,3580.19238 C725.746341,3578.96311 725.746341,3577.7375 725.760976,3576.50823 Z M782.012805,3576.51372 C787.807927,3576.49543 793.603049,3576.49543 799.401829,3576.51372 C799.409146,3578.78933 799.401829,3581.06494 799.405488,3583.34055 L795.640854,3583.34055 C795.637195,3582.29055 795.637195,3581.24421 795.644512,3580.19787 C793.37622,3580.20152 791.111585,3580.20152 788.843293,3580.19787 C788.835976,3581.77104 788.839634,3583.34421 788.839634,3584.91738 L794.327439,3584.91738 L794.327439,3588.4186 L788.839634,3588.4186 C788.846951,3590.21494 788.821341,3592.01494 788.857927,3593.81128 C791.184756,3593.78567 793.511585,3593.80396 795.838415,3593.8003 C795.834756,3592.60396 795.834756,3591.40762 795.838415,3590.21128 C797.115244,3590.19665 798.392073,3590.19665 799.668902,3590.20762 C799.668902,3592.63323 799.687195,3595.05884 799.657927,3597.48445 C793.775,3597.50274 787.895732,3597.50274 782.012805,3597.48445 C781.994512,3596.25884 781.998171,3595.03323 782.009146,3593.80762 C782.942073,3593.79665 783.871341,3593.79665 784.804268,3593.80396 C784.822561,3589.26738 784.822561,3584.73079 784.804268,3580.19421 C783.871341,3580.20152 782.938415,3580.20152 782.005488,3580.18323 C781.998171,3578.96128 781.998171,3577.73567 782.012805,3576.51372 Z M754.25,3577.25163 L754.25,3597.82724 L758.318293,3597.82724 L758.318293,3589.77846 C760.52439,3589.78577 762.730488,3589.76748 764.936585,3589.78211 C765.741463,3589.70528 766.7,3590.27967 766.681707,3591.16504 C766.784146,3593.38943 766.97439,3595.6065 767.113415,3597.82724 C768.404878,3597.82724 769.692683,3597.82724 770.984146,3597.83089 C770.618293,3595.31382 771.068293,3592.7126 770.358537,3590.24675 C769.992683,3588.95528 768.565854,3588.66626 767.453659,3588.34431 C768.280488,3587.90528 769.341463,3587.86504 769.941463,3587.06016 C770.812195,3585.95528 770.87439,3584.48089 770.878049,3583.13455 C770.863415,3581.56138 770.9,3579.83089 769.90122,3578.51016 C769.103659,3577.4126 767.610976,3577.25163 766.359756,3577.25163 C762.32439,3577.24797 758.285366,3577.25163 754.25,3577.25163 Z M812.75,3577.25448 L812.75,3597.83009 C816.170732,3597.82278 819.587805,3597.84473 823.008537,3597.81912 C825.115854,3597.77887 827.570732,3597.38741 828.840244,3595.49961 C830.321951,3593.12887 830.09878,3590.22766 830.358537,3587.55327 C830.095122,3584.87522 830.329268,3581.96302 828.840244,3579.58497 C827.658537,3577.8179 825.397561,3577.35327 823.410976,3577.28009 C819.858537,3577.22156 816.302439,3577.26912 812.75,3577.25448 Z M816.5,3580.2519 C818.706098,3580.26288 820.912195,3580.23727 823.118293,3580.25922 C824.102439,3580.24824 825.22561,3580.72751 825.536585,3581.73727 C826.228049,3583.71288 825.935366,3585.85678 826.012195,3587.91288 C825.953659,3589.55556 826.12561,3591.28971 825.426829,3592.82995 C824.958537,3593.82507 823.747561,3594.08849 822.74878,3594.0702 C820.663415,3594.0702 818.581707,3594.06288 816.5,3594.06654 L816.5,3580.2519 Z" id="Combined-Shape"></path>
        </g>
    </g>
</svg>